<svg width="390" height="135" viewBox="0 0 390 135" fill="none" xmlns="http://www.w3.org/2000/svg">
<path fill-rule="evenodd" clip-rule="evenodd" d="M207.5 39.5833H214.125C217.833 39.5833 219.667 44.0833 217.042 46.7083L197.917 65.8333C196.292 67.4583 193.667 67.4583 192.042 65.8333L172.917 46.7083C170.292 44.0833 172.167 39.5833 175.875 39.5833H182.5V18.75C182.5 16.4583 184.375 14.5833 186.667 14.5833H203.333C205.625 14.5833 207.5 16.4583 207.5 18.75V39.5833ZM170 85.4167C167.708 85.4167 165.833 83.5417 165.833 81.25C165.833 78.9583 167.708 77.0833 170 77.0833H220C222.292 77.0833 224.167 78.9583 224.167 81.25C224.167 83.5417 222.292 85.4167 220 85.4167H170Z" fill="#E7E7E7"/>
<path d="M114.539 123.99V130.08C114.539 131.013 114.632 131.702 114.819 132.145C115.029 132.565 115.379 132.845 115.869 132.985C116.382 133.125 117.187 133.207 118.284 133.23V134C115.414 133.93 113.279 133.895 111.879 133.895C110.712 133.895 109.242 133.918 107.469 133.965L106.349 134V133.3C107.119 133.253 107.679 133.16 108.029 133.02C108.402 132.88 108.647 132.612 108.764 132.215C108.904 131.818 108.974 131.177 108.974 130.29V112.93C108.974 112.043 108.904 111.402 108.764 111.005C108.647 110.608 108.402 110.34 108.029 110.2C107.679 110.06 107.119 109.967 106.349 109.92V109.22C107.539 109.29 109.312 109.325 111.669 109.325L115.554 109.29C116.02 109.267 116.557 109.255 117.164 109.255C120.314 109.255 122.717 109.885 124.374 111.145C126.03 112.382 126.859 114.05 126.859 116.15C126.859 117.433 126.532 118.67 125.879 119.86C125.225 121.027 124.117 122.007 122.554 122.8C121.014 123.593 118.96 123.99 116.394 123.99H114.539ZM116.709 109.92C116.079 109.92 115.612 110.002 115.309 110.165C115.029 110.328 114.83 110.62 114.714 111.04C114.597 111.46 114.539 112.09 114.539 112.93V123.29H116.044C117.934 123.29 119.24 122.683 119.964 121.47C120.687 120.257 121.049 118.612 121.049 116.535C121.049 114.272 120.71 112.603 120.034 111.53C119.38 110.457 118.272 109.92 116.709 109.92ZM136.904 115.415C139.587 115.415 141.687 116.185 143.204 117.725C144.72 119.242 145.479 121.657 145.479 124.97C145.479 128.283 144.72 130.698 143.204 132.215C141.687 133.732 139.587 134.49 136.904 134.49C134.244 134.49 132.144 133.732 130.604 132.215C129.087 130.698 128.329 128.283 128.329 124.97C128.329 121.657 129.087 119.242 130.604 117.725C132.144 116.185 134.244 115.415 136.904 115.415ZM136.904 116.115C135.9 116.115 135.095 116.85 134.489 118.32C133.905 119.767 133.614 121.983 133.614 124.97C133.614 127.957 133.905 130.173 134.489 131.62C135.095 133.067 135.9 133.79 136.904 133.79C137.93 133.79 138.735 133.078 139.319 131.655C139.902 130.208 140.194 127.98 140.194 124.97C140.194 121.96 139.89 119.732 139.284 118.285C138.7 116.838 137.907 116.115 136.904 116.115ZM159.669 115.415C161.559 115.415 163.087 116.197 164.254 117.76C165.42 119.3 166.004 121.54 166.004 124.48C166.004 127.91 165.257 130.442 163.764 132.075C162.27 133.685 160.345 134.49 157.989 134.49C156.379 134.49 155.072 134.082 154.069 133.265C153.229 133.195 152.389 133.288 151.549 133.545C150.709 133.802 150.044 134.14 149.554 134.56L149.029 134.245C149.192 133.662 149.274 133.008 149.274 132.285V110.83C149.274 109.757 149.099 108.975 148.749 108.485C148.422 107.995 147.85 107.75 147.034 107.75V107.015C147.757 107.085 148.48 107.12 149.204 107.12C151.234 107.12 152.937 106.957 154.314 106.63V118.74C154.804 117.667 155.515 116.85 156.449 116.29C157.382 115.707 158.455 115.415 159.669 115.415ZM156.904 133.755C158.187 133.755 159.144 133.032 159.774 131.585C160.404 130.138 160.719 127.933 160.719 124.97C160.719 122.1 160.45 120.047 159.914 118.81C159.377 117.55 158.607 116.92 157.604 116.92C156.857 116.92 156.169 117.2 155.539 117.76C154.932 118.297 154.524 119.032 154.314 119.965V132.81C155.084 133.44 155.947 133.755 156.904 133.755ZM172.722 106.875C173.702 106.875 174.472 107.12 175.032 107.61C175.615 108.077 175.907 108.73 175.907 109.57C175.907 110.41 175.615 111.075 175.032 111.565C174.472 112.032 173.702 112.265 172.722 112.265C171.742 112.265 170.96 112.032 170.377 111.565C169.817 111.075 169.537 110.41 169.537 109.57C169.537 108.73 169.817 108.077 170.377 107.61C170.96 107.12 171.742 106.875 172.722 106.875ZM175.452 130.745C175.452 131.702 175.615 132.367 175.942 132.74C176.292 133.09 176.875 133.265 177.692 133.265V134C175.358 133.907 173.807 133.86 173.037 133.86C172.313 133.86 170.692 133.907 168.172 134V133.265C169.012 133.265 169.595 133.09 169.922 132.74C170.248 132.367 170.412 131.702 170.412 130.745V119.72C170.412 118.647 170.248 117.865 169.922 117.375C169.595 116.885 169.012 116.64 168.172 116.64V115.905C168.918 115.975 169.642 116.01 170.342 116.01C172.418 116.01 174.122 115.847 175.452 115.52V130.745ZM189.502 131.62C191.415 131.62 192.955 130.687 194.122 128.82L194.752 129.03C194.285 130.547 193.445 131.842 192.232 132.915C191.042 133.965 189.548 134.49 187.752 134.49C185.278 134.49 183.307 133.708 181.837 132.145C180.39 130.558 179.667 128.225 179.667 125.145C179.667 121.995 180.448 119.592 182.012 117.935C183.575 116.255 185.652 115.415 188.242 115.415C192.628 115.415 194.822 118.005 194.822 123.185H184.987C184.963 123.535 184.952 124.083 184.952 124.83C184.952 126.37 185.162 127.653 185.582 128.68C186.025 129.707 186.585 130.453 187.262 130.92C187.962 131.387 188.708 131.62 189.502 131.62ZM188.032 116.15C187.192 116.15 186.492 116.675 185.932 117.725C185.395 118.752 185.057 120.35 184.917 122.52H190.412C190.458 120.677 190.272 119.16 189.852 117.97C189.455 116.757 188.848 116.15 188.032 116.15ZM208.683 115.415C209.733 115.415 210.527 115.73 211.063 116.36C211.6 116.99 211.868 117.748 211.868 118.635C211.868 119.498 211.612 120.21 211.098 120.77C210.608 121.307 209.955 121.575 209.138 121.575C208.345 121.575 207.715 121.377 207.248 120.98C206.782 120.56 206.548 120.012 206.548 119.335C206.548 118.215 207.062 117.305 208.088 116.605C207.995 116.582 207.855 116.57 207.668 116.57C207.435 116.57 207.248 116.593 207.108 116.64C206.222 116.78 205.463 117.317 204.833 118.25C204.227 119.183 203.923 120.14 203.923 121.12V130.395C203.923 131.468 204.18 132.215 204.693 132.635C205.23 133.055 206.07 133.265 207.213 133.265V134C206.887 134 206.618 133.988 206.408 133.965C204.028 133.895 202.442 133.86 201.648 133.86C201.018 133.86 199.583 133.895 197.343 133.965C197.157 133.988 196.923 134 196.643 134V133.265C197.483 133.265 198.067 133.09 198.393 132.74C198.72 132.367 198.883 131.702 198.883 130.745V119.72C198.883 118.647 198.72 117.865 198.393 117.375C198.067 116.885 197.483 116.64 196.643 116.64V115.905C197.39 115.975 198.113 116.01 198.813 116.01C200.89 116.01 202.593 115.847 203.923 115.52V118.775C204.367 117.772 205.008 116.967 205.848 116.36C206.688 115.73 207.633 115.415 208.683 115.415ZM218.931 133.475H220.751C222.244 133.475 223.504 132.985 224.531 132.005C225.558 131.002 226.164 129.403 226.351 127.21H227.086C227.086 130.523 227.133 132.833 227.226 134.14C225.336 134.047 223.096 134 220.506 134C218.219 134 215.793 134.058 213.226 134.175L221.976 116.43H220.016C216.679 116.43 214.859 118.518 214.556 122.695H213.821C213.821 119.382 213.774 117.072 213.681 115.765C215.571 115.858 217.811 115.905 220.401 115.905C222.688 115.905 225.114 115.847 227.681 115.73L218.931 133.475ZM250.782 108.73C252.182 108.73 253.372 108.928 254.352 109.325C255.332 109.722 256.289 110.282 257.222 111.005C257.479 111.215 257.701 111.32 257.887 111.32C258.354 111.32 258.657 110.62 258.797 109.22H259.602C259.509 110.807 259.462 113.63 259.462 117.69H258.657C258.447 115.963 258.167 114.645 257.817 113.735C257.467 112.825 256.872 112.032 256.032 111.355C255.449 110.795 254.772 110.375 254.002 110.095C253.232 109.792 252.427 109.64 251.587 109.64C249.231 109.64 247.481 110.795 246.337 113.105C245.194 115.392 244.622 118.25 244.622 121.68C244.622 125.087 245.217 127.933 246.407 130.22C247.597 132.507 249.371 133.65 251.727 133.65C252.521 133.65 253.302 133.51 254.072 133.23C254.866 132.927 255.531 132.495 256.067 131.935C256.931 131.282 257.526 130.465 257.852 129.485C258.202 128.505 258.471 127.07 258.657 125.18H259.462C259.462 129.403 259.509 132.343 259.602 134H258.797C258.727 133.253 258.622 132.728 258.482 132.425C258.366 132.098 258.191 131.935 257.957 131.935C257.771 131.935 257.526 132.028 257.222 132.215C256.172 132.962 255.169 133.533 254.212 133.93C253.256 134.303 252.101 134.49 250.747 134.49C248.274 134.49 246.104 133.988 244.237 132.985C242.394 131.982 240.959 130.535 239.932 128.645C238.906 126.732 238.392 124.457 238.392 121.82C238.392 119.253 238.917 116.978 239.967 114.995C241.017 113.012 242.476 111.472 244.342 110.375C246.232 109.278 248.379 108.73 250.782 108.73ZM282.532 109.325C283.606 109.325 284.492 109.29 285.192 109.22V109.92C284.609 110.13 284.037 110.573 283.477 111.25C282.917 111.927 282.416 112.872 281.972 114.085L274.587 134.07C274.331 134.047 273.922 134.035 273.362 134.035C272.826 134.035 272.429 134.047 272.172 134.07L263.247 112.16C262.944 111.39 262.594 110.83 262.197 110.48C261.801 110.13 261.416 109.943 261.042 109.92V109.22C262.442 109.29 264.216 109.325 266.362 109.325C268.766 109.325 270.539 109.29 271.682 109.22V109.92C270.796 109.967 270.166 110.072 269.792 110.235C269.419 110.398 269.232 110.725 269.232 111.215C269.232 111.612 269.372 112.16 269.652 112.86L275.812 128.54L280.117 116.92C280.771 115.123 281.097 113.7 281.097 112.65C281.097 111.717 280.841 111.04 280.327 110.62C279.837 110.2 279.114 109.967 278.157 109.92V109.22C279.744 109.29 281.202 109.325 282.532 109.325Z" fill="#E7E7E7"/>
</svg>
