<svg width="390" height="131" viewBox="0 0 390 131" fill="none" xmlns="http://www.w3.org/2000/svg">
<path fill-rule="evenodd" clip-rule="evenodd" d="M207.5 39.5833H214.125C217.833 39.5833 219.667 44.0833 217.042 46.7083L197.917 65.8333C196.292 67.4583 193.667 67.4583 192.042 65.8333L172.917 46.7083C170.292 44.0833 172.167 39.5833 175.875 39.5833H182.5V18.75C182.5 16.4583 184.375 14.5833 186.667 14.5833H203.333C205.625 14.5833 207.5 16.4583 207.5 18.75V39.5833ZM170 85.4167C167.708 85.4167 165.833 83.5417 165.833 81.25C165.833 78.9583 167.708 77.0833 170 77.0833H220C222.292 77.0833 224.167 78.9583 224.167 81.25C224.167 83.5417 222.292 85.4167 220 85.4167H170Z" fill="#9F9F9F"/>
<path d="M34.9152 99.22C39.4652 99.22 42.8718 100.258 45.1352 102.335C47.3985 104.388 48.5302 107.387 48.5302 111.33C48.5302 113.873 47.9702 116.102 46.8502 118.015C45.7535 119.905 44.1552 121.375 42.0552 122.425C39.9785 123.475 37.4935 124 34.6002 124L32.4302 123.965C31.0768 123.918 30.0968 123.895 29.4902 123.895C27.0868 123.895 25.2902 123.93 24.1002 124V123.3C24.8702 123.253 25.4302 123.16 25.7802 123.02C26.1535 122.88 26.3985 122.612 26.5152 122.215C26.6552 121.818 26.7252 121.177 26.7252 120.29V102.93C26.7252 102.043 26.6552 101.402 26.5152 101.005C26.3985 100.608 26.1535 100.34 25.7802 100.2C25.4302 100.06 24.8702 99.9667 24.1002 99.92V99.22C25.0802 99.29 26.4918 99.325 28.3352 99.325H29.4202L30.8202 99.29C32.7335 99.2433 34.0985 99.22 34.9152 99.22ZM34.8802 99.85C34.1568 99.85 33.6085 99.9317 33.2352 100.095C32.8852 100.258 32.6402 100.55 32.5002 100.97C32.3602 101.39 32.2902 102.02 32.2902 102.86V120.36C32.2902 121.2 32.3602 121.83 32.5002 122.25C32.6402 122.67 32.8852 122.962 33.2352 123.125C33.6085 123.288 34.1685 123.37 34.9152 123.37C37.7385 123.37 39.7452 122.39 40.9352 120.43C42.1252 118.447 42.7202 115.46 42.7202 111.47C42.7202 107.48 42.1018 104.552 40.8652 102.685C39.6518 100.795 37.6568 99.85 34.8802 99.85ZM59.953 105.415C62.6363 105.415 64.7363 106.185 66.253 107.725C67.7697 109.242 68.528 111.657 68.528 114.97C68.528 118.283 67.7697 120.698 66.253 122.215C64.7363 123.732 62.6363 124.49 59.953 124.49C57.293 124.49 55.193 123.732 53.653 122.215C52.1363 120.698 51.378 118.283 51.378 114.97C51.378 111.657 52.1363 109.242 53.653 107.725C55.193 106.185 57.293 105.415 59.953 105.415ZM59.953 106.115C58.9497 106.115 58.1447 106.85 57.538 108.32C56.9547 109.767 56.663 111.983 56.663 114.97C56.663 117.957 56.9547 120.173 57.538 121.62C58.1447 123.067 58.9497 123.79 59.953 123.79C60.9797 123.79 61.7847 123.078 62.368 121.655C62.9513 120.208 63.243 117.98 63.243 114.97C63.243 111.96 62.9397 109.732 62.333 108.285C61.7497 106.838 60.9563 106.115 59.953 106.115ZM94.3479 106.01C95.5379 106.01 96.4246 105.975 97.0079 105.905V106.605C96.5179 106.745 96.0746 107.037 95.6779 107.48C95.2812 107.923 94.9312 108.635 94.6279 109.615L89.9729 124.07C89.7162 124.047 89.3312 124.035 88.8179 124.035C88.3279 124.035 87.9546 124.047 87.6979 124.07L82.9379 111.085L79.0529 124.07C78.8196 124.047 78.4462 124.035 77.9329 124.035C77.4196 124.035 77.0346 124.047 76.7779 124.07L71.2479 108.6C70.9679 107.783 70.6529 107.258 70.3029 107.025C69.9529 106.768 69.5912 106.64 69.2179 106.64V105.905C70.7346 106.045 72.3912 106.115 74.1879 106.115C75.3546 106.115 76.8712 106.045 78.7379 105.905V106.64C77.9679 106.64 77.4079 106.698 77.0579 106.815C76.7312 106.932 76.5679 107.212 76.5679 107.655C76.5679 107.958 76.6262 108.273 76.7429 108.6L79.8929 118.505L83.7079 105.87L85.0029 105.905L86.2629 105.87L90.8129 119.24L93.0179 112.205C93.3446 111.108 93.5079 110.222 93.5079 109.545C93.5079 107.725 92.5862 106.745 90.7429 106.605V105.905C91.8396 105.975 93.0412 106.01 94.3479 106.01ZM110.872 105.415C112.645 105.415 113.928 105.87 114.722 106.78C115.118 107.223 115.398 107.795 115.562 108.495C115.725 109.195 115.807 110.14 115.807 111.33V120.745C115.807 121.702 115.97 122.367 116.297 122.74C116.647 123.09 117.23 123.265 118.047 123.265V124C115.713 123.907 114.173 123.86 113.427 123.86C112.727 123.86 111.21 123.907 108.877 124V123.265C109.577 123.265 110.067 123.09 110.347 122.74C110.627 122.367 110.767 121.702 110.767 120.745V109.86C110.767 108.903 110.603 108.18 110.277 107.69C109.973 107.2 109.413 106.955 108.597 106.955C107.64 106.955 106.823 107.352 106.147 108.145C105.47 108.915 105.132 109.872 105.132 111.015V120.745C105.132 121.702 105.272 122.367 105.552 122.74C105.832 123.09 106.322 123.265 107.022 123.265V124C104.875 123.907 103.428 123.86 102.682 123.86C101.982 123.86 100.372 123.907 97.8517 124V123.265C98.6917 123.265 99.2751 123.09 99.6017 122.74C99.9284 122.367 100.092 121.702 100.092 120.745V109.72C100.092 108.647 99.9284 107.865 99.6017 107.375C99.2751 106.885 98.6917 106.64 97.8517 106.64V105.905C98.5984 105.975 99.3217 106.01 100.022 106.01C102.098 106.01 103.802 105.847 105.132 105.52V108.67C106.182 106.5 108.095 105.415 110.872 105.415ZM126.491 120.745C126.491 121.702 126.654 122.367 126.981 122.74C127.307 123.09 127.891 123.265 128.731 123.265V124C126.304 123.907 124.741 123.86 124.041 123.86C123.247 123.86 121.637 123.907 119.211 124V123.265C120.027 123.265 120.599 123.09 120.926 122.74C121.276 122.367 121.451 121.702 121.451 120.745V100.795C121.451 99.7217 121.276 98.94 120.926 98.45C120.599 97.96 120.027 97.715 119.211 97.715V96.98C119.957 97.05 120.681 97.085 121.381 97.085C123.411 97.085 125.114 96.9217 126.491 96.595V120.745ZM138.908 105.415C141.591 105.415 143.691 106.185 145.208 107.725C146.725 109.242 147.483 111.657 147.483 114.97C147.483 118.283 146.725 120.698 145.208 122.215C143.691 123.732 141.591 124.49 138.908 124.49C136.248 124.49 134.148 123.732 132.608 122.215C131.091 120.698 130.333 118.283 130.333 114.97C130.333 111.657 131.091 109.242 132.608 107.725C134.148 106.185 136.248 105.415 138.908 105.415ZM138.908 106.115C137.905 106.115 137.1 106.85 136.493 108.32C135.91 109.767 135.618 111.983 135.618 114.97C135.618 117.957 135.91 120.173 136.493 121.62C137.1 123.067 137.905 123.79 138.908 123.79C139.935 123.79 140.74 123.078 141.323 121.655C141.906 120.208 142.198 117.98 142.198 114.97C142.198 111.96 141.895 109.732 141.288 108.285C140.705 106.838 139.911 106.115 138.908 106.115ZM154.288 124.245C152.795 124.245 151.675 123.86 150.928 123.09C150.205 122.32 149.843 121.305 149.843 120.045C149.843 118.995 150.111 118.132 150.648 117.455C151.208 116.755 151.873 116.218 152.643 115.845C153.436 115.472 154.44 115.075 155.653 114.655C156.936 114.212 157.87 113.815 158.453 113.465C159.06 113.092 159.363 112.59 159.363 111.96V109.23C159.363 108.25 159.13 107.492 158.663 106.955C158.22 106.395 157.52 106.115 156.563 106.115C155.443 106.115 154.591 106.395 154.008 106.955C154.661 107.188 155.163 107.538 155.513 108.005C155.886 108.472 156.073 109.02 156.073 109.65C156.073 110.443 155.805 111.073 155.268 111.54C154.731 112.007 154.078 112.24 153.308 112.24C152.491 112.24 151.861 111.983 151.418 111.47C150.975 110.957 150.753 110.315 150.753 109.545C150.753 108.892 150.905 108.343 151.208 107.9C151.535 107.433 152.025 107.002 152.678 106.605C153.308 106.232 154.078 105.94 154.988 105.73C155.921 105.52 156.936 105.415 158.033 105.415C159.176 105.415 160.168 105.532 161.008 105.765C161.848 105.998 162.548 106.395 163.108 106.955C163.621 107.468 163.96 108.098 164.123 108.845C164.31 109.592 164.403 110.607 164.403 111.89V121.41C164.403 121.97 164.45 122.367 164.543 122.6C164.66 122.833 164.87 122.95 165.173 122.95C165.523 122.95 165.943 122.752 166.433 122.355L166.783 122.95C165.733 123.813 164.45 124.245 162.933 124.245C161.65 124.245 160.751 123.988 160.238 123.475C159.725 122.962 159.456 122.273 159.433 121.41C158.266 123.3 156.551 124.245 154.288 124.245ZM156.983 122.005C157.893 122.005 158.686 121.527 159.363 120.57V113.395C159.083 113.862 158.488 114.375 157.578 114.935C156.668 115.518 155.98 116.102 155.513 116.685C155.046 117.268 154.813 118.108 154.813 119.205C154.813 120.162 155.011 120.873 155.408 121.34C155.805 121.783 156.33 122.005 156.983 122.005ZM185.003 120.15C185.003 121.223 185.167 122.005 185.493 122.495C185.82 122.985 186.403 123.23 187.243 123.23V123.965C186.52 123.895 185.797 123.86 185.073 123.86C182.997 123.86 181.293 124.023 179.963 124.35V121.34C179.17 123.44 177.653 124.49 175.413 124.49C173.22 124.49 171.47 123.697 170.163 122.11C168.88 120.5 168.25 118.085 168.273 114.865C168.273 112.812 168.6 111.085 169.253 109.685C169.93 108.262 170.852 107.2 172.018 106.5C173.208 105.777 174.562 105.415 176.078 105.415C177.782 105.415 179.077 105.858 179.963 106.745V100.795C179.963 99.7217 179.788 98.94 179.438 98.45C179.112 97.96 178.54 97.715 177.723 97.715V96.98C178.47 97.05 179.193 97.085 179.893 97.085C181.923 97.085 183.627 96.9217 185.003 96.595V120.15ZM176.848 122.985C177.618 122.985 178.295 122.705 178.878 122.145C179.485 121.585 179.847 120.827 179.963 119.87V107.62C179.38 106.827 178.528 106.43 177.408 106.43C176.172 106.43 175.215 107.142 174.538 108.565C173.862 109.988 173.535 112.112 173.558 114.935C173.535 117.782 173.803 119.835 174.363 121.095C174.947 122.355 175.775 122.985 176.848 122.985ZM227.32 99.92C226.527 99.9667 225.955 100.06 225.605 100.2C225.255 100.34 225.01 100.608 224.87 101.005C224.754 101.402 224.695 102.043 224.695 102.93V120.29C224.695 121.177 224.754 121.818 224.87 122.215C225.01 122.612 225.255 122.88 225.605 123.02C225.979 123.16 226.55 123.253 227.32 123.3V124C226.037 123.93 224.205 123.895 221.825 123.895C219.329 123.895 217.485 123.93 216.295 124V123.3C217.135 123.253 217.742 123.16 218.115 123.02C218.512 122.88 218.78 122.612 218.92 122.215C219.06 121.818 219.13 121.177 219.13 120.29V101.985L210.695 124.035H210.135L200.685 101.495V118.26C200.685 119.637 200.755 120.652 200.895 121.305C201.035 121.935 201.339 122.402 201.805 122.705C202.272 122.985 203.03 123.183 204.08 123.3V124C203.17 123.93 201.91 123.895 200.3 123.895C199.017 123.895 198.002 123.93 197.255 124V123.3C198.025 123.183 198.585 122.985 198.935 122.705C199.309 122.425 199.554 121.982 199.67 121.375C199.81 120.768 199.88 119.87 199.88 118.68V102.93C199.88 102.043 199.81 101.402 199.67 101.005C199.554 100.608 199.309 100.34 198.935 100.2C198.585 100.06 198.025 99.9667 197.255 99.92V99.22C198.002 99.29 199.017 99.325 200.3 99.325C202.447 99.325 204.29 99.29 205.83 99.22L212.9 116.265L219.34 99.325H221.825C224.205 99.325 226.037 99.29 227.32 99.22V99.92ZM243.18 106.01C244.347 106.01 245.245 105.975 245.875 105.905V106.605C245.385 106.745 244.942 107.048 244.545 107.515C244.172 107.958 243.81 108.658 243.46 109.615L237.195 127.22C236.728 128.433 236.215 129.262 235.655 129.705C234.978 130.288 233.963 130.58 232.61 130.58C231.63 130.58 230.743 130.335 229.95 129.845C229.18 129.378 228.795 128.69 228.795 127.78C228.795 127.057 229.052 126.473 229.565 126.03C230.078 125.61 230.755 125.4 231.595 125.4C232.388 125.4 233.018 125.587 233.485 125.96C233.975 126.357 234.22 126.905 234.22 127.605C234.22 128.095 234.068 128.538 233.765 128.935C233.462 129.355 233.03 129.67 232.47 129.88C232.633 129.903 232.902 129.915 233.275 129.915C234.722 129.915 235.783 128.993 236.46 127.15L237.02 125.47L229.6 108.6C229.227 107.807 228.865 107.282 228.515 107.025C228.165 106.768 227.803 106.64 227.43 106.64V105.905C228.97 106.045 230.568 106.115 232.225 106.115C233.602 106.115 235.223 106.045 237.09 105.905V106.64C236.343 106.64 235.783 106.698 235.41 106.815C235.06 106.908 234.885 107.177 234.885 107.62C234.885 107.877 234.967 108.203 235.13 108.6L239.4 118.925L241.815 112.205C242.188 111.108 242.375 110.175 242.375 109.405C242.375 107.702 241.512 106.768 239.785 106.605V105.905C240.882 105.975 242.013 106.01 243.18 106.01ZM278.167 122.46C277.537 123.183 276.86 123.697 276.137 124C275.414 124.327 274.539 124.49 273.512 124.49C272.159 124.49 271.085 124.21 270.292 123.65C269.522 123.067 269.02 122.087 268.787 120.71L268.157 117.21C267.854 115.507 267.48 114.258 267.037 113.465C266.617 112.648 265.905 112.24 264.902 112.24H262.627V120.29C262.627 121.177 262.685 121.818 262.802 122.215C262.942 122.612 263.187 122.88 263.537 123.02C263.887 123.16 264.459 123.253 265.252 123.3V124C263.992 123.93 262.23 123.895 259.967 123.895C257.47 123.895 255.627 123.93 254.437 124V123.3C255.207 123.253 255.767 123.16 256.117 123.02C256.49 122.88 256.735 122.612 256.852 122.215C256.992 121.818 257.062 121.177 257.062 120.29V102.93C257.062 102.043 256.992 101.402 256.852 101.005C256.735 100.608 256.49 100.34 256.117 100.2C255.767 100.06 255.207 99.9667 254.437 99.92V99.22C255.627 99.29 257.4 99.325 259.757 99.325L263.642 99.29C264.109 99.2667 264.645 99.255 265.252 99.255C268.472 99.255 270.887 99.78 272.497 100.83C274.13 101.88 274.947 103.385 274.947 105.345C274.947 107.002 274.34 108.46 273.127 109.72C271.914 110.98 269.907 111.773 267.107 112.1C269.207 112.287 270.77 112.742 271.797 113.465C272.824 114.188 273.489 115.273 273.792 116.72L274.597 120.325C274.784 121.258 274.994 121.912 275.227 122.285C275.484 122.658 275.834 122.845 276.277 122.845C276.557 122.822 276.79 122.752 276.977 122.635C277.187 122.518 277.42 122.32 277.677 122.04L278.167 122.46ZM264.797 99.92C264.167 99.92 263.7 100.002 263.397 100.165C263.117 100.328 262.919 100.62 262.802 101.04C262.685 101.46 262.627 102.09 262.627 102.93V111.54H264.132C266.045 111.54 267.352 111.038 268.052 110.035C268.775 109.008 269.137 107.573 269.137 105.73C269.137 103.817 268.799 102.37 268.122 101.39C267.445 100.41 266.337 99.92 264.797 99.92ZM288.61 121.62C290.524 121.62 292.064 120.687 293.23 118.82L293.86 119.03C293.394 120.547 292.554 121.842 291.34 122.915C290.15 123.965 288.657 124.49 286.86 124.49C284.387 124.49 282.415 123.708 280.945 122.145C279.499 120.558 278.775 118.225 278.775 115.145C278.775 111.995 279.557 109.592 281.12 107.935C282.684 106.255 284.76 105.415 287.35 105.415C291.737 105.415 293.93 108.005 293.93 113.185H284.095C284.072 113.535 284.06 114.083 284.06 114.83C284.06 116.37 284.27 117.653 284.69 118.68C285.134 119.707 285.694 120.453 286.37 120.92C287.07 121.387 287.817 121.62 288.61 121.62ZM287.14 106.15C286.3 106.15 285.6 106.675 285.04 107.725C284.504 108.752 284.165 110.35 284.025 112.52H289.52C289.567 110.677 289.38 109.16 288.96 107.97C288.564 106.757 287.957 106.15 287.14 106.15ZM302.887 105.415C303.774 105.415 304.591 105.532 305.337 105.765C306.084 105.975 306.656 106.22 307.052 106.5C307.286 106.663 307.496 106.745 307.682 106.745C307.892 106.745 308.067 106.64 308.207 106.43C308.371 106.197 308.476 105.87 308.522 105.45H309.257C309.164 106.64 309.117 108.693 309.117 111.61H308.382C308.172 110.07 307.706 108.787 306.982 107.76C306.282 106.71 305.256 106.185 303.902 106.185C303.202 106.185 302.619 106.383 302.152 106.78C301.709 107.177 301.487 107.725 301.487 108.425C301.487 109.218 301.756 109.907 302.292 110.49C302.829 111.05 303.669 111.738 304.812 112.555L305.827 113.29C307.251 114.363 308.301 115.32 308.977 116.16C309.654 117 309.992 118.05 309.992 119.31C309.992 120.337 309.689 121.247 309.082 122.04C308.499 122.833 307.706 123.44 306.702 123.86C305.699 124.28 304.591 124.49 303.377 124.49C302.094 124.49 300.997 124.245 300.087 123.755C299.341 123.382 298.804 123.137 298.477 123.02C298.244 122.95 298.034 123.032 297.847 123.265C297.684 123.475 297.556 123.802 297.462 124.245H296.727C296.821 122.915 296.867 120.582 296.867 117.245H297.602C298.069 121.538 299.644 123.685 302.327 123.685C303.004 123.685 303.576 123.487 304.042 123.09C304.532 122.67 304.777 122.04 304.777 121.2C304.777 120.547 304.626 119.963 304.322 119.45C304.042 118.937 303.681 118.482 303.237 118.085C302.794 117.688 302.129 117.14 301.242 116.44C300.192 115.6 299.387 114.923 298.827 114.41C298.291 113.897 297.824 113.29 297.427 112.59C297.054 111.89 296.867 111.108 296.867 110.245C296.867 108.752 297.451 107.573 298.617 106.71C299.784 105.847 301.207 105.415 302.887 105.415ZM329.554 120.185C329.554 121.258 329.718 122.04 330.044 122.53C330.394 123.02 330.978 123.265 331.794 123.265V124C331.071 123.93 330.348 123.895 329.624 123.895C327.594 123.895 325.891 124.058 324.514 124.385V121.235C323.441 123.405 321.563 124.49 318.879 124.49C317.129 124.49 315.858 124.035 315.064 123.125C314.691 122.682 314.411 122.11 314.224 121.41C314.061 120.687 313.979 119.742 313.979 118.575V109.72C313.979 108.647 313.804 107.865 313.454 107.375C313.128 106.885 312.556 106.64 311.739 106.64V105.905C312.463 105.975 313.186 106.01 313.909 106.01C315.939 106.01 317.643 105.847 319.019 105.52V120.01C319.019 120.99 319.159 121.725 319.439 122.215C319.743 122.705 320.303 122.95 321.119 122.95C322.053 122.95 322.846 122.565 323.499 121.795C324.176 121.002 324.514 120.033 324.514 118.89V109.72C324.514 108.647 324.339 107.865 323.989 107.375C323.663 106.885 323.091 106.64 322.274 106.64V105.905C323.021 105.975 323.744 106.01 324.444 106.01C326.474 106.01 328.178 105.847 329.554 105.52V120.185ZM361.49 120.745C361.49 121.702 361.653 122.367 361.98 122.74C362.33 123.09 362.913 123.265 363.73 123.265V124C361.396 123.907 359.856 123.86 359.11 123.86C358.456 123.86 357.01 123.907 354.77 124V123.265C355.4 123.265 355.831 123.09 356.065 122.74C356.321 122.39 356.45 121.725 356.45 120.745V109.86C356.45 108.88 356.298 108.157 355.995 107.69C355.715 107.2 355.166 106.955 354.35 106.955C353.486 106.955 352.728 107.317 352.075 108.04C351.445 108.763 351.071 109.65 350.955 110.7V111.33V120.745C350.955 121.702 351.095 122.367 351.375 122.74C351.678 123.09 352.215 123.265 352.985 123.265V124C350.745 123.907 349.275 123.86 348.575 123.86C347.921 123.86 346.475 123.907 344.235 124V123.265C344.865 123.265 345.296 123.09 345.53 122.74C345.786 122.367 345.915 121.702 345.915 120.745V109.86C345.915 108.88 345.786 108.157 345.53 107.69C345.273 107.2 344.771 106.955 344.025 106.955C343.091 106.955 342.286 107.352 341.61 108.145C340.956 108.915 340.63 109.872 340.63 111.015V120.745C340.63 121.702 340.746 122.367 340.98 122.74C341.236 123.09 341.68 123.265 342.31 123.265V124C340.256 123.907 338.88 123.86 338.18 123.86C337.48 123.86 335.87 123.907 333.35 124V123.265C334.19 123.265 334.773 123.09 335.1 122.74C335.426 122.367 335.59 121.702 335.59 120.745V109.72C335.59 108.647 335.426 107.865 335.1 107.375C334.773 106.885 334.19 106.64 333.35 106.64V105.905C334.096 105.975 334.82 106.01 335.52 106.01C337.596 106.01 339.3 105.847 340.63 105.52V108.67C341.656 106.5 343.465 105.415 346.055 105.415C347.828 105.415 349.111 105.87 349.905 106.78C350.348 107.247 350.64 107.947 350.78 108.88C351.386 107.62 352.18 106.733 353.16 106.22C354.14 105.683 355.283 105.415 356.59 105.415C358.363 105.415 359.646 105.87 360.44 106.78C360.813 107.2 361.081 107.772 361.245 108.495C361.408 109.218 361.49 110.163 361.49 111.33V120.745ZM375.324 121.62C377.238 121.62 378.778 120.687 379.944 118.82L380.574 119.03C380.108 120.547 379.268 121.842 378.054 122.915C376.864 123.965 375.371 124.49 373.574 124.49C371.101 124.49 369.129 123.708 367.659 122.145C366.213 120.558 365.489 118.225 365.489 115.145C365.489 111.995 366.271 109.592 367.834 107.935C369.398 106.255 371.474 105.415 374.064 105.415C378.451 105.415 380.644 108.005 380.644 113.185H370.809C370.786 113.535 370.774 114.083 370.774 114.83C370.774 116.37 370.984 117.653 371.404 118.68C371.848 119.707 372.408 120.453 373.084 120.92C373.784 121.387 374.531 121.62 375.324 121.62ZM373.854 106.15C373.014 106.15 372.314 106.675 371.754 107.725C371.218 108.752 370.879 110.35 370.739 112.52H376.234C376.281 110.677 376.094 109.16 375.674 107.97C375.278 106.757 374.671 106.15 373.854 106.15Z" fill="#9F9F9F"/>
</svg>
