<svg width="743" height="184" viewBox="0 0 743 184" fill="none" xmlns="http://www.w3.org/2000/svg">
<path d="M97.2647 65.8616L106.289 78.4542C108.514 75.6487 110.529 73.1692 112.288 71.0949L109.752 67.5561C107.435 68.4108 102.984 67.5942 97.2647 65.8616Z" fill="#BA11C9"/>
<path fill-rule="evenodd" clip-rule="evenodd" d="M126.544 64.2241C129.316 67.8384 126.918 77.145 118.776 80.1487C116.46 81.0033 112.008 80.1868 106.289 78.4542C108.514 75.6487 110.529 73.1692 112.288 71.0949L109.752 67.5561C117.342 64.756 119.94 56.4784 118.012 52.4412C117.912 52.2333 117.801 52.0366 117.678 51.8526L126.544 64.2241ZM6.7165 170.979L14.7948 182.251C18.0094 191.261 42.286 161.903 66.7127 130.206C100.626 151.017 147.964 164.921 147.964 164.921L138.94 152.328C138.94 152.328 101.851 144.821 70.4825 125.299C75.4232 118.848 80.3259 112.377 85.0167 106.185C93.0095 95.6354 100.387 85.8977 106.289 78.4542C106.289 78.4542 77.0451 101.832 58.3067 116.811C56.31 118.407 53.1939 120.898 53.1939 120.898C53.5974 121.215 54.0053 121.53 54.4173 121.845C37.6767 143.424 21.4478 163.14 12.5077 169.317C9.90239 171.117 7.9161 171.767 6.7165 170.979ZM6.7165 170.979C6.30736 170.71 5.98973 170.273 5.77026 169.658L6.7165 170.979Z" fill="#BA11C9"/>
<path fill-rule="evenodd" clip-rule="evenodd" d="M109.752 67.5561C117.342 64.756 119.94 56.4784 118.012 52.4412C117.912 52.2333 117.801 52.0366 117.678 51.8526L126.544 64.2241C125.181 62.4475 122.569 62.0463 118.776 64.4451C117.483 65.2629 115.247 67.6054 112.288 71.0949L109.752 67.5561Z" fill="#BA11C9"/>
<path d="M14.7948 46.3452C13.7626 46.6784 12.9003 50.3496 12.2111 56.2962C13.8048 62.9768 16.2148 70.6815 20.2207 78.7332L22.9958 75.4585C20.6929 67.8661 19.5551 61.1496 18.6961 56.0789C17.9023 51.3926 17.3469 48.1125 16.3296 46.8457C15.912 46.3256 15.4164 46.1445 14.7948 46.3452Z" fill="#BA11C9"/>
<path d="M12.2111 56.2962C12.9003 50.3496 13.7626 46.6784 14.7948 46.3452C15.4164 46.1445 15.912 46.3256 16.3296 46.8457L7.70908 34.9882C8.83445 37.2756 9.28721 44.0392 12.2111 56.2962Z" fill="#BA11C9"/>
<path d="M58.3067 116.811L106.289 78.4542C102.558 77.0584 94.312 80.7837 85.3932 81.2075C82.4073 85.1253 79.262 89.2767 76.015 93.5625L75.9921 93.5926C70.3053 101.099 64.3066 109.016 58.3067 116.811Z" fill="#BA11C9"/>
<path d="M106.289 78.4542L97.2647 65.8616C95.4657 68.1305 93.5294 70.6125 91.4805 73.2658C89.5452 75.7721 87.5092 78.4311 85.3932 81.2075C94.312 80.7837 102.558 77.0584 106.289 78.4542Z" fill="#BA11C9"/>
<path d="M138.716 151.783C138.716 151.783 85.0809 139.251 57.0278 118.028" stroke="#133085" stroke-width="1.27894"/>
<path d="M109.831 67.8635C121.974 63.3833 121.34 44.8809 109.831 52.16C107.769 53.4639 103.31 58.644 97.3435 66.169C103.063 67.9016 107.514 68.7182 109.831 67.8635Z" fill="#133085" stroke="white" stroke-width="1.27894"/>
<path d="M20.2205 78.9348C20.2862 68.7723 18.9154 67.9649 22.2672 52.4409C25.6189 36.9169 41.9107 52.441 60.7856 64.6625C74.0974 74.7954 91.4166 64.0904 97.3435 66.3075L22.2672 126.322C22.2672 126.322 20.0752 101.425 20.2205 78.9348Z" fill="#1140C9"/>
<path d="M97.3435 66.3075L22.2672 126.322C22.2672 126.322 20.0752 101.425 20.2205 78.9348C20.2862 68.7723 18.9154 67.9649 22.2672 52.4409C25.6189 36.9169 41.9107 52.441 60.7856 64.6625C74.0974 74.7954 91.4166 64.0904 97.3435 66.3075ZM97.3435 66.3075C107.573 70.1344 89.6082 63.9641 97.3435 66.3075Z" stroke="white" stroke-width="1.27894"/>
<path d="M5.84918 169.902C-0.413809 152.348 -0.194959 35.9481 5.84918 33.9967C10.6827 32.4362 7.88544 53.9399 20.2206 78.733C20.0753 101.223 22.2673 126.121 22.2673 126.121L44.2483 108.549L97.3436 66.1057C87.0979 79.0272 72.4055 98.8626 57.7671 117.858C33.3403 149.555 9.06382 178.912 5.84918 169.902Z" fill="#133085" stroke="white" stroke-width="1.27894"/>
<path d="M208.554 53.1014V105.901H202.474V72.7014L203.194 58.7814H203.114L185.754 105.901H180.314L162.954 58.7814H162.874L163.594 72.7014V105.901H157.514V53.1014H167.354L178.954 85.1814L182.954 98.3814H183.114L187.194 85.2614L198.714 53.1014H208.554ZM247.487 80.0614C247.487 77.0747 246.687 74.7814 245.087 73.1814C243.487 71.528 241.22 70.7014 238.287 70.7014C235.513 70.7014 233.167 71.3147 231.247 72.5414C229.327 73.7147 227.913 75.6347 227.007 78.3014L221.807 75.1014C222.873 72.1147 224.847 69.7147 227.727 67.9014C230.607 66.0347 234.18 65.1014 238.447 65.1014C241.327 65.1014 243.94 65.608 246.287 66.6214C248.633 67.5814 250.473 69.0747 251.807 71.1014C253.193 73.0747 253.887 75.6347 253.887 78.7814V98.1414C253.887 100.061 254.9 101.021 256.927 101.021C257.94 101.021 258.927 100.888 259.887 100.621L259.567 105.661C258.5 106.195 257.113 106.461 255.407 106.461C253.433 106.461 251.727 105.981 250.287 105.021C248.9 104.061 247.993 102.595 247.567 100.621C246.18 102.701 244.287 104.248 241.887 105.261C239.487 106.221 237.113 106.701 234.767 106.701C232.42 106.701 230.233 106.301 228.207 105.501C226.18 104.701 224.553 103.501 223.327 101.901C222.153 100.248 221.567 98.2214 221.567 95.8214C221.567 92.8347 222.553 90.3814 224.527 88.4614C226.553 86.488 229.353 85.1547 232.927 84.4614L247.487 81.5814V80.0614ZM228.127 95.5014C228.127 97.1547 228.767 98.5147 230.047 99.5814C231.38 100.595 233.247 101.101 235.647 101.101C237.727 101.101 239.647 100.755 241.407 100.061C243.22 99.3147 244.687 98.2214 245.807 96.7814C246.927 95.288 247.487 93.3947 247.487 91.1014V86.8614L235.887 89.2614C233.273 89.7947 231.327 90.5414 230.047 91.5014C228.767 92.4614 228.127 93.7947 228.127 95.5014ZM291.877 65.9014V71.4214H277.317V94.8614C277.317 96.8347 277.877 98.3014 278.997 99.2614C280.117 100.221 281.557 100.701 283.317 100.701C284.863 100.701 286.197 100.435 287.317 99.9014C288.437 99.368 289.45 98.648 290.357 97.7414L292.597 103.101C291.37 104.221 289.903 105.101 288.197 105.741C286.543 106.381 284.623 106.701 282.437 106.701C280.41 106.701 278.517 106.355 276.757 105.661C274.997 104.915 273.583 103.768 272.517 102.221C271.503 100.621 270.97 98.5414 270.917 95.9814V71.4214H262.917V65.9014H270.917V56.3014L277.317 54.5414V65.9014H291.877ZM318.112 106.701C314.326 106.701 310.939 105.875 307.952 104.221C305.019 102.568 302.726 100.195 301.072 97.1014C299.419 93.9547 298.592 90.2214 298.592 85.9014C298.592 81.5814 299.419 77.8747 301.072 74.7814C302.726 71.6347 304.992 69.2347 307.872 67.5814C310.752 65.928 314.032 65.1014 317.712 65.1014C321.446 65.1014 324.619 65.9014 327.232 67.5014C329.899 69.1014 331.926 71.288 333.312 74.0614C334.699 76.7814 335.392 79.848 335.392 83.2614C335.392 84.168 335.366 84.9947 335.312 85.7414C335.259 86.488 335.179 87.1547 335.072 87.7414H304.912C305.232 91.9547 306.539 95.2347 308.832 97.5814C311.126 99.928 314.166 101.101 317.952 101.101C320.886 101.101 323.259 100.541 325.072 99.4214C326.939 98.3014 328.432 96.7814 329.552 94.8614L334.592 97.8214C333.099 100.541 330.939 102.701 328.112 104.301C325.339 105.901 322.006 106.701 318.112 106.701ZM317.552 70.7014C314.192 70.7014 311.419 71.7147 309.232 73.7414C307.099 75.7147 305.739 78.488 305.152 82.0614H328.992C328.832 78.4347 327.712 75.6347 325.632 73.6614C323.552 71.688 320.859 70.7014 317.552 70.7014ZM362.044 106.701C359.484 106.701 357.058 106.221 354.764 105.261C352.524 104.301 350.684 102.755 349.244 100.621C347.858 98.4347 347.164 95.608 347.164 92.1414V65.9014H353.564V90.4614C353.564 94.5147 354.444 97.3147 356.204 98.8614C357.964 100.355 360.444 101.101 363.644 101.101C365.671 101.101 367.591 100.648 369.404 99.7414C371.218 98.7814 372.711 97.3147 373.884 95.3414C375.058 93.368 375.644 90.808 375.644 87.6614V65.9014H382.044V105.901H376.444L376.044 99.8214C374.658 102.221 372.764 103.981 370.364 105.101C368.018 106.168 365.244 106.701 362.044 106.701ZM411.339 106.701C407.446 106.701 403.846 105.875 400.539 104.221C397.286 102.568 394.779 100.221 393.019 97.1814L398.459 93.2614C399.633 95.7147 401.339 97.6347 403.579 99.0214C405.873 100.408 408.619 101.101 411.819 101.101C414.646 101.101 416.859 100.568 418.459 99.5014C420.059 98.3814 420.859 96.9414 420.859 95.1814C420.859 94.0614 420.486 93.048 419.739 92.1414C419.046 91.1814 417.686 90.488 415.659 90.0614L406.059 88.0614C402.166 87.2614 399.366 85.928 397.659 84.0614C396.006 82.1947 395.179 79.8747 395.179 77.1014C395.179 74.9147 395.793 72.9147 397.019 71.1014C398.299 69.288 400.086 67.848 402.379 66.7814C404.726 65.6614 407.473 65.1014 410.619 65.1014C414.566 65.1014 417.899 65.8747 420.619 67.4214C423.339 68.968 425.366 71.1547 426.699 73.9814L421.339 77.5014C420.433 75.1547 418.966 73.448 416.939 72.3814C414.913 71.2614 412.806 70.7014 410.619 70.7014C407.739 70.7014 405.499 71.288 403.899 72.4614C402.299 73.6347 401.499 75.1014 401.499 76.8614C401.499 78.0347 401.899 79.128 402.699 80.1414C403.499 81.1014 404.993 81.7947 407.179 82.2214L417.179 84.3014C420.913 85.048 423.526 86.2747 425.019 87.9814C426.513 89.688 427.259 91.768 427.259 94.2214C427.259 98.008 425.793 101.048 422.859 103.341C419.926 105.581 416.086 106.701 411.339 106.701ZM436.247 105.901V101.021L457.207 76.4614L462.247 71.2614L455.127 71.4214H436.487V65.9014H469.367V70.7814L448.407 95.3414L443.447 100.541L451.207 100.381H470.007V105.901H436.247ZM547.687 99.9014V105.901H506.167V100.221L539.047 59.1014H506.967V53.1014H546.647V58.7814L513.767 99.9014H547.687ZM582.877 80.0614C582.877 77.0747 582.077 74.7814 580.477 73.1814C578.877 71.528 576.611 70.7014 573.677 70.7014C570.904 70.7014 568.557 71.3147 566.637 72.5414C564.717 73.7147 563.304 75.6347 562.397 78.3014L557.197 75.1014C558.264 72.1147 560.237 69.7147 563.117 67.9014C565.997 66.0347 569.571 65.1014 573.837 65.1014C576.717 65.1014 579.331 65.608 581.677 66.6214C584.024 67.5814 585.864 69.0747 587.197 71.1014C588.584 73.0747 589.277 75.6347 589.277 78.7814V98.1414C589.277 100.061 590.291 101.021 592.317 101.021C593.331 101.021 594.317 100.888 595.277 100.621L594.957 105.661C593.891 106.195 592.504 106.461 590.797 106.461C588.824 106.461 587.117 105.981 585.677 105.021C584.291 104.061 583.384 102.595 582.957 100.621C581.571 102.701 579.677 104.248 577.277 105.261C574.877 106.221 572.504 106.701 570.157 106.701C567.811 106.701 565.624 106.301 563.597 105.501C561.571 104.701 559.944 103.501 558.717 101.901C557.544 100.248 556.957 98.2214 556.957 95.8214C556.957 92.8347 557.944 90.3814 559.917 88.4614C561.944 86.488 564.744 85.1547 568.317 84.4614L582.877 81.5814V80.0614ZM563.517 95.5014C563.517 97.1547 564.157 98.5147 565.437 99.5814C566.771 100.595 568.637 101.101 571.037 101.101C573.117 101.101 575.037 100.755 576.797 100.061C578.611 99.3147 580.077 98.2214 581.197 96.7814C582.317 95.288 582.877 93.3947 582.877 91.1014V86.8614L571.277 89.2614C568.664 89.7947 566.717 90.5414 565.437 91.5014C564.157 92.4614 563.517 93.7947 563.517 95.5014ZM604.83 105.901V65.9014H610.43L610.83 72.1414C612.217 69.6347 614.11 67.848 616.51 66.7814C618.91 65.6614 621.497 65.1014 624.27 65.1014C627.15 65.1014 629.763 65.6614 632.11 66.7814C634.457 67.848 636.323 69.5014 637.71 71.7414C639.15 73.9814 639.87 76.8347 639.87 80.3014V105.901H633.47V82.5414C633.47 78.1147 632.51 75.048 630.59 73.3414C628.723 71.5814 626.403 70.7014 623.63 70.7014C621.71 70.7014 619.79 71.1547 617.87 72.0614C615.95 72.968 614.35 74.4347 613.07 76.4614C611.843 78.488 611.23 81.208 611.23 84.6214V105.901H604.83ZM624.99 45.9014H631.95L624.11 59.2614H618.91L624.99 45.9014ZM689.481 65.9014L673.881 81.5014L690.441 105.901H682.681L669.241 86.1414L660.761 94.6214V105.901H654.361V47.5014H660.761V86.6214L681.401 65.9014H689.481ZM714.906 65.1014C718.692 65.1014 722.026 65.928 724.906 67.5814C727.839 69.2347 730.132 71.6347 731.786 74.7814C733.439 77.8747 734.266 81.5814 734.266 85.9014C734.266 90.2214 733.439 93.9547 731.786 97.1014C730.132 100.195 727.839 102.568 724.906 104.221C722.026 105.875 718.692 106.701 714.906 106.701C711.172 106.701 707.839 105.875 704.906 104.221C701.972 102.568 699.679 100.195 698.026 97.1014C696.372 93.9547 695.546 90.2214 695.546 85.9014C695.546 81.5814 696.372 77.8747 698.026 74.7814C699.679 71.6347 701.972 69.2347 704.906 67.5814C707.839 65.928 711.172 65.1014 714.906 65.1014ZM714.906 70.6214C710.852 70.6214 707.679 71.9814 705.386 74.7014C703.092 77.4214 701.946 81.1547 701.946 85.9014C701.946 90.648 703.092 94.3814 705.386 97.1014C707.679 99.8214 710.852 101.181 714.906 101.181C718.959 101.181 722.132 99.8214 724.426 97.1014C726.719 94.3814 727.866 90.648 727.866 85.9014C727.866 81.1547 726.719 77.4214 724.426 74.7014C722.132 71.9814 718.959 70.6214 714.906 70.6214Z" fill="#E5E5E5"/>
<path d="M407.745 138.901V159.601C407.745 163.835 406.628 167.035 404.395 169.201C402.162 171.335 398.962 172.401 394.795 172.401C390.662 172.401 387.462 171.335 385.195 169.201C382.962 167.035 381.845 163.835 381.845 159.601V138.901H385.845V158.601C385.845 162.035 386.562 164.568 387.995 166.201C389.462 167.835 391.728 168.651 394.795 168.651C397.862 168.651 400.112 167.835 401.545 166.201C403.012 164.568 403.745 162.035 403.745 158.601V138.901H407.745ZM440.945 171.901H436.345L427.395 158.301L418.395 171.901H413.745L425.295 155.101L414.745 138.901H419.445L427.795 151.751L436.245 138.901H440.595L429.895 154.901L440.945 171.901ZM462.975 135.401L447.675 175.401H443.925L459.225 135.401H462.975ZM495.001 138.901V159.601C495.001 163.835 493.884 167.035 491.651 169.201C489.417 171.335 486.217 172.401 482.051 172.401C477.917 172.401 474.717 171.335 472.451 169.201C470.217 167.035 469.101 163.835 469.101 159.601V138.901H473.101V158.601C473.101 162.035 473.817 164.568 475.251 166.201C476.717 167.835 478.984 168.651 482.051 168.651C485.117 168.651 487.367 167.835 488.801 166.201C490.267 164.568 491.001 162.035 491.001 158.601V138.901H495.001ZM509.151 138.901V171.901H505.151V138.901H509.151ZM547.637 138.901C552.804 138.901 556.854 140.335 559.787 143.201C562.754 146.035 564.237 150.101 564.237 155.401C564.237 160.701 562.754 164.785 559.787 167.651C556.854 170.485 552.804 171.901 547.637 171.901H536.987V138.901H547.637ZM548.037 168.151C551.804 168.151 554.737 167.035 556.837 164.801C558.97 162.535 560.037 159.401 560.037 155.401C560.037 151.401 558.97 148.285 556.837 146.051C554.737 143.785 551.804 142.651 548.037 142.651H540.987V168.151H548.037ZM582.722 172.401C580.356 172.401 578.239 171.885 576.372 170.851C574.539 169.818 573.106 168.335 572.072 166.401C571.039 164.435 570.522 162.101 570.522 159.401C570.522 156.701 571.039 154.385 572.072 152.451C573.106 150.485 574.522 148.985 576.322 147.951C578.122 146.918 580.172 146.401 582.472 146.401C584.806 146.401 586.789 146.901 588.422 147.901C590.089 148.901 591.356 150.268 592.222 152.001C593.089 153.701 593.522 155.618 593.522 157.751C593.522 158.318 593.506 158.835 593.472 159.301C593.439 159.768 593.389 160.185 593.322 160.551H574.472C574.672 163.185 575.489 165.235 576.922 166.701C578.356 168.168 580.256 168.901 582.622 168.901C584.456 168.901 585.939 168.551 587.072 167.851C588.239 167.151 589.172 166.201 589.872 165.001L593.022 166.851C592.089 168.551 590.739 169.901 588.972 170.901C587.239 171.901 585.156 172.401 582.722 172.401ZM582.372 149.901C580.272 149.901 578.539 150.535 577.172 151.801C575.839 153.035 574.989 154.768 574.622 157.001H589.522C589.422 154.735 588.722 152.985 587.422 151.751C586.122 150.518 584.439 149.901 582.372 149.901ZM610.13 172.401C607.696 172.401 605.446 171.885 603.38 170.851C601.346 169.818 599.78 168.351 598.68 166.451L602.08 164.001C602.813 165.535 603.88 166.735 605.28 167.601C606.713 168.468 608.43 168.901 610.43 168.901C612.196 168.901 613.58 168.568 614.58 167.901C615.58 167.201 616.08 166.301 616.08 165.201C616.08 164.501 615.846 163.868 615.38 163.301C614.946 162.701 614.096 162.268 612.83 162.001L606.83 160.751C604.396 160.251 602.646 159.418 601.58 158.251C600.546 157.085 600.03 155.635 600.03 153.901C600.03 152.535 600.413 151.285 601.18 150.151C601.98 149.018 603.096 148.118 604.53 147.451C605.996 146.751 607.713 146.401 609.68 146.401C612.146 146.401 614.23 146.885 615.93 147.851C617.63 148.818 618.896 150.185 619.73 151.951L616.38 154.151C615.813 152.685 614.896 151.618 613.63 150.951C612.363 150.251 611.046 149.901 609.68 149.901C607.88 149.901 606.48 150.268 605.48 151.001C604.48 151.735 603.98 152.651 603.98 153.751C603.98 154.485 604.23 155.168 604.73 155.801C605.23 156.401 606.163 156.835 607.53 157.101L613.78 158.401C616.113 158.868 617.746 159.635 618.68 160.701C619.613 161.768 620.08 163.068 620.08 164.601C620.08 166.968 619.163 168.868 617.33 170.301C615.496 171.701 613.096 172.401 610.13 172.401ZM629.497 142.101C628.597 142.101 627.864 141.835 627.297 141.301C626.764 140.735 626.497 140.001 626.497 139.101C626.497 138.201 626.764 137.485 627.297 136.951C627.864 136.385 628.597 136.101 629.497 136.101C630.397 136.101 631.114 136.385 631.647 136.951C632.214 137.485 632.497 138.201 632.497 139.101C632.497 140.001 632.214 140.735 631.647 141.301C631.114 141.835 630.397 142.101 629.497 142.101ZM631.497 146.901V171.901H627.497V146.901H631.497ZM654.228 168.701C656.595 168.701 658.445 169.251 659.778 170.351C661.112 171.418 661.778 172.851 661.778 174.651C661.778 176.285 661.228 177.701 660.128 178.901C659.062 180.101 657.612 181.018 655.778 181.651C653.978 182.318 651.945 182.651 649.678 182.651C645.745 182.651 642.795 181.985 640.828 180.651C638.895 179.318 637.928 177.718 637.928 175.851C637.928 174.718 638.245 173.685 638.878 172.751C639.512 171.818 640.562 171.151 642.028 170.751C641.228 170.385 640.578 169.885 640.078 169.251C639.578 168.585 639.328 167.701 639.328 166.601C639.328 165.568 639.628 164.635 640.228 163.801C640.828 162.935 641.728 162.268 642.928 161.801C641.662 161.068 640.695 160.101 640.028 158.901C639.362 157.701 639.028 156.351 639.028 154.851C639.028 153.185 639.462 151.718 640.328 150.451C641.228 149.185 642.445 148.201 643.978 147.501C645.512 146.768 647.278 146.401 649.278 146.401C651.378 146.401 653.262 146.818 654.928 147.651C655.162 145.985 655.895 144.685 657.128 143.751C658.395 142.785 659.878 142.301 661.578 142.301H661.828L662.728 145.851H662.378C660.845 145.851 659.645 146.135 658.778 146.701C657.912 147.268 657.428 148.151 657.328 149.351C658.795 150.885 659.528 152.718 659.528 154.851C659.528 156.485 659.095 157.951 658.228 159.251C657.362 160.518 656.145 161.518 654.578 162.251C653.045 162.951 651.278 163.301 649.278 163.301C648.045 163.301 646.895 163.185 645.828 162.951C644.828 163.251 644.112 163.668 643.678 164.201C643.245 164.735 643.028 165.318 643.028 165.951C643.028 167.785 644.328 168.701 646.928 168.701H654.228ZM649.278 149.651C647.545 149.651 646.095 150.135 644.928 151.101C643.762 152.035 643.178 153.285 643.178 154.851C643.178 156.385 643.762 157.635 644.928 158.601C646.095 159.568 647.545 160.051 649.278 160.051C651.012 160.051 652.462 159.568 653.628 158.601C654.795 157.635 655.378 156.385 655.378 154.851C655.378 153.285 654.795 152.035 653.628 151.101C652.462 150.135 651.012 149.651 649.278 149.651ZM649.628 179.301C652.528 179.301 654.662 178.868 656.028 178.001C657.395 177.168 658.078 176.201 658.078 175.101C658.078 174.201 657.712 173.485 656.978 172.951C656.278 172.418 654.995 172.151 653.128 172.151H645.428C644.362 172.151 643.462 172.418 642.728 172.951C641.995 173.518 641.628 174.285 641.628 175.251C641.628 176.485 642.328 177.468 643.728 178.201C645.162 178.935 647.128 179.301 649.628 179.301ZM667.39 171.901V146.901H670.89L671.14 150.801C672.006 149.235 673.19 148.118 674.69 147.451C676.19 146.751 677.806 146.401 679.54 146.401C681.34 146.401 682.973 146.751 684.44 147.451C685.906 148.118 687.073 149.151 687.94 150.551C688.84 151.951 689.29 153.735 689.29 155.901V171.901H685.29V157.301C685.29 154.535 684.69 152.618 683.49 151.551C682.323 150.451 680.873 149.901 679.14 149.901C677.94 149.901 676.74 150.185 675.54 150.751C674.34 151.318 673.34 152.235 672.54 153.501C671.773 154.768 671.39 156.468 671.39 158.601V171.901H667.39ZM708.797 172.401C706.43 172.401 704.313 171.885 702.447 170.851C700.613 169.818 699.18 168.335 698.147 166.401C697.113 164.435 696.597 162.101 696.597 159.401C696.597 156.701 697.113 154.385 698.147 152.451C699.18 150.485 700.597 148.985 702.397 147.951C704.197 146.918 706.247 146.401 708.547 146.401C710.88 146.401 712.863 146.901 714.497 147.901C716.163 148.901 717.43 150.268 718.297 152.001C719.163 153.701 719.597 155.618 719.597 157.751C719.597 158.318 719.58 158.835 719.547 159.301C719.513 159.768 719.463 160.185 719.397 160.551H700.547C700.747 163.185 701.563 165.235 702.997 166.701C704.43 168.168 706.33 168.901 708.697 168.901C710.53 168.901 712.013 168.551 713.147 167.851C714.313 167.151 715.247 166.201 715.947 165.001L719.097 166.851C718.163 168.551 716.813 169.901 715.047 170.901C713.313 171.901 711.23 172.401 708.797 172.401ZM708.447 149.901C706.347 149.901 704.613 150.535 703.247 151.801C701.913 153.035 701.063 154.768 700.697 157.001H715.597C715.497 154.735 714.797 152.985 713.497 151.751C712.197 150.518 710.513 149.901 708.447 149.901ZM727.204 171.901V146.901H730.454L731.004 151.001C732.404 147.935 735.071 146.401 739.004 146.401C739.437 146.401 739.904 146.435 740.404 146.501C740.937 146.568 741.387 146.701 741.754 146.901L741.054 150.551C740.687 150.418 740.287 150.318 739.854 150.251C739.421 150.185 738.804 150.151 738.004 150.151C736.971 150.151 735.921 150.451 734.854 151.051C733.821 151.651 732.954 152.568 732.254 153.801C731.554 155.001 731.204 156.535 731.204 158.401V171.901H727.204Z" fill="white"/>
</svg>
