<svg width="742" height="184" viewBox="0 0 742 184" fill="none" xmlns="http://www.w3.org/2000/svg">
<path d="M96.2647 65.8616L105.289 78.4542C107.514 75.6487 109.529 73.1692 111.288 71.0949L108.752 67.5561C106.435 68.4108 101.984 67.5942 96.2647 65.8616Z" fill="#BA11C9"/>
<path fill-rule="evenodd" clip-rule="evenodd" d="M125.544 64.2241C128.316 67.8384 125.918 77.145 117.776 80.1487C115.46 81.0033 111.008 80.1868 105.289 78.4542C107.514 75.6487 109.529 73.1692 111.288 71.0949L108.752 67.5561C116.342 64.756 118.94 56.4784 117.012 52.4412C116.912 52.2333 116.801 52.0366 116.678 51.8526L125.544 64.2241ZM5.7165 170.979L13.7948 182.251C17.0094 191.261 41.286 161.903 65.7127 130.206C99.6256 151.017 146.964 164.921 146.964 164.921L137.94 152.328C137.94 152.328 100.851 144.821 69.4825 125.299C74.4232 118.848 79.3259 112.377 84.0167 106.185C92.0095 95.6354 99.3872 85.8977 105.289 78.4542C105.289 78.4542 76.0451 101.832 57.3067 116.811C55.31 118.407 52.1939 120.898 52.1939 120.898C52.5974 121.215 53.0053 121.53 53.4173 121.845C36.6767 143.424 20.4478 163.14 11.5077 169.317C8.90239 171.117 6.9161 171.767 5.7165 170.979ZM5.7165 170.979C5.30736 170.71 4.98973 170.273 4.77026 169.658L5.7165 170.979Z" fill="#BA11C9"/>
<path fill-rule="evenodd" clip-rule="evenodd" d="M108.752 67.5561C116.342 64.756 118.94 56.4784 117.012 52.4412C116.912 52.2333 116.801 52.0366 116.678 51.8526L125.544 64.2241C124.181 62.4475 121.569 62.0463 117.776 64.4451C116.483 65.2629 114.247 67.6054 111.288 71.0949L108.752 67.5561Z" fill="#BA11C9"/>
<path d="M13.7948 46.3452C12.7626 46.6784 11.9003 50.3496 11.2111 56.2962C12.8048 62.9768 15.2148 70.6815 19.2207 78.7332L21.9958 75.4585C19.6929 67.8661 18.5551 61.1496 17.6961 56.0789C16.9023 51.3926 16.3469 48.1125 15.3296 46.8457C14.912 46.3256 14.4164 46.1445 13.7948 46.3452Z" fill="#BA11C9"/>
<path d="M11.2111 56.2962C11.9003 50.3496 12.7626 46.6784 13.7948 46.3452C14.4164 46.1445 14.912 46.3256 15.3296 46.8457L6.70908 34.9882C7.83445 37.2756 8.28721 44.0392 11.2111 56.2962Z" fill="#BA11C9"/>
<path d="M57.3067 116.811L105.289 78.4542C101.558 77.0584 93.312 80.7837 84.3932 81.2075C81.4073 85.1253 78.262 89.2767 75.015 93.5625L74.9921 93.5926C69.3053 101.099 63.3066 109.016 57.3067 116.811Z" fill="#BA11C9"/>
<path d="M105.289 78.4542L96.2647 65.8616C94.4657 68.1305 92.5294 70.6125 90.4805 73.2658C88.5452 75.7721 86.5092 78.4311 84.3932 81.2075C93.312 80.7837 101.558 77.0584 105.289 78.4542Z" fill="#BA11C9"/>
<path d="M137.716 151.783C137.716 151.783 84.0809 139.251 56.0278 118.028" stroke="#133085" stroke-width="1.27894"/>
<path d="M108.831 67.8635C120.974 63.3833 120.34 44.8809 108.831 52.16C106.769 53.4639 102.31 58.644 96.3435 66.169C102.063 67.9016 106.514 68.7182 108.831 67.8635Z" fill="#133085"/>
<path d="M19.2205 78.9348C19.2862 68.7723 17.9154 67.9649 21.2672 52.4409C24.6189 36.9169 40.9107 52.441 59.7856 64.6625C73.0974 74.7954 90.4166 64.0904 96.3435 66.3075L21.2672 126.322C21.2672 126.322 19.0752 101.425 19.2205 78.9348Z" fill="#1140C9"/>
<path d="M4.84918 169.902C-1.41381 152.348 -1.19496 35.9481 4.84918 33.9967C9.68272 32.4362 6.88544 53.9399 19.2206 78.733C19.0753 101.223 21.2673 126.121 21.2673 126.121L43.2483 108.549L96.3436 66.1057C86.0979 79.0272 71.4055 98.8626 56.7671 117.858C32.3403 149.555 8.06382 178.912 4.84918 169.902Z" fill="#133085"/>
<path d="M207.554 53.1014V105.901H201.474V72.7014L202.194 58.7814H202.114L184.754 105.901H179.314L161.954 58.7814H161.874L162.594 72.7014V105.901H156.514V53.1014H166.354L177.954 85.1814L181.954 98.3814H182.114L186.194 85.2614L197.714 53.1014H207.554ZM246.487 80.0614C246.487 77.0747 245.687 74.7814 244.087 73.1814C242.487 71.528 240.22 70.7014 237.287 70.7014C234.513 70.7014 232.167 71.3147 230.247 72.5414C228.327 73.7147 226.913 75.6347 226.007 78.3014L220.807 75.1014C221.873 72.1147 223.847 69.7147 226.727 67.9014C229.607 66.0347 233.18 65.1014 237.447 65.1014C240.327 65.1014 242.94 65.608 245.287 66.6214C247.633 67.5814 249.473 69.0747 250.807 71.1014C252.193 73.0747 252.887 75.6347 252.887 78.7814V98.1414C252.887 100.061 253.9 101.021 255.927 101.021C256.94 101.021 257.927 100.888 258.887 100.621L258.567 105.661C257.5 106.195 256.113 106.461 254.407 106.461C252.433 106.461 250.727 105.981 249.287 105.021C247.9 104.061 246.993 102.595 246.567 100.621C245.18 102.701 243.287 104.248 240.887 105.261C238.487 106.221 236.113 106.701 233.767 106.701C231.42 106.701 229.233 106.301 227.207 105.501C225.18 104.701 223.553 103.501 222.327 101.901C221.153 100.248 220.567 98.2214 220.567 95.8214C220.567 92.8347 221.553 90.3814 223.527 88.4614C225.553 86.488 228.353 85.1547 231.927 84.4614L246.487 81.5814V80.0614ZM227.127 95.5014C227.127 97.1547 227.767 98.5147 229.047 99.5814C230.38 100.595 232.247 101.101 234.647 101.101C236.727 101.101 238.647 100.755 240.407 100.061C242.22 99.3147 243.687 98.2214 244.807 96.7814C245.927 95.288 246.487 93.3947 246.487 91.1014V86.8614L234.887 89.2614C232.273 89.7947 230.327 90.5414 229.047 91.5014C227.767 92.4614 227.127 93.7947 227.127 95.5014ZM290.877 65.9014V71.4214H276.317V94.8614C276.317 96.8347 276.877 98.3014 277.997 99.2614C279.117 100.221 280.557 100.701 282.317 100.701C283.863 100.701 285.197 100.435 286.317 99.9014C287.437 99.368 288.45 98.648 289.357 97.7414L291.597 103.101C290.37 104.221 288.903 105.101 287.197 105.741C285.543 106.381 283.623 106.701 281.437 106.701C279.41 106.701 277.517 106.355 275.757 105.661C273.997 104.915 272.583 103.768 271.517 102.221C270.503 100.621 269.97 98.5414 269.917 95.9814V71.4214H261.917V65.9014H269.917V56.3014L276.317 54.5414V65.9014H290.877ZM317.112 106.701C313.326 106.701 309.939 105.875 306.952 104.221C304.019 102.568 301.726 100.195 300.072 97.1014C298.419 93.9547 297.592 90.2214 297.592 85.9014C297.592 81.5814 298.419 77.8747 300.072 74.7814C301.726 71.6347 303.992 69.2347 306.872 67.5814C309.752 65.928 313.032 65.1014 316.712 65.1014C320.446 65.1014 323.619 65.9014 326.232 67.5014C328.899 69.1014 330.926 71.288 332.312 74.0614C333.699 76.7814 334.392 79.848 334.392 83.2614C334.392 84.168 334.366 84.9947 334.312 85.7414C334.259 86.488 334.179 87.1547 334.072 87.7414H303.912C304.232 91.9547 305.539 95.2347 307.832 97.5814C310.126 99.928 313.166 101.101 316.952 101.101C319.886 101.101 322.259 100.541 324.072 99.4214C325.939 98.3014 327.432 96.7814 328.552 94.8614L333.592 97.8214C332.099 100.541 329.939 102.701 327.112 104.301C324.339 105.901 321.006 106.701 317.112 106.701ZM316.552 70.7014C313.192 70.7014 310.419 71.7147 308.232 73.7414C306.099 75.7147 304.739 78.488 304.152 82.0614H327.992C327.832 78.4347 326.712 75.6347 324.632 73.6614C322.552 71.688 319.859 70.7014 316.552 70.7014ZM361.044 106.701C358.484 106.701 356.058 106.221 353.764 105.261C351.524 104.301 349.684 102.755 348.244 100.621C346.858 98.4347 346.164 95.608 346.164 92.1414V65.9014H352.564V90.4614C352.564 94.5147 353.444 97.3147 355.204 98.8614C356.964 100.355 359.444 101.101 362.644 101.101C364.671 101.101 366.591 100.648 368.404 99.7414C370.218 98.7814 371.711 97.3147 372.884 95.3414C374.058 93.368 374.644 90.808 374.644 87.6614V65.9014H381.044V105.901H375.444L375.044 99.8214C373.658 102.221 371.764 103.981 369.364 105.101C367.018 106.168 364.244 106.701 361.044 106.701ZM410.339 106.701C406.446 106.701 402.846 105.875 399.539 104.221C396.286 102.568 393.779 100.221 392.019 97.1814L397.459 93.2614C398.633 95.7147 400.339 97.6347 402.579 99.0214C404.873 100.408 407.619 101.101 410.819 101.101C413.646 101.101 415.859 100.568 417.459 99.5014C419.059 98.3814 419.859 96.9414 419.859 95.1814C419.859 94.0614 419.486 93.048 418.739 92.1414C418.046 91.1814 416.686 90.488 414.659 90.0614L405.059 88.0614C401.166 87.2614 398.366 85.928 396.659 84.0614C395.006 82.1947 394.179 79.8747 394.179 77.1014C394.179 74.9147 394.793 72.9147 396.019 71.1014C397.299 69.288 399.086 67.848 401.379 66.7814C403.726 65.6614 406.473 65.1014 409.619 65.1014C413.566 65.1014 416.899 65.8747 419.619 67.4214C422.339 68.968 424.366 71.1547 425.699 73.9814L420.339 77.5014C419.433 75.1547 417.966 73.448 415.939 72.3814C413.913 71.2614 411.806 70.7014 409.619 70.7014C406.739 70.7014 404.499 71.288 402.899 72.4614C401.299 73.6347 400.499 75.1014 400.499 76.8614C400.499 78.0347 400.899 79.128 401.699 80.1414C402.499 81.1014 403.993 81.7947 406.179 82.2214L416.179 84.3014C419.913 85.048 422.526 86.2747 424.019 87.9814C425.513 89.688 426.259 91.768 426.259 94.2214C426.259 98.008 424.793 101.048 421.859 103.341C418.926 105.581 415.086 106.701 410.339 106.701ZM435.247 105.901V101.021L456.207 76.4614L461.247 71.2614L454.127 71.4214H435.487V65.9014H468.367V70.7814L447.407 95.3414L442.447 100.541L450.207 100.381H469.007V105.901H435.247ZM546.687 99.9014V105.901H505.167V100.221L538.047 59.1014H505.967V53.1014H545.647V58.7814L512.767 99.9014H546.687ZM581.877 80.0614C581.877 77.0747 581.077 74.7814 579.477 73.1814C577.877 71.528 575.611 70.7014 572.677 70.7014C569.904 70.7014 567.557 71.3147 565.637 72.5414C563.717 73.7147 562.304 75.6347 561.397 78.3014L556.197 75.1014C557.264 72.1147 559.237 69.7147 562.117 67.9014C564.997 66.0347 568.571 65.1014 572.837 65.1014C575.717 65.1014 578.331 65.608 580.677 66.6214C583.024 67.5814 584.864 69.0747 586.197 71.1014C587.584 73.0747 588.277 75.6347 588.277 78.7814V98.1414C588.277 100.061 589.291 101.021 591.317 101.021C592.331 101.021 593.317 100.888 594.277 100.621L593.957 105.661C592.891 106.195 591.504 106.461 589.797 106.461C587.824 106.461 586.117 105.981 584.677 105.021C583.291 104.061 582.384 102.595 581.957 100.621C580.571 102.701 578.677 104.248 576.277 105.261C573.877 106.221 571.504 106.701 569.157 106.701C566.811 106.701 564.624 106.301 562.597 105.501C560.571 104.701 558.944 103.501 557.717 101.901C556.544 100.248 555.957 98.2214 555.957 95.8214C555.957 92.8347 556.944 90.3814 558.917 88.4614C560.944 86.488 563.744 85.1547 567.317 84.4614L581.877 81.5814V80.0614ZM562.517 95.5014C562.517 97.1547 563.157 98.5147 564.437 99.5814C565.771 100.595 567.637 101.101 570.037 101.101C572.117 101.101 574.037 100.755 575.797 100.061C577.611 99.3147 579.077 98.2214 580.197 96.7814C581.317 95.288 581.877 93.3947 581.877 91.1014V86.8614L570.277 89.2614C567.664 89.7947 565.717 90.5414 564.437 91.5014C563.157 92.4614 562.517 93.7947 562.517 95.5014ZM603.83 105.901V65.9014H609.43L609.83 72.1414C611.217 69.6347 613.11 67.848 615.51 66.7814C617.91 65.6614 620.497 65.1014 623.27 65.1014C626.15 65.1014 628.763 65.6614 631.11 66.7814C633.457 67.848 635.323 69.5014 636.71 71.7414C638.15 73.9814 638.87 76.8347 638.87 80.3014V105.901H632.47V82.5414C632.47 78.1147 631.51 75.048 629.59 73.3414C627.723 71.5814 625.403 70.7014 622.63 70.7014C620.71 70.7014 618.79 71.1547 616.87 72.0614C614.95 72.968 613.35 74.4347 612.07 76.4614C610.843 78.488 610.23 81.208 610.23 84.6214V105.901H603.83ZM623.99 45.9014H630.95L623.11 59.2614H617.91L623.99 45.9014ZM688.481 65.9014L672.881 81.5014L689.441 105.901H681.681L668.241 86.1414L659.761 94.6214V105.901H653.361V47.5014H659.761V86.6214L680.401 65.9014H688.481ZM713.906 65.1014C717.692 65.1014 721.026 65.928 723.906 67.5814C726.839 69.2347 729.132 71.6347 730.786 74.7814C732.439 77.8747 733.266 81.5814 733.266 85.9014C733.266 90.2214 732.439 93.9547 730.786 97.1014C729.132 100.195 726.839 102.568 723.906 104.221C721.026 105.875 717.692 106.701 713.906 106.701C710.172 106.701 706.839 105.875 703.906 104.221C700.972 102.568 698.679 100.195 697.026 97.1014C695.372 93.9547 694.546 90.2214 694.546 85.9014C694.546 81.5814 695.372 77.8747 697.026 74.7814C698.679 71.6347 700.972 69.2347 703.906 67.5814C706.839 65.928 710.172 65.1014 713.906 65.1014ZM713.906 70.6214C709.852 70.6214 706.679 71.9814 704.386 74.7014C702.092 77.4214 700.946 81.1547 700.946 85.9014C700.946 90.648 702.092 94.3814 704.386 97.1014C706.679 99.8214 709.852 101.181 713.906 101.181C717.959 101.181 721.132 99.8214 723.426 97.1014C725.719 94.3814 726.866 90.648 726.866 85.9014C726.866 81.1547 725.719 77.4214 723.426 74.7014C721.132 71.9814 717.959 70.6214 713.906 70.6214Z" fill="#E5E5E5"/>
<path d="M406.745 138.901V159.601C406.745 163.835 405.628 167.035 403.395 169.201C401.162 171.335 397.962 172.401 393.795 172.401C389.662 172.401 386.462 171.335 384.195 169.201C381.962 167.035 380.845 163.835 380.845 159.601V138.901H384.845V158.601C384.845 162.035 385.562 164.568 386.995 166.201C388.462 167.835 390.728 168.651 393.795 168.651C396.862 168.651 399.112 167.835 400.545 166.201C402.012 164.568 402.745 162.035 402.745 158.601V138.901H406.745ZM439.945 171.901H435.345L426.395 158.301L417.395 171.901H412.745L424.295 155.101L413.745 138.901H418.445L426.795 151.751L435.245 138.901H439.595L428.895 154.901L439.945 171.901ZM461.975 135.401L446.675 175.401H442.925L458.225 135.401H461.975ZM494.001 138.901V159.601C494.001 163.835 492.884 167.035 490.651 169.201C488.417 171.335 485.217 172.401 481.051 172.401C476.917 172.401 473.717 171.335 471.451 169.201C469.217 167.035 468.101 163.835 468.101 159.601V138.901H472.101V158.601C472.101 162.035 472.817 164.568 474.251 166.201C475.717 167.835 477.984 168.651 481.051 168.651C484.117 168.651 486.367 167.835 487.801 166.201C489.267 164.568 490.001 162.035 490.001 158.601V138.901H494.001ZM508.151 138.901V171.901H504.151V138.901H508.151ZM546.637 138.901C551.804 138.901 555.854 140.335 558.787 143.201C561.754 146.035 563.237 150.101 563.237 155.401C563.237 160.701 561.754 164.785 558.787 167.651C555.854 170.485 551.804 171.901 546.637 171.901H535.987V138.901H546.637ZM547.037 168.151C550.804 168.151 553.737 167.035 555.837 164.801C557.97 162.535 559.037 159.401 559.037 155.401C559.037 151.401 557.97 148.285 555.837 146.051C553.737 143.785 550.804 142.651 547.037 142.651H539.987V168.151H547.037ZM581.722 172.401C579.356 172.401 577.239 171.885 575.372 170.851C573.539 169.818 572.106 168.335 571.072 166.401C570.039 164.435 569.522 162.101 569.522 159.401C569.522 156.701 570.039 154.385 571.072 152.451C572.106 150.485 573.522 148.985 575.322 147.951C577.122 146.918 579.172 146.401 581.472 146.401C583.806 146.401 585.789 146.901 587.422 147.901C589.089 148.901 590.356 150.268 591.222 152.001C592.089 153.701 592.522 155.618 592.522 157.751C592.522 158.318 592.506 158.835 592.472 159.301C592.439 159.768 592.389 160.185 592.322 160.551H573.472C573.672 163.185 574.489 165.235 575.922 166.701C577.356 168.168 579.256 168.901 581.622 168.901C583.456 168.901 584.939 168.551 586.072 167.851C587.239 167.151 588.172 166.201 588.872 165.001L592.022 166.851C591.089 168.551 589.739 169.901 587.972 170.901C586.239 171.901 584.156 172.401 581.722 172.401ZM581.372 149.901C579.272 149.901 577.539 150.535 576.172 151.801C574.839 153.035 573.989 154.768 573.622 157.001H588.522C588.422 154.735 587.722 152.985 586.422 151.751C585.122 150.518 583.439 149.901 581.372 149.901ZM609.13 172.401C606.696 172.401 604.446 171.885 602.38 170.851C600.346 169.818 598.78 168.351 597.68 166.451L601.08 164.001C601.813 165.535 602.88 166.735 604.28 167.601C605.713 168.468 607.43 168.901 609.43 168.901C611.196 168.901 612.58 168.568 613.58 167.901C614.58 167.201 615.08 166.301 615.08 165.201C615.08 164.501 614.846 163.868 614.38 163.301C613.946 162.701 613.096 162.268 611.83 162.001L605.83 160.751C603.396 160.251 601.646 159.418 600.58 158.251C599.546 157.085 599.03 155.635 599.03 153.901C599.03 152.535 599.413 151.285 600.18 150.151C600.98 149.018 602.096 148.118 603.53 147.451C604.996 146.751 606.713 146.401 608.68 146.401C611.146 146.401 613.23 146.885 614.93 147.851C616.63 148.818 617.896 150.185 618.73 151.951L615.38 154.151C614.813 152.685 613.896 151.618 612.63 150.951C611.363 150.251 610.046 149.901 608.68 149.901C606.88 149.901 605.48 150.268 604.48 151.001C603.48 151.735 602.98 152.651 602.98 153.751C602.98 154.485 603.23 155.168 603.73 155.801C604.23 156.401 605.163 156.835 606.53 157.101L612.78 158.401C615.113 158.868 616.746 159.635 617.68 160.701C618.613 161.768 619.08 163.068 619.08 164.601C619.08 166.968 618.163 168.868 616.33 170.301C614.496 171.701 612.096 172.401 609.13 172.401ZM628.497 142.101C627.597 142.101 626.864 141.835 626.297 141.301C625.764 140.735 625.497 140.001 625.497 139.101C625.497 138.201 625.764 137.485 626.297 136.951C626.864 136.385 627.597 136.101 628.497 136.101C629.397 136.101 630.114 136.385 630.647 136.951C631.214 137.485 631.497 138.201 631.497 139.101C631.497 140.001 631.214 140.735 630.647 141.301C630.114 141.835 629.397 142.101 628.497 142.101ZM630.497 146.901V171.901H626.497V146.901H630.497ZM653.228 168.701C655.595 168.701 657.445 169.251 658.778 170.351C660.112 171.418 660.778 172.851 660.778 174.651C660.778 176.285 660.228 177.701 659.128 178.901C658.062 180.101 656.612 181.018 654.778 181.651C652.978 182.318 650.945 182.651 648.678 182.651C644.745 182.651 641.795 181.985 639.828 180.651C637.895 179.318 636.928 177.718 636.928 175.851C636.928 174.718 637.245 173.685 637.878 172.751C638.512 171.818 639.562 171.151 641.028 170.751C640.228 170.385 639.578 169.885 639.078 169.251C638.578 168.585 638.328 167.701 638.328 166.601C638.328 165.568 638.628 164.635 639.228 163.801C639.828 162.935 640.728 162.268 641.928 161.801C640.662 161.068 639.695 160.101 639.028 158.901C638.362 157.701 638.028 156.351 638.028 154.851C638.028 153.185 638.462 151.718 639.328 150.451C640.228 149.185 641.445 148.201 642.978 147.501C644.512 146.768 646.278 146.401 648.278 146.401C650.378 146.401 652.262 146.818 653.928 147.651C654.162 145.985 654.895 144.685 656.128 143.751C657.395 142.785 658.878 142.301 660.578 142.301H660.828L661.728 145.851H661.378C659.845 145.851 658.645 146.135 657.778 146.701C656.912 147.268 656.428 148.151 656.328 149.351C657.795 150.885 658.528 152.718 658.528 154.851C658.528 156.485 658.095 157.951 657.228 159.251C656.362 160.518 655.145 161.518 653.578 162.251C652.045 162.951 650.278 163.301 648.278 163.301C647.045 163.301 645.895 163.185 644.828 162.951C643.828 163.251 643.112 163.668 642.678 164.201C642.245 164.735 642.028 165.318 642.028 165.951C642.028 167.785 643.328 168.701 645.928 168.701H653.228ZM648.278 149.651C646.545 149.651 645.095 150.135 643.928 151.101C642.762 152.035 642.178 153.285 642.178 154.851C642.178 156.385 642.762 157.635 643.928 158.601C645.095 159.568 646.545 160.051 648.278 160.051C650.012 160.051 651.462 159.568 652.628 158.601C653.795 157.635 654.378 156.385 654.378 154.851C654.378 153.285 653.795 152.035 652.628 151.101C651.462 150.135 650.012 149.651 648.278 149.651ZM648.628 179.301C651.528 179.301 653.662 178.868 655.028 178.001C656.395 177.168 657.078 176.201 657.078 175.101C657.078 174.201 656.712 173.485 655.978 172.951C655.278 172.418 653.995 172.151 652.128 172.151H644.428C643.362 172.151 642.462 172.418 641.728 172.951C640.995 173.518 640.628 174.285 640.628 175.251C640.628 176.485 641.328 177.468 642.728 178.201C644.162 178.935 646.128 179.301 648.628 179.301ZM666.39 171.901V146.901H669.89L670.14 150.801C671.006 149.235 672.19 148.118 673.69 147.451C675.19 146.751 676.806 146.401 678.54 146.401C680.34 146.401 681.973 146.751 683.44 147.451C684.906 148.118 686.073 149.151 686.94 150.551C687.84 151.951 688.29 153.735 688.29 155.901V171.901H684.29V157.301C684.29 154.535 683.69 152.618 682.49 151.551C681.323 150.451 679.873 149.901 678.14 149.901C676.94 149.901 675.74 150.185 674.54 150.751C673.34 151.318 672.34 152.235 671.54 153.501C670.773 154.768 670.39 156.468 670.39 158.601V171.901H666.39ZM707.797 172.401C705.43 172.401 703.313 171.885 701.447 170.851C699.613 169.818 698.18 168.335 697.147 166.401C696.113 164.435 695.597 162.101 695.597 159.401C695.597 156.701 696.113 154.385 697.147 152.451C698.18 150.485 699.597 148.985 701.397 147.951C703.197 146.918 705.247 146.401 707.547 146.401C709.88 146.401 711.863 146.901 713.497 147.901C715.163 148.901 716.43 150.268 717.297 152.001C718.163 153.701 718.597 155.618 718.597 157.751C718.597 158.318 718.58 158.835 718.547 159.301C718.513 159.768 718.463 160.185 718.397 160.551H699.547C699.747 163.185 700.563 165.235 701.997 166.701C703.43 168.168 705.33 168.901 707.697 168.901C709.53 168.901 711.013 168.551 712.147 167.851C713.313 167.151 714.247 166.201 714.947 165.001L718.097 166.851C717.163 168.551 715.813 169.901 714.047 170.901C712.313 171.901 710.23 172.401 707.797 172.401ZM707.447 149.901C705.347 149.901 703.613 150.535 702.247 151.801C700.913 153.035 700.063 154.768 699.697 157.001H714.597C714.497 154.735 713.797 152.985 712.497 151.751C711.197 150.518 709.513 149.901 707.447 149.901ZM726.204 171.901V146.901H729.454L730.004 151.001C731.404 147.935 734.071 146.401 738.004 146.401C738.437 146.401 738.904 146.435 739.404 146.501C739.937 146.568 740.387 146.701 740.754 146.901L740.054 150.551C739.687 150.418 739.287 150.318 738.854 150.251C738.421 150.185 737.804 150.151 737.004 150.151C735.971 150.151 734.921 150.451 733.854 151.051C732.821 151.651 731.954 152.568 731.254 153.801C730.554 155.001 730.204 156.535 730.204 158.401V171.901H726.204Z" fill="white"/>
</svg>
