<svg width="743" height="182" viewBox="0 0 743 182" fill="none" xmlns="http://www.w3.org/2000/svg">
<path d="M97.1219 63.8616L106.146 76.4542C108.371 73.6487 110.386 71.1692 112.145 69.0949L109.609 65.5561C107.292 66.4108 102.841 65.5942 97.1219 63.8616Z" fill="#E5E5E5"/>
<path fill-rule="evenodd" clip-rule="evenodd" d="M126.401 62.2241C129.173 65.8384 126.775 75.145 118.634 78.1487C116.317 79.0033 111.866 78.1868 106.146 76.4542C108.371 73.6487 110.386 71.1692 112.145 69.0949L109.609 65.5561C117.199 62.756 119.797 54.4784 117.869 50.4412C117.77 50.2333 117.658 50.0366 117.535 49.8526L126.401 62.2241ZM6.57368 168.979L14.652 180.251C17.8666 189.261 42.1431 159.903 66.5699 128.206C100.483 149.017 147.821 162.921 147.821 162.921L138.797 150.328C138.797 150.328 101.708 142.821 70.3397 123.299C75.2804 116.848 80.1831 110.377 84.8739 104.185C92.8667 93.6354 100.244 83.8977 106.146 76.4542C106.146 76.4542 76.9022 99.8316 58.1639 114.811C56.1672 116.407 53.0511 118.898 53.0511 118.898C53.4546 119.215 53.8625 119.53 54.2745 119.845C37.5339 141.424 21.305 161.14 12.3648 167.317C9.75957 169.117 7.77328 169.767 6.57368 168.979ZM6.57368 168.979C6.16454 168.71 5.84691 168.273 5.62744 167.658L6.57368 168.979Z" fill="#E5E5E5"/>
<path fill-rule="evenodd" clip-rule="evenodd" d="M109.609 65.5561C117.199 62.756 119.797 54.4784 117.869 50.4412C117.77 50.2333 117.658 50.0366 117.535 49.8526L126.401 62.2241C125.039 60.4475 122.427 60.0463 118.634 62.4451C117.34 63.2629 115.105 65.6054 112.145 69.0949L109.609 65.5561Z" fill="#E5E5E5"/>
<path d="M14.652 44.3452C13.6198 44.6784 12.7575 48.3496 12.0683 54.2962C13.662 60.9768 16.0719 68.6815 20.0778 76.7332L22.8529 73.4585C20.55 65.8661 19.4123 59.1496 18.5533 54.0789C17.7595 49.3926 17.2038 46.1121 16.1865 44.8452C15.7689 44.3252 15.2735 44.1445 14.652 44.3452Z" fill="#E5E5E5"/>
<path d="M12.0683 54.2962C12.7575 48.3496 13.6198 44.6784 14.652 44.3452C15.2735 44.1445 15.7689 44.3252 16.1865 44.8452L7.56625 32.9882C8.69162 35.2756 9.14438 42.0392 12.0683 54.2962Z" fill="#E5E5E5"/>
<path d="M31.0701 62.5875C29.632 69.2479 29.0891 78.9189 29.0235 89.0815C32.1129 95.2911 36.1516 101.707 41.4972 108.019C44.6732 111.769 48.599 115.404 53.0511 118.898C53.0511 118.898 56.1672 116.407 58.1639 114.811C76.9022 99.8316 106.146 76.4542 106.146 76.4542C101.813 75.1413 96.7506 73.3023 91.3377 71.2658C89.4667 70.5619 87.5538 69.8343 85.6144 69.0968L85.6132 69.0963C61.7561 60.0231 33.9103 49.433 31.0701 62.5875Z" fill="#E5E5E5"/>
<path d="M106.146 76.4542L97.1219 63.8616C95.3228 66.1305 93.3866 68.6125 91.3377 71.2658C96.7506 73.3023 101.813 75.1413 106.146 76.4542Z" fill="#E5E5E5"/>
<path d="M138.573 149.783C138.573 149.783 84.938 137.251 56.885 116.028" stroke="#133085" stroke-width="1.27894"/>
<path d="M109.688 65.8635C121.832 61.3833 121.197 42.8809 109.688 50.16C107.626 51.4639 103.167 56.644 97.2007 64.169C102.92 65.9016 107.371 66.7182 109.688 65.8635Z" fill="#133085" stroke="white" stroke-width="1.27894"/>
<path d="M97.2007 64.3076C72.94 56.9579 25.8635 33.1234 22.1244 50.441C20.6863 57.1014 20.1434 66.7724 20.0777 76.9349C19.9324 99.4251 22.1244 124.323 22.1244 124.323L97.2007 64.3076Z" fill="#1140C9" stroke="white" stroke-width="1.27894"/>
<path d="M5.70636 167.902C-0.556632 150.348 -0.337781 33.9481 5.70636 31.9967C10.5399 30.4362 7.74262 51.9399 20.0778 76.733C19.9325 99.2232 22.1245 124.121 22.1245 124.121L44.1055 106.549L97.2008 64.1057C86.9551 77.0272 72.2627 96.8626 57.6243 115.858C33.1975 147.555 8.921 176.912 5.70636 167.902Z" fill="#133085" stroke="white" stroke-width="1.27894"/>
<path d="M208.411 53.1014V105.901H202.331V72.7014L203.051 58.7814H202.971L185.611 105.901H180.171L162.811 58.7814H162.731L163.451 72.7014V105.901H157.371V53.1014H167.211L178.811 85.1814L182.811 98.3814H182.971L187.051 85.2614L198.571 53.1014H208.411ZM247.344 80.0614C247.344 77.0747 246.544 74.7814 244.944 73.1814C243.344 71.528 241.077 70.7014 238.144 70.7014C235.371 70.7014 233.024 71.3147 231.104 72.5414C229.184 73.7147 227.771 75.6347 226.864 78.3014L221.664 75.1014C222.731 72.1147 224.704 69.7147 227.584 67.9014C230.464 66.0347 234.037 65.1014 238.304 65.1014C241.184 65.1014 243.797 65.608 246.144 66.6214C248.491 67.5814 250.331 69.0747 251.664 71.1014C253.051 73.0747 253.744 75.6347 253.744 78.7814V98.1414C253.744 100.061 254.757 101.021 256.784 101.021C257.797 101.021 258.784 100.888 259.744 100.621L259.424 105.661C258.357 106.195 256.971 106.461 255.264 106.461C253.291 106.461 251.584 105.981 250.144 105.021C248.757 104.061 247.851 102.595 247.424 100.621C246.037 102.701 244.144 104.248 241.744 105.261C239.344 106.221 236.971 106.701 234.624 106.701C232.277 106.701 230.091 106.301 228.064 105.501C226.037 104.701 224.411 103.501 223.184 101.901C222.011 100.248 221.424 98.2214 221.424 95.8214C221.424 92.8347 222.411 90.3814 224.384 88.4614C226.411 86.488 229.211 85.1547 232.784 84.4614L247.344 81.5814V80.0614ZM227.984 95.5014C227.984 97.1547 228.624 98.5147 229.904 99.5814C231.237 100.595 233.104 101.101 235.504 101.101C237.584 101.101 239.504 100.755 241.264 100.061C243.077 99.3147 244.544 98.2214 245.664 96.7814C246.784 95.288 247.344 93.3947 247.344 91.1014V86.8614L235.744 89.2614C233.131 89.7947 231.184 90.5414 229.904 91.5014C228.624 92.4614 227.984 93.7947 227.984 95.5014ZM291.734 65.9014V71.4214H277.174V94.8614C277.174 96.8347 277.734 98.3014 278.854 99.2614C279.974 100.221 281.414 100.701 283.174 100.701C284.721 100.701 286.054 100.435 287.174 99.9014C288.294 99.368 289.307 98.648 290.214 97.7414L292.454 103.101C291.227 104.221 289.761 105.101 288.054 105.741C286.401 106.381 284.481 106.701 282.294 106.701C280.267 106.701 278.374 106.355 276.614 105.661C274.854 104.915 273.441 103.768 272.374 102.221C271.361 100.621 270.827 98.5414 270.774 95.9814V71.4214H262.774V65.9014H270.774V56.3014L277.174 54.5414V65.9014H291.734ZM317.97 106.701C314.183 106.701 310.796 105.875 307.81 104.221C304.876 102.568 302.583 100.195 300.93 97.1014C299.276 93.9547 298.45 90.2214 298.45 85.9014C298.45 81.5814 299.276 77.8747 300.93 74.7814C302.583 71.6347 304.85 69.2347 307.73 67.5814C310.61 65.928 313.89 65.1014 317.57 65.1014C321.303 65.1014 324.476 65.9014 327.09 67.5014C329.756 69.1014 331.783 71.288 333.17 74.0614C334.556 76.7814 335.25 79.848 335.25 83.2614C335.25 84.168 335.223 84.9947 335.17 85.7414C335.116 86.488 335.036 87.1547 334.93 87.7414H304.77C305.09 91.9547 306.396 95.2347 308.69 97.5814C310.983 99.928 314.023 101.101 317.81 101.101C320.743 101.101 323.116 100.541 324.93 99.4214C326.796 98.3014 328.29 96.7814 329.41 94.8614L334.45 97.8214C332.956 100.541 330.796 102.701 327.97 104.301C325.196 105.901 321.863 106.701 317.97 106.701ZM317.41 70.7014C314.05 70.7014 311.276 71.7147 309.09 73.7414C306.956 75.7147 305.596 78.488 305.01 82.0614H328.85C328.69 78.4347 327.57 75.6347 325.49 73.6614C323.41 71.688 320.716 70.7014 317.41 70.7014ZM361.901 106.701C359.341 106.701 356.915 106.221 354.621 105.261C352.381 104.301 350.541 102.755 349.101 100.621C347.715 98.4347 347.021 95.608 347.021 92.1414V65.9014H353.421V90.4614C353.421 94.5147 354.301 97.3147 356.061 98.8614C357.821 100.355 360.301 101.101 363.501 101.101C365.528 101.101 367.448 100.648 369.261 99.7414C371.075 98.7814 372.568 97.3147 373.741 95.3414C374.915 93.368 375.501 90.808 375.501 87.6614V65.9014H381.901V105.901H376.301L375.901 99.8214C374.515 102.221 372.621 103.981 370.221 105.101C367.875 106.168 365.101 106.701 361.901 106.701ZM411.196 106.701C407.303 106.701 403.703 105.875 400.396 104.221C397.143 102.568 394.636 100.221 392.876 97.1814L398.316 93.2614C399.49 95.7147 401.196 97.6347 403.436 99.0214C405.73 100.408 408.476 101.101 411.676 101.101C414.503 101.101 416.716 100.568 418.316 99.5014C419.916 98.3814 420.716 96.9414 420.716 95.1814C420.716 94.0614 420.343 93.048 419.596 92.1414C418.903 91.1814 417.543 90.488 415.516 90.0614L405.916 88.0614C402.023 87.2614 399.223 85.928 397.516 84.0614C395.863 82.1947 395.036 79.8747 395.036 77.1014C395.036 74.9147 395.65 72.9147 396.876 71.1014C398.156 69.288 399.943 67.848 402.236 66.7814C404.583 65.6614 407.33 65.1014 410.476 65.1014C414.423 65.1014 417.756 65.8747 420.476 67.4214C423.196 68.968 425.223 71.1547 426.556 73.9814L421.196 77.5014C420.29 75.1547 418.823 73.448 416.796 72.3814C414.77 71.2614 412.663 70.7014 410.476 70.7014C407.596 70.7014 405.356 71.288 403.756 72.4614C402.156 73.6347 401.356 75.1014 401.356 76.8614C401.356 78.0347 401.756 79.128 402.556 80.1414C403.356 81.1014 404.85 81.7947 407.036 82.2214L417.036 84.3014C420.77 85.048 423.383 86.2747 424.876 87.9814C426.37 89.688 427.116 91.768 427.116 94.2214C427.116 98.008 425.65 101.048 422.716 103.341C419.783 105.581 415.943 106.701 411.196 106.701ZM436.104 105.901V101.021L457.064 76.4614L462.104 71.2614L454.984 71.4214H436.344V65.9014H469.224V70.7814L448.264 95.3414L443.304 100.541L451.064 100.381H469.864V105.901H436.104ZM547.544 99.9014V105.901H506.024V100.221L538.904 59.1014H506.824V53.1014H546.504V58.7814L513.624 99.9014H547.544ZM582.735 80.0614C582.735 77.0747 581.935 74.7814 580.335 73.1814C578.735 71.528 576.468 70.7014 573.535 70.7014C570.761 70.7014 568.415 71.3147 566.495 72.5414C564.575 73.7147 563.161 75.6347 562.255 78.3014L557.055 75.1014C558.121 72.1147 560.095 69.7147 562.975 67.9014C565.855 66.0347 569.428 65.1014 573.695 65.1014C576.575 65.1014 579.188 65.608 581.535 66.6214C583.881 67.5814 585.721 69.0747 587.055 71.1014C588.441 73.0747 589.135 75.6347 589.135 78.7814V98.1414C589.135 100.061 590.148 101.021 592.175 101.021C593.188 101.021 594.175 100.888 595.135 100.621L594.815 105.661C593.748 106.195 592.361 106.461 590.655 106.461C588.681 106.461 586.975 105.981 585.535 105.021C584.148 104.061 583.241 102.595 582.815 100.621C581.428 102.701 579.535 104.248 577.135 105.261C574.735 106.221 572.361 106.701 570.015 106.701C567.668 106.701 565.481 106.301 563.455 105.501C561.428 104.701 559.801 103.501 558.575 101.901C557.401 100.248 556.815 98.2214 556.815 95.8214C556.815 92.8347 557.801 90.3814 559.775 88.4614C561.801 86.488 564.601 85.1547 568.175 84.4614L582.735 81.5814V80.0614ZM563.375 95.5014C563.375 97.1547 564.015 98.5147 565.295 99.5814C566.628 100.595 568.495 101.101 570.895 101.101C572.975 101.101 574.895 100.755 576.655 100.061C578.468 99.3147 579.935 98.2214 581.055 96.7814C582.175 95.288 582.735 93.3947 582.735 91.1014V86.8614L571.135 89.2614C568.521 89.7947 566.575 90.5414 565.295 91.5014C564.015 92.4614 563.375 93.7947 563.375 95.5014ZM604.687 105.901V65.9014H610.287L610.687 72.1414C612.074 69.6347 613.967 67.848 616.367 66.7814C618.767 65.6614 621.354 65.1014 624.127 65.1014C627.007 65.1014 629.62 65.6614 631.967 66.7814C634.314 67.848 636.18 69.5014 637.567 71.7414C639.007 73.9814 639.727 76.8347 639.727 80.3014V105.901H633.327V82.5414C633.327 78.1147 632.367 75.048 630.447 73.3414C628.58 71.5814 626.26 70.7014 623.487 70.7014C621.567 70.7014 619.647 71.1547 617.727 72.0614C615.807 72.968 614.207 74.4347 612.927 76.4614C611.7 78.488 611.087 81.208 611.087 84.6214V105.901H604.687ZM624.847 45.9014H631.807L623.967 59.2614H618.767L624.847 45.9014ZM689.338 65.9014L673.738 81.5014L690.298 105.901H682.538L669.098 86.1414L660.618 94.6214V105.901H654.218V47.5014H660.618V86.6214L681.258 65.9014H689.338ZM714.763 65.1014C718.549 65.1014 721.883 65.928 724.763 67.5814C727.696 69.2347 729.989 71.6347 731.643 74.7814C733.296 77.8747 734.123 81.5814 734.123 85.9014C734.123 90.2214 733.296 93.9547 731.643 97.1014C729.989 100.195 727.696 102.568 724.763 104.221C721.883 105.875 718.549 106.701 714.763 106.701C711.029 106.701 707.696 105.875 704.763 104.221C701.829 102.568 699.536 100.195 697.883 97.1014C696.229 93.9547 695.403 90.2214 695.403 85.9014C695.403 81.5814 696.229 77.8747 697.883 74.7814C699.536 71.6347 701.829 69.2347 704.763 67.5814C707.696 65.928 711.029 65.1014 714.763 65.1014ZM714.763 70.6214C710.709 70.6214 707.536 71.9814 705.243 74.7014C702.949 77.4214 701.803 81.1547 701.803 85.9014C701.803 90.648 702.949 94.3814 705.243 97.1014C707.536 99.8214 710.709 101.181 714.763 101.181C718.816 101.181 721.989 99.8214 724.283 97.1014C726.576 94.3814 727.723 90.648 727.723 85.9014C727.723 81.1547 726.576 77.4214 724.283 74.7014C721.989 71.9814 718.816 70.6214 714.763 70.6214Z" fill="#0E0E0E"/>
<path d="M407.602 136.901V157.601C407.602 161.835 406.485 165.035 404.252 167.201C402.019 169.335 398.819 170.401 394.652 170.401C390.519 170.401 387.319 169.335 385.052 167.201C382.819 165.035 381.702 161.835 381.702 157.601V136.901H385.702V156.601C385.702 160.035 386.419 162.568 387.852 164.201C389.319 165.835 391.585 166.651 394.652 166.651C397.719 166.651 399.969 165.835 401.402 164.201C402.869 162.568 403.602 160.035 403.602 156.601V136.901H407.602ZM440.803 169.901H436.203L427.253 156.301L418.253 169.901H413.603L425.153 153.101L414.603 136.901H419.303L427.653 149.751L436.103 136.901H440.453L429.753 152.901L440.803 169.901ZM462.832 133.401L447.532 173.401H443.782L459.082 133.401H462.832ZM494.858 136.901V157.601C494.858 161.835 493.741 165.035 491.508 167.201C489.275 169.335 486.075 170.401 481.908 170.401C477.775 170.401 474.575 169.335 472.308 167.201C470.075 165.035 468.958 161.835 468.958 157.601V136.901H472.958V156.601C472.958 160.035 473.675 162.568 475.108 164.201C476.575 165.835 478.841 166.651 481.908 166.651C484.975 166.651 487.225 165.835 488.658 164.201C490.125 162.568 490.858 160.035 490.858 156.601V136.901H494.858ZM509.008 136.901V169.901H505.008V136.901H509.008ZM547.494 136.901C552.661 136.901 556.711 138.335 559.644 141.201C562.611 144.035 564.094 148.101 564.094 153.401C564.094 158.701 562.611 162.785 559.644 165.651C556.711 168.485 552.661 169.901 547.494 169.901H536.844V136.901H547.494ZM547.894 166.151C551.661 166.151 554.594 165.035 556.694 162.801C558.828 160.535 559.894 157.401 559.894 153.401C559.894 149.401 558.828 146.285 556.694 144.051C554.594 141.785 551.661 140.651 547.894 140.651H540.844V166.151H547.894ZM582.579 170.401C580.213 170.401 578.096 169.885 576.229 168.851C574.396 167.818 572.963 166.335 571.929 164.401C570.896 162.435 570.379 160.101 570.379 157.401C570.379 154.701 570.896 152.385 571.929 150.451C572.963 148.485 574.379 146.985 576.179 145.951C577.979 144.918 580.029 144.401 582.329 144.401C584.663 144.401 586.646 144.901 588.279 145.901C589.946 146.901 591.213 148.268 592.079 150.001C592.946 151.701 593.379 153.618 593.379 155.751C593.379 156.318 593.363 156.835 593.329 157.301C593.296 157.768 593.246 158.185 593.179 158.551H574.329C574.529 161.185 575.346 163.235 576.779 164.701C578.213 166.168 580.113 166.901 582.479 166.901C584.313 166.901 585.796 166.551 586.929 165.851C588.096 165.151 589.029 164.201 589.729 163.001L592.879 164.851C591.946 166.551 590.596 167.901 588.829 168.901C587.096 169.901 585.013 170.401 582.579 170.401ZM582.229 147.901C580.129 147.901 578.396 148.535 577.029 149.801C575.696 151.035 574.846 152.768 574.479 155.001H589.379C589.279 152.735 588.579 150.985 587.279 149.751C585.979 148.518 584.296 147.901 582.229 147.901ZM609.987 170.401C607.554 170.401 605.304 169.885 603.237 168.851C601.204 167.818 599.637 166.351 598.537 164.451L601.937 162.001C602.67 163.535 603.737 164.735 605.137 165.601C606.57 166.468 608.287 166.901 610.287 166.901C612.054 166.901 613.437 166.568 614.437 165.901C615.437 165.201 615.937 164.301 615.937 163.201C615.937 162.501 615.704 161.868 615.237 161.301C614.804 160.701 613.954 160.268 612.687 160.001L606.687 158.751C604.254 158.251 602.504 157.418 601.437 156.251C600.404 155.085 599.887 153.635 599.887 151.901C599.887 150.535 600.27 149.285 601.037 148.151C601.837 147.018 602.954 146.118 604.387 145.451C605.854 144.751 607.57 144.401 609.537 144.401C612.004 144.401 614.087 144.885 615.787 145.851C617.487 146.818 618.754 148.185 619.587 149.951L616.237 152.151C615.67 150.685 614.754 149.618 613.487 148.951C612.22 148.251 610.904 147.901 609.537 147.901C607.737 147.901 606.337 148.268 605.337 149.001C604.337 149.735 603.837 150.651 603.837 151.751C603.837 152.485 604.087 153.168 604.587 153.801C605.087 154.401 606.02 154.835 607.387 155.101L613.637 156.401C615.97 156.868 617.604 157.635 618.537 158.701C619.47 159.768 619.937 161.068 619.937 162.601C619.937 164.968 619.02 166.868 617.187 168.301C615.354 169.701 612.954 170.401 609.987 170.401ZM629.354 140.101C628.454 140.101 627.721 139.835 627.154 139.301C626.621 138.735 626.354 138.001 626.354 137.101C626.354 136.201 626.621 135.485 627.154 134.951C627.721 134.385 628.454 134.101 629.354 134.101C630.254 134.101 630.971 134.385 631.504 134.951C632.071 135.485 632.354 136.201 632.354 137.101C632.354 138.001 632.071 138.735 631.504 139.301C630.971 139.835 630.254 140.101 629.354 140.101ZM631.354 144.901V169.901H627.354V144.901H631.354ZM654.085 166.701C656.452 166.701 658.302 167.251 659.635 168.351C660.969 169.418 661.635 170.851 661.635 172.651C661.635 174.285 661.085 175.701 659.985 176.901C658.919 178.101 657.469 179.018 655.635 179.651C653.835 180.318 651.802 180.651 649.535 180.651C645.602 180.651 642.652 179.985 640.685 178.651C638.752 177.318 637.785 175.718 637.785 173.851C637.785 172.718 638.102 171.685 638.735 170.751C639.369 169.818 640.419 169.151 641.885 168.751C641.085 168.385 640.435 167.885 639.935 167.251C639.435 166.585 639.185 165.701 639.185 164.601C639.185 163.568 639.485 162.635 640.085 161.801C640.685 160.935 641.585 160.268 642.785 159.801C641.519 159.068 640.552 158.101 639.885 156.901C639.219 155.701 638.885 154.351 638.885 152.851C638.885 151.185 639.319 149.718 640.185 148.451C641.085 147.185 642.302 146.201 643.835 145.501C645.369 144.768 647.135 144.401 649.135 144.401C651.235 144.401 653.119 144.818 654.785 145.651C655.019 143.985 655.752 142.685 656.985 141.751C658.252 140.785 659.735 140.301 661.435 140.301H661.685L662.585 143.851H662.235C660.702 143.851 659.502 144.135 658.635 144.701C657.769 145.268 657.285 146.151 657.185 147.351C658.652 148.885 659.385 150.718 659.385 152.851C659.385 154.485 658.952 155.951 658.085 157.251C657.219 158.518 656.002 159.518 654.435 160.251C652.902 160.951 651.135 161.301 649.135 161.301C647.902 161.301 646.752 161.185 645.685 160.951C644.685 161.251 643.969 161.668 643.535 162.201C643.102 162.735 642.885 163.318 642.885 163.951C642.885 165.785 644.185 166.701 646.785 166.701H654.085ZM649.135 147.651C647.402 147.651 645.952 148.135 644.785 149.101C643.619 150.035 643.035 151.285 643.035 152.851C643.035 154.385 643.619 155.635 644.785 156.601C645.952 157.568 647.402 158.051 649.135 158.051C650.869 158.051 652.319 157.568 653.485 156.601C654.652 155.635 655.235 154.385 655.235 152.851C655.235 151.285 654.652 150.035 653.485 149.101C652.319 148.135 650.869 147.651 649.135 147.651ZM649.485 177.301C652.385 177.301 654.519 176.868 655.885 176.001C657.252 175.168 657.935 174.201 657.935 173.101C657.935 172.201 657.569 171.485 656.835 170.951C656.135 170.418 654.852 170.151 652.985 170.151H645.285C644.219 170.151 643.319 170.418 642.585 170.951C641.852 171.518 641.485 172.285 641.485 173.251C641.485 174.485 642.185 175.468 643.585 176.201C645.019 176.935 646.985 177.301 649.485 177.301ZM667.247 169.901V144.901H670.747L670.997 148.801C671.863 147.235 673.047 146.118 674.547 145.451C676.047 144.751 677.663 144.401 679.397 144.401C681.197 144.401 682.83 144.751 684.297 145.451C685.763 146.118 686.93 147.151 687.797 148.551C688.697 149.951 689.147 151.735 689.147 153.901V169.901H685.147V155.301C685.147 152.535 684.547 150.618 683.347 149.551C682.18 148.451 680.73 147.901 678.997 147.901C677.797 147.901 676.597 148.185 675.397 148.751C674.197 149.318 673.197 150.235 672.397 151.501C671.63 152.768 671.247 154.468 671.247 156.601V169.901H667.247ZM708.654 170.401C706.287 170.401 704.17 169.885 702.304 168.851C700.47 167.818 699.037 166.335 698.004 164.401C696.97 162.435 696.454 160.101 696.454 157.401C696.454 154.701 696.97 152.385 698.004 150.451C699.037 148.485 700.454 146.985 702.254 145.951C704.054 144.918 706.104 144.401 708.404 144.401C710.737 144.401 712.72 144.901 714.354 145.901C716.02 146.901 717.287 148.268 718.154 150.001C719.02 151.701 719.454 153.618 719.454 155.751C719.454 156.318 719.437 156.835 719.404 157.301C719.37 157.768 719.32 158.185 719.254 158.551H700.404C700.604 161.185 701.42 163.235 702.854 164.701C704.287 166.168 706.187 166.901 708.554 166.901C710.387 166.901 711.87 166.551 713.004 165.851C714.17 165.151 715.104 164.201 715.804 163.001L718.954 164.851C718.02 166.551 716.67 167.901 714.904 168.901C713.17 169.901 711.087 170.401 708.654 170.401ZM708.304 147.901C706.204 147.901 704.47 148.535 703.104 149.801C701.77 151.035 700.92 152.768 700.554 155.001H715.454C715.354 152.735 714.654 150.985 713.354 149.751C712.054 148.518 710.37 147.901 708.304 147.901ZM727.061 169.901V144.901H730.311L730.861 149.001C732.261 145.935 734.928 144.401 738.861 144.401C739.294 144.401 739.761 144.435 740.261 144.501C740.794 144.568 741.244 144.701 741.611 144.901L740.911 148.551C740.544 148.418 740.144 148.318 739.711 148.251C739.278 148.185 738.661 148.151 737.861 148.151C736.828 148.151 735.778 148.451 734.711 149.051C733.678 149.651 732.811 150.568 732.111 151.801C731.411 153.001 731.061 154.535 731.061 156.401V169.901H727.061Z" fill="#0E0E0E"/>
</svg>
