<svg width="583" height="108" viewBox="0 0 583 108" fill="none" xmlns="http://www.w3.org/2000/svg">
<path d="M51.5902 7.2V60H45.5102V26.8L46.2302 12.88H46.1502L28.7902 60H23.3502L5.99016 12.88H5.91016L6.63016 26.8V60H0.550156V7.2H10.3902L21.9902 39.28L25.9902 52.48H26.1502L30.2302 39.36L41.7502 7.2H51.5902ZM90.5227 34.16C90.5227 31.1733 89.7227 28.88 88.1227 27.28C86.5227 25.6267 84.256 24.8 81.3227 24.8C78.5493 24.8 76.2027 25.4133 74.2827 26.64C72.3627 27.8133 70.9493 29.7333 70.0427 32.4L64.8427 29.2C65.9093 26.2133 67.8827 23.8133 70.7627 22C73.6427 20.1333 77.216 19.2 81.4827 19.2C84.3627 19.2 86.976 19.7067 89.3227 20.72C91.6693 21.68 93.5093 23.1733 94.8427 25.2C96.2293 27.1733 96.9227 29.7333 96.9227 32.88V52.24C96.9227 54.16 97.936 55.12 99.9627 55.12C100.976 55.12 101.963 54.9867 102.923 54.72L102.603 59.76C101.536 60.2933 100.149 60.56 98.4427 60.56C96.4693 60.56 94.7627 60.08 93.3227 59.12C91.936 58.16 91.0293 56.6933 90.6027 54.72C89.216 56.8 87.3227 58.3467 84.9227 59.36C82.5227 60.32 80.1493 60.8 77.8027 60.8C75.456 60.8 73.2693 60.4 71.2427 59.6C69.216 58.8 67.5893 57.6 66.3627 56C65.1893 54.3467 64.6027 52.32 64.6027 49.92C64.6027 46.9333 65.5893 44.48 67.5627 42.56C69.5893 40.5867 72.3893 39.2533 75.9627 38.56L90.5227 35.68V34.16ZM71.1627 49.6C71.1627 51.2533 71.8027 52.6133 73.0827 53.68C74.416 54.6933 76.2827 55.2 78.6827 55.2C80.7627 55.2 82.6827 54.8533 84.4427 54.16C86.256 53.4133 87.7227 52.32 88.8427 50.88C89.9627 49.3867 90.5227 47.4933 90.5227 45.2V40.96L78.9227 43.36C76.3093 43.8933 74.3627 44.64 73.0827 45.6C71.8027 46.56 71.1627 47.8933 71.1627 49.6ZM134.913 20V25.52H120.353V48.96C120.353 50.9333 120.913 52.4 122.033 53.36C123.153 54.32 124.593 54.8 126.353 54.8C127.899 54.8 129.233 54.5333 130.353 54C131.473 53.4667 132.486 52.7467 133.393 51.84L135.633 57.2C134.406 58.32 132.939 59.2 131.233 59.84C129.579 60.48 127.659 60.8 125.473 60.8C123.446 60.8 121.553 60.4533 119.793 59.76C118.033 59.0133 116.619 57.8667 115.553 56.32C114.539 54.72 114.006 52.64 113.953 50.08V25.52H105.953V20H113.953V10.4L120.353 8.64V20H134.913ZM161.148 60.8C157.362 60.8 153.975 59.9733 150.988 58.32C148.055 56.6667 145.762 54.2933 144.108 51.2C142.455 48.0533 141.628 44.32 141.628 40C141.628 35.68 142.455 31.9733 144.108 28.88C145.762 25.7333 148.028 23.3333 150.908 21.68C153.788 20.0267 157.068 19.2 160.748 19.2C164.482 19.2 167.655 20 170.268 21.6C172.935 23.2 174.962 25.3867 176.348 28.16C177.735 30.88 178.428 33.9467 178.428 37.36C178.428 38.2667 178.402 39.0933 178.348 39.84C178.295 40.5867 178.215 41.2533 178.108 41.84H147.948C148.268 46.0533 149.575 49.3333 151.868 51.68C154.162 54.0267 157.202 55.2 160.988 55.2C163.922 55.2 166.295 54.64 168.108 53.52C169.975 52.4 171.468 50.88 172.588 48.96L177.628 51.92C176.135 54.64 173.975 56.8 171.148 58.4C168.375 60 165.042 60.8 161.148 60.8ZM160.588 24.8C157.228 24.8 154.455 25.8133 152.268 27.84C150.135 29.8133 148.775 32.5867 148.188 36.16H172.028C171.868 32.5333 170.748 29.7333 168.668 27.76C166.588 25.7867 163.895 24.8 160.588 24.8ZM205.08 60.8C202.52 60.8 200.093 60.32 197.8 59.36C195.56 58.4 193.72 56.8533 192.28 54.72C190.893 52.5333 190.2 49.7067 190.2 46.24V20H196.6V44.56C196.6 48.6133 197.48 51.4133 199.24 52.96C201 54.4533 203.48 55.2 206.68 55.2C208.707 55.2 210.627 54.7467 212.44 53.84C214.253 52.88 215.747 51.4133 216.92 49.44C218.093 47.4667 218.68 44.9067 218.68 41.76V20H225.08V60H219.48L219.08 53.92C217.693 56.32 215.8 58.08 213.4 59.2C211.053 60.2667 208.28 60.8 205.08 60.8ZM254.375 60.8C250.482 60.8 246.882 59.9733 243.575 58.32C240.322 56.6667 237.815 54.32 236.055 51.28L241.495 47.36C242.668 49.8133 244.375 51.7333 246.615 53.12C248.908 54.5067 251.655 55.2 254.855 55.2C257.682 55.2 259.895 54.6667 261.495 53.6C263.095 52.48 263.895 51.04 263.895 49.28C263.895 48.16 263.522 47.1467 262.775 46.24C262.082 45.28 260.722 44.5867 258.695 44.16L249.095 42.16C245.202 41.36 242.402 40.0267 240.695 38.16C239.042 36.2933 238.215 33.9733 238.215 31.2C238.215 29.0133 238.828 27.0133 240.055 25.2C241.335 23.3867 243.122 21.9467 245.415 20.88C247.762 19.76 250.508 19.2 253.655 19.2C257.602 19.2 260.935 19.9733 263.655 21.52C266.375 23.0667 268.402 25.2533 269.735 28.08L264.375 31.6C263.468 29.2533 262.002 27.5467 259.975 26.48C257.948 25.36 255.842 24.8 253.655 24.8C250.775 24.8 248.535 25.3867 246.935 26.56C245.335 27.7333 244.535 29.2 244.535 30.96C244.535 32.1333 244.935 33.2267 245.735 34.24C246.535 35.2 248.028 35.8933 250.215 36.32L260.215 38.4C263.948 39.1467 266.562 40.3733 268.055 42.08C269.548 43.7867 270.295 45.8667 270.295 48.32C270.295 52.1067 268.828 55.1467 265.895 57.44C262.962 59.68 259.122 60.8 254.375 60.8ZM279.283 60V55.12L300.243 30.56L305.283 25.36L298.163 25.52H279.523V20H312.403V24.88L291.443 49.44L286.483 54.64L294.243 54.48H313.043V60H279.283ZM390.723 54V60H349.203V54.32L382.083 13.2H350.003V7.2H389.683V12.88L356.803 54H390.723ZM425.913 34.16C425.913 31.1733 425.113 28.88 423.513 27.28C421.913 25.6267 419.647 24.8 416.713 24.8C413.94 24.8 411.593 25.4133 409.673 26.64C407.753 27.8133 406.34 29.7333 405.433 32.4L400.233 29.2C401.3 26.2133 403.273 23.8133 406.153 22C409.033 20.1333 412.607 19.2 416.873 19.2C419.753 19.2 422.367 19.7067 424.713 20.72C427.06 21.68 428.9 23.1733 430.233 25.2C431.62 27.1733 432.313 29.7333 432.313 32.88V52.24C432.313 54.16 433.327 55.12 435.353 55.12C436.367 55.12 437.353 54.9867 438.313 54.72L437.993 59.76C436.927 60.2933 435.54 60.56 433.833 60.56C431.86 60.56 430.153 60.08 428.713 59.12C427.327 58.16 426.42 56.6933 425.993 54.72C424.607 56.8 422.713 58.3467 420.313 59.36C417.913 60.32 415.54 60.8 413.193 60.8C410.847 60.8 408.66 60.4 406.633 59.6C404.607 58.8 402.98 57.6 401.753 56C400.58 54.3467 399.993 52.32 399.993 49.92C399.993 46.9333 400.98 44.48 402.953 42.56C404.98 40.5867 407.78 39.2533 411.353 38.56L425.913 35.68V34.16ZM406.553 49.6C406.553 51.2533 407.193 52.6133 408.473 53.68C409.807 54.6933 411.673 55.2 414.073 55.2C416.153 55.2 418.073 54.8533 419.833 54.16C421.647 53.4133 423.113 52.32 424.233 50.88C425.353 49.3867 425.913 47.4933 425.913 45.2V40.96L414.313 43.36C411.7 43.8933 409.753 44.64 408.473 45.6C407.193 46.56 406.553 47.8933 406.553 49.6ZM447.866 60V20H453.466L453.866 26.24C455.252 23.7333 457.146 21.9467 459.546 20.88C461.946 19.76 464.532 19.2 467.306 19.2C470.186 19.2 472.799 19.76 475.146 20.88C477.492 21.9467 479.359 23.6 480.746 25.84C482.186 28.08 482.906 30.9333 482.906 34.4V60H476.506V36.64C476.506 32.2133 475.546 29.1467 473.626 27.44C471.759 25.68 469.439 24.8 466.666 24.8C464.746 24.8 462.826 25.2533 460.906 26.16C458.986 27.0667 457.386 28.5333 456.106 30.56C454.879 32.5867 454.266 35.3067 454.266 38.72V60H447.866ZM468.026 -4.76837e-06H474.986L467.146 13.36H461.946L468.026 -4.76837e-06ZM532.517 20L516.917 35.6L533.477 60H525.717L512.277 40.24L503.797 48.72V60H497.397V1.6H503.797V40.72L524.437 20H532.517ZM557.941 19.2C561.728 19.2 565.061 20.0267 567.941 21.68C570.875 23.3333 573.168 25.7333 574.821 28.88C576.475 31.9733 577.301 35.68 577.301 40C577.301 44.32 576.475 48.0533 574.821 51.2C573.168 54.2933 570.875 56.6667 567.941 58.32C565.061 59.9733 561.728 60.8 557.941 60.8C554.208 60.8 550.875 59.9733 547.941 58.32C545.008 56.6667 542.715 54.2933 541.061 51.2C539.408 48.0533 538.581 44.32 538.581 40C538.581 35.68 539.408 31.9733 541.061 28.88C542.715 25.7333 545.008 23.3333 547.941 21.68C550.875 20.0267 554.208 19.2 557.941 19.2ZM557.941 24.72C553.888 24.72 550.715 26.08 548.421 28.8C546.128 31.52 544.981 35.2533 544.981 40C544.981 44.7467 546.128 48.48 548.421 51.2C550.715 53.92 553.888 55.28 557.941 55.28C561.995 55.28 565.168 53.92 567.461 51.2C569.755 48.48 570.901 44.7467 570.901 40C570.901 35.2533 569.755 31.52 567.461 28.8C565.168 26.08 561.995 24.72 557.941 24.72ZM156.026 76.9C157.589 76.9 158.942 77.1917 160.086 77.775C161.252 78.335 162.162 79.14 162.816 80.19C163.469 81.24 163.796 82.4883 163.796 83.935C163.796 85.3817 163.469 86.63 162.816 87.68C162.162 88.73 161.252 89.5467 160.086 90.13C158.942 90.69 157.589 90.97 156.026 90.97H150.671V100H147.871V76.9H156.026ZM155.606 88.345C157.426 88.345 158.756 87.9717 159.596 87.225C160.436 86.455 160.856 85.3583 160.856 83.935C160.856 82.4883 160.436 81.3917 159.596 80.645C158.756 79.8983 157.426 79.525 155.606 79.525H150.671V88.345H155.606ZM178.928 88.695C178.928 87.3883 178.578 86.385 177.878 85.685C177.178 84.9617 176.186 84.6 174.903 84.6C173.69 84.6 172.663 84.8683 171.823 85.405C170.983 85.9183 170.365 86.7583 169.968 87.925L167.693 86.525C168.16 85.2183 169.023 84.1683 170.283 83.375C171.543 82.5583 173.106 82.15 174.973 82.15C176.233 82.15 177.376 82.3717 178.403 82.815C179.43 83.235 180.235 83.8883 180.818 84.775C181.425 85.6383 181.728 86.7583 181.728 88.135V96.605C181.728 97.445 182.171 97.865 183.058 97.865C183.501 97.865 183.933 97.8067 184.353 97.69L184.213 99.895C183.746 100.128 183.14 100.245 182.393 100.245C181.53 100.245 180.783 100.035 180.153 99.615C179.546 99.195 179.15 98.5533 178.963 97.69C178.356 98.6 177.528 99.2767 176.478 99.72C175.428 100.14 174.39 100.35 173.363 100.35C172.336 100.35 171.38 100.175 170.493 99.825C169.606 99.475 168.895 98.95 168.358 98.25C167.845 97.5267 167.588 96.64 167.588 95.59C167.588 94.2833 168.02 93.21 168.883 92.37C169.77 91.5067 170.995 90.9233 172.558 90.62L178.928 89.36V88.695ZM170.458 95.45C170.458 96.1733 170.738 96.7683 171.298 97.235C171.881 97.6783 172.698 97.9 173.748 97.9C174.658 97.9 175.498 97.7483 176.268 97.445C177.061 97.1183 177.703 96.64 178.193 96.01C178.683 95.3567 178.928 94.5283 178.928 93.525V91.67L173.853 92.72C172.71 92.9533 171.858 93.28 171.298 93.7C170.738 94.12 170.458 94.7033 170.458 95.45ZM194.832 100.35C193.129 100.35 191.554 99.9883 190.107 99.265C188.684 98.5417 187.587 97.515 186.817 96.185L189.197 94.47C189.711 95.5433 190.457 96.3833 191.437 96.99C192.441 97.5967 193.642 97.9 195.042 97.9C196.279 97.9 197.247 97.6667 197.947 97.2C198.647 96.71 198.997 96.08 198.997 95.31C198.997 94.82 198.834 94.3767 198.507 93.98C198.204 93.56 197.609 93.2567 196.722 93.07L192.522 92.195C190.819 91.845 189.594 91.2617 188.847 90.445C188.124 89.6283 187.762 88.6133 187.762 87.4C187.762 86.4433 188.031 85.5683 188.567 84.775C189.127 83.9817 189.909 83.3517 190.912 82.885C191.939 82.395 193.141 82.15 194.517 82.15C196.244 82.15 197.702 82.4883 198.892 83.165C200.082 83.8417 200.969 84.7983 201.552 86.035L199.207 87.575C198.811 86.5483 198.169 85.8017 197.282 85.335C196.396 84.845 195.474 84.6 194.517 84.6C193.257 84.6 192.277 84.8567 191.577 85.37C190.877 85.8833 190.527 86.525 190.527 87.295C190.527 87.8083 190.702 88.2867 191.052 88.73C191.402 89.15 192.056 89.4533 193.012 89.64L197.387 90.55C199.021 90.8767 200.164 91.4133 200.817 92.16C201.471 92.9067 201.797 93.8167 201.797 94.89C201.797 96.5467 201.156 97.8767 199.872 98.88C198.589 99.86 196.909 100.35 194.832 100.35ZM208.389 79.14C207.759 79.14 207.246 78.9533 206.849 78.58C206.476 78.1833 206.289 77.67 206.289 77.04C206.289 76.41 206.476 75.9083 206.849 75.535C207.246 75.1383 207.759 74.94 208.389 74.94C209.019 74.94 209.521 75.1383 209.894 75.535C210.291 75.9083 210.489 76.41 210.489 77.04C210.489 77.67 210.291 78.1833 209.894 78.58C209.521 78.9533 209.019 79.14 208.389 79.14ZM209.789 82.5V101.785C209.789 103.232 209.509 104.375 208.949 105.215C208.389 106.055 207.701 106.65 206.884 107C206.068 107.35 205.263 107.525 204.469 107.525C203.746 107.525 203.081 107.408 202.474 107.175C201.868 106.965 201.366 106.697 200.969 106.37L201.564 103.71C201.891 104.013 202.299 104.27 202.789 104.48C203.279 104.69 203.828 104.795 204.434 104.795C205.181 104.795 205.788 104.55 206.254 104.06C206.744 103.57 206.989 102.718 206.989 101.505V82.5H209.789ZM223.531 82.15C225.188 82.15 226.646 82.5117 227.906 83.235C229.19 83.9583 230.193 85.0083 230.916 86.385C231.64 87.7383 232.001 89.36 232.001 91.25C232.001 93.14 231.64 94.7733 230.916 96.15C230.193 97.5033 229.19 98.5417 227.906 99.265C226.646 99.9883 225.188 100.35 223.531 100.35C221.898 100.35 220.44 99.9883 219.156 99.265C217.873 98.5417 216.87 97.5033 216.146 96.15C215.423 94.7733 215.061 93.14 215.061 91.25C215.061 89.36 215.423 87.7383 216.146 86.385C216.87 85.0083 217.873 83.9583 219.156 83.235C220.44 82.5117 221.898 82.15 223.531 82.15ZM223.531 84.565C221.758 84.565 220.37 85.16 219.366 86.35C218.363 87.54 217.861 89.1733 217.861 91.25C217.861 93.3267 218.363 94.96 219.366 96.15C220.37 97.34 221.758 97.935 223.531 97.935C225.305 97.935 226.693 97.34 227.696 96.15C228.7 94.96 229.201 93.3267 229.201 91.25C229.201 89.1733 228.7 87.54 227.696 86.35C226.693 85.16 225.305 84.565 223.531 84.565ZM237.273 100V82.5H239.723L239.898 85.23C240.504 84.1333 241.333 83.3517 242.383 82.885C243.433 82.395 244.564 82.15 245.778 82.15C247.038 82.15 248.181 82.395 249.208 82.885C250.234 83.3517 251.051 84.075 251.658 85.055C252.288 86.035 252.603 87.2833 252.603 88.8V100H249.803V89.78C249.803 87.8433 249.383 86.5017 248.543 85.755C247.726 84.985 246.711 84.6 245.498 84.6C244.658 84.6 243.818 84.7983 242.978 85.195C242.138 85.5917 241.438 86.2333 240.878 87.12C240.341 88.0067 240.073 89.1967 240.073 90.69V100H237.273ZM269.163 88.695C269.163 87.3883 268.813 86.385 268.113 85.685C267.413 84.9617 266.421 84.6 265.138 84.6C263.924 84.6 262.898 84.8683 262.058 85.405C261.218 85.9183 260.599 86.7583 260.203 87.925L257.928 86.525C258.394 85.2183 259.258 84.1683 260.518 83.375C261.778 82.5583 263.341 82.15 265.208 82.15C266.468 82.15 267.611 82.3717 268.638 82.815C269.664 83.235 270.469 83.8883 271.053 84.775C271.659 85.6383 271.963 86.7583 271.963 88.135V96.605C271.963 97.445 272.406 97.865 273.293 97.865C273.736 97.865 274.168 97.8067 274.588 97.69L274.448 99.895C273.981 100.128 273.374 100.245 272.628 100.245C271.764 100.245 271.018 100.035 270.388 99.615C269.781 99.195 269.384 98.5533 269.198 97.69C268.591 98.6 267.763 99.2767 266.713 99.72C265.663 100.14 264.624 100.35 263.598 100.35C262.571 100.35 261.614 100.175 260.728 99.825C259.841 99.475 259.129 98.95 258.593 98.25C258.079 97.5267 257.823 96.64 257.823 95.59C257.823 94.2833 258.254 93.21 259.118 92.37C260.004 91.5067 261.229 90.9233 262.793 90.62L269.163 89.36V88.695ZM260.693 95.45C260.693 96.1733 260.973 96.7683 261.533 97.235C262.116 97.6783 262.933 97.9 263.983 97.9C264.893 97.9 265.733 97.7483 266.503 97.445C267.296 97.1183 267.938 96.64 268.428 96.01C268.918 95.3567 269.163 94.5283 269.163 93.525V91.67L264.088 92.72C262.944 92.9533 262.093 93.28 261.533 93.7C260.973 94.12 260.693 94.7033 260.693 95.45ZM288.583 82.5V84.915H282.213V95.17C282.213 96.0333 282.458 96.675 282.948 97.095C283.438 97.515 284.068 97.725 284.838 97.725C285.515 97.725 286.098 97.6083 286.588 97.375C287.078 97.1417 287.521 96.8267 287.918 96.43L288.898 98.775C288.361 99.265 287.72 99.65 286.973 99.93C286.25 100.21 285.41 100.35 284.453 100.35C283.566 100.35 282.738 100.198 281.968 99.895C281.198 99.5683 280.58 99.0667 280.113 98.39C279.67 97.69 279.436 96.78 279.413 95.66V84.915H275.913V82.5H279.413V78.3L282.213 77.53V82.5H288.583ZM322.875 76.9V91.39C322.875 94.3533 322.093 96.5933 320.53 98.11C318.967 99.6033 316.727 100.35 313.81 100.35C310.917 100.35 308.677 99.6033 307.09 98.11C305.527 96.5933 304.745 94.3533 304.745 91.39V76.9H307.545V90.69C307.545 93.0933 308.047 94.8667 309.05 96.01C310.077 97.1533 311.663 97.725 313.81 97.725C315.957 97.725 317.532 97.1533 318.535 96.01C319.562 94.8667 320.075 93.0933 320.075 90.69V76.9H322.875ZM346.115 100H342.895L336.63 90.48L330.33 100H327.075L335.16 88.24L327.775 76.9H331.065L336.91 85.895L342.825 76.9H345.87L338.38 88.1L346.115 100ZM373.123 74.45L362.413 102.45H359.788L370.498 74.45H373.123ZM407.47 76.9V91.39C407.47 94.3533 406.688 96.5933 405.125 98.11C403.561 99.6033 401.321 100.35 398.405 100.35C395.511 100.35 393.271 99.6033 391.685 98.11C390.121 96.5933 389.34 94.3533 389.34 91.39V76.9H392.14V90.69C392.14 93.0933 392.641 94.8667 393.645 96.01C394.671 97.1533 396.258 97.725 398.405 97.725C400.551 97.725 402.126 97.1533 403.13 96.01C404.156 94.8667 404.67 93.0933 404.67 90.69V76.9H407.47ZM417.375 76.9V100H414.575V76.9H417.375ZM444.315 76.9C447.932 76.9 450.767 77.9033 452.82 79.91C454.897 81.8933 455.935 84.74 455.935 88.45C455.935 92.16 454.897 95.0183 452.82 97.025C450.767 99.0083 447.932 100 444.315 100H436.86V76.9H444.315ZM444.595 97.375C447.232 97.375 449.285 96.5933 450.755 95.03C452.248 93.4433 452.995 91.25 452.995 88.45C452.995 85.65 452.248 83.4683 450.755 81.905C449.285 80.3183 447.232 79.525 444.595 79.525H439.66V97.375H444.595ZM468.875 100.35C467.218 100.35 465.736 99.9883 464.43 99.265C463.146 98.5417 462.143 97.5033 461.42 96.15C460.696 94.7733 460.335 93.14 460.335 91.25C460.335 89.36 460.696 87.7383 461.42 86.385C462.143 85.0083 463.135 83.9583 464.395 83.235C465.655 82.5117 467.09 82.15 468.7 82.15C470.333 82.15 471.721 82.5 472.865 83.2C474.031 83.9 474.918 84.8567 475.525 86.07C476.131 87.26 476.435 88.6017 476.435 90.095C476.435 90.4917 476.423 90.8533 476.4 91.18C476.376 91.5067 476.341 91.7983 476.295 92.055H463.1C463.24 93.8983 463.811 95.3333 464.815 96.36C465.818 97.3867 467.148 97.9 468.805 97.9C470.088 97.9 471.126 97.655 471.92 97.165C472.736 96.675 473.39 96.01 473.88 95.17L476.085 96.465C475.431 97.655 474.486 98.6 473.25 99.3C472.036 100 470.578 100.35 468.875 100.35ZM468.63 84.6C467.16 84.6 465.946 85.0433 464.99 85.93C464.056 86.7933 463.461 88.0067 463.205 89.57H473.635C473.565 87.9833 473.075 86.7583 472.165 85.895C471.255 85.0317 470.076 84.6 468.63 84.6ZM488.06 100.35C486.357 100.35 484.782 99.9883 483.335 99.265C481.912 98.5417 480.815 97.515 480.045 96.185L482.425 94.47C482.938 95.5433 483.685 96.3833 484.665 96.99C485.668 97.5967 486.87 97.9 488.27 97.9C489.507 97.9 490.475 97.6667 491.175 97.2C491.875 96.71 492.225 96.08 492.225 95.31C492.225 94.82 492.062 94.3767 491.735 93.98C491.432 93.56 490.837 93.2567 489.95 93.07L485.75 92.195C484.047 91.845 482.822 91.2617 482.075 90.445C481.352 89.6283 480.99 88.6133 480.99 87.4C480.99 86.4433 481.258 85.5683 481.795 84.775C482.355 83.9817 483.137 83.3517 484.14 82.885C485.167 82.395 486.368 82.15 487.745 82.15C489.472 82.15 490.93 82.4883 492.12 83.165C493.31 83.8417 494.197 84.7983 494.78 86.035L492.435 87.575C492.038 86.5483 491.397 85.8017 490.51 85.335C489.623 84.845 488.702 84.6 487.745 84.6C486.485 84.6 485.505 84.8567 484.805 85.37C484.105 85.8833 483.755 86.525 483.755 87.295C483.755 87.8083 483.93 88.2867 484.28 88.73C484.63 89.15 485.283 89.4533 486.24 89.64L490.615 90.55C492.248 90.8767 493.392 91.4133 494.045 92.16C494.698 92.9067 495.025 93.8167 495.025 94.89C495.025 96.5467 494.383 97.8767 493.1 98.88C491.817 99.86 490.137 100.35 488.06 100.35ZM501.617 79.14C500.987 79.14 500.474 78.9533 500.077 78.58C499.704 78.1833 499.517 77.67 499.517 77.04C499.517 76.41 499.704 75.9083 500.077 75.535C500.474 75.1383 500.987 74.94 501.617 74.94C502.247 74.94 502.749 75.1383 503.122 75.535C503.519 75.9083 503.717 76.41 503.717 77.04C503.717 77.67 503.519 78.1833 503.122 78.58C502.749 78.9533 502.247 79.14 501.617 79.14ZM503.017 82.5V100H500.217V82.5H503.017ZM518.929 97.76C520.585 97.76 521.88 98.145 522.814 98.915C523.747 99.6617 524.214 100.665 524.214 101.925C524.214 103.068 523.829 104.06 523.059 104.9C522.312 105.74 521.297 106.382 520.014 106.825C518.754 107.292 517.33 107.525 515.744 107.525C512.99 107.525 510.925 107.058 509.549 106.125C508.195 105.192 507.519 104.072 507.519 102.765C507.519 101.972 507.74 101.248 508.184 100.595C508.627 99.9417 509.362 99.475 510.389 99.195C509.829 98.9383 509.374 98.5883 509.024 98.145C508.674 97.6783 508.499 97.06 508.499 96.29C508.499 95.5667 508.709 94.9133 509.129 94.33C509.549 93.7233 510.179 93.2567 511.019 92.93C510.132 92.4167 509.455 91.74 508.989 90.9C508.522 90.06 508.289 89.115 508.289 88.065C508.289 86.8983 508.592 85.8717 509.199 84.985C509.829 84.0983 510.68 83.41 511.754 82.92C512.827 82.4067 514.064 82.15 515.464 82.15C516.934 82.15 518.252 82.4417 519.419 83.025C519.582 81.8583 520.095 80.9483 520.959 80.295C521.845 79.6183 522.884 79.28 524.074 79.28H524.249L524.879 81.765H524.634C523.56 81.765 522.72 81.9633 522.114 82.36C521.507 82.7567 521.169 83.375 521.099 84.215C522.125 85.2883 522.639 86.5717 522.639 88.065C522.639 89.2083 522.335 90.235 521.729 91.145C521.122 92.0317 520.27 92.7317 519.174 93.245C518.1 93.735 516.864 93.98 515.464 93.98C514.6 93.98 513.795 93.8983 513.049 93.735C512.349 93.945 511.847 94.2367 511.544 94.61C511.24 94.9833 511.089 95.3917 511.089 95.835C511.089 97.1183 511.999 97.76 513.819 97.76H518.929ZM515.464 84.425C514.25 84.425 513.235 84.7633 512.419 85.44C511.602 86.0933 511.194 86.9683 511.194 88.065C511.194 89.1383 511.602 90.0133 512.419 90.69C513.235 91.3667 514.25 91.705 515.464 91.705C516.677 91.705 517.692 91.3667 518.509 90.69C519.325 90.0133 519.734 89.1383 519.734 88.065C519.734 86.9683 519.325 86.0933 518.509 85.44C517.692 84.7633 516.677 84.425 515.464 84.425ZM515.709 105.18C517.739 105.18 519.232 104.877 520.189 104.27C521.145 103.687 521.624 103.01 521.624 102.24C521.624 101.61 521.367 101.108 520.854 100.735C520.364 100.362 519.465 100.175 518.159 100.175H512.769C512.022 100.175 511.392 100.362 510.879 100.735C510.365 101.132 510.109 101.668 510.109 102.345C510.109 103.208 510.599 103.897 511.579 104.41C512.582 104.923 513.959 105.18 515.709 105.18ZM528.142 100V82.5H530.592L530.767 85.23C531.373 84.1333 532.202 83.3517 533.252 82.885C534.302 82.395 535.433 82.15 536.647 82.15C537.907 82.15 539.05 82.395 540.077 82.885C541.103 83.3517 541.92 84.075 542.527 85.055C543.157 86.035 543.472 87.2833 543.472 88.8V100H540.672V89.78C540.672 87.8433 540.252 86.5017 539.412 85.755C538.595 84.985 537.58 84.6 536.367 84.6C535.527 84.6 534.687 84.7983 533.847 85.195C533.007 85.5917 532.307 86.2333 531.747 87.12C531.21 88.0067 530.942 89.1967 530.942 90.69V100H528.142ZM561.257 89.395V92.3H549.707V89.395H561.257ZM573.988 100.35C572.868 100.35 571.807 100.14 570.803 99.72C569.823 99.3 569.018 98.6233 568.388 97.69C567.782 96.7333 567.478 95.4967 567.478 93.98V82.5H570.278V93.245C570.278 95.0183 570.663 96.2433 571.433 96.92C572.203 97.5733 573.288 97.9 574.688 97.9C575.575 97.9 576.415 97.7017 577.208 97.305C578.002 96.885 578.655 96.2433 579.168 95.38C579.682 94.5167 579.938 93.3967 579.938 92.02V82.5H582.738V100H580.288L580.113 97.34C579.507 98.39 578.678 99.16 577.628 99.65C576.602 100.117 575.388 100.35 573.988 100.35Z" fill="white"/>
</svg>
