<svg width="742" height="182" viewBox="0 0 742 182" fill="none" xmlns="http://www.w3.org/2000/svg">
<path d="M96.1219 63.8616L105.146 76.4542C107.371 73.6487 109.386 71.1692 111.145 69.0949L108.609 65.5561C106.292 66.4108 101.841 65.5942 96.1219 63.8616Z" fill="#BA11C9"/>
<path fill-rule="evenodd" clip-rule="evenodd" d="M125.401 62.2241C128.173 65.8384 125.775 75.145 117.634 78.1487C115.317 79.0033 110.866 78.1868 105.146 76.4542C107.371 73.6487 109.386 71.1692 111.145 69.0949L108.609 65.5561C116.199 62.756 118.797 54.4784 116.869 50.4412C116.77 50.2333 116.658 50.0366 116.535 49.8526L125.401 62.2241ZM5.57368 168.979L13.652 180.251C16.8666 189.261 41.1431 159.903 65.5699 128.206C99.4828 149.017 146.821 162.921 146.821 162.921L137.797 150.328C137.797 150.328 100.708 142.821 69.3397 123.299C74.2804 116.848 79.1831 110.377 83.8739 104.185C91.8667 93.6354 99.2444 83.8977 105.146 76.4542C105.146 76.4542 75.9022 99.8316 57.1639 114.811C55.1672 116.407 52.0511 118.898 52.0511 118.898C52.4546 119.215 52.8625 119.53 53.2745 119.845C36.5339 141.424 20.305 161.14 11.3648 167.317C8.75957 169.117 6.77328 169.767 5.57368 168.979ZM5.57368 168.979C5.16454 168.71 4.84691 168.273 4.62744 167.658L5.57368 168.979Z" fill="#BA11C9"/>
<path fill-rule="evenodd" clip-rule="evenodd" d="M108.609 65.5561C116.199 62.756 118.797 54.4784 116.869 50.4412C116.77 50.2333 116.658 50.0366 116.535 49.8526L125.401 62.2241C124.039 60.4475 121.427 60.0463 117.634 62.4451C116.34 63.2629 114.105 65.6054 111.145 69.0949L108.609 65.5561Z" fill="#BA11C9"/>
<path d="M13.652 44.3452C12.6198 44.6784 11.7575 48.3496 11.0683 54.2962C12.662 60.9768 15.0719 68.6815 19.0778 76.7332L21.8529 73.4585C19.55 65.8661 18.4123 59.1496 17.5533 54.0789C16.7595 49.3926 16.204 46.1125 15.1868 44.8457C14.7692 44.3256 14.2735 44.1445 13.652 44.3452Z" fill="#BA11C9"/>
<path d="M11.0683 54.2962C11.7575 48.3496 12.6198 44.6784 13.652 44.3452C14.2735 44.1445 14.7692 44.3256 15.1868 44.8457L6.56625 32.9882C7.69162 35.2756 8.14438 42.0392 11.0683 54.2962Z" fill="#BA11C9"/>
<path d="M57.1639 114.811L105.146 76.4542C101.415 75.0584 93.1692 78.7837 84.2504 79.2075C81.2645 83.1253 78.1192 87.2767 74.8721 91.5625L74.8493 91.5926C69.1624 99.0987 63.1638 107.016 57.1639 114.811Z" fill="#BA11C9"/>
<path d="M105.146 76.4542L96.1219 63.8616C94.3228 66.1305 92.3866 68.6125 90.3377 71.2658C88.4023 73.7721 86.3664 76.4311 84.2504 79.2075C93.1692 78.7837 101.415 75.0584 105.146 76.4542Z" fill="#BA11C9"/>
<path d="M137.573 149.783C137.573 149.783 83.938 137.251 55.885 116.028" stroke="#133085" stroke-width="1.27894"/>
<path d="M108.688 65.8635C120.832 61.3833 120.197 42.8809 108.688 50.16C106.626 51.4639 102.167 56.644 96.2007 64.169C101.92 65.9016 106.371 66.7182 108.688 65.8635Z" fill="#133085"/>
<path d="M19.0777 76.9348C19.1434 66.7723 17.7726 65.9649 21.1244 50.4409C24.4761 34.9169 40.7679 50.441 59.6428 62.6625C72.9546 72.7954 90.2737 62.0904 96.2007 64.3075L21.1244 124.322C21.1244 124.322 18.9324 99.425 19.0777 76.9348Z" fill="#1140C9"/>
<path d="M4.70636 167.902C-1.55663 150.348 -1.33778 33.9481 4.70636 31.9967C9.5399 30.4362 6.74262 51.9399 19.0778 76.733C18.9325 99.2232 21.1245 124.121 21.1245 124.121L43.1055 106.549L96.2008 64.1057C85.9551 77.0272 71.2627 96.8626 56.6243 115.858C32.1975 147.555 7.921 176.912 4.70636 167.902Z" fill="#133085"/>
<path d="M207.411 53.1014V105.901H201.331V72.7014L202.051 58.7814H201.971L184.611 105.901H179.171L161.811 58.7814H161.731L162.451 72.7014V105.901H156.371V53.1014H166.211L177.811 85.1814L181.811 98.3814H181.971L186.051 85.2614L197.571 53.1014H207.411ZM246.344 80.0614C246.344 77.0747 245.544 74.7814 243.944 73.1814C242.344 71.528 240.077 70.7014 237.144 70.7014C234.371 70.7014 232.024 71.3147 230.104 72.5414C228.184 73.7147 226.771 75.6347 225.864 78.3014L220.664 75.1014C221.731 72.1147 223.704 69.7147 226.584 67.9014C229.464 66.0347 233.037 65.1014 237.304 65.1014C240.184 65.1014 242.797 65.608 245.144 66.6214C247.491 67.5814 249.331 69.0747 250.664 71.1014C252.051 73.0747 252.744 75.6347 252.744 78.7814V98.1414C252.744 100.061 253.757 101.021 255.784 101.021C256.797 101.021 257.784 100.888 258.744 100.621L258.424 105.661C257.357 106.195 255.971 106.461 254.264 106.461C252.291 106.461 250.584 105.981 249.144 105.021C247.757 104.061 246.851 102.595 246.424 100.621C245.037 102.701 243.144 104.248 240.744 105.261C238.344 106.221 235.971 106.701 233.624 106.701C231.277 106.701 229.091 106.301 227.064 105.501C225.037 104.701 223.411 103.501 222.184 101.901C221.011 100.248 220.424 98.2214 220.424 95.8214C220.424 92.8347 221.411 90.3814 223.384 88.4614C225.411 86.488 228.211 85.1547 231.784 84.4614L246.344 81.5814V80.0614ZM226.984 95.5014C226.984 97.1547 227.624 98.5147 228.904 99.5814C230.237 100.595 232.104 101.101 234.504 101.101C236.584 101.101 238.504 100.755 240.264 100.061C242.077 99.3147 243.544 98.2214 244.664 96.7814C245.784 95.288 246.344 93.3947 246.344 91.1014V86.8614L234.744 89.2614C232.131 89.7947 230.184 90.5414 228.904 91.5014C227.624 92.4614 226.984 93.7947 226.984 95.5014ZM290.734 65.9014V71.4214H276.174V94.8614C276.174 96.8347 276.734 98.3014 277.854 99.2614C278.974 100.221 280.414 100.701 282.174 100.701C283.721 100.701 285.054 100.435 286.174 99.9014C287.294 99.368 288.307 98.648 289.214 97.7414L291.454 103.101C290.227 104.221 288.761 105.101 287.054 105.741C285.401 106.381 283.481 106.701 281.294 106.701C279.267 106.701 277.374 106.355 275.614 105.661C273.854 104.915 272.441 103.768 271.374 102.221C270.361 100.621 269.827 98.5414 269.774 95.9814V71.4214H261.774V65.9014H269.774V56.3014L276.174 54.5414V65.9014H290.734ZM316.97 106.701C313.183 106.701 309.796 105.875 306.81 104.221C303.876 102.568 301.583 100.195 299.93 97.1014C298.276 93.9547 297.45 90.2214 297.45 85.9014C297.45 81.5814 298.276 77.8747 299.93 74.7814C301.583 71.6347 303.85 69.2347 306.73 67.5814C309.61 65.928 312.89 65.1014 316.57 65.1014C320.303 65.1014 323.476 65.9014 326.09 67.5014C328.756 69.1014 330.783 71.288 332.17 74.0614C333.556 76.7814 334.25 79.848 334.25 83.2614C334.25 84.168 334.223 84.9947 334.17 85.7414C334.116 86.488 334.036 87.1547 333.93 87.7414H303.77C304.09 91.9547 305.396 95.2347 307.69 97.5814C309.983 99.928 313.023 101.101 316.81 101.101C319.743 101.101 322.116 100.541 323.93 99.4214C325.796 98.3014 327.29 96.7814 328.41 94.8614L333.45 97.8214C331.956 100.541 329.796 102.701 326.97 104.301C324.196 105.901 320.863 106.701 316.97 106.701ZM316.41 70.7014C313.05 70.7014 310.276 71.7147 308.09 73.7414C305.956 75.7147 304.596 78.488 304.01 82.0614H327.85C327.69 78.4347 326.57 75.6347 324.49 73.6614C322.41 71.688 319.716 70.7014 316.41 70.7014ZM360.901 106.701C358.341 106.701 355.915 106.221 353.621 105.261C351.381 104.301 349.541 102.755 348.101 100.621C346.715 98.4347 346.021 95.608 346.021 92.1414V65.9014H352.421V90.4614C352.421 94.5147 353.301 97.3147 355.061 98.8614C356.821 100.355 359.301 101.101 362.501 101.101C364.528 101.101 366.448 100.648 368.261 99.7414C370.075 98.7814 371.568 97.3147 372.741 95.3414C373.915 93.368 374.501 90.808 374.501 87.6614V65.9014H380.901V105.901H375.301L374.901 99.8214C373.515 102.221 371.621 103.981 369.221 105.101C366.875 106.168 364.101 106.701 360.901 106.701ZM410.196 106.701C406.303 106.701 402.703 105.875 399.396 104.221C396.143 102.568 393.636 100.221 391.876 97.1814L397.316 93.2614C398.49 95.7147 400.196 97.6347 402.436 99.0214C404.73 100.408 407.476 101.101 410.676 101.101C413.503 101.101 415.716 100.568 417.316 99.5014C418.916 98.3814 419.716 96.9414 419.716 95.1814C419.716 94.0614 419.343 93.048 418.596 92.1414C417.903 91.1814 416.543 90.488 414.516 90.0614L404.916 88.0614C401.023 87.2614 398.223 85.928 396.516 84.0614C394.863 82.1947 394.036 79.8747 394.036 77.1014C394.036 74.9147 394.65 72.9147 395.876 71.1014C397.156 69.288 398.943 67.848 401.236 66.7814C403.583 65.6614 406.33 65.1014 409.476 65.1014C413.423 65.1014 416.756 65.8747 419.476 67.4214C422.196 68.968 424.223 71.1547 425.556 73.9814L420.196 77.5014C419.29 75.1547 417.823 73.448 415.796 72.3814C413.77 71.2614 411.663 70.7014 409.476 70.7014C406.596 70.7014 404.356 71.288 402.756 72.4614C401.156 73.6347 400.356 75.1014 400.356 76.8614C400.356 78.0347 400.756 79.128 401.556 80.1414C402.356 81.1014 403.85 81.7947 406.036 82.2214L416.036 84.3014C419.77 85.048 422.383 86.2747 423.876 87.9814C425.37 89.688 426.116 91.768 426.116 94.2214C426.116 98.008 424.65 101.048 421.716 103.341C418.783 105.581 414.943 106.701 410.196 106.701ZM435.104 105.901V101.021L456.064 76.4614L461.104 71.2614L453.984 71.4214H435.344V65.9014H468.224V70.7814L447.264 95.3414L442.304 100.541L450.064 100.381H468.864V105.901H435.104ZM546.544 99.9014V105.901H505.024V100.221L537.904 59.1014H505.824V53.1014H545.504V58.7814L512.624 99.9014H546.544ZM581.735 80.0614C581.735 77.0747 580.935 74.7814 579.335 73.1814C577.735 71.528 575.468 70.7014 572.535 70.7014C569.761 70.7014 567.415 71.3147 565.495 72.5414C563.575 73.7147 562.161 75.6347 561.255 78.3014L556.055 75.1014C557.121 72.1147 559.095 69.7147 561.975 67.9014C564.855 66.0347 568.428 65.1014 572.695 65.1014C575.575 65.1014 578.188 65.608 580.535 66.6214C582.881 67.5814 584.721 69.0747 586.055 71.1014C587.441 73.0747 588.135 75.6347 588.135 78.7814V98.1414C588.135 100.061 589.148 101.021 591.175 101.021C592.188 101.021 593.175 100.888 594.135 100.621L593.815 105.661C592.748 106.195 591.361 106.461 589.655 106.461C587.681 106.461 585.975 105.981 584.535 105.021C583.148 104.061 582.241 102.595 581.815 100.621C580.428 102.701 578.535 104.248 576.135 105.261C573.735 106.221 571.361 106.701 569.015 106.701C566.668 106.701 564.481 106.301 562.455 105.501C560.428 104.701 558.801 103.501 557.575 101.901C556.401 100.248 555.815 98.2214 555.815 95.8214C555.815 92.8347 556.801 90.3814 558.775 88.4614C560.801 86.488 563.601 85.1547 567.175 84.4614L581.735 81.5814V80.0614ZM562.375 95.5014C562.375 97.1547 563.015 98.5147 564.295 99.5814C565.628 100.595 567.495 101.101 569.895 101.101C571.975 101.101 573.895 100.755 575.655 100.061C577.468 99.3147 578.935 98.2214 580.055 96.7814C581.175 95.288 581.735 93.3947 581.735 91.1014V86.8614L570.135 89.2614C567.521 89.7947 565.575 90.5414 564.295 91.5014C563.015 92.4614 562.375 93.7947 562.375 95.5014ZM603.687 105.901V65.9014H609.287L609.687 72.1414C611.074 69.6347 612.967 67.848 615.367 66.7814C617.767 65.6614 620.354 65.1014 623.127 65.1014C626.007 65.1014 628.62 65.6614 630.967 66.7814C633.314 67.848 635.18 69.5014 636.567 71.7414C638.007 73.9814 638.727 76.8347 638.727 80.3014V105.901H632.327V82.5414C632.327 78.1147 631.367 75.048 629.447 73.3414C627.58 71.5814 625.26 70.7014 622.487 70.7014C620.567 70.7014 618.647 71.1547 616.727 72.0614C614.807 72.968 613.207 74.4347 611.927 76.4614C610.7 78.488 610.087 81.208 610.087 84.6214V105.901H603.687ZM623.847 45.9014H630.807L622.967 59.2614H617.767L623.847 45.9014ZM688.338 65.9014L672.738 81.5014L689.298 105.901H681.538L668.098 86.1414L659.618 94.6214V105.901H653.218V47.5014H659.618V86.6214L680.258 65.9014H688.338ZM713.763 65.1014C717.549 65.1014 720.883 65.928 723.763 67.5814C726.696 69.2347 728.989 71.6347 730.643 74.7814C732.296 77.8747 733.123 81.5814 733.123 85.9014C733.123 90.2214 732.296 93.9547 730.643 97.1014C728.989 100.195 726.696 102.568 723.763 104.221C720.883 105.875 717.549 106.701 713.763 106.701C710.029 106.701 706.696 105.875 703.763 104.221C700.829 102.568 698.536 100.195 696.883 97.1014C695.229 93.9547 694.403 90.2214 694.403 85.9014C694.403 81.5814 695.229 77.8747 696.883 74.7814C698.536 71.6347 700.829 69.2347 703.763 67.5814C706.696 65.928 710.029 65.1014 713.763 65.1014ZM713.763 70.6214C709.709 70.6214 706.536 71.9814 704.243 74.7014C701.949 77.4214 700.803 81.1547 700.803 85.9014C700.803 90.648 701.949 94.3814 704.243 97.1014C706.536 99.8214 709.709 101.181 713.763 101.181C717.816 101.181 720.989 99.8214 723.283 97.1014C725.576 94.3814 726.723 90.648 726.723 85.9014C726.723 81.1547 725.576 77.4214 723.283 74.7014C720.989 71.9814 717.816 70.6214 713.763 70.6214Z" fill="#0E0E0E"/>
<path d="M406.602 136.901V157.601C406.602 161.835 405.485 165.035 403.252 167.201C401.019 169.335 397.819 170.401 393.652 170.401C389.519 170.401 386.319 169.335 384.052 167.201C381.819 165.035 380.702 161.835 380.702 157.601V136.901H384.702V156.601C384.702 160.035 385.419 162.568 386.852 164.201C388.319 165.835 390.585 166.651 393.652 166.651C396.719 166.651 398.969 165.835 400.402 164.201C401.869 162.568 402.602 160.035 402.602 156.601V136.901H406.602ZM439.803 169.901H435.203L426.253 156.301L417.253 169.901H412.603L424.153 153.101L413.603 136.901H418.303L426.653 149.751L435.103 136.901H439.453L428.753 152.901L439.803 169.901ZM461.832 133.401L446.532 173.401H442.782L458.082 133.401H461.832ZM493.858 136.901V157.601C493.858 161.835 492.741 165.035 490.508 167.201C488.275 169.335 485.075 170.401 480.908 170.401C476.775 170.401 473.575 169.335 471.308 167.201C469.075 165.035 467.958 161.835 467.958 157.601V136.901H471.958V156.601C471.958 160.035 472.675 162.568 474.108 164.201C475.575 165.835 477.841 166.651 480.908 166.651C483.975 166.651 486.225 165.835 487.658 164.201C489.125 162.568 489.858 160.035 489.858 156.601V136.901H493.858ZM508.008 136.901V169.901H504.008V136.901H508.008ZM546.494 136.901C551.661 136.901 555.711 138.335 558.644 141.201C561.611 144.035 563.094 148.101 563.094 153.401C563.094 158.701 561.611 162.785 558.644 165.651C555.711 168.485 551.661 169.901 546.494 169.901H535.844V136.901H546.494ZM546.894 166.151C550.661 166.151 553.594 165.035 555.694 162.801C557.828 160.535 558.894 157.401 558.894 153.401C558.894 149.401 557.828 146.285 555.694 144.051C553.594 141.785 550.661 140.651 546.894 140.651H539.844V166.151H546.894ZM581.579 170.401C579.213 170.401 577.096 169.885 575.229 168.851C573.396 167.818 571.963 166.335 570.929 164.401C569.896 162.435 569.379 160.101 569.379 157.401C569.379 154.701 569.896 152.385 570.929 150.451C571.963 148.485 573.379 146.985 575.179 145.951C576.979 144.918 579.029 144.401 581.329 144.401C583.663 144.401 585.646 144.901 587.279 145.901C588.946 146.901 590.213 148.268 591.079 150.001C591.946 151.701 592.379 153.618 592.379 155.751C592.379 156.318 592.363 156.835 592.329 157.301C592.296 157.768 592.246 158.185 592.179 158.551H573.329C573.529 161.185 574.346 163.235 575.779 164.701C577.213 166.168 579.113 166.901 581.479 166.901C583.313 166.901 584.796 166.551 585.929 165.851C587.096 165.151 588.029 164.201 588.729 163.001L591.879 164.851C590.946 166.551 589.596 167.901 587.829 168.901C586.096 169.901 584.013 170.401 581.579 170.401ZM581.229 147.901C579.129 147.901 577.396 148.535 576.029 149.801C574.696 151.035 573.846 152.768 573.479 155.001H588.379C588.279 152.735 587.579 150.985 586.279 149.751C584.979 148.518 583.296 147.901 581.229 147.901ZM608.987 170.401C606.554 170.401 604.304 169.885 602.237 168.851C600.204 167.818 598.637 166.351 597.537 164.451L600.937 162.001C601.67 163.535 602.737 164.735 604.137 165.601C605.57 166.468 607.287 166.901 609.287 166.901C611.054 166.901 612.437 166.568 613.437 165.901C614.437 165.201 614.937 164.301 614.937 163.201C614.937 162.501 614.704 161.868 614.237 161.301C613.804 160.701 612.954 160.268 611.687 160.001L605.687 158.751C603.254 158.251 601.504 157.418 600.437 156.251C599.404 155.085 598.887 153.635 598.887 151.901C598.887 150.535 599.27 149.285 600.037 148.151C600.837 147.018 601.954 146.118 603.387 145.451C604.854 144.751 606.57 144.401 608.537 144.401C611.004 144.401 613.087 144.885 614.787 145.851C616.487 146.818 617.754 148.185 618.587 149.951L615.237 152.151C614.67 150.685 613.754 149.618 612.487 148.951C611.22 148.251 609.904 147.901 608.537 147.901C606.737 147.901 605.337 148.268 604.337 149.001C603.337 149.735 602.837 150.651 602.837 151.751C602.837 152.485 603.087 153.168 603.587 153.801C604.087 154.401 605.02 154.835 606.387 155.101L612.637 156.401C614.97 156.868 616.604 157.635 617.537 158.701C618.47 159.768 618.937 161.068 618.937 162.601C618.937 164.968 618.02 166.868 616.187 168.301C614.354 169.701 611.954 170.401 608.987 170.401ZM628.354 140.101C627.454 140.101 626.721 139.835 626.154 139.301C625.621 138.735 625.354 138.001 625.354 137.101C625.354 136.201 625.621 135.485 626.154 134.951C626.721 134.385 627.454 134.101 628.354 134.101C629.254 134.101 629.971 134.385 630.504 134.951C631.071 135.485 631.354 136.201 631.354 137.101C631.354 138.001 631.071 138.735 630.504 139.301C629.971 139.835 629.254 140.101 628.354 140.101ZM630.354 144.901V169.901H626.354V144.901H630.354ZM653.085 166.701C655.452 166.701 657.302 167.251 658.635 168.351C659.969 169.418 660.635 170.851 660.635 172.651C660.635 174.285 660.085 175.701 658.985 176.901C657.919 178.101 656.469 179.018 654.635 179.651C652.835 180.318 650.802 180.651 648.535 180.651C644.602 180.651 641.652 179.985 639.685 178.651C637.752 177.318 636.785 175.718 636.785 173.851C636.785 172.718 637.102 171.685 637.735 170.751C638.369 169.818 639.419 169.151 640.885 168.751C640.085 168.385 639.435 167.885 638.935 167.251C638.435 166.585 638.185 165.701 638.185 164.601C638.185 163.568 638.485 162.635 639.085 161.801C639.685 160.935 640.585 160.268 641.785 159.801C640.519 159.068 639.552 158.101 638.885 156.901C638.219 155.701 637.885 154.351 637.885 152.851C637.885 151.185 638.319 149.718 639.185 148.451C640.085 147.185 641.302 146.201 642.835 145.501C644.369 144.768 646.135 144.401 648.135 144.401C650.235 144.401 652.119 144.818 653.785 145.651C654.019 143.985 654.752 142.685 655.985 141.751C657.252 140.785 658.735 140.301 660.435 140.301H660.685L661.585 143.851H661.235C659.702 143.851 658.502 144.135 657.635 144.701C656.769 145.268 656.285 146.151 656.185 147.351C657.652 148.885 658.385 150.718 658.385 152.851C658.385 154.485 657.952 155.951 657.085 157.251C656.219 158.518 655.002 159.518 653.435 160.251C651.902 160.951 650.135 161.301 648.135 161.301C646.902 161.301 645.752 161.185 644.685 160.951C643.685 161.251 642.969 161.668 642.535 162.201C642.102 162.735 641.885 163.318 641.885 163.951C641.885 165.785 643.185 166.701 645.785 166.701H653.085ZM648.135 147.651C646.402 147.651 644.952 148.135 643.785 149.101C642.619 150.035 642.035 151.285 642.035 152.851C642.035 154.385 642.619 155.635 643.785 156.601C644.952 157.568 646.402 158.051 648.135 158.051C649.869 158.051 651.319 157.568 652.485 156.601C653.652 155.635 654.235 154.385 654.235 152.851C654.235 151.285 653.652 150.035 652.485 149.101C651.319 148.135 649.869 147.651 648.135 147.651ZM648.485 177.301C651.385 177.301 653.519 176.868 654.885 176.001C656.252 175.168 656.935 174.201 656.935 173.101C656.935 172.201 656.569 171.485 655.835 170.951C655.135 170.418 653.852 170.151 651.985 170.151H644.285C643.219 170.151 642.319 170.418 641.585 170.951C640.852 171.518 640.485 172.285 640.485 173.251C640.485 174.485 641.185 175.468 642.585 176.201C644.019 176.935 645.985 177.301 648.485 177.301ZM666.247 169.901V144.901H669.747L669.997 148.801C670.863 147.235 672.047 146.118 673.547 145.451C675.047 144.751 676.663 144.401 678.397 144.401C680.197 144.401 681.83 144.751 683.297 145.451C684.763 146.118 685.93 147.151 686.797 148.551C687.697 149.951 688.147 151.735 688.147 153.901V169.901H684.147V155.301C684.147 152.535 683.547 150.618 682.347 149.551C681.18 148.451 679.73 147.901 677.997 147.901C676.797 147.901 675.597 148.185 674.397 148.751C673.197 149.318 672.197 150.235 671.397 151.501C670.63 152.768 670.247 154.468 670.247 156.601V169.901H666.247ZM707.654 170.401C705.287 170.401 703.17 169.885 701.304 168.851C699.47 167.818 698.037 166.335 697.004 164.401C695.97 162.435 695.454 160.101 695.454 157.401C695.454 154.701 695.97 152.385 697.004 150.451C698.037 148.485 699.454 146.985 701.254 145.951C703.054 144.918 705.104 144.401 707.404 144.401C709.737 144.401 711.72 144.901 713.354 145.901C715.02 146.901 716.287 148.268 717.154 150.001C718.02 151.701 718.454 153.618 718.454 155.751C718.454 156.318 718.437 156.835 718.404 157.301C718.37 157.768 718.32 158.185 718.254 158.551H699.404C699.604 161.185 700.42 163.235 701.854 164.701C703.287 166.168 705.187 166.901 707.554 166.901C709.387 166.901 710.87 166.551 712.004 165.851C713.17 165.151 714.104 164.201 714.804 163.001L717.954 164.851C717.02 166.551 715.67 167.901 713.904 168.901C712.17 169.901 710.087 170.401 707.654 170.401ZM707.304 147.901C705.204 147.901 703.47 148.535 702.104 149.801C700.77 151.035 699.92 152.768 699.554 155.001H714.454C714.354 152.735 713.654 150.985 712.354 149.751C711.054 148.518 709.37 147.901 707.304 147.901ZM726.061 169.901V144.901H729.311L729.861 149.001C731.261 145.935 733.928 144.401 737.861 144.401C738.294 144.401 738.761 144.435 739.261 144.501C739.794 144.568 740.244 144.701 740.611 144.901L739.911 148.551C739.544 148.418 739.144 148.318 738.711 148.251C738.278 148.185 737.661 148.151 736.861 148.151C735.828 148.151 734.778 148.451 733.711 149.051C732.678 149.651 731.811 150.568 731.111 151.801C730.411 153.001 730.061 154.535 730.061 156.401V169.901H726.061Z" fill="#0E0E0E"/>
</svg>
