<svg width="586" height="108" viewBox="0 0 586 108" fill="none" xmlns="http://www.w3.org/2000/svg">
<path d="M51.5902 7.2V60H45.5102V26.8L46.2302 12.88H46.1502L28.7902 60H23.3502L5.99016 12.88H5.91016L6.63016 26.8V60H0.550156V7.2H10.3902L21.9902 39.28L25.9902 52.48H26.1502L30.2302 39.36L41.7502 7.2H51.5902ZM90.5227 34.16C90.5227 31.1733 89.7227 28.88 88.1227 27.28C86.5227 25.6267 84.256 24.8 81.3227 24.8C78.5493 24.8 76.2027 25.4133 74.2827 26.64C72.3627 27.8133 70.9493 29.7333 70.0427 32.4L64.8427 29.2C65.9093 26.2133 67.8827 23.8133 70.7627 22C73.6427 20.1333 77.216 19.2 81.4827 19.2C84.3627 19.2 86.976 19.7067 89.3227 20.72C91.6693 21.68 93.5093 23.1733 94.8427 25.2C96.2293 27.1733 96.9227 29.7333 96.9227 32.88V52.24C96.9227 54.16 97.936 55.12 99.9627 55.12C100.976 55.12 101.963 54.9867 102.923 54.72L102.603 59.76C101.536 60.2933 100.149 60.56 98.4427 60.56C96.4693 60.56 94.7627 60.08 93.3227 59.12C91.936 58.16 91.0293 56.6933 90.6027 54.72C89.216 56.8 87.3227 58.3467 84.9227 59.36C82.5227 60.32 80.1493 60.8 77.8027 60.8C75.456 60.8 73.2693 60.4 71.2427 59.6C69.216 58.8 67.5893 57.6 66.3627 56C65.1893 54.3467 64.6027 52.32 64.6027 49.92C64.6027 46.9333 65.5893 44.48 67.5627 42.56C69.5893 40.5867 72.3893 39.2533 75.9627 38.56L90.5227 35.68V34.16ZM71.1627 49.6C71.1627 51.2533 71.8027 52.6133 73.0827 53.68C74.416 54.6933 76.2827 55.2 78.6827 55.2C80.7627 55.2 82.6827 54.8533 84.4427 54.16C86.256 53.4133 87.7227 52.32 88.8427 50.88C89.9627 49.3867 90.5227 47.4933 90.5227 45.2V40.96L78.9227 43.36C76.3093 43.8933 74.3627 44.64 73.0827 45.6C71.8027 46.56 71.1627 47.8933 71.1627 49.6ZM134.913 20V25.52H120.353V48.96C120.353 50.9333 120.913 52.4 122.033 53.36C123.153 54.32 124.593 54.8 126.353 54.8C127.899 54.8 129.233 54.5333 130.353 54C131.473 53.4667 132.486 52.7467 133.393 51.84L135.633 57.2C134.406 58.32 132.939 59.2 131.233 59.84C129.579 60.48 127.659 60.8 125.473 60.8C123.446 60.8 121.553 60.4533 119.793 59.76C118.033 59.0133 116.619 57.8667 115.553 56.32C114.539 54.72 114.006 52.64 113.953 50.08V25.52H105.953V20H113.953V10.4L120.353 8.64V20H134.913ZM161.148 60.8C157.362 60.8 153.975 59.9733 150.988 58.32C148.055 56.6667 145.762 54.2933 144.108 51.2C142.455 48.0533 141.628 44.32 141.628 40C141.628 35.68 142.455 31.9733 144.108 28.88C145.762 25.7333 148.028 23.3333 150.908 21.68C153.788 20.0267 157.068 19.2 160.748 19.2C164.482 19.2 167.655 20 170.268 21.6C172.935 23.2 174.962 25.3867 176.348 28.16C177.735 30.88 178.428 33.9467 178.428 37.36C178.428 38.2667 178.402 39.0933 178.348 39.84C178.295 40.5867 178.215 41.2533 178.108 41.84H147.948C148.268 46.0533 149.575 49.3333 151.868 51.68C154.162 54.0267 157.202 55.2 160.988 55.2C163.922 55.2 166.295 54.64 168.108 53.52C169.975 52.4 171.468 50.88 172.588 48.96L177.628 51.92C176.135 54.64 173.975 56.8 171.148 58.4C168.375 60 165.042 60.8 161.148 60.8ZM160.588 24.8C157.228 24.8 154.455 25.8133 152.268 27.84C150.135 29.8133 148.775 32.5867 148.188 36.16H172.028C171.868 32.5333 170.748 29.7333 168.668 27.76C166.588 25.7867 163.895 24.8 160.588 24.8ZM205.08 60.8C202.52 60.8 200.093 60.32 197.8 59.36C195.56 58.4 193.72 56.8533 192.28 54.72C190.893 52.5333 190.2 49.7067 190.2 46.24V20H196.6V44.56C196.6 48.6133 197.48 51.4133 199.24 52.96C201 54.4533 203.48 55.2 206.68 55.2C208.707 55.2 210.627 54.7467 212.44 53.84C214.253 52.88 215.747 51.4133 216.92 49.44C218.093 47.4667 218.68 44.9067 218.68 41.76V20H225.08V60H219.48L219.08 53.92C217.693 56.32 215.8 58.08 213.4 59.2C211.053 60.2667 208.28 60.8 205.08 60.8ZM254.375 60.8C250.482 60.8 246.882 59.9733 243.575 58.32C240.322 56.6667 237.815 54.32 236.055 51.28L241.495 47.36C242.668 49.8133 244.375 51.7333 246.615 53.12C248.908 54.5067 251.655 55.2 254.855 55.2C257.682 55.2 259.895 54.6667 261.495 53.6C263.095 52.48 263.895 51.04 263.895 49.28C263.895 48.16 263.522 47.1467 262.775 46.24C262.082 45.28 260.722 44.5867 258.695 44.16L249.095 42.16C245.202 41.36 242.402 40.0267 240.695 38.16C239.042 36.2933 238.215 33.9733 238.215 31.2C238.215 29.0133 238.828 27.0133 240.055 25.2C241.335 23.3867 243.122 21.9467 245.415 20.88C247.762 19.76 250.508 19.2 253.655 19.2C257.602 19.2 260.935 19.9733 263.655 21.52C266.375 23.0667 268.402 25.2533 269.735 28.08L264.375 31.6C263.468 29.2533 262.002 27.5467 259.975 26.48C257.948 25.36 255.842 24.8 253.655 24.8C250.775 24.8 248.535 25.3867 246.935 26.56C245.335 27.7333 244.535 29.2 244.535 30.96C244.535 32.1333 244.935 33.2267 245.735 34.24C246.535 35.2 248.028 35.8933 250.215 36.32L260.215 38.4C263.948 39.1467 266.562 40.3733 268.055 42.08C269.548 43.7867 270.295 45.8667 270.295 48.32C270.295 52.1067 268.828 55.1467 265.895 57.44C262.962 59.68 259.122 60.8 254.375 60.8ZM279.283 60V55.12L300.243 30.56L305.283 25.36L298.163 25.52H279.523V20H312.403V24.88L291.443 49.44L286.483 54.64L294.243 54.48H313.043V60H279.283ZM390.723 54V60H349.203V54.32L382.083 13.2H350.003V7.2H389.683V12.88L356.803 54H390.723ZM425.913 34.16C425.913 31.1733 425.113 28.88 423.513 27.28C421.913 25.6267 419.647 24.8 416.713 24.8C413.94 24.8 411.593 25.4133 409.673 26.64C407.753 27.8133 406.34 29.7333 405.433 32.4L400.233 29.2C401.3 26.2133 403.273 23.8133 406.153 22C409.033 20.1333 412.607 19.2 416.873 19.2C419.753 19.2 422.367 19.7067 424.713 20.72C427.06 21.68 428.9 23.1733 430.233 25.2C431.62 27.1733 432.313 29.7333 432.313 32.88V52.24C432.313 54.16 433.327 55.12 435.353 55.12C436.367 55.12 437.353 54.9867 438.313 54.72L437.993 59.76C436.927 60.2933 435.54 60.56 433.833 60.56C431.86 60.56 430.153 60.08 428.713 59.12C427.327 58.16 426.42 56.6933 425.993 54.72C424.607 56.8 422.713 58.3467 420.313 59.36C417.913 60.32 415.54 60.8 413.193 60.8C410.847 60.8 408.66 60.4 406.633 59.6C404.607 58.8 402.98 57.6 401.753 56C400.58 54.3467 399.993 52.32 399.993 49.92C399.993 46.9333 400.98 44.48 402.953 42.56C404.98 40.5867 407.78 39.2533 411.353 38.56L425.913 35.68V34.16ZM406.553 49.6C406.553 51.2533 407.193 52.6133 408.473 53.68C409.807 54.6933 411.673 55.2 414.073 55.2C416.153 55.2 418.073 54.8533 419.833 54.16C421.647 53.4133 423.113 52.32 424.233 50.88C425.353 49.3867 425.913 47.4933 425.913 45.2V40.96L414.313 43.36C411.7 43.8933 409.753 44.64 408.473 45.6C407.193 46.56 406.553 47.8933 406.553 49.6ZM447.866 60V20H453.466L453.866 26.24C455.252 23.7333 457.146 21.9467 459.546 20.88C461.946 19.76 464.532 19.2 467.306 19.2C470.186 19.2 472.799 19.76 475.146 20.88C477.492 21.9467 479.359 23.6 480.746 25.84C482.186 28.08 482.906 30.9333 482.906 34.4V60H476.506V36.64C476.506 32.2133 475.546 29.1467 473.626 27.44C471.759 25.68 469.439 24.8 466.666 24.8C464.746 24.8 462.826 25.2533 460.906 26.16C458.986 27.0667 457.386 28.5333 456.106 30.56C454.879 32.5867 454.266 35.3067 454.266 38.72V60H447.866ZM468.026 -4.76837e-06H474.986L467.146 13.36H461.946L468.026 -4.76837e-06ZM532.517 20L516.917 35.6L533.477 60H525.717L512.277 40.24L503.797 48.72V60H497.397V1.6H503.797V40.72L524.437 20H532.517ZM557.941 19.2C561.728 19.2 565.061 20.0267 567.941 21.68C570.875 23.3333 573.168 25.7333 574.821 28.88C576.475 31.9733 577.301 35.68 577.301 40C577.301 44.32 576.475 48.0533 574.821 51.2C573.168 54.2933 570.875 56.6667 567.941 58.32C565.061 59.9733 561.728 60.8 557.941 60.8C554.208 60.8 550.875 59.9733 547.941 58.32C545.008 56.6667 542.715 54.2933 541.061 51.2C539.408 48.0533 538.581 44.32 538.581 40C538.581 35.68 539.408 31.9733 541.061 28.88C542.715 25.7333 545.008 23.3333 547.941 21.68C550.875 20.0267 554.208 19.2 557.941 19.2ZM557.941 24.72C553.888 24.72 550.715 26.08 548.421 28.8C546.128 31.52 544.981 35.2533 544.981 40C544.981 44.7467 546.128 48.48 548.421 51.2C550.715 53.92 553.888 55.28 557.941 55.28C561.995 55.28 565.168 53.92 567.461 51.2C569.755 48.48 570.901 44.7467 570.901 40C570.901 35.2533 569.755 31.52 567.461 28.8C565.168 26.08 561.995 24.72 557.941 24.72ZM168.007 76.9V91.39C168.007 94.3533 167.225 96.5933 165.662 98.11C164.098 99.6033 161.858 100.35 158.942 100.35C156.048 100.35 153.808 99.6033 152.222 98.11C150.658 96.5933 149.877 94.3533 149.877 91.39V76.9H152.677V90.69C152.677 93.0933 153.178 94.8667 154.182 96.01C155.208 97.1533 156.795 97.725 158.942 97.725C161.088 97.725 162.663 97.1533 163.667 96.01C164.693 94.8667 165.207 93.0933 165.207 90.69V76.9H168.007ZM191.247 100H188.027L181.762 90.48L175.462 100H172.207L180.292 88.24L172.907 76.9H176.197L182.042 85.895L187.957 76.9H191.002L183.512 88.1L191.247 100ZM218.254 74.45L207.544 102.45H204.919L215.629 74.45H218.254ZM252.601 76.9V91.39C252.601 94.3533 251.82 96.5933 250.256 98.11C248.693 99.6033 246.453 100.35 243.536 100.35C240.643 100.35 238.403 99.6033 236.816 98.11C235.253 96.5933 234.471 94.3533 234.471 91.39V76.9H237.271V90.69C237.271 93.0933 237.773 94.8667 238.776 96.01C239.803 97.1533 241.39 97.725 243.536 97.725C245.683 97.725 247.258 97.1533 248.261 96.01C249.288 94.8667 249.801 93.0933 249.801 90.69V76.9H252.601ZM262.507 76.9V100H259.707V76.9H262.507ZM289.447 76.9C293.064 76.9 295.899 77.9033 297.952 79.91C300.029 81.8933 301.067 84.74 301.067 88.45C301.067 92.16 300.029 95.0183 297.952 97.025C295.899 99.0083 293.064 100 289.447 100H281.992V76.9H289.447ZM289.727 97.375C292.364 97.375 294.417 96.5933 295.887 95.03C297.38 93.4433 298.127 91.25 298.127 88.45C298.127 85.65 297.38 83.4683 295.887 81.905C294.417 80.3183 292.364 79.525 289.727 79.525H284.792V97.375H289.727ZM314.007 100.35C312.35 100.35 310.868 99.9883 309.562 99.265C308.278 98.5417 307.275 97.5033 306.552 96.15C305.828 94.7733 305.467 93.14 305.467 91.25C305.467 89.36 305.828 87.7383 306.552 86.385C307.275 85.0083 308.267 83.9583 309.527 83.235C310.787 82.5117 312.222 82.15 313.832 82.15C315.465 82.15 316.853 82.5 317.997 83.2C319.163 83.9 320.05 84.8567 320.657 86.07C321.263 87.26 321.567 88.6017 321.567 90.095C321.567 90.4917 321.555 90.8533 321.532 91.18C321.508 91.5067 321.473 91.7983 321.427 92.055H308.232C308.372 93.8983 308.943 95.3333 309.947 96.36C310.95 97.3867 312.28 97.9 313.937 97.9C315.22 97.9 316.258 97.655 317.052 97.165C317.868 96.675 318.522 96.01 319.012 95.17L321.217 96.465C320.563 97.655 319.618 98.6 318.382 99.3C317.168 100 315.71 100.35 314.007 100.35ZM313.762 84.6C312.292 84.6 311.078 85.0433 310.122 85.93C309.188 86.7933 308.593 88.0067 308.337 89.57H318.767C318.697 87.9833 318.207 86.7583 317.297 85.895C316.387 85.0317 315.208 84.6 313.762 84.6ZM333.192 100.35C331.488 100.35 329.913 99.9883 328.467 99.265C327.043 98.5417 325.947 97.515 325.177 96.185L327.557 94.47C328.07 95.5433 328.817 96.3833 329.797 96.99C330.8 97.5967 332.002 97.9 333.402 97.9C334.638 97.9 335.607 97.6667 336.307 97.2C337.007 96.71 337.357 96.08 337.357 95.31C337.357 94.82 337.193 94.3767 336.867 93.98C336.563 93.56 335.968 93.2567 335.082 93.07L330.882 92.195C329.178 91.845 327.953 91.2617 327.207 90.445C326.483 89.6283 326.122 88.6133 326.122 87.4C326.122 86.4433 326.39 85.5683 326.927 84.775C327.487 83.9817 328.268 83.3517 329.272 82.885C330.298 82.395 331.5 82.15 332.877 82.15C334.603 82.15 336.062 82.4883 337.252 83.165C338.442 83.8417 339.328 84.7983 339.912 86.035L337.567 87.575C337.17 86.5483 336.528 85.8017 335.642 85.335C334.755 84.845 333.833 84.6 332.877 84.6C331.617 84.6 330.637 84.8567 329.937 85.37C329.237 85.8833 328.887 86.525 328.887 87.295C328.887 87.8083 329.062 88.2867 329.412 88.73C329.762 89.15 330.415 89.4533 331.372 89.64L335.747 90.55C337.38 90.8767 338.523 91.4133 339.177 92.16C339.83 92.9067 340.157 93.8167 340.157 94.89C340.157 96.5467 339.515 97.8767 338.232 98.88C336.948 99.86 335.268 100.35 333.192 100.35ZM346.749 79.14C346.119 79.14 345.605 78.9533 345.209 78.58C344.835 78.1833 344.649 77.67 344.649 77.04C344.649 76.41 344.835 75.9083 345.209 75.535C345.605 75.1383 346.119 74.94 346.749 74.94C347.379 74.94 347.88 75.1383 348.254 75.535C348.65 75.9083 348.849 76.41 348.849 77.04C348.849 77.67 348.65 78.1833 348.254 78.58C347.88 78.9533 347.379 79.14 346.749 79.14ZM348.149 82.5V100H345.349V82.5H348.149ZM364.061 97.76C365.717 97.76 367.012 98.145 367.946 98.915C368.879 99.6617 369.346 100.665 369.346 101.925C369.346 103.068 368.961 104.06 368.191 104.9C367.444 105.74 366.429 106.382 365.146 106.825C363.886 107.292 362.462 107.525 360.876 107.525C358.122 107.525 356.057 107.058 354.681 106.125C353.327 105.192 352.651 104.072 352.651 102.765C352.651 101.972 352.872 101.248 353.316 100.595C353.759 99.9417 354.494 99.475 355.521 99.195C354.961 98.9383 354.506 98.5883 354.156 98.145C353.806 97.6783 353.631 97.06 353.631 96.29C353.631 95.5667 353.841 94.9133 354.261 94.33C354.681 93.7233 355.311 93.2567 356.151 92.93C355.264 92.4167 354.587 91.74 354.121 90.9C353.654 90.06 353.421 89.115 353.421 88.065C353.421 86.8983 353.724 85.8717 354.331 84.985C354.961 84.0983 355.812 83.41 356.886 82.92C357.959 82.4067 359.196 82.15 360.596 82.15C362.066 82.15 363.384 82.4417 364.551 83.025C364.714 81.8583 365.227 80.9483 366.091 80.295C366.977 79.6183 368.016 79.28 369.206 79.28H369.381L370.011 81.765H369.766C368.692 81.765 367.852 81.9633 367.246 82.36C366.639 82.7567 366.301 83.375 366.231 84.215C367.257 85.2883 367.771 86.5717 367.771 88.065C367.771 89.2083 367.467 90.235 366.861 91.145C366.254 92.0317 365.402 92.7317 364.306 93.245C363.232 93.735 361.996 93.98 360.596 93.98C359.732 93.98 358.927 93.8983 358.181 93.735C357.481 93.945 356.979 94.2367 356.676 94.61C356.372 94.9833 356.221 95.3917 356.221 95.835C356.221 97.1183 357.131 97.76 358.951 97.76H364.061ZM360.596 84.425C359.382 84.425 358.367 84.7633 357.551 85.44C356.734 86.0933 356.326 86.9683 356.326 88.065C356.326 89.1383 356.734 90.0133 357.551 90.69C358.367 91.3667 359.382 91.705 360.596 91.705C361.809 91.705 362.824 91.3667 363.641 90.69C364.457 90.0133 364.866 89.1383 364.866 88.065C364.866 86.9683 364.457 86.0933 363.641 85.44C362.824 84.7633 361.809 84.425 360.596 84.425ZM360.841 105.18C362.871 105.18 364.364 104.877 365.321 104.27C366.277 103.687 366.756 103.01 366.756 102.24C366.756 101.61 366.499 101.108 365.986 100.735C365.496 100.362 364.597 100.175 363.291 100.175H357.901C357.154 100.175 356.524 100.362 356.011 100.735C355.497 101.132 355.241 101.668 355.241 102.345C355.241 103.208 355.731 103.897 356.711 104.41C357.714 104.923 359.091 105.18 360.841 105.18ZM373.274 100V82.5H375.724L375.899 85.23C376.505 84.1333 377.334 83.3517 378.384 82.885C379.434 82.395 380.565 82.15 381.779 82.15C383.039 82.15 384.182 82.395 385.209 82.885C386.235 83.3517 387.052 84.075 387.659 85.055C388.289 86.035 388.604 87.2833 388.604 88.8V100H385.804V89.78C385.804 87.8433 385.384 86.5017 384.544 85.755C383.727 84.985 382.712 84.6 381.499 84.6C380.659 84.6 379.819 84.7983 378.979 85.195C378.139 85.5917 377.439 86.2333 376.879 87.12C376.342 88.0067 376.074 89.1967 376.074 90.69V100H373.274ZM407.397 100V76.9H423.602V79.525H410.197V86.98H420.627V89.605H410.197V97.375H424.127V100H407.397ZM429.192 100V82.5H431.642L431.817 85.23C432.423 84.1333 433.252 83.3517 434.302 82.885C435.352 82.395 436.483 82.15 437.697 82.15C438.957 82.15 440.1 82.395 441.127 82.885C442.153 83.3517 442.97 84.075 443.577 85.055C444.207 86.035 444.522 87.2833 444.522 88.8V100H441.722V89.78C441.722 87.8433 441.302 86.5017 440.462 85.755C439.645 84.985 438.63 84.6 437.417 84.6C436.577 84.6 435.737 84.7983 434.897 85.195C434.057 85.5917 433.357 86.2333 432.797 87.12C432.26 88.0067 431.992 89.1967 431.992 90.69V100H429.192ZM461.122 82.5V84.915H454.752V95.17C454.752 96.0333 454.997 96.675 455.487 97.095C455.977 97.515 456.607 97.725 457.377 97.725C458.054 97.725 458.637 97.6083 459.127 97.375C459.617 97.1417 460.061 96.8267 460.457 96.43L461.437 98.775C460.901 99.265 460.259 99.65 459.512 99.93C458.789 100.21 457.949 100.35 456.992 100.35C456.106 100.35 455.277 100.198 454.507 99.895C453.737 99.5683 453.119 99.0667 452.652 98.39C452.209 97.69 451.976 96.78 451.952 95.66V84.915H448.452V82.5H451.952V78.3L454.752 77.53V82.5H461.122ZM465.285 100V74.45H468.085V85.125C468.692 84.075 469.497 83.3167 470.5 82.85C471.504 82.3833 472.6 82.15 473.79 82.15C475.05 82.15 476.194 82.395 477.22 82.885C478.247 83.3517 479.064 84.075 479.67 85.055C480.3 86.035 480.615 87.2833 480.615 88.8V100H477.815V89.78C477.815 87.8433 477.395 86.5017 476.555 85.755C475.739 84.985 474.724 84.6 473.51 84.6C472.67 84.6 471.83 84.7983 470.99 85.195C470.15 85.5917 469.45 86.245 468.89 87.155C468.354 88.0417 468.085 89.2317 468.085 90.725V100H465.285ZM493.29 100.35C492.17 100.35 491.109 100.14 490.105 99.72C489.125 99.3 488.32 98.6233 487.69 97.69C487.084 96.7333 486.78 95.4967 486.78 93.98V82.5H489.58V93.245C489.58 95.0183 489.965 96.2433 490.735 96.92C491.505 97.5733 492.59 97.9 493.99 97.9C494.877 97.9 495.717 97.7017 496.51 97.305C497.304 96.885 497.957 96.2433 498.47 95.38C498.984 94.5167 499.24 93.3967 499.24 92.02V82.5H502.04V100H499.59L499.415 97.34C498.809 98.39 497.98 99.16 496.93 99.65C495.904 100.117 494.69 100.35 493.29 100.35ZM514.857 100.35C513.153 100.35 511.578 99.9883 510.132 99.265C508.708 98.5417 507.612 97.515 506.842 96.185L509.222 94.47C509.735 95.5433 510.482 96.3833 511.462 96.99C512.465 97.5967 513.667 97.9 515.067 97.9C516.303 97.9 517.272 97.6667 517.972 97.2C518.672 96.71 519.022 96.08 519.022 95.31C519.022 94.82 518.858 94.3767 518.532 93.98C518.228 93.56 517.633 93.2567 516.747 93.07L512.547 92.195C510.843 91.845 509.618 91.2617 508.872 90.445C508.148 89.6283 507.787 88.6133 507.787 87.4C507.787 86.4433 508.055 85.5683 508.592 84.775C509.152 83.9817 509.933 83.3517 510.937 82.885C511.963 82.395 513.165 82.15 514.542 82.15C516.268 82.15 517.727 82.4883 518.917 83.165C520.107 83.8417 520.993 84.7983 521.577 86.035L519.232 87.575C518.835 86.5483 518.193 85.8017 517.307 85.335C516.42 84.845 515.498 84.6 514.542 84.6C513.282 84.6 512.302 84.8567 511.602 85.37C510.902 85.8833 510.552 86.525 510.552 87.295C510.552 87.8083 510.727 88.2867 511.077 88.73C511.427 89.15 512.08 89.4533 513.037 89.64L517.412 90.55C519.045 90.8767 520.188 91.4133 520.842 92.16C521.495 92.9067 521.822 93.8167 521.822 94.89C521.822 96.5467 521.18 97.8767 519.897 98.88C518.613 99.86 516.933 100.35 514.857 100.35ZM528.414 79.14C527.784 79.14 527.27 78.9533 526.874 78.58C526.5 78.1833 526.314 77.67 526.314 77.04C526.314 76.41 526.5 75.9083 526.874 75.535C527.27 75.1383 527.784 74.94 528.414 74.94C529.044 74.94 529.545 75.1383 529.919 75.535C530.315 75.9083 530.514 76.41 530.514 77.04C530.514 77.67 530.315 78.1833 529.919 78.58C529.545 78.9533 529.044 79.14 528.414 79.14ZM529.814 82.5V100H527.014V82.5H529.814ZM546.531 88.695C546.531 87.3883 546.181 86.385 545.481 85.685C544.781 84.9617 543.789 84.6 542.506 84.6C541.292 84.6 540.266 84.8683 539.426 85.405C538.586 85.9183 537.967 86.7583 537.571 87.925L535.296 86.525C535.762 85.2183 536.626 84.1683 537.886 83.375C539.146 82.5583 540.709 82.15 542.576 82.15C543.836 82.15 544.979 82.3717 546.006 82.815C547.032 83.235 547.837 83.8883 548.421 84.775C549.027 85.6383 549.331 86.7583 549.331 88.135V96.605C549.331 97.445 549.774 97.865 550.661 97.865C551.104 97.865 551.536 97.8067 551.956 97.69L551.816 99.895C551.349 100.128 550.742 100.245 549.996 100.245C549.132 100.245 548.386 100.035 547.756 99.615C547.149 99.195 546.752 98.5533 546.566 97.69C545.959 98.6 545.131 99.2767 544.081 99.72C543.031 100.14 541.992 100.35 540.966 100.35C539.939 100.35 538.982 100.175 538.096 99.825C537.209 99.475 536.497 98.95 535.961 98.25C535.447 97.5267 535.191 96.64 535.191 95.59C535.191 94.2833 535.622 93.21 536.486 92.37C537.372 91.5067 538.597 90.9233 540.161 90.62L546.531 89.36V88.695ZM538.061 95.45C538.061 96.1733 538.341 96.7683 538.901 97.235C539.484 97.6783 540.301 97.9 541.351 97.9C542.261 97.9 543.101 97.7483 543.871 97.445C544.664 97.1183 545.306 96.64 545.796 96.01C546.286 95.3567 546.531 94.5283 546.531 93.525V91.67L541.456 92.72C540.312 92.9533 539.461 93.28 538.901 93.7C538.341 94.12 538.061 94.7033 538.061 95.45ZM562.435 100.35C560.732 100.35 559.157 99.9883 557.71 99.265C556.287 98.5417 555.19 97.515 554.42 96.185L556.8 94.47C557.313 95.5433 558.06 96.3833 559.04 96.99C560.043 97.5967 561.245 97.9 562.645 97.9C563.882 97.9 564.85 97.6667 565.55 97.2C566.25 96.71 566.6 96.08 566.6 95.31C566.6 94.82 566.437 94.3767 566.11 93.98C565.807 93.56 565.212 93.2567 564.325 93.07L560.125 92.195C558.422 91.845 557.197 91.2617 556.45 90.445C555.727 89.6283 555.365 88.6133 555.365 87.4C555.365 86.4433 555.633 85.5683 556.17 84.775C556.73 83.9817 557.512 83.3517 558.515 82.885C559.542 82.395 560.743 82.15 562.12 82.15C563.847 82.15 565.305 82.4883 566.495 83.165C567.685 83.8417 568.572 84.7983 569.155 86.035L566.81 87.575C566.413 86.5483 565.772 85.8017 564.885 85.335C563.998 84.845 563.077 84.6 562.12 84.6C560.86 84.6 559.88 84.8567 559.18 85.37C558.48 85.8833 558.13 86.525 558.13 87.295C558.13 87.8083 558.305 88.2867 558.655 88.73C559.005 89.15 559.658 89.4533 560.615 89.64L564.99 90.55C566.623 90.8767 567.767 91.4133 568.42 92.16C569.073 92.9067 569.4 93.8167 569.4 94.89C569.4 96.5467 568.758 97.8767 567.475 98.88C566.192 99.86 564.512 100.35 562.435 100.35ZM585.092 82.5V84.915H578.722V95.17C578.722 96.0333 578.967 96.675 579.457 97.095C579.947 97.515 580.577 97.725 581.347 97.725C582.024 97.725 582.607 97.6083 583.097 97.375C583.587 97.1417 584.03 96.8267 584.427 96.43L585.407 98.775C584.87 99.265 584.229 99.65 583.482 99.93C582.759 100.21 581.919 100.35 580.962 100.35C580.075 100.35 579.247 100.198 578.477 99.895C577.707 99.5683 577.089 99.0667 576.622 98.39C576.179 97.69 575.945 96.78 575.922 95.66V84.915H572.422V82.5H575.922V78.3L578.722 77.53V82.5H585.092Z" fill="white"/>
</svg>
