<svg width="1131" height="442" viewBox="0 0 1131 442" fill="none" xmlns="http://www.w3.org/2000/svg">
<path d="M0 0H1131V442H0V0Z" fill="white"/>
<path d="M179.958 392.273C114.986 350.518 85.305 270.939 107.064 196.836C128.822 122.732 196.816 71.8333 274.048 71.8333V237.165C270.186 237.165 266.786 239.71 265.698 243.415C264.61 247.12 266.094 251.099 269.343 253.187L179.958 392.273Z" fill="#EA4335"/>
<path d="M274.048 71.8333C348.224 71.8333 414.248 118.849 438.509 188.946C462.77 259.043 439.934 336.813 381.628 382.666C323.321 428.519 242.359 432.376 179.958 392.273L269.343 253.187C272.463 255.192 276.511 254.999 279.427 252.707C282.342 250.414 283.484 246.525 282.271 243.021C281.058 239.516 277.756 237.165 274.048 237.165V71.8333Z" fill="#4285F4"/>
<path d="M352.491 281.942L354.709 281.755C354.866 282.828 355.241 283.64 355.834 284.192C356.439 284.734 357.163 285.005 358.006 285.005C359.027 285.005 359.887 284.625 360.584 283.864C361.293 283.093 361.647 282.073 361.647 280.802C361.647 279.604 361.308 278.656 360.631 277.958C359.954 277.26 359.069 276.911 357.975 276.911C357.298 276.911 356.683 277.067 356.131 277.38C355.59 277.682 355.163 278.083 354.85 278.583L352.866 278.317L354.522 269.489H363.069V271.505H356.209L355.288 276.13C356.319 275.411 357.402 275.052 358.538 275.052C360.038 275.052 361.303 275.573 362.334 276.614C363.366 277.646 363.881 278.979 363.881 280.614C363.881 282.166 363.428 283.51 362.522 284.646C361.418 286.041 359.913 286.739 358.006 286.739C356.444 286.739 355.168 286.302 354.178 285.427C353.189 284.552 352.626 283.39 352.491 281.942ZM365.803 282.474L367.834 282.286C368.001 283.234 368.324 283.927 368.803 284.364C369.293 284.791 369.918 285.005 370.678 285.005C371.324 285.005 371.892 284.859 372.381 284.567C372.871 284.265 373.272 283.864 373.584 283.364C373.897 282.864 374.157 282.192 374.366 281.349C374.584 280.505 374.694 279.646 374.694 278.771C374.694 278.677 374.689 278.536 374.678 278.349C374.251 279.026 373.673 279.573 372.944 279.989C372.215 280.406 371.423 280.614 370.569 280.614C369.152 280.614 367.949 280.099 366.959 279.067C365.98 278.036 365.491 276.677 365.491 274.989C365.491 273.25 366.001 271.849 367.022 270.786C368.053 269.724 369.345 269.192 370.897 269.192C372.012 269.192 373.032 269.494 373.959 270.099C374.887 270.692 375.59 271.547 376.069 272.661C376.548 273.776 376.788 275.39 376.788 277.505C376.788 279.692 376.548 281.437 376.069 282.739C375.59 284.041 374.881 285.036 373.944 285.724C373.006 286.401 371.902 286.739 370.631 286.739C369.288 286.739 368.189 286.364 367.334 285.614C366.491 284.864 365.98 283.817 365.803 282.474ZM374.444 274.88C374.444 273.672 374.121 272.713 373.475 272.005C372.829 271.297 372.053 270.942 371.147 270.942C370.209 270.942 369.392 271.328 368.694 272.099C368.006 272.859 367.663 273.849 367.663 275.067C367.663 276.161 367.991 277.052 368.647 277.739C369.303 278.416 370.116 278.755 371.084 278.755C372.064 278.755 372.866 278.416 373.491 277.739C374.126 277.052 374.444 276.099 374.444 274.88ZM379.631 286.442V284.036H382.022V286.442C382.022 287.328 381.866 288.041 381.553 288.583C381.241 289.125 380.746 289.547 380.069 289.849L379.491 288.942C379.928 288.744 380.251 288.453 380.459 288.067C380.678 287.692 380.798 287.151 380.819 286.442H379.631ZM393.428 286.442H391.319V273.005C390.819 273.484 390.152 273.968 389.319 274.458C388.496 274.937 387.756 275.297 387.1 275.536V273.505C388.288 272.953 389.319 272.281 390.194 271.489C391.079 270.698 391.704 269.932 392.069 269.192H393.428V286.442ZM398.881 273.38C398.881 272.161 399.189 271.125 399.803 270.271C400.428 269.406 401.324 268.974 402.491 268.974C403.574 268.974 404.47 269.359 405.178 270.13C405.887 270.89 406.241 272.021 406.241 273.521C406.241 274.968 405.881 276.088 405.163 276.88C404.444 277.661 403.564 278.052 402.522 278.052C401.48 278.052 400.611 277.666 399.913 276.896C399.225 276.114 398.881 274.942 398.881 273.38ZM402.553 270.427C402.032 270.427 401.595 270.656 401.241 271.114C400.897 271.562 400.725 272.39 400.725 273.599C400.725 274.703 400.902 275.479 401.256 275.927C401.611 276.375 402.043 276.599 402.553 276.599C403.084 276.599 403.522 276.375 403.866 275.927C404.22 275.468 404.397 274.635 404.397 273.427C404.397 272.323 404.22 271.547 403.866 271.099C403.512 270.651 403.074 270.427 402.553 270.427ZM402.569 287.083L411.959 268.974H413.678L404.319 287.083H402.569ZM409.991 282.411C409.991 281.172 410.298 280.125 410.913 279.271C411.538 278.416 412.439 277.989 413.616 277.989C414.699 277.989 415.59 278.375 416.288 279.146C416.996 279.916 417.35 281.047 417.35 282.536C417.35 283.994 416.991 285.119 416.272 285.911C415.564 286.692 414.683 287.083 413.631 287.083C412.59 287.083 411.72 286.692 411.022 285.911C410.334 285.13 409.991 283.963 409.991 282.411ZM413.678 279.442C413.147 279.442 412.704 279.672 412.35 280.13C412.006 280.578 411.834 281.406 411.834 282.614C411.834 283.708 412.012 284.484 412.366 284.942C412.72 285.39 413.152 285.614 413.663 285.614C414.204 285.614 414.647 285.39 414.991 284.942C415.345 284.484 415.522 283.656 415.522 282.458C415.522 281.343 415.345 280.562 414.991 280.114C414.637 279.666 414.199 279.442 413.678 279.442Z" fill="black"/>
<path d="M137.37 221.291V217.181H129.917V215.244L137.745 204.103H139.479V215.244H141.792V217.181H139.479V221.291H137.37ZM137.37 215.244V207.494L131.979 215.244H137.37ZM143.604 212.822C143.604 210.791 143.813 209.155 144.229 207.916C144.646 206.676 145.266 205.723 146.089 205.056C146.912 204.379 147.948 204.041 149.198 204.041C150.125 204.041 150.933 204.228 151.62 204.603C152.318 204.968 152.891 205.499 153.339 206.197C153.797 206.895 154.157 207.749 154.417 208.76C154.677 209.76 154.808 211.114 154.808 212.822C154.808 214.832 154.599 216.457 154.183 217.697C153.766 218.937 153.146 219.895 152.323 220.572C151.5 221.249 150.459 221.588 149.198 221.588C147.542 221.588 146.245 220.994 145.308 219.806C144.172 218.369 143.604 216.041 143.604 212.822ZM145.776 212.822C145.776 215.635 146.104 217.51 146.761 218.447C147.417 219.385 148.229 219.853 149.198 219.853C150.167 219.853 150.979 219.385 151.636 218.447C152.302 217.51 152.636 215.635 152.636 212.822C152.636 209.989 152.302 208.108 151.636 207.181C150.979 206.254 150.162 205.791 149.183 205.791C148.214 205.791 147.438 206.197 146.854 207.01C146.136 208.062 145.776 209.999 145.776 212.822ZM157.745 221.291V218.885H160.136V221.291C160.136 222.176 159.979 222.89 159.667 223.431C159.354 223.973 158.86 224.395 158.183 224.697L157.604 223.791C158.042 223.593 158.365 223.301 158.573 222.916C158.792 222.541 158.912 221.999 158.933 221.291H157.745ZM163.917 217.322L165.948 217.135C166.115 218.082 166.438 218.775 166.917 219.213C167.407 219.64 168.032 219.853 168.792 219.853C169.438 219.853 170.006 219.707 170.495 219.416C170.985 219.114 171.386 218.713 171.698 218.213C172.011 217.713 172.271 217.041 172.479 216.197C172.698 215.353 172.808 214.494 172.808 213.619C172.808 213.525 172.802 213.385 172.792 213.197C172.365 213.874 171.787 214.421 171.058 214.838C170.328 215.254 169.537 215.463 168.683 215.463C167.266 215.463 166.063 214.947 165.073 213.916C164.094 212.885 163.604 211.525 163.604 209.838C163.604 208.098 164.115 206.697 165.136 205.635C166.167 204.572 167.459 204.041 169.011 204.041C170.125 204.041 171.146 204.343 172.073 204.947C173 205.541 173.703 206.395 174.183 207.51C174.662 208.624 174.901 210.239 174.901 212.353C174.901 214.541 174.662 216.286 174.183 217.588C173.703 218.89 172.995 219.885 172.058 220.572C171.12 221.249 170.016 221.588 168.745 221.588C167.401 221.588 166.302 221.213 165.448 220.463C164.604 219.713 164.094 218.666 163.917 217.322ZM172.558 209.728C172.558 208.52 172.235 207.562 171.589 206.853C170.943 206.145 170.167 205.791 169.261 205.791C168.323 205.791 167.506 206.176 166.808 206.947C166.12 207.707 165.776 208.697 165.776 209.916C165.776 211.01 166.104 211.9 166.761 212.588C167.417 213.265 168.229 213.603 169.198 213.603C170.177 213.603 170.979 213.265 171.604 212.588C172.24 211.9 172.558 210.947 172.558 209.728ZM176.995 208.228C176.995 207.01 177.302 205.973 177.917 205.119C178.542 204.254 179.438 203.822 180.604 203.822C181.688 203.822 182.584 204.207 183.292 204.978C184 205.739 184.354 206.869 184.354 208.369C184.354 209.817 183.995 210.937 183.276 211.728C182.558 212.51 181.677 212.9 180.636 212.9C179.594 212.9 178.724 212.515 178.026 211.744C177.339 210.963 176.995 209.791 176.995 208.228ZM180.667 205.275C180.146 205.275 179.709 205.504 179.354 205.963C179.011 206.411 178.839 207.239 178.839 208.447C178.839 209.551 179.016 210.327 179.37 210.775C179.724 211.223 180.157 211.447 180.667 211.447C181.198 211.447 181.636 211.223 181.979 210.775C182.334 210.317 182.511 209.483 182.511 208.275C182.511 207.171 182.334 206.395 181.979 205.947C181.625 205.499 181.188 205.275 180.667 205.275ZM180.683 221.931L190.073 203.822H191.792L182.433 221.931H180.683ZM188.104 217.26C188.104 216.02 188.412 214.973 189.026 214.119C189.651 213.265 190.552 212.838 191.729 212.838C192.813 212.838 193.703 213.223 194.401 213.994C195.11 214.765 195.464 215.895 195.464 217.385C195.464 218.843 195.104 219.968 194.386 220.76C193.677 221.541 192.797 221.931 191.745 221.931C190.703 221.931 189.834 221.541 189.136 220.76C188.448 219.978 188.104 218.812 188.104 217.26ZM191.792 214.291C191.261 214.291 190.818 214.52 190.464 214.978C190.12 215.426 189.948 216.254 189.948 217.463C189.948 218.556 190.125 219.332 190.479 219.791C190.834 220.239 191.266 220.463 191.776 220.463C192.318 220.463 192.761 220.239 193.104 219.791C193.459 219.332 193.636 218.504 193.636 217.306C193.636 216.192 193.459 215.411 193.104 214.963C192.75 214.515 192.313 214.291 191.792 214.291Z" fill="black"/>
<path d="M269.343 253.187C272.463 255.192 276.511 254.999 279.427 252.707C282.342 250.414 283.484 246.525 282.271 243.021C281.058 239.516 277.756 237.165 274.048 237.165V71.8333C348.224 71.8333 414.248 118.849 438.509 188.946C462.77 259.043 439.934 336.813 381.628 382.666C323.321 428.519 242.359 432.376 179.958 392.273" stroke="white" stroke-miterlimit="10" stroke-linecap="round" stroke-linejoin="round"/>
<path d="M274.048 237.165C270.186 237.165 266.786 239.71 265.698 243.415C264.61 247.12 266.094 251.099 269.343 253.187L179.958 392.273C114.986 350.518 85.305 270.939 107.064 196.836C128.822 122.732 196.816 71.8333 274.048 71.8333" stroke="white" stroke-miterlimit="10" stroke-linecap="round" stroke-linejoin="round"/>
<path d="M750.64 89.3333C750.64 92.647 747.954 95.3333 744.64 95.3333C741.326 95.3333 738.64 92.647 738.64 89.3333C738.64 86.0195 741.326 83.3333 744.64 83.3333C747.954 83.3333 750.64 86.0195 750.64 89.3333Z" fill="#4285F4"/>
<path d="M760.875 99.8333V78.3645H765.14L770.234 93.5676C770.703 94.9843 771.041 96.0416 771.25 96.7395C771.5 95.9583 771.88 94.8124 772.39 93.302L777.531 78.3645H781.359V99.8333H778.625V81.8645L772.375 99.8333H769.812L763.609 81.552V99.8333H760.875ZM796.265 94.8176L799 95.1614C798.562 96.7551 797.76 97.9947 796.593 98.8801C795.437 99.7551 793.958 100.193 792.156 100.193C789.875 100.193 788.067 99.4895 786.734 98.0833C785.401 96.677 784.734 94.7135 784.734 92.1926C784.734 89.5676 785.406 87.5364 786.75 86.0989C788.104 84.651 789.854 83.927 792 83.927C794.083 83.927 795.781 84.6353 797.093 86.052C798.416 87.4687 799.078 89.4583 799.078 92.0208C799.078 92.177 799.072 92.4114 799.062 92.7239H787.468C787.562 94.4322 788.041 95.7447 788.906 96.6614C789.781 97.5676 790.869 98.0208 792.171 98.0208C793.13 98.0208 793.953 97.7655 794.64 97.2551C795.328 96.7447 795.869 95.9322 796.265 94.8176ZM787.609 90.5676H796.296C796.182 89.2551 795.848 88.2708 795.296 87.6145C794.463 86.6041 793.375 86.0989 792.031 86.0989C790.822 86.0989 789.807 86.5051 788.984 87.3176C788.161 88.1197 787.703 89.203 787.609 90.5676ZM794.406 99.8333C793.854 100.177 793.421 100.599 793.109 101.099C792.807 101.599 792.656 102.109 792.656 102.63C792.656 103.036 792.765 103.38 792.984 103.661C793.213 103.953 793.583 104.099 794.093 104.099C794.312 104.099 794.536 104.068 794.765 104.005C795.005 103.943 795.223 103.854 795.421 103.74V105.615C794.713 105.958 794.052 106.13 793.437 106.13C792.937 106.13 792.5 106.057 792.125 105.911C791.76 105.776 791.453 105.583 791.203 105.333C790.953 105.083 790.765 104.797 790.64 104.474C790.515 104.151 790.453 103.807 790.453 103.443C790.453 102.818 790.63 102.187 790.984 101.552C791.338 100.927 791.838 100.354 792.484 99.8333H794.406ZM800.234 99.8333V97.6926L810.125 86.3333C809 86.3853 808.01 86.4114 807.156 86.4114H800.812V84.2708H813.531V86.0208L805.109 95.8958L803.484 97.6926C804.661 97.6093 805.765 97.5676 806.796 97.5676H814V99.8333H800.234ZM805.468 82.3489V79.0676H808.734V82.3489H805.468ZM826.765 94.1301L829.359 94.4739C829.078 96.2551 828.354 97.6562 827.187 98.677C826.02 99.6874 824.588 100.193 822.89 100.193C820.755 100.193 819.041 99.4947 817.75 98.0989C816.458 96.703 815.812 94.7083 815.812 92.1145C815.812 90.4374 816.088 88.9687 816.64 87.7083C817.203 86.4478 818.052 85.5051 819.187 84.8801C820.322 84.2447 821.562 83.927 822.906 83.927C824.593 83.927 825.973 84.3541 827.046 85.2083C828.119 86.0624 828.807 87.276 829.109 88.8489L826.546 89.2395C826.307 88.1978 825.875 87.4166 825.25 86.8958C824.635 86.3645 823.885 86.0989 823 86.0989C821.677 86.0989 820.598 86.5728 819.765 87.5208C818.932 88.4687 818.515 89.9739 818.515 92.0364C818.515 94.1301 818.916 95.651 819.718 96.5989C820.52 97.5468 821.567 98.0208 822.859 98.0208C823.89 98.0208 824.75 97.703 825.437 97.0676C826.135 96.4322 826.578 95.453 826.765 94.1301ZM830.234 99.8333V97.6926L840.125 86.3333C839 86.3853 838.01 86.4114 837.156 86.4114H830.812V84.2708H843.531V86.0208L835.109 95.8958L833.484 97.6926C834.661 97.6093 835.765 97.5676 836.796 97.5676H844V99.8333H830.234ZM846.5 105.818L846.203 103.349C846.786 103.505 847.291 103.583 847.718 103.583C848.302 103.583 848.77 103.484 849.125 103.286C849.479 103.099 849.765 102.828 849.984 102.474C850.151 102.203 850.421 101.547 850.796 100.505C850.838 100.359 850.916 100.146 851.031 99.8645L845.125 84.2708H847.968L851.203 93.2864C851.619 94.4322 851.994 95.6353 852.328 96.8958C852.63 95.677 852.994 94.4947 853.421 93.3489L856.734 84.2708H859.375L853.453 100.099C852.817 101.807 852.328 102.984 851.984 103.63C851.515 104.495 850.973 105.13 850.359 105.536C849.755 105.943 849.036 106.146 848.203 106.146C847.692 106.146 847.125 106.036 846.5 105.818ZM860.234 99.8333V97.6926L870.125 86.3333C869 86.3853 868.01 86.4114 867.156 86.4114H860.812V84.2708H873.531V86.0208L865.109 95.8958L863.484 97.6926C864.661 97.6093 865.765 97.5676 866.796 97.5676H874V99.8333H860.234ZM876.625 99.8333V84.2708H878.984V86.4895C880.13 84.7812 881.781 83.927 883.937 83.927C884.875 83.927 885.734 84.0989 886.515 84.4426C887.307 84.776 887.895 85.2187 888.281 85.7708C888.677 86.3124 888.953 86.9583 889.109 87.7083C889.213 88.1978 889.265 89.052 889.265 90.2708V99.8333H886.625V90.3645C886.625 89.2916 886.52 88.4895 886.312 87.9583C886.114 87.427 885.749 87.0051 885.218 86.6926C884.697 86.3697 884.088 86.2083 883.39 86.2083C882.265 86.2083 881.291 86.5676 880.468 87.2864C879.656 87.9947 879.25 89.3437 879.25 91.3333V99.8333H876.625ZM903.765 97.9114C902.796 98.7447 901.859 99.3333 900.953 99.677C900.046 100.021 899.078 100.193 898.046 100.193C896.338 100.193 895.02 99.776 894.093 98.9426C893.177 98.0989 892.718 97.026 892.718 95.7239C892.718 94.9635 892.89 94.2708 893.234 93.6458C893.588 93.0103 894.046 92.5051 894.609 92.1301C895.171 91.7447 895.802 91.4583 896.5 91.2708C897.02 91.1249 897.802 90.9895 898.843 90.8645C900.979 90.6145 902.546 90.3124 903.546 89.9583C903.557 89.5937 903.562 89.3645 903.562 89.2708C903.562 88.1978 903.312 87.4426 902.812 87.0051C902.145 86.4114 901.145 86.1145 899.812 86.1145C898.572 86.1145 897.656 86.3333 897.062 86.7708C896.479 87.1978 896.041 87.9635 895.75 89.0676L893.171 88.7083C893.411 87.6041 893.796 86.7135 894.328 86.0364C894.869 85.3593 895.645 84.8385 896.656 84.4739C897.677 84.1093 898.859 83.927 900.203 83.927C901.526 83.927 902.598 84.0833 903.421 84.3958C904.255 84.7083 904.864 85.1041 905.25 85.5833C905.645 86.052 905.921 86.6458 906.078 87.3645C906.171 87.8124 906.218 88.6249 906.218 89.802V93.3176C906.218 95.7655 906.27 97.3176 906.375 97.9739C906.489 98.6197 906.713 99.2395 907.046 99.8333H904.296C904.026 99.2812 903.848 98.6405 903.765 97.9114ZM903.546 92.0208C902.588 92.4166 901.156 92.7499 899.25 93.0208C898.166 93.177 897.395 93.3541 896.937 93.552C896.489 93.7499 896.14 94.0364 895.89 94.4114C895.651 94.7864 895.531 95.203 895.531 95.6614C895.531 96.3593 895.796 96.9426 896.328 97.4114C896.869 97.8801 897.651 98.1145 898.671 98.1145C899.692 98.1145 900.593 97.8958 901.375 97.4583C902.166 97.0103 902.75 96.401 903.125 95.6301C903.406 95.0364 903.546 94.1562 903.546 92.9895V92.0208Z" fill="black"/>
<path d="M750.64 134.333C750.64 137.647 747.954 140.333 744.64 140.333C741.326 140.333 738.64 137.647 738.64 134.333C738.64 131.02 741.326 128.333 744.64 128.333C747.954 128.333 750.64 131.02 750.64 134.333Z" fill="#EA4335"/>
<path d="M760.843 144.833V123.365H763.687V134.005L774.343 123.365H778.203L769.187 132.052L778.593 144.833H774.843L767.203 133.958L763.687 137.396V144.833H760.843ZM779.64 137.052C779.64 134.177 780.442 132.042 782.046 130.646C783.38 129.5 785.01 128.927 786.937 128.927C789.072 128.927 790.817 129.63 792.171 131.036C793.536 132.432 794.218 134.364 794.218 136.833C794.218 138.833 793.916 140.411 793.312 141.568C792.708 142.713 791.833 143.604 790.687 144.24C789.541 144.875 788.291 145.193 786.937 145.193C784.76 145.193 783 144.495 781.656 143.099C780.312 141.693 779.64 139.677 779.64 137.052ZM782.343 137.052C782.343 139.042 782.776 140.536 783.64 141.536C784.515 142.526 785.614 143.021 786.937 143.021C788.239 143.021 789.322 142.521 790.187 141.521C791.062 140.521 791.5 139.005 791.5 136.974C791.5 135.047 791.062 133.588 790.187 132.599C789.312 131.609 788.229 131.115 786.937 131.115C785.614 131.115 784.515 131.609 783.64 132.599C782.776 133.578 782.343 135.062 782.343 137.052ZM799.046 144.833H796.609V123.365H799.234V131.021C800.348 129.625 801.77 128.927 803.5 128.927C804.458 128.927 805.364 129.12 806.218 129.505C807.072 129.891 807.776 130.432 808.328 131.13C808.88 131.828 809.312 132.672 809.625 133.661C809.937 134.641 810.093 135.693 810.093 136.818C810.093 139.484 809.432 141.547 808.109 143.005C806.796 144.463 805.218 145.193 803.375 145.193C801.541 145.193 800.098 144.422 799.046 142.88V144.833ZM799.015 136.943C799.015 138.807 799.27 140.151 799.781 140.974C800.614 142.338 801.739 143.021 803.156 143.021C804.302 143.021 805.296 142.521 806.14 141.521C806.984 140.521 807.406 139.026 807.406 137.036C807.406 135.005 807 133.51 806.187 132.552C805.385 131.583 804.411 131.099 803.265 131.099C802.119 131.099 801.125 131.599 800.281 132.599C799.437 133.599 799.015 135.047 799.015 136.943ZM813.64 126.396V123.365H816.265V126.396H813.64ZM813.64 144.833V129.271H816.265V144.833H813.64ZM831.265 139.818L834 140.161C833.562 141.755 832.76 142.995 831.593 143.88C830.437 144.755 828.958 145.193 827.156 145.193C824.875 145.193 823.067 144.489 821.734 143.083C820.401 141.677 819.734 139.713 819.734 137.193C819.734 134.568 820.406 132.536 821.75 131.099C823.104 129.651 824.854 128.927 827 128.927C829.083 128.927 830.781 129.635 832.093 131.052C833.416 132.469 834.078 134.458 834.078 137.021C834.078 137.177 834.072 137.411 834.062 137.724H822.468C822.562 139.432 823.041 140.745 823.906 141.661C824.781 142.568 825.869 143.021 827.171 143.021C828.13 143.021 828.953 142.766 829.64 142.255C830.328 141.745 830.869 140.932 831.265 139.818ZM822.609 135.568H831.296C831.182 134.255 830.848 133.271 830.296 132.615C829.463 131.604 828.375 131.099 827.031 131.099C825.822 131.099 824.807 131.505 823.984 132.318C823.161 133.12 822.703 134.203 822.609 135.568ZM842.375 142.474L842.75 144.802C842.01 144.958 841.348 145.036 840.765 145.036C839.807 145.036 839.062 144.885 838.531 144.583C838.01 144.281 837.64 143.885 837.421 143.396C837.213 142.896 837.109 141.854 837.109 140.271V131.333H835.171V129.271H837.109V125.427L839.718 123.849V129.271H842.375V131.333H839.718V140.427C839.718 141.177 839.765 141.661 839.859 141.88C839.953 142.088 840.104 142.26 840.312 142.396C840.52 142.521 840.822 142.583 841.218 142.583C841.51 142.583 841.895 142.547 842.375 142.474ZM854.765 142.911C853.796 143.745 852.859 144.333 851.953 144.677C851.046 145.021 850.078 145.193 849.046 145.193C847.338 145.193 846.02 144.776 845.093 143.943C844.177 143.099 843.718 142.026 843.718 140.724C843.718 139.963 843.89 139.271 844.234 138.646C844.588 138.01 845.046 137.505 845.609 137.13C846.171 136.745 846.802 136.458 847.5 136.271C848.02 136.125 848.802 135.99 849.843 135.865C851.979 135.615 853.546 135.312 854.546 134.958C854.557 134.594 854.562 134.364 854.562 134.271C854.562 133.198 854.312 132.443 853.812 132.005C853.145 131.411 852.145 131.115 850.812 131.115C849.572 131.115 848.656 131.333 848.062 131.771C847.479 132.198 847.041 132.963 846.75 134.068L844.171 133.708C844.411 132.604 844.796 131.713 845.328 131.036C845.869 130.359 846.645 129.838 847.656 129.474C848.677 129.109 849.859 128.927 851.203 128.927C852.526 128.927 853.598 129.083 854.421 129.396C855.255 129.708 855.864 130.104 856.25 130.583C856.645 131.052 856.921 131.646 857.078 132.365C857.171 132.812 857.218 133.625 857.218 134.802V138.318C857.218 140.766 857.27 142.318 857.375 142.974C857.489 143.62 857.713 144.239 858.046 144.833H855.296C855.026 144.281 854.848 143.641 854.765 142.911ZM854.546 137.021C853.588 137.417 852.156 137.75 850.25 138.021C849.166 138.177 848.395 138.354 847.937 138.552C847.489 138.75 847.14 139.036 846.89 139.411C846.651 139.786 846.531 140.203 846.531 140.661C846.531 141.359 846.796 141.943 847.328 142.411C847.869 142.88 848.651 143.115 849.671 143.115C850.692 143.115 851.593 142.896 852.375 142.458C853.166 142.01 853.75 141.401 854.125 140.63C854.406 140.036 854.546 139.156 854.546 137.99V137.021Z" fill="black"/>
<path d="M24.2876 50.1001V28.6313H31.2407C33.8761 28.6313 35.5949 28.7355 36.397 28.9438C37.6261 29.2668 38.6574 29.9699 39.4907 31.0532C40.3241 32.1261 40.7407 33.5168 40.7407 35.2251C40.7407 36.548 40.5011 37.6574 40.022 38.5532C39.5428 39.4491 38.9334 40.1574 38.1938 40.6782C37.4543 41.1886 36.7043 41.5272 35.9438 41.6938C34.9126 41.9022 33.4126 42.0063 31.4438 42.0063H28.6157V50.1001H24.2876ZM28.6157 32.2563V38.3501H30.9907C32.6991 38.3501 33.8397 38.2407 34.4126 38.022C34.9959 37.7928 35.4491 37.4386 35.772 36.9595C36.1053 36.4803 36.272 35.923 36.272 35.2876C36.272 34.5063 36.0376 33.8657 35.5688 33.3657C35.1105 32.8553 34.5324 32.5324 33.8345 32.397C33.3136 32.3032 32.272 32.2563 30.7095 32.2563H28.6157ZM44.2563 39.5532V28.6313H48.3657V36.0532L50.3813 34.3501V37.1313L48.3657 38.8345V50.1001H44.2563V42.3345L42.2407 44.0376V41.2563L44.2563 39.5532ZM61.2563 45.147L65.3657 45.8345C64.8345 47.3449 64.0011 48.4959 62.8657 49.2876C61.7303 50.0688 60.3084 50.4595 58.6001 50.4595C55.8918 50.4595 53.8866 49.5741 52.5845 47.8032C51.5636 46.3866 51.0532 44.6001 51.0532 42.4438C51.0532 39.8605 51.7251 37.8397 53.0688 36.3813C54.423 34.923 56.1313 34.1938 58.1938 34.1938C60.5063 34.1938 62.3293 34.9595 63.6626 36.4907C65.0063 38.0116 65.647 40.3501 65.5845 43.5063H55.272C55.3032 44.7251 55.6366 45.6782 56.272 46.3657C56.9074 47.0428 57.6991 47.3813 58.647 47.3813C59.2824 47.3813 59.8188 47.2043 60.2563 46.8501C60.7043 46.4959 61.0376 45.9282 61.2563 45.147ZM61.4907 40.9907C61.4699 39.7928 61.1626 38.8866 60.5688 38.272C59.9855 37.647 59.272 37.3345 58.4282 37.3345C57.5324 37.3345 56.7928 37.6626 56.2095 38.3188C55.6261 38.9751 55.3397 39.8657 55.3501 40.9907H61.4907ZM82.8188 39.147L78.7563 39.8813C78.6209 39.0688 78.3084 38.4595 77.8188 38.0532C77.3397 37.6366 76.7147 37.4282 75.9438 37.4282C74.923 37.4282 74.1053 37.7824 73.4907 38.4907C72.8866 39.1991 72.5845 40.3813 72.5845 42.0376C72.5845 43.8918 72.8918 45.1991 73.5063 45.9595C74.1313 46.7199 74.9647 47.1001 76.0063 47.1001C76.7876 47.1001 77.4282 46.8761 77.9282 46.4282C78.4282 45.9803 78.7772 45.2147 78.9751 44.1313L83.022 44.8188C82.6053 46.6834 81.798 48.0897 80.6001 49.0376C79.4126 49.9855 77.8188 50.4595 75.8188 50.4595C73.5376 50.4595 71.7199 49.7407 70.3657 48.3032C69.022 46.8657 68.3501 44.8761 68.3501 42.3345C68.3501 39.772 69.0272 37.7772 70.3813 36.3501C71.7355 34.9126 73.5741 34.1938 75.897 34.1938C77.7824 34.1938 79.2824 34.6001 80.397 35.4126C81.522 36.2251 82.3293 37.4699 82.8188 39.147ZM73.4282 32.6313L75.4595 28.2563H80.0688L76.0376 32.6313H73.4282Z" fill="black"/>
</svg>
