<svg width="698" height="1068" viewBox="0 0 698 1068" fill="none" xmlns="http://www.w3.org/2000/svg">
<path d="M12.9446 41.8796L12.9484 41.8796C14.3179 41.8756 15.6547 42.2981 16.7731 43.0885C17.8915 43.8789 18.7361 44.998 19.1895 46.2902L19.5003 47.1759H20.4389H32.8059V49.8241H31.4818H30.1577V51.1482V55.1205H27.5096V51.1482V49.8241H26.1855H20.4389H19.4999L19.1893 50.7103C18.2853 53.2902 15.8382 55.1205 12.9446 55.1205C11.1887 55.1205 9.50476 54.423 8.26318 53.1814C7.0216 51.9398 6.32409 50.2559 6.32409 48.5C6.32409 46.7442 7.0216 45.0602 8.26318 43.8186C9.50476 42.5771 11.1887 41.8796 12.9446 41.8796ZM15.7534 45.6912C15.0084 44.9462 13.9981 44.5277 12.9446 44.5277C11.891 44.5277 10.8807 44.9462 10.1357 45.6912C9.39078 46.4361 8.97228 47.4465 8.97228 48.5C8.97228 49.5535 9.39078 50.5639 10.1357 51.3088C10.8807 52.0538 11.891 52.4723 12.9446 52.4723C13.9981 52.4723 15.0084 52.0538 15.7534 51.3088C16.4983 50.5639 16.9168 49.5535 16.9168 48.5C16.9168 47.4465 16.4983 46.4361 15.7534 45.6912Z" fill="#4E3189" stroke="#4E3189" stroke-width="2.64818"/>
<path d="M59.3995 27.3145C57.6517 27.3145 56.1687 28.4268 55.6391 29.9627L50.1309 45.8518V67.0373C50.1309 67.7396 50.4099 68.4132 50.9065 68.9098C51.4031 69.4065 52.0767 69.6855 52.779 69.6855H55.4272C56.1296 69.6855 56.8031 69.4065 57.2998 68.9098C57.7964 68.4132 58.0754 67.7396 58.0754 67.0373V64.3891H89.8536V67.0373C89.8536 67.7396 90.1326 68.4132 90.6293 68.9098C91.1259 69.4065 91.7995 69.6855 92.5018 69.6855H95.15C95.8523 69.6855 96.5259 69.4065 97.0225 68.9098C97.5192 68.4132 97.7982 67.7396 97.7982 67.0373V45.8518L92.29 29.9627C91.7603 28.4268 90.2773 27.3145 88.5295 27.3145H59.3995ZM59.3995 31.2868H88.5295L92.5018 43.2036H55.4272L59.3995 31.2868ZM59.3995 48.5C60.453 48.5 61.4634 48.9185 62.2083 49.6635C62.9533 50.4084 63.3718 51.4188 63.3718 52.4723C63.3718 53.5258 62.9533 54.5362 62.2083 55.2811C61.4634 56.026 60.453 56.4446 59.3995 56.4446C58.346 56.4446 57.3356 56.026 56.5907 55.2811C55.8457 54.5362 55.4272 53.5258 55.4272 52.4723C55.4272 51.4188 55.8457 50.4084 56.5907 49.6635C57.3356 48.9185 58.346 48.5 59.3995 48.5ZM88.5295 48.5C89.583 48.5 90.5934 48.9185 91.3384 49.6635C92.0833 50.4084 92.5018 51.4188 92.5018 52.4723C92.5018 53.5258 92.0833 54.5362 91.3384 55.2811C90.5934 56.026 89.583 56.4446 88.5295 56.4446C87.476 56.4446 86.4657 56.026 85.7207 55.2811C84.9758 54.5362 84.5573 53.5258 84.5573 52.4723C84.5573 51.4188 84.9758 50.4084 85.7207 49.6635C86.4657 48.9185 87.476 48.5 88.5295 48.5Z" fill="#4E3189"/>
<path d="M170.708 46.3637H168.89V39.2273C168.89 36.5409 166.712 34.3637 164.026 34.3637H155.572C152.885 34.3637 150.708 36.5409 150.708 39.2273V46.3637H148.89C148.01 46.3637 147.299 47.075 147.299 47.9546V61.0455C147.299 61.925 148.01 62.6364 148.89 62.6364H170.708C171.587 62.6364 172.299 61.925 172.299 61.0455V47.9546C172.299 47.075 171.587 46.3637 170.708 46.3637ZM154.162 39.2273C154.162 38.45 154.794 37.8182 155.572 37.8182H164.026C164.803 37.8182 165.435 38.45 165.435 39.2273V46.3637H154.162V39.2273ZM168.844 59.1818H150.753V49.8182H168.844V59.1818ZM158.344 55.1789V56.75C158.344 57.1762 158.691 57.5227 159.117 57.5227H160.481C160.907 57.5227 161.253 57.1762 161.253 56.75V55.1789C161.516 54.9344 161.715 54.6264 161.828 54.2825C161.97 53.853 161.971 53.3896 161.833 52.9591C161.694 52.5286 161.423 52.1532 161.057 51.8868C160.692 51.6205 160.251 51.477 159.799 51.477C159.347 51.477 158.906 51.6205 158.54 51.8868C158.175 52.1532 157.903 52.5286 157.765 52.9591C157.626 53.3896 157.628 53.853 157.77 54.2825C157.883 54.6264 158.081 54.9344 158.344 55.1789Z" fill="#4E3189" stroke="#4E3189"/>
<path d="M197.067 27.3145C195.32 27.3145 193.837 28.4268 193.307 29.9627L187.799 45.8518V67.0373C187.799 67.7396 188.078 68.4132 188.574 68.9098C189.071 69.4065 189.745 69.6855 190.447 69.6855H193.095C193.798 69.6855 194.471 69.4065 194.968 68.9098C195.464 68.4132 195.743 67.7396 195.743 67.0373V64.3891H227.522V67.0373C227.522 67.7396 227.801 68.4132 228.297 68.9098C228.794 69.4065 229.467 69.6855 230.17 69.6855H232.818C233.52 69.6855 234.194 69.4065 234.691 68.9098C235.187 68.4132 235.466 67.7396 235.466 67.0373V45.8518L229.958 29.9627C229.428 28.4268 227.945 27.3145 226.198 27.3145H197.067ZM197.067 31.2868H226.198L230.17 43.2036H193.095L197.067 31.2868ZM197.067 48.5C198.121 48.5 199.131 48.9185 199.876 49.6635C200.621 50.4084 201.04 51.4188 201.04 52.4723C201.04 53.5258 200.621 54.5362 199.876 55.2811C199.131 56.026 198.121 56.4446 197.067 56.4446C196.014 56.4446 195.004 56.026 194.259 55.2811C193.514 54.5362 193.095 53.5258 193.095 52.4723C193.095 51.4188 193.514 50.4084 194.259 49.6635C195.004 48.9185 196.014 48.5 197.067 48.5ZM226.198 48.5C227.251 48.5 228.261 48.9185 229.006 49.6635C229.751 50.4084 230.17 51.4188 230.17 52.4723C230.17 53.5258 229.751 54.5362 229.006 55.2811C228.261 56.026 227.251 56.4446 226.198 56.4446C225.144 56.4446 224.134 56.026 223.389 55.2811C222.644 54.5362 222.225 53.5258 222.225 52.4723C222.225 51.4188 222.644 50.4084 223.389 49.6635C224.134 48.9185 225.144 48.5 226.198 48.5Z" fill="#4E3189"/>
<g clip-path="url(#clip0)">
<path d="M305.478 19.5784C297.658 19.5784 290.584 22.6718 285.465 27.6765L289.092 31.2225C291.241 29.1163 293.795 27.4473 296.608 26.312C299.42 25.1767 302.435 24.5976 305.478 24.6083C311.909 24.6083 317.671 27.1232 321.838 31.2476L325.465 27.7016C320.372 22.6718 313.298 19.5784 305.478 19.5784ZM292.745 34.7937L296.372 38.3397C298.792 35.9882 302.066 34.6683 305.478 34.6683C308.89 34.6683 312.164 35.9882 314.584 38.3397L318.211 34.7937C316.541 33.1563 314.556 31.8579 312.371 30.9731C310.185 30.0883 307.843 29.6346 305.478 29.6381C300.513 29.6381 296.011 31.5997 292.745 34.7937ZM305.478 57.3022C304.113 57.3022 302.805 56.7723 301.84 55.829C300.875 54.8857 300.333 53.6064 300.333 52.2724C300.333 50.9384 300.875 49.659 301.84 48.7157C302.805 47.7725 304.113 47.2425 305.478 47.2425C306.842 47.2425 308.151 47.7725 309.116 48.7157C310.08 49.659 310.622 50.9384 310.622 52.2724C310.622 53.6064 310.08 54.8857 309.116 55.829C308.151 56.7723 306.842 57.3022 305.478 57.3022ZM313.195 42.2127H297.761C297.078 42.2127 296.424 42.4777 295.942 42.9493C295.459 43.4209 295.188 44.0606 295.188 44.7276V74.9067C295.188 75.5737 295.459 76.2133 295.942 76.685C296.424 77.1566 297.078 77.4216 297.761 77.4216H313.195C313.877 77.4216 314.531 77.1566 315.014 76.685C315.496 76.2133 315.767 75.5737 315.767 74.9067V44.7276C315.767 44.0606 315.496 43.4209 315.014 42.9493C314.531 42.4777 313.877 42.2127 313.195 42.2127Z" fill="#4E3189"/>
<path d="M357.465 74.7549L357.465 56.0883C357.465 54.6176 356.269 53.4216 354.798 53.4216L352.132 53.4216L352.132 50.7549L346.798 50.7549L346.798 53.4216L344.132 53.4216C342.661 53.4216 341.465 54.6176 341.465 56.0883L341.465 74.7549C341.465 76.2256 342.661 77.4216 344.132 77.4216L354.798 77.4216C356.269 77.4216 357.465 76.2256 357.465 74.7549ZM344.132 74.7549L344.132 56.0883L354.798 56.0856L354.798 74.7549L344.132 74.7549Z" fill="#4E3189"/>
</g>
<path d="M428.243 19.5883C420.423 19.5883 413.349 22.6816 408.23 27.6863L411.857 31.2323C414.006 29.1261 416.561 27.4571 419.373 26.3218C422.186 25.1866 425.201 24.6075 428.243 24.6181C434.674 24.6181 440.436 27.133 444.603 31.2575L448.23 27.7115C443.137 22.6816 436.063 19.5883 428.243 19.5883ZM415.51 34.8035L419.137 38.3496C421.558 35.998 424.831 34.6781 428.243 34.6781C431.656 34.6781 434.929 35.998 437.349 38.3496L440.976 34.8035C439.306 33.1662 437.322 31.8678 435.136 30.983C432.951 30.0982 430.609 29.6445 428.243 29.6479C423.279 29.6479 418.777 31.6096 415.51 34.8035ZM428.243 57.3121C426.879 57.3121 425.57 56.7821 424.605 55.8389C423.641 54.8956 423.099 53.6162 423.099 52.2822C423.099 50.9482 423.641 49.6689 424.605 48.7256C425.57 47.7823 426.879 47.2524 428.243 47.2524C429.608 47.2524 430.916 47.7823 431.881 48.7256C432.846 49.6689 433.388 50.9482 433.388 52.2822C433.388 53.6162 432.846 54.8956 431.881 55.8389C430.916 56.7821 429.608 57.3121 428.243 57.3121ZM435.96 42.2225H420.526C419.844 42.2225 419.19 42.4875 418.707 42.9591C418.225 43.4308 417.954 44.0705 417.954 44.7375V74.9165C417.954 75.5835 418.225 76.2232 418.707 76.6948C419.19 77.1665 419.844 77.4314 420.526 77.4314H435.96C436.643 77.4314 437.297 77.1665 437.779 76.6948C438.262 76.2232 438.533 75.5835 438.533 74.9165V44.7375C438.533 44.0705 438.262 43.4308 437.779 42.9591C437.297 42.4875 436.643 42.2225 435.96 42.2225Z" fill="#4E3189"/>
<path d="M523.415 19.5883C515.595 19.5883 508.521 22.6816 503.402 27.6863L507.029 31.2323C509.178 29.1261 511.733 27.4571 514.545 26.3218C517.358 25.1866 520.372 24.6075 523.415 24.6181C529.846 24.6181 535.608 27.133 539.775 31.2575L543.402 27.7115C538.309 22.6816 531.235 19.5883 523.415 19.5883ZM510.682 34.8035L514.309 38.3496C516.729 35.998 520.003 34.6781 523.415 34.6781C526.827 34.6781 530.101 35.998 532.521 38.3496L536.148 34.8035C534.478 33.1662 532.493 31.8678 530.308 30.983C528.123 30.0982 525.78 29.6445 523.415 29.6479C518.451 29.6479 513.949 31.6096 510.682 34.8035ZM523.415 57.3121C522.051 57.3121 520.742 56.7821 519.777 55.8389C518.813 54.8956 518.271 53.6162 518.271 52.2822C518.271 50.9482 518.813 49.6689 519.777 48.7256C520.742 47.7823 522.051 47.2524 523.415 47.2524C524.78 47.2524 526.088 47.7823 527.053 48.7256C528.018 49.6689 528.56 50.9482 528.56 52.2822C528.56 53.6162 528.018 54.8956 527.053 55.8389C526.088 56.7821 524.78 57.3121 523.415 57.3121ZM531.132 42.2225H515.698C515.016 42.2225 514.362 42.4875 513.879 42.9591C513.397 43.4308 513.126 44.0705 513.126 44.7375V74.9165C513.126 75.5835 513.397 76.2232 513.879 76.6948C514.362 77.1665 515.016 77.4314 515.698 77.4314H531.132C531.814 77.4314 532.469 77.1665 532.951 76.6948C533.434 76.2232 533.705 75.5835 533.705 74.9165V44.7375C533.705 44.0705 533.434 43.4308 532.951 42.9591C532.469 42.4875 531.814 42.2225 531.132 42.2225Z" fill="#4E3189"/>
<path d="M503.975 21.4982C505.03 21.1706 505.62 20.0498 505.292 18.9949L499.952 1.80525C499.624 0.750402 498.504 0.160919 497.449 0.4886C496.394 0.816281 495.804 1.93704 496.132 2.99189L500.879 18.2716L485.599 23.0182C484.544 23.3459 483.955 24.4666 484.282 25.5215C484.61 26.5763 485.731 27.1658 486.786 26.8381L503.975 21.4982ZM449.363 21.2369C460.337 13.6991 466.965 10.5345 473.969 10.6487C481.103 10.765 488.969 14.2671 502.451 21.3584L504.313 17.8182C491.018 10.8254 482.291 6.78384 474.035 6.64924C465.649 6.51255 458.09 10.3899 447.098 17.9397L449.363 21.2369Z" fill="#4E3189"/>
<path d="M503.975 75.5215C505.03 75.8492 505.62 76.9699 505.292 78.0248L499.952 95.2145C499.624 96.2693 498.504 96.8588 497.449 96.5311C496.394 96.2034 495.804 95.0827 496.132 94.0278L500.879 78.7481L485.599 74.0015C484.544 73.6739 483.955 72.5531 484.282 71.4983C484.61 70.4434 485.731 69.8539 486.786 70.1816L503.975 75.5215ZM449.363 75.7829C460.337 83.3206 466.965 86.4852 473.969 86.371C481.103 86.2547 488.969 82.7526 502.451 75.6614L504.313 79.2015C491.018 86.1943 482.291 90.2359 474.035 90.3705C465.649 90.5072 458.09 86.6298 447.098 79.08L449.363 75.7829Z" fill="#4E3189"/>
<path d="M598.562 7.15361L593.465 12.2946L604.679 28.1341C605.151 28.8011 605.775 29.3447 606.497 29.7194C607.22 30.0941 608.021 30.2891 608.834 30.2882H609.191C609.861 30.2877 610.525 30.4204 611.144 30.6789C611.763 30.9374 612.326 31.3165 612.8 31.7945L626.435 45.5468L613.095 59.191C610.814 58.5136 608.407 58.3818 606.066 58.806C603.725 59.2301 601.514 60.1986 599.609 61.6346C597.704 63.0706 596.156 64.9346 595.09 67.0787C594.023 69.2228 593.467 71.5881 593.465 73.9869C593.468 76.1972 593.942 78.3811 594.855 80.3905C595.768 82.3999 597.099 84.1879 598.757 85.6333C600.415 87.0788 602.361 88.148 604.465 88.7684C606.568 89.3888 608.779 89.546 610.948 89.2293C613.117 88.9126 615.194 88.1294 617.036 86.9328C618.879 85.7362 620.445 84.1541 621.628 82.2937C622.812 80.4334 623.585 78.3382 623.896 76.1501C624.206 73.9621 624.046 71.7323 623.428 69.6119L636.957 56.1578L641.891 61.1343L640.336 65.8332C640.037 66.7389 639.995 67.7107 640.212 68.6395C640.43 69.5684 640.9 70.4178 641.57 71.0925L658.677 88.3458C659.633 89.3096 660.929 89.851 662.281 89.851C663.632 89.851 664.929 89.3096 665.885 88.3458L673.969 80.1921C674.925 79.228 675.462 77.9206 675.462 76.5574C675.462 75.1942 674.925 73.8868 673.969 72.9227L656.862 55.6694C656.193 54.9943 655.351 54.5203 654.43 54.3005C653.509 54.0808 652.546 54.124 651.647 54.4253L646.988 55.9933L642.095 51.0579L655.756 37.4702C658.022 38.0803 660.397 38.1574 662.698 37.6955C664.998 37.2335 667.163 36.2449 669.025 34.8059C670.886 33.3669 672.395 31.5158 673.436 29.3955C674.476 27.2752 675.02 24.9423 675.025 22.5767C675.025 21.1937 674.846 19.8519 674.505 18.5821L663.596 29.589L654.635 27.7177L652.779 18.6849L663.693 7.678C661.097 6.97399 658.362 6.97268 655.765 7.67419C653.169 8.3757 650.801 9.75523 648.901 11.6737C647.002 13.5923 645.637 15.9819 644.945 18.6019C644.253 21.2219 644.258 23.9796 644.96 26.597L631.502 40.3646L617.897 26.6535C616.941 25.6896 616.404 24.3822 616.404 23.0188V22.6538C616.404 21.8351 616.21 21.0283 615.838 20.3004C615.467 19.5725 614.928 18.9446 614.268 18.469L598.562 7.15361ZM647.733 61.8849C647.969 61.6455 648.251 61.4556 648.56 61.326C648.87 61.1964 649.202 61.1297 649.537 61.1297C649.872 61.1297 650.204 61.1964 650.514 61.326C650.824 61.4556 651.105 61.6455 651.342 61.8849L666.634 77.308C666.871 77.547 667.059 77.8307 667.187 78.143C667.316 78.4552 667.382 78.7899 667.382 79.1279C667.382 79.4659 667.316 79.8006 667.187 80.1128C667.059 80.4251 666.871 80.7088 666.634 80.9478C666.397 81.1868 666.116 81.3764 665.806 81.5057C665.497 81.6351 665.165 81.7017 664.83 81.7017C664.494 81.7017 664.163 81.6351 663.853 81.5057C663.543 81.3764 663.262 81.1868 663.025 80.9478L647.733 65.5248C647.495 65.286 647.307 65.0023 647.178 64.69C647.05 64.3777 646.984 64.043 646.984 63.7048C646.984 63.3667 647.05 63.0319 647.178 62.7197C647.307 62.4074 647.495 62.1237 647.733 61.8849ZM608.757 63.7048L611.158 64.949L613.855 65.0826L615.318 67.3704L617.586 68.8459L617.719 71.5655L618.952 73.9869L617.719 76.4083L617.586 79.1279L615.318 80.6034L613.855 82.8911L611.158 83.0248L608.757 84.2689L606.356 83.0248L603.66 82.8911L602.197 80.6034L599.928 79.1279L599.796 76.4083L598.562 73.9869L599.796 71.5655L599.928 68.8459L602.197 67.3704L603.66 65.0826L606.356 64.949L608.757 63.7048Z" fill="#4E3189"/>
<g clip-path="url(#clip1)">
<circle cx="12.8784" cy="218.594" r="3.41548" fill="white"/>
<path d="M12.9446 211.974L12.9484 211.974C14.3179 211.97 15.6547 212.393 16.7731 213.183C17.8915 213.973 18.7361 215.092 19.1895 216.385L19.5003 217.27H20.4389H32.8059V219.919H31.4818H30.1577V221.243V225.215H27.5096V221.243V219.919H26.1855H20.4389H19.4999L19.1893 220.805C18.2853 223.385 15.8382 225.215 12.9446 225.215C11.1887 225.215 9.50476 224.517 8.26318 223.276C7.0216 222.034 6.32409 220.35 6.32409 218.594C6.32409 216.839 7.0216 215.155 8.26318 213.913C9.50476 212.672 11.1887 211.974 12.9446 211.974ZM15.7534 215.786C15.0084 215.041 13.9981 214.622 12.9446 214.622C11.891 214.622 10.8807 215.041 10.1357 215.786C9.39078 216.531 8.97228 217.541 8.97228 218.594C8.97228 219.648 9.39078 220.658 10.1357 221.403C10.8807 222.148 11.891 222.567 12.9446 222.567C13.9981 222.567 15.0084 222.148 15.7534 221.403C16.4983 220.658 16.9168 219.648 16.9168 218.594C16.9168 217.541 16.4983 216.531 15.7534 215.786Z" fill="#4E3189" stroke="#4E3189" stroke-width="2.64818"/>
<path d="M54.0855 197.409C48.3573 197.409 43.1755 199.675 39.4258 203.341L42.0826 205.938C43.6567 204.396 45.5279 203.173 47.5881 202.341C49.6483 201.51 51.8566 201.086 54.0855 201.093C58.7962 201.093 63.017 202.936 66.0695 205.957L68.7263 203.359C64.9955 199.675 59.8137 197.409 54.0855 197.409ZM44.7583 208.554L47.4151 211.152C49.188 209.429 51.586 208.463 54.0855 208.463C56.585 208.463 58.9829 209.429 60.7558 211.152L63.4127 208.554C62.1893 207.355 60.7354 206.404 59.1347 205.756C57.534 205.108 55.818 204.775 54.0855 204.778C50.4488 204.778 47.1513 206.215 44.7583 208.554ZM54.0855 225.042C53.086 225.042 52.1275 224.654 51.4207 223.963C50.714 223.272 50.3169 222.335 50.3169 221.358C50.3169 220.381 50.714 219.443 51.4207 218.753C52.1275 218.062 53.086 217.673 54.0855 217.673C55.085 217.673 56.0435 218.062 56.7503 218.753C57.457 219.443 57.854 220.381 57.854 221.358C57.854 222.335 57.457 223.272 56.7503 223.963C56.0435 224.654 55.085 225.042 54.0855 225.042ZM59.7383 213.989H48.4326C47.9329 213.989 47.4536 214.183 47.1003 214.529C46.7469 214.874 46.5484 215.343 46.5484 215.831L46.5484 237.938C46.5484 238.426 46.7469 238.895 47.1003 239.24C47.4536 239.586 47.9329 239.78 48.4326 239.78H59.7383C60.2381 239.78 60.7173 239.586 61.0707 239.24C61.4241 238.895 61.6226 238.426 61.6226 237.938L61.6226 215.831C61.6226 215.343 61.4241 214.874 61.0707 214.529C60.7173 214.183 60.2381 213.989 59.7383 213.989Z" fill="#4E3189"/>
<path d="M83.2921 197.409C81.5443 197.409 80.0613 198.521 79.5317 200.057L74.0234 215.946V237.132C74.0234 237.834 74.3024 238.508 74.7991 239.004C75.2957 239.501 75.9693 239.78 76.6716 239.78H79.3198C80.0221 239.78 80.6957 239.501 81.1924 239.004C81.689 238.508 81.968 237.834 81.968 237.132V234.484H113.746V237.132C113.746 237.834 114.025 238.508 114.522 239.004C115.018 239.501 115.692 239.78 116.394 239.78H119.043C119.745 239.78 120.418 239.501 120.915 239.004C121.412 238.508 121.691 237.834 121.691 237.132V215.946L116.183 200.057C115.653 198.521 114.17 197.409 112.422 197.409H83.2921ZM83.2921 201.381H112.422L116.394 213.298H79.3198L83.2921 201.381ZM83.2921 218.594C84.3456 218.594 85.356 219.013 86.1009 219.758C86.8459 220.503 87.2644 221.513 87.2644 222.567C87.2644 223.62 86.8459 224.631 86.1009 225.376C85.356 226.121 84.3456 226.539 83.2921 226.539C82.2386 226.539 81.2282 226.121 80.4833 225.376C79.7383 224.631 79.3198 223.62 79.3198 222.567C79.3198 221.513 79.7383 220.503 80.4833 219.758C81.2282 219.013 82.2386 218.594 83.2921 218.594ZM112.422 218.594C113.476 218.594 114.486 219.013 115.231 219.758C115.976 220.503 116.394 221.513 116.394 222.567C116.394 223.62 115.976 224.631 115.231 225.376C114.486 226.121 113.476 226.539 112.422 226.539C111.369 226.539 110.358 226.121 109.613 225.376C108.868 224.631 108.45 223.62 108.45 222.567C108.45 221.513 108.868 220.503 109.613 219.758C110.358 219.013 111.369 218.594 112.422 218.594Z" fill="#4E3189"/>
</g>
<path d="M201.526 225.09C199.698 226.88 197.48 228.319 195.03 229.213V261.382H183.361V253.602H171.691V241.933H183.361V229.175C176.592 226.763 171.691 220.384 171.691 212.76C171.691 203.035 179.471 195.256 189.195 195.256H189.584C187.756 198.951 186.939 203.035 187.367 207.236C185.072 208.014 183.361 210.193 183.361 212.76C183.361 215.988 185.967 218.594 189.195 218.594C190.09 218.594 190.946 218.361 191.724 218.011C194.213 221.278 197.636 223.729 201.526 225.09ZM232.877 247.534L222.142 252.046L219.107 244.889L208.372 249.44L203.821 238.666L214.595 234.153L209.655 222.484C202.459 222.795 195.458 218.789 192.502 211.787C188.767 202.88 192.968 192.611 201.876 188.838C202.809 188.449 203.821 188.177 204.754 187.943C202.187 183.081 196.975 179.697 191.14 179.697C182.544 179.697 175.581 186.66 175.581 195.256V196.189C174.414 197.201 173.247 198.446 172.275 199.729C171.925 198.29 171.691 196.812 171.691 195.256C171.691 184.52 180.404 175.807 191.14 175.807C201.876 175.807 210.589 184.52 210.589 195.256C210.589 200.779 208.255 205.642 204.56 209.142C206.194 210.815 208.644 211.321 210.9 210.348C213.895 209.103 215.257 205.68 214.012 202.724C213.885 202.361 213.701 202.019 213.467 201.713C214.09 199.651 214.479 197.512 214.479 195.256C214.479 192.805 214.09 190.433 213.39 188.216C218.368 189.616 222.647 193.078 224.787 198.212C227.743 205.214 225.72 213.032 220.313 217.855L232.877 247.534ZM202.809 205.369C204.249 203.775 205.338 201.907 205.999 199.846C203.899 200.896 202.693 203.035 202.809 205.369Z" fill="#4E3189"/>
<path d="M314.23 188.66C316.011 188.656 317.721 189.359 318.985 190.615C320.249 191.87 320.963 193.576 320.971 195.357L320.971 195.388L320.505 247.655C320.501 248.102 320.378 248.54 320.149 248.924C319.919 249.307 319.592 249.624 319.2 249.839C318.809 250.055 318.366 250.162 317.919 250.151C317.472 250.139 317.037 250.009 316.657 249.773C314.5 248.438 312.503 246.862 310.703 245.075C305.608 240.012 302.155 233.296 300.59 225.299C299.017 217.261 299.89 210.783 299.928 210.511C300.012 209.911 300.309 209.36 300.766 208.962C301.223 208.563 301.809 208.342 302.415 208.34L307.166 208.325L307.532 195.357C307.54 193.583 308.248 191.884 309.503 190.63C310.757 189.376 312.456 188.668 314.23 188.66ZM305.565 224.482C307.096 232.155 310.435 238.258 315.509 242.686L315.771 213.336L309.72 213.355C309.662 213.358 309.604 213.359 309.544 213.357L309.53 213.356L304.747 213.372C304.575 217.095 304.85 220.824 305.565 224.482ZM312.571 195.385C312.572 195.411 312.571 195.438 312.571 195.464L312.207 208.308L315.816 208.296L315.931 195.362C315.924 194.92 315.742 194.498 315.425 194.189C315.109 193.879 314.683 193.707 314.24 193.71C313.797 193.713 313.374 193.891 313.061 194.204C312.749 194.518 312.573 194.942 312.571 195.385L312.571 195.385Z" fill="#4E3189"/>
<path d="M380.328 231.23C376.184 224.756 369.077 221.905 364.452 224.863C364.054 225.118 363.684 225.412 363.35 225.73L358.415 218.007L369.817 200.111C370.751 198.389 371.093 196.337 370.64 194.273C370.225 192.376 369.169 190.681 367.649 189.473L366.886 188.988L353.372 210.121L339.859 188.988L339.095 189.473C337.539 190.707 336.468 192.451 336.071 194.397C335.675 196.343 335.978 198.367 336.928 200.111L348.329 218.007L343.394 225.73C343.056 225.407 342.687 225.116 342.293 224.863C337.667 221.905 330.561 224.752 326.417 231.23C322.273 237.709 322.663 245.352 327.288 248.315C331.913 251.274 339.02 248.427 343.163 241.948L353.372 225.925L363.581 241.948C367.725 248.423 374.832 251.274 379.457 248.315C384.082 245.356 384.472 237.709 380.328 231.23ZM338.137 238.735C336.272 241.65 333.877 243.066 332.259 243.424C331.73 243.539 330.998 243.611 330.497 243.292C329.944 242.938 329.578 242.004 329.515 240.791C329.415 238.826 330.115 236.512 331.436 234.452C333.301 231.537 335.695 230.121 337.313 229.763C337.842 229.648 338.574 229.576 339.075 229.894C339.628 230.248 339.994 231.183 340.058 232.396C340.157 234.364 339.457 236.675 338.137 238.735ZM353.368 220.811C352.841 220.811 352.335 220.601 351.962 220.229C351.589 219.856 351.38 219.35 351.38 218.823C351.38 218.295 351.589 217.789 351.962 217.416C352.335 217.044 352.841 216.834 353.368 216.834C353.896 216.834 354.401 217.044 354.774 217.416C355.147 217.789 355.357 218.295 355.357 218.823C355.357 219.35 355.147 219.856 354.774 220.229C354.401 220.601 353.896 220.811 353.368 220.811ZM377.222 240.787C377.158 242 376.792 242.934 376.239 243.288C375.742 243.607 375.007 243.535 374.478 243.42C372.859 243.066 370.465 241.646 368.6 238.731C367.279 236.667 366.579 234.356 366.679 232.392C366.743 231.179 367.108 230.244 367.661 229.89C368.158 229.572 368.894 229.644 369.423 229.759C371.042 230.113 373.436 231.533 375.301 234.448C376.621 236.512 377.321 238.822 377.222 240.787Z" fill="#4E3189"/>
<path d="M405.217 197.276L401.267 185.427L397.318 197.276L385.469 201.226L397.318 205.175L401.267 217.024L405.217 205.175L417.066 201.226L405.217 197.276ZM401.267 203.912C399.845 203.912 398.582 202.806 398.582 201.226C398.582 199.804 399.687 198.54 401.267 198.54C402.689 198.54 403.953 199.646 403.953 201.226C403.953 202.648 402.689 203.912 401.267 203.912Z" fill="#4E3189"/>
<circle cx="401.266" cy="234.835" r="15.5984" fill="#4E3189"/>
<circle cx="393.095" cy="242.912" r="1.71402" fill="white"/>
<circle cx="401.267" cy="246.34" r="1.71402" fill="white"/>
<circle cx="409.56" cy="242.912" r="1.71402" fill="white"/>
<circle cx="401.267" cy="223.329" r="1.71402" fill="white"/>
<circle cx="393.095" cy="226.574" r="1.71402" fill="white"/>
<circle cx="389.544" cy="234.835" r="1.71402" fill="white"/>
<circle cx="412.989" cy="234.835" r="1.71402" fill="white"/>
<circle cx="409.56" cy="226.574" r="1.71402" fill="white"/>
<circle cx="401.267" cy="234.835" r="1.71402" fill="white"/>
<path d="M524.042 214.212H541.573C542.736 214.212 543.85 214.673 544.672 215.495C545.494 216.317 545.956 217.432 545.956 218.594C545.956 219.757 545.494 220.872 544.672 221.694C543.85 222.516 542.736 222.977 541.573 222.977H519.659C518.496 222.977 517.382 222.516 516.56 221.694C515.738 220.872 515.276 219.757 515.276 218.594V192.297C515.276 191.135 515.738 190.02 516.56 189.198C517.382 188.376 518.496 187.914 519.659 187.914C520.821 187.914 521.936 188.376 522.758 189.198C523.58 190.02 524.042 191.135 524.042 192.297V214.212ZM519.659 262.423C495.452 262.423 475.83 242.801 475.83 218.594C475.83 194.388 495.452 174.766 519.659 174.766C543.865 174.766 563.488 194.388 563.488 218.594C563.488 242.801 543.865 262.423 519.659 262.423ZM519.659 253.657C528.958 253.657 537.876 249.963 544.452 243.388C551.028 236.812 554.722 227.894 554.722 218.594C554.722 209.295 551.028 200.377 544.452 193.801C537.876 187.226 528.958 183.531 519.659 183.531C510.36 183.531 501.441 187.226 494.866 193.801C488.29 200.377 484.596 209.295 484.596 218.594C484.596 227.894 488.29 236.812 494.866 243.388C501.441 249.963 510.36 253.657 519.659 253.657Z" fill="#4E3189"/>
<rect x="537.016" y="236.646" width="18.9923" height="19.1497" fill="white"/>
<path d="M567.407 242.961L562.617 241.531C562.286 240.375 561.831 239.258 561.259 238.2L563.604 233.811C563.692 233.646 563.724 233.456 563.696 233.271C563.667 233.085 563.58 232.914 563.447 232.782L560.03 229.351C559.898 229.218 559.727 229.13 559.541 229.102C559.356 229.074 559.166 229.106 559.001 229.194L554.64 231.524C553.572 230.925 552.44 230.445 551.266 230.094L549.837 225.362C549.776 225.188 549.662 225.037 549.51 224.932C549.359 224.827 549.178 224.772 548.993 224.776H544.161C543.975 224.777 543.795 224.837 543.646 224.948C543.497 225.058 543.387 225.214 543.332 225.391L541.902 230.109C540.719 230.457 539.577 230.937 538.5 231.538L534.211 229.222C534.045 229.134 533.856 229.102 533.67 229.13C533.485 229.159 533.313 229.246 533.182 229.38L529.708 232.768C529.574 232.9 529.487 233.071 529.458 233.256C529.43 233.442 529.462 233.631 529.55 233.797L531.866 238.086C531.266 239.159 530.786 240.295 530.437 241.474L525.705 242.904C525.527 242.959 525.372 243.069 525.261 243.218C525.151 243.367 525.091 243.547 525.09 243.733V248.565C525.091 248.751 525.151 248.931 525.261 249.08C525.372 249.23 525.527 249.34 525.705 249.394L530.465 250.824C530.819 251.983 531.298 253.1 531.895 254.155L529.55 258.644C529.462 258.81 529.43 258.999 529.458 259.185C529.487 259.37 529.574 259.541 529.708 259.673L533.124 263.09C533.256 263.224 533.428 263.311 533.613 263.339C533.798 263.368 533.988 263.335 534.154 263.247L538.571 260.889C539.616 261.452 540.719 261.903 541.859 262.232L543.289 267.05C543.344 267.228 543.454 267.383 543.603 267.493C543.752 267.604 543.932 267.664 544.118 267.665H548.95C549.136 267.664 549.316 267.604 549.466 267.493C549.615 267.383 549.725 267.228 549.779 267.05L551.209 262.218C552.34 261.887 553.433 261.436 554.469 260.874L558.915 263.247C559.08 263.335 559.27 263.368 559.455 263.339C559.641 263.311 559.812 263.224 559.944 263.09L563.361 259.673C563.494 259.541 563.582 259.37 563.61 259.185C563.638 258.999 563.606 258.81 563.518 258.644L561.145 254.212C561.713 253.172 562.168 252.075 562.503 250.938L567.321 249.509C567.498 249.454 567.654 249.344 567.764 249.195C567.875 249.046 567.935 248.865 567.936 248.68V243.804C567.944 243.627 567.898 243.451 567.803 243.3C567.709 243.149 567.57 243.031 567.407 242.961ZM546.577 254.083C545.022 254.083 543.502 253.622 542.209 252.758C540.916 251.894 539.908 250.666 539.313 249.23C538.718 247.793 538.562 246.212 538.865 244.687C539.169 243.161 539.918 241.76 541.017 240.661C542.117 239.561 543.518 238.812 545.043 238.509C546.568 238.205 548.149 238.361 549.586 238.956C551.023 239.551 552.251 240.559 553.115 241.852C553.979 243.145 554.44 244.665 554.44 246.221C554.44 248.306 553.612 250.306 552.137 251.78C550.662 253.255 548.662 254.083 546.577 254.083Z" fill="#4E3189"/>
<path fill-rule="evenodd" clip-rule="evenodd" d="M659.951 256.614C680.771 256.614 697.649 239.592 697.649 218.594C697.649 197.597 680.771 180.575 659.951 180.575C639.132 180.575 622.254 197.597 622.254 218.594C622.254 239.592 639.132 256.614 659.951 256.614ZM632.605 217.684C632.605 232.958 644.926 245.384 660.07 245.384C675.214 245.384 687.535 232.958 687.535 217.684C687.535 202.411 675.214 189.984 660.07 189.984C644.926 189.984 632.605 202.411 632.605 217.684ZM654.577 217.684C654.577 220.731 657.049 223.224 660.07 223.224H671.056C674.077 223.224 676.549 220.731 676.549 217.684C676.549 214.637 674.077 212.144 671.056 212.144H665.563V206.604C665.563 203.557 663.091 201.064 660.07 201.064C657.049 201.064 654.577 203.557 654.577 206.604V217.684Z" fill="#4E3189"/>
<path d="M41.004 368.689V375.189H44.004C44.667 375.189 45.3029 375.453 45.7718 375.921C46.2406 376.39 46.504 377.026 46.504 377.689C46.504 378.352 46.2406 378.988 45.7718 379.457C45.3029 379.926 44.667 380.189 44.004 380.189H39.004C38.9199 380.189 38.8357 380.185 38.752 380.177C38.4042 380.212 38.0528 380.174 37.7206 380.065C37.3884 379.956 37.0828 379.779 36.8234 379.544C36.5641 379.31 36.3568 379.024 36.215 378.704C36.0731 378.385 35.9999 378.039 36 377.689V368.689C36 368.026 36.2636 367.389 36.7328 366.92C37.202 366.451 37.8384 366.187 38.502 366.187C39.1656 366.187 39.802 366.451 40.2712 366.92C40.7404 367.389 41.004 368.026 41.004 368.689Z" fill="#4E3189"/>
<path d="M38.5 356.209C36.0049 356.209 33.5342 356.7 31.229 357.655C28.9238 358.61 26.8293 360.009 25.065 361.774C23.3007 363.538 21.9011 365.633 20.9463 367.938C19.9914 370.243 19.5 372.714 19.5 375.209C19.5 377.704 19.9914 380.174 20.9463 382.48C21.9011 384.785 23.3007 386.879 25.065 388.644C26.8293 390.408 28.9238 391.808 31.229 392.762C33.5342 393.717 36.0049 394.209 38.5 394.209C43.5391 394.209 48.3718 392.207 51.935 388.644C55.4982 385.081 57.5 380.248 57.5 375.209C57.5 370.17 55.4982 365.337 51.935 361.774C48.3718 358.21 43.5391 356.209 38.5 356.209ZM24.5 375.209C24.5 371.496 25.975 367.935 28.6005 365.309C31.226 362.684 34.787 361.209 38.5 361.209C42.213 361.209 45.774 362.684 48.3995 365.309C51.025 367.935 52.5 371.496 52.5 375.209C52.5 378.922 51.025 382.483 48.3995 385.108C45.774 387.734 42.213 389.209 38.5 389.209C34.787 389.209 31.226 387.734 28.6005 385.108C25.975 382.483 24.5 378.922 24.5 375.209Z" fill="#4E3189"/>
<path fill-rule="evenodd" clip-rule="evenodd" d="M7.92893 343.118C9.8043 341.243 12.3478 340.189 15 340.189H61C62.3132 340.189 63.6136 340.448 64.8268 340.95C66.0401 341.453 67.1425 342.189 68.0711 343.118C68.9997 344.046 69.7362 345.149 70.2388 346.362C70.7413 347.575 71 348.876 71 350.189V407.189C71 407.985 70.6839 408.748 70.1213 409.31C69.5587 409.873 68.7957 410.189 68 410.189H11H5V350.189C5 347.537 6.05357 344.993 7.92893 343.118ZM11 404.189H65V350.189C65 349.128 64.5786 348.111 63.8284 347.361C63.0783 346.61 62.0609 346.189 61 346.189H15C13.9391 346.189 12.9217 346.61 12.1716 347.361C11.4214 348.111 11 349.128 11 350.189V404.189Z" fill="#4E3189"/>
<path d="M145.095 345.951C144.013 344.154 142.444 342.62 140.454 341.569C134.635 338.498 127.432 340.723 124.358 346.541C122.262 350.512 122.633 355.13 124.931 358.637L124.783 358.399L145.003 345.804L145.095 345.951Z" fill="#4E3189"/>
<path d="M165.041 345.931C166.122 344.146 167.686 342.621 169.666 341.575C175.483 338.504 182.689 340.73 185.761 346.547C187.856 350.515 187.486 355.13 185.192 358.638L185.337 358.405L165.117 345.81L165.041 345.931Z" fill="#4E3189"/>
<path d="M133.996 406.837L140.212 411.212L133.893 420.189L127.677 415.813L133.996 406.837Z" fill="#4E3189"/>
<path d="M176.228 420.189L182.444 415.813L176.125 406.837L169.909 411.212L176.228 420.189Z" fill="#4E3189"/>
<path fill-rule="evenodd" clip-rule="evenodd" d="M155.06 417.878C173.871 417.878 189.12 402.629 189.12 383.818C189.12 365.007 173.871 349.758 155.06 349.758C136.249 349.758 121 365.007 121 383.818C121 402.629 136.249 417.878 155.06 417.878ZM130.352 383.003C130.352 396.685 141.484 407.817 155.167 407.817C168.85 407.817 179.982 396.685 179.982 383.003C179.982 369.32 168.85 358.188 155.167 358.188C141.484 358.188 130.352 369.32 130.352 383.003ZM150.204 383.003C150.204 385.732 152.437 387.966 155.167 387.966H165.093C167.822 387.966 170.056 385.732 170.056 383.003C170.056 380.273 167.822 378.04 165.093 378.04H160.13V373.077C160.13 370.347 157.897 368.114 155.167 368.114C152.437 368.114 150.204 370.347 150.204 373.077V383.003Z" fill="#4E3189"/>
<path d="M264.786 383.856H272.119C274.136 383.856 275.786 382.206 275.786 380.189C275.786 378.172 274.136 376.522 272.119 376.522H268.452V372.856C268.452 370.839 266.802 369.189 264.786 369.189C262.769 369.189 261.119 370.839 261.119 372.856V380.189C261.119 382.206 262.769 383.856 264.786 383.856ZM283.119 362.241V354.522C283.119 348.458 278.184 343.522 272.119 343.522H257.452C251.388 343.522 246.452 348.458 246.452 354.522V362.241C241.92 366.872 239.119 373.2 239.119 380.189C239.119 387.178 241.92 393.506 246.452 398.137V405.856C246.452 411.92 251.388 416.856 257.452 416.856H272.119C278.184 416.856 283.119 411.92 283.119 405.856V398.137C287.651 393.51 290.452 387.181 290.452 380.189C290.452 373.197 287.651 366.872 283.119 362.241ZM253.786 354.522C253.786 352.502 255.432 350.856 257.452 350.856H272.119C274.139 350.856 275.786 352.502 275.786 354.522V361.155C272.446 359.21 268.651 358.185 264.786 358.185C260.921 358.185 257.125 359.21 253.786 361.155V354.522ZM275.786 405.856C275.786 407.876 274.139 409.522 272.119 409.522H257.452C255.432 409.522 253.786 407.876 253.786 405.856V399.215C257.124 401.164 260.92 402.19 264.786 402.19C268.651 402.19 272.447 401.164 275.786 399.215V405.856ZM264.786 398.522C254.677 398.522 246.452 390.298 246.452 380.189C246.452 370.08 254.677 361.856 264.786 361.856C274.895 361.856 283.119 370.08 283.119 380.189C283.119 390.298 274.895 398.522 264.786 398.522Z" fill="#4E3189"/>
<path d="M380.453 406.856L380.453 360.189C380.453 356.512 377.463 353.522 373.786 353.522L367.12 353.522L367.12 346.856L353.786 346.856L353.786 353.522L347.12 353.522C343.443 353.522 340.453 356.512 340.453 360.189L340.453 406.856C340.453 410.532 343.443 413.522 347.12 413.522L373.786 413.522C377.463 413.522 380.453 410.532 380.453 406.856ZM347.12 406.856L347.12 360.189L373.786 360.182L373.786 406.856L347.12 406.856Z" fill="#4E3189"/>
<path d="M442.387 372.424L448.924 367.755L456.862 372.424L462.465 360.751L468.068 375.226L474.605 355.148L478.807 372.424" stroke="#4E3189" stroke-width="2.14164"/>
<path d="M441.627 373.096H485.105" stroke="#4E3189" stroke-width="0.856655"/>
<path d="M444.398 384.253H458.709" stroke="#4E3189" stroke-width="1.61886"/>
<path d="M468.02 384.253H482.33" stroke="#4E3189" stroke-width="1.61886"/>
<path d="M444.398 393.544H458.709" stroke="#4E3189" stroke-width="1.61886"/>
<path d="M468.02 393.544H482.33" stroke="#4E3189" stroke-width="1.61886"/>
<path d="M444.398 399.296L482.332 399.296" stroke="#4E3189" stroke-width="1.61886"/>
<path fill-rule="evenodd" clip-rule="evenodd" d="M433.374 343.216C435.245 341.345 437.782 340.294 440.427 340.294H486.306C487.615 340.294 488.912 340.552 490.122 341.054C491.332 341.555 492.432 342.289 493.358 343.216C494.284 344.142 495.019 345.241 495.52 346.451C496.021 347.661 496.279 348.958 496.279 350.268V407.118C496.279 407.911 495.964 408.672 495.403 409.234C494.842 409.795 494.081 410.11 493.287 410.11H436.437H430.453V350.268C430.453 347.623 431.504 345.086 433.374 343.216ZM436.437 404.126H490.295V350.268C490.295 349.21 489.875 348.195 489.127 347.447C488.378 346.699 487.364 346.279 486.306 346.279H440.427C439.369 346.279 438.354 346.699 437.606 347.447C436.858 348.195 436.437 349.21 436.437 350.268V404.126Z" fill="#4E3189"/>
<path d="M13.5449 507.555H81.9008L75.1507 568.306C74.9193 570.397 73.9248 572.329 72.3577 573.732C70.7906 575.135 68.7609 575.911 66.6574 575.911H28.7883C26.6848 575.911 24.6552 575.135 23.088 573.732C21.5209 572.329 20.5264 570.397 20.2951 568.306L13.5449 507.555Z" stroke="#4E3189" stroke-width="8.54448" stroke-linecap="round" stroke-linejoin="round"/>
<path d="M27.836 495.367C28.5271 493.902 29.6206 492.663 30.9889 491.795C32.3573 490.927 33.9442 490.467 35.5645 490.467H59.8821C61.5031 490.466 63.0909 490.926 64.4601 491.794C65.8293 492.662 66.9235 493.901 67.6149 495.367L73.3567 507.556H22.0898L27.836 495.367Z" stroke="#4E3189" stroke-width="8.54448" stroke-linecap="round" stroke-linejoin="round"/>
<path d="M5 507.555H90.4448" stroke="#4E3189" stroke-width="8.54448" stroke-linecap="round" stroke-linejoin="round"/>
<path d="M39.1777 528.917V550.278" stroke="#4E3189" stroke-width="8.54448" stroke-linecap="round" stroke-linejoin="round"/>
<path d="M56.2676 528.917V550.278" stroke="#4E3189" stroke-width="8.54448" stroke-linecap="round" stroke-linejoin="round"/>
<path d="M140.445 529.589L165.592 497.189V515.189C208.532 515.189 213.486 550.03 212.293 569.189C210.49 559.523 209.653 543.989 165.592 543.989V561.989L140.445 529.589Z" stroke="#4E3189" stroke-width="3" stroke-linecap="round" stroke-linejoin="round"/>
<path d="M285.785 557.189C298.675 557.189 309.124 546.444 309.124 533.189C309.124 519.934 298.675 509.189 285.785 509.189C272.895 509.189 262.445 519.934 262.445 533.189C262.445 546.444 272.895 557.189 285.785 557.189Z" fill="#58D932"/>
<path d="M297.566 522.446L282.451 537.989L276.227 531.589L273.115 534.789L282.451 544.389L300.678 525.646L297.566 522.446Z" fill="white"/>
<path d="M413.147 520.72L388.211 545.657M413.147 545.657L388.211 520.72L413.147 545.657Z" stroke="#4E3189" stroke-width="6.23401" stroke-linecap="round"/>
<path d="M400.683 574.749C423.636 574.749 442.243 556.142 442.243 533.189C442.243 510.236 423.636 491.629 400.683 491.629C377.73 491.629 359.123 510.236 359.123 533.189C359.123 556.142 377.73 574.749 400.683 574.749Z" stroke="#4E3189" stroke-width="6.23401"/>
<path d="M536.244 518.522V536.856H554.577V529.522H543.577V518.522H536.244Z" fill="#4E3189"/>
<path d="M570.315 520.345C568.661 516.421 566.26 512.857 563.246 509.851C558.683 505.288 552.883 502.162 546.563 500.86C542.176 499.967 537.654 499.967 533.267 500.86C526.941 502.154 521.136 505.282 516.577 509.854C513.57 512.864 511.17 516.424 509.507 520.341C507.788 524.406 506.905 528.775 506.911 533.189L506.915 533.281H499.578L510.578 547.856L521.578 533.281H514.248L514.245 533.189C514.234 528.075 515.761 523.077 518.626 518.841C520.475 516.108 522.828 513.754 525.56 511.904C528.339 510.032 531.457 508.719 534.738 508.039C541.406 506.668 548.345 508.001 554.031 511.745C559.716 515.489 563.682 521.337 565.057 528.004C565.749 531.421 565.749 534.942 565.057 538.359C564.387 541.643 563.073 544.762 561.193 547.537C560.276 548.897 559.224 550.177 558.061 551.335C555.719 553.675 552.95 555.543 549.903 556.839C548.351 557.495 546.739 557.996 545.089 558.335C541.673 559.026 538.154 559.026 534.738 558.335C531.457 557.662 528.341 556.35 525.567 554.474C524.203 553.552 522.93 552.502 521.765 551.339L516.58 556.524C519.643 559.59 523.28 562.022 527.283 563.681C531.287 565.339 535.578 566.192 539.911 566.189C544.323 566.187 548.689 565.306 552.756 563.597C558.65 561.103 563.694 556.95 567.272 551.643C570.955 546.194 572.92 539.766 572.911 533.189C572.921 528.776 572.038 524.407 570.315 520.345Z" fill="#4E3189"/>
<mask id="path-60-inside-1" fill="white">
<path fill-rule="evenodd" clip-rule="evenodd" d="M53.6076 698.125V698.125V744.985H5V698.125V698.125C5 684.702 15.8812 673.821 29.3038 673.821C42.7264 673.821 53.6076 684.702 53.6076 698.125ZM29.3047 704.655C34.6738 704.655 39.0263 700.302 39.0263 694.933C39.0263 689.564 34.6738 685.212 29.3047 685.212C23.9357 685.212 19.5832 689.564 19.5832 694.933C19.5832 700.302 23.9357 704.655 29.3047 704.655Z"/>
</mask>
<path d="M53.6076 744.985V749.985H58.6076V744.985H53.6076ZM5 744.985H0V749.985H5V744.985ZM58.6076 698.125V698.125H48.6076V698.125H58.6076ZM58.6076 744.985V698.125H48.6076V744.985H58.6076ZM5 749.985H53.6076V739.985H5V749.985ZM0 698.125V744.985H10V698.125H0ZM0 698.125V698.125H10V698.125H0ZM29.3038 668.821C13.1198 668.821 0 681.941 0 698.125H10C10 687.463 18.6426 678.821 29.3038 678.821V668.821ZM58.6076 698.125C58.6076 681.941 45.4878 668.821 29.3038 668.821V678.821C39.965 678.821 48.6076 687.463 48.6076 698.125H58.6076ZM34.0263 694.933C34.0263 697.541 31.9124 699.655 29.3047 699.655V709.655C37.4352 709.655 44.0263 703.064 44.0263 694.933H34.0263ZM29.3047 690.212C31.9124 690.212 34.0263 692.325 34.0263 694.933H44.0263C44.0263 686.803 37.4352 680.212 29.3047 680.212V690.212ZM24.5832 694.933C24.5832 692.325 26.6971 690.212 29.3047 690.212V680.212C21.1743 680.212 14.5832 686.803 14.5832 694.933H24.5832ZM29.3047 699.655C26.6971 699.655 24.5832 697.541 24.5832 694.933H14.5832C14.5832 703.064 21.1743 709.655 29.3047 709.655V699.655Z" fill="#4E3189" mask="url(#path-60-inside-1)"/>
<path fill-rule="evenodd" clip-rule="evenodd" d="M36.7326 688.16C34.0643 689.474 30.8133 690.245 27.3054 690.245C18.2344 690.245 10.8809 685.088 10.8809 678.726C10.8809 672.364 18.2344 667.207 27.3054 667.207C36.0691 667.207 43.2296 672.021 43.7049 678.084C42.5439 677.572 41.9137 677.363 40.8592 677.255C39.8491 672.641 34.1654 669.108 27.305 669.108C19.7312 669.108 13.5914 673.414 13.5914 678.726C13.5914 684.038 19.7312 688.344 27.305 688.344C29.756 688.344 32.0568 687.893 34.0479 687.103C35.3871 687.337 35.9139 687.608 36.7326 688.16Z" fill="#4E3189"/>
<g clip-path="url(#clip2)">
<path d="M180.609 742.24V691.573C180.609 672.949 169.115 665.674 166.702 664.357C165.606 663.756 164.279 663.756 163.184 664.357C160.769 665.674 149.275 672.949 149.275 691.573V742.24C149.275 744.265 150.917 745.907 152.942 745.907H176.942C178.967 745.907 180.609 744.265 180.609 742.24ZM153.942 691.573C153.942 676.565 162.324 670.318 164.942 668.728C167.56 670.316 175.942 676.563 175.942 691.573V741.24H153.942V691.573Z" fill="#4E3189" stroke="#4E3189" stroke-width="2"/>
<path d="M164.941 682.24C161.995 682.24 159.607 684.628 159.607 687.573C159.607 690.519 161.995 692.907 164.941 692.907C167.886 692.907 170.274 690.519 170.274 687.573C170.274 684.628 167.886 682.24 164.941 682.24ZM164.941 690.24C163.468 690.24 162.274 689.046 162.274 687.573C162.274 686.101 163.468 684.907 164.941 684.907C166.414 684.907 167.607 686.101 167.607 687.573C167.607 689.046 166.414 690.24 164.941 690.24Z" fill="#4E3189"/>
<path d="M164.941 696.907C161.995 696.907 159.607 699.294 159.607 702.24C159.607 705.186 161.995 707.573 164.941 707.573C167.886 707.573 170.274 705.186 170.274 702.24C170.274 699.294 167.886 696.907 164.941 696.907ZM164.941 704.907C163.468 704.907 162.274 703.713 162.274 702.24C162.274 700.767 163.468 699.573 164.941 699.573C166.414 699.573 167.607 700.767 167.607 702.24C167.607 703.713 166.414 704.907 164.941 704.907Z" fill="#4E3189"/>
<path d="M164.941 711.573C161.995 711.573 159.607 713.961 159.607 716.907C159.607 719.852 161.995 722.24 164.941 722.24C167.886 722.24 170.274 719.852 170.274 716.907C170.274 713.961 167.886 711.573 164.941 711.573ZM164.941 719.573C163.468 719.573 162.274 718.379 162.274 716.907C162.274 715.434 163.468 714.24 164.941 714.24C166.414 714.24 167.607 715.434 167.607 716.907C167.607 718.379 166.414 719.573 164.941 719.573Z" fill="#4E3189"/>
<path d="M126.275 686.24C129.22 686.24 131.608 683.852 131.608 680.907C131.608 677.961 129.22 675.573 126.275 675.573C123.329 675.573 120.941 677.961 120.941 680.907C120.941 683.852 123.329 686.24 126.275 686.24ZM126.275 678.24C127.748 678.24 128.941 679.434 128.941 680.907C128.941 682.379 127.748 683.573 126.275 683.573C124.802 683.573 123.608 682.379 123.608 680.907C123.608 679.434 124.802 678.24 126.275 678.24Z" fill="#4E3189"/>
<path d="M126.275 700.907C129.22 700.907 131.608 698.519 131.608 695.573C131.608 692.628 129.22 690.24 126.275 690.24C123.329 690.24 120.941 692.628 120.941 695.573C120.941 698.519 123.329 700.907 126.275 700.907ZM126.275 692.907C127.748 692.907 128.941 694.101 128.941 695.573C128.941 697.046 127.748 698.24 126.275 698.24C124.802 698.24 123.608 697.046 123.608 695.573C123.608 694.101 124.802 692.907 126.275 692.907Z" fill="#4E3189"/>
<path d="M145.941 712.907L145.941 712.903C145.931 710.29 144.322 707.981 141.941 707.039V667.574C141.941 665.549 140.299 663.907 138.274 663.907H114.274C112.249 663.907 110.607 665.549 110.607 667.574V707.039C108.226 707.981 106.617 710.29 106.607 712.903V712.907V739.574C106.607 743.071 109.443 745.907 112.941 745.907H139.607C143.105 745.907 145.941 743.071 145.941 739.574L145.941 712.907ZM137.274 668.574V706.574H115.274V668.574H137.274ZM111.274 712.907C111.274 711.986 112.02 711.24 112.941 711.24H139.607C140.528 711.24 141.274 711.986 141.274 712.907V739.574C141.274 740.494 140.528 741.24 139.607 741.24H112.941C112.02 741.24 111.274 740.494 111.274 739.574V712.907Z" fill="#4E3189" stroke="#4E3189" stroke-width="2"/>
<path d="M115.609 738.24C116.345 738.24 116.942 737.643 116.942 736.907V716.907H124.942V724.907C124.942 725.643 125.539 726.24 126.275 726.24C127.012 726.24 127.609 725.643 127.609 724.907V716.907H135.609V736.907C135.609 737.643 136.206 738.24 136.942 738.24C137.678 738.24 138.275 737.643 138.275 736.907V715.573C138.275 714.837 137.678 714.24 136.942 714.24H115.609C114.872 714.24 114.275 714.837 114.275 715.573V736.907C114.275 737.643 114.872 738.24 115.609 738.24Z" fill="#4E3189"/>
</g>
<g clip-path="url(#clip3)">
<path d="M270.361 693.407V699.907H273.361C274.024 699.907 274.66 700.17 275.129 700.639C275.598 701.108 275.861 701.744 275.861 702.407C275.861 703.07 275.598 703.706 275.129 704.175C274.66 704.644 274.024 704.907 273.361 704.907H268.361C268.277 704.907 268.193 704.903 268.109 704.895C267.762 704.93 267.41 704.892 267.078 704.783C266.746 704.674 266.44 704.497 266.181 704.262C265.922 704.028 265.714 703.741 265.572 703.422C265.431 703.102 265.357 702.757 265.357 702.407V693.407C265.357 692.743 265.621 692.107 266.09 691.638C266.559 691.169 267.196 690.905 267.859 690.905C268.523 690.905 269.159 691.169 269.629 691.638C270.098 692.107 270.361 692.743 270.361 693.407Z" fill="#4E3189"/>
<path d="M267.857 680.927C265.362 680.927 262.892 681.418 260.586 682.373C258.281 683.328 256.187 684.727 254.422 686.491C252.658 688.256 251.259 690.35 250.304 692.656C249.349 694.961 248.857 697.431 248.857 699.927C248.857 702.422 249.349 704.892 250.304 707.197C251.259 709.503 252.658 711.597 254.422 713.362C256.187 715.126 258.281 716.525 260.586 717.48C262.892 718.435 265.362 718.927 267.857 718.927C272.897 718.927 277.729 716.925 281.292 713.362C284.856 709.798 286.857 704.966 286.857 699.927C286.857 694.887 284.856 690.055 281.292 686.491C277.729 682.928 272.897 680.927 267.857 680.927ZM253.857 699.927C253.857 696.213 255.332 692.653 257.958 690.027C260.583 687.402 264.144 685.927 267.857 685.927C271.57 685.927 275.131 687.402 277.757 690.027C280.382 692.653 281.857 696.213 281.857 699.927C281.857 703.64 280.382 707.2 277.757 709.826C275.131 712.452 271.57 713.927 267.857 713.927C264.144 713.927 260.583 712.452 257.958 709.826C255.332 707.2 253.857 703.64 253.857 699.927Z" fill="#4E3189"/>
<path fill-rule="evenodd" clip-rule="evenodd" d="M237.286 667.836C239.162 665.96 241.705 664.907 244.357 664.907H290.357C291.671 664.907 292.971 665.165 294.184 665.668C295.398 666.17 296.5 666.907 297.428 667.836C298.357 668.764 299.094 669.867 299.596 671.08C300.099 672.293 300.357 673.594 300.357 674.907V731.907C300.357 732.702 300.041 733.465 299.479 734.028C298.916 734.591 298.153 734.907 297.357 734.907H240.357H234.357V674.907C234.357 672.255 235.411 669.711 237.286 667.836ZM240.357 728.907H294.357V674.907C294.357 673.846 293.936 672.828 293.186 672.078C292.436 671.328 291.418 670.907 290.357 670.907H244.357C243.297 670.907 242.279 671.328 241.529 672.078C240.779 672.828 240.357 673.846 240.357 674.907V728.907Z" fill="#4E3189"/>
</g>
<g clip-path="url(#clip4)">
<circle cx="300.607" cy="721.407" r="14" fill="white" stroke="#58D932" stroke-width="5"/>
<path d="M301.916 716.433C302.148 716.213 302.457 716.091 302.777 716.093C303.097 716.096 303.403 716.222 303.631 716.446C303.86 716.67 303.992 716.975 304.001 717.294C304.009 717.614 303.893 717.925 303.677 718.161L297.112 726.37C297 726.492 296.863 726.589 296.712 726.657C296.561 726.725 296.397 726.761 296.231 726.764C296.065 726.767 295.9 726.737 295.747 726.675C295.593 726.613 295.453 726.52 295.336 726.403L290.983 722.05C290.861 721.937 290.764 721.801 290.697 721.649C290.629 721.498 290.593 721.335 290.59 721.169C290.587 721.003 290.618 720.839 290.68 720.685C290.742 720.531 290.834 720.392 290.951 720.275C291.068 720.158 291.208 720.065 291.362 720.003C291.515 719.941 291.68 719.911 291.845 719.914C292.011 719.916 292.175 719.953 292.326 720.02C292.477 720.088 292.613 720.185 292.726 720.306L296.171 723.749L301.884 716.47C301.894 716.457 301.905 716.445 301.916 716.433ZM300.403 724.89L301.916 726.403C302.034 726.52 302.173 726.612 302.327 726.674C302.481 726.736 302.645 726.767 302.811 726.764C302.977 726.76 303.14 726.724 303.291 726.656C303.443 726.589 303.579 726.492 303.692 726.37L310.259 718.161C310.377 718.044 310.47 717.905 310.533 717.752C310.596 717.599 310.628 717.434 310.626 717.268C310.624 717.103 310.589 716.939 310.522 716.787C310.456 716.635 310.359 716.498 310.238 716.385C310.118 716.271 309.975 716.183 309.82 716.125C309.664 716.068 309.499 716.042 309.333 716.05C309.168 716.058 309.005 716.099 308.856 716.171C308.707 716.243 308.573 716.345 308.464 716.47L302.751 723.749L301.953 722.95L300.401 724.89H300.403Z" fill="#58D932"/>
</g>
<g clip-path="url(#clip5)">
<path d="M403.861 693.407V699.907H406.861C407.524 699.907 408.16 700.17 408.629 700.639C409.098 701.108 409.361 701.744 409.361 702.407C409.361 703.07 409.098 703.706 408.629 704.175C408.16 704.644 407.524 704.907 406.861 704.907H401.861C401.777 704.907 401.693 704.903 401.609 704.895C401.262 704.93 400.91 704.892 400.578 704.783C400.246 704.674 399.94 704.497 399.681 704.262C399.422 704.028 399.214 703.741 399.072 703.422C398.931 703.102 398.857 702.757 398.857 702.407V693.407C398.857 692.743 399.121 692.107 399.59 691.638C400.059 691.169 400.696 690.905 401.359 690.905C402.023 690.905 402.659 691.169 403.129 691.638C403.598 692.107 403.861 692.743 403.861 693.407Z" fill="#4E3189"/>
<path d="M401.357 680.927C398.862 680.927 396.392 681.418 394.086 682.373C391.781 683.328 389.687 684.727 387.922 686.491C386.158 688.256 384.759 690.35 383.804 692.656C382.849 694.961 382.357 697.431 382.357 699.927C382.357 702.422 382.849 704.892 383.804 707.197C384.759 709.503 386.158 711.597 387.922 713.362C389.687 715.126 391.781 716.525 394.086 717.48C396.392 718.435 398.862 718.927 401.357 718.927C406.397 718.927 411.229 716.925 414.792 713.362C418.356 709.798 420.357 704.966 420.357 699.927C420.357 694.887 418.356 690.055 414.792 686.491C411.229 682.928 406.397 680.927 401.357 680.927ZM387.357 699.927C387.357 696.213 388.832 692.653 391.458 690.027C394.083 687.402 397.644 685.927 401.357 685.927C405.07 685.927 408.631 687.402 411.257 690.027C413.882 692.653 415.357 696.213 415.357 699.927C415.357 703.64 413.882 707.2 411.257 709.826C408.631 712.452 405.07 713.927 401.357 713.927C397.644 713.927 394.083 712.452 391.458 709.826C388.832 707.2 387.357 703.64 387.357 699.927Z" fill="#4E3189"/>
<path fill-rule="evenodd" clip-rule="evenodd" d="M370.786 667.836C372.662 665.96 375.205 664.907 377.857 664.907H423.857C425.171 664.907 426.471 665.165 427.684 665.668C428.898 666.17 430 666.907 430.928 667.836C431.857 668.764 432.594 669.867 433.096 671.08C433.599 672.293 433.857 673.594 433.857 674.907V731.907C433.857 732.702 433.541 733.465 432.979 734.028C432.416 734.591 431.653 734.907 430.857 734.907H373.857H367.857V674.907C367.857 672.255 368.911 669.711 370.786 667.836ZM373.857 728.907H427.857V674.907C427.857 673.846 427.436 672.828 426.686 672.078C425.936 671.328 424.918 670.907 423.857 670.907H377.857C376.797 670.907 375.779 671.328 375.029 672.078C374.279 672.828 373.857 673.846 373.857 674.907V728.907Z" fill="#4E3189"/>
</g>
<g clip-path="url(#clip6)">
<path d="M434.872 711.067C430.476 711.067 426.26 712.813 423.151 715.921C420.043 719.03 418.297 723.245 418.297 727.641C418.297 729.818 418.726 731.973 419.559 733.984C420.392 735.995 421.613 737.822 423.152 739.361C424.691 740.9 426.519 742.121 428.53 742.954C430.54 743.787 432.696 744.215 434.872 744.215C437.049 744.215 439.204 743.786 441.215 742.953C443.226 742.12 445.053 740.899 446.592 739.36C448.131 737.821 449.352 735.993 450.185 733.983C451.018 731.972 451.446 729.816 451.446 727.64C451.446 718.487 444.024 711.067 434.872 711.067ZM434.872 740.761C433.148 740.761 431.442 740.422 429.85 739.762C428.258 739.103 426.812 738.136 425.593 736.918C424.375 735.7 423.408 734.253 422.749 732.661C422.089 731.069 421.75 729.363 421.75 727.64C421.75 725.916 422.089 724.21 422.749 722.618C423.408 721.026 424.375 719.58 425.593 718.361C426.812 717.143 428.258 716.176 429.85 715.517C431.442 714.857 433.148 714.518 434.872 714.518V727.641L446.598 721.778C447.515 723.597 447.993 725.605 447.993 727.641C447.993 731.121 446.61 734.458 444.149 736.919C441.689 739.379 438.351 740.761 434.872 740.761Z" fill="#4E3189"/>
<path d="M434.872 740.761C433.148 740.761 431.442 740.422 429.85 739.762C428.258 739.103 426.812 738.136 425.593 736.918C424.375 735.7 423.408 734.253 422.749 732.661C422.089 731.069 421.75 729.363 421.75 727.64C421.75 725.916 422.089 724.21 422.749 722.618C423.408 721.026 424.375 719.58 425.593 718.361C426.812 717.143 428.258 716.176 429.85 715.517C431.442 714.857 433.148 714.518 434.872 714.518V727.641L446.598 721.778C447.515 723.597 447.993 725.605 447.993 727.641C447.993 731.121 446.61 734.458 444.149 736.919C441.689 739.379 438.351 740.761 434.872 740.761Z" fill="white"/>
</g>
<path fill-rule="evenodd" clip-rule="evenodd" d="M619.574 696.518H569.245V646.189H552.468V696.518H502.139V713.295H552.468V763.625H569.245V713.295H619.574V696.518Z" fill="#4E3189"/>
<path d="M68.3327 845.958V855.958C68.3327 865.025 61.8894 869.611 58.3327 871.451V899.291C58.3327 901.059 57.6303 902.755 56.3801 904.005C55.1298 905.255 53.4341 905.958 51.666 905.958H38.3327C36.5646 905.958 34.8689 905.255 33.6186 904.005C32.3684 902.755 31.666 901.059 31.666 899.291V871.451C28.1093 869.611 21.666 865.025 21.666 855.958V845.958M68.3327 845.958H21.666M68.3327 845.958V839.291H21.666V845.958M41.666 869.291H48.3327V879.291H41.666V869.291Z" stroke="#4E3189" stroke-width="6"/>
<g clip-path="url(#clip7)">
<path fill-rule="evenodd" clip-rule="evenodd" d="M175 840.125C163.185 840.125 155 848.575 155 858.875C155 863.795 157.12 867 159.92 870.395L160.99 871.66C162.105 872.98 163.34 874.44 164.355 875.9C165.775 877.955 167.04 880.38 167.46 883.35C167.56 884.314 167.282 885.28 166.685 886.045C166.088 886.809 165.218 887.313 164.258 887.449C163.298 887.586 162.322 887.345 161.535 886.777C160.749 886.209 160.213 885.359 160.04 884.405C159.84 882.995 159.225 881.67 158.19 880.17C157.344 878.992 156.439 877.857 155.48 876.77C155.06 876.27 154.615 875.745 154.14 875.17C151.005 871.375 147.5 866.455 147.5 858.875C147.5 844.175 159.315 832.625 175 832.625C190.685 832.625 202.5 844.175 202.5 858.875C202.5 866.455 198.995 871.375 195.86 875.17C195.385 875.745 194.94 876.27 194.52 876.765C193.485 877.99 192.605 879.03 191.815 880.17C190.775 881.67 190.165 882.995 189.965 884.405C189.895 884.892 189.73 885.361 189.48 885.785C189.229 886.209 188.897 886.579 188.503 886.874C188.109 887.17 187.661 887.385 187.184 887.507C186.707 887.63 186.21 887.657 185.722 887.587C185.235 887.517 184.766 887.352 184.342 887.102C183.918 886.851 183.548 886.519 183.253 886.125C182.957 885.731 182.742 885.283 182.62 884.806C182.498 884.329 182.47 883.832 182.54 883.345C182.96 880.38 184.225 877.955 185.645 875.9C186.66 874.44 187.895 872.98 189.01 871.66C189.385 871.22 189.745 870.795 190.075 870.395C192.88 867 195 863.795 195 858.875C195 848.575 186.815 840.125 175 840.125ZM165 908.875C165 907.88 165.395 906.926 166.098 906.223C166.802 905.52 167.755 905.125 168.75 905.125H181.25C182.245 905.125 183.198 905.52 183.902 906.223C184.605 906.926 185 907.88 185 908.875C185 909.869 184.605 910.823 183.902 911.526C183.198 912.229 182.245 912.625 181.25 912.625H168.75C167.755 912.625 166.802 912.229 166.098 911.526C165.395 910.823 165 909.869 165 908.875ZM163.75 892.625C162.755 892.625 161.802 893.02 161.098 893.723C160.395 894.426 160 895.38 160 896.375C160 897.369 160.395 898.323 161.098 899.026C161.802 899.729 162.755 900.125 163.75 900.125H186.25C187.245 900.125 188.198 899.729 188.902 899.026C189.605 898.323 190 897.369 190 896.375C190 895.38 189.605 894.426 188.902 893.723C188.198 893.02 187.245 892.625 186.25 892.625H163.75Z" fill="#4E3189"/>
</g>
<path d="M338.209 849.889C336.799 848.484 334.889 847.697 332.899 847.7C330.91 847.703 329.002 848.495 327.597 849.904L277.492 901.244C277.277 901.464 277.125 901.736 277.051 902.034C276.977 902.332 276.984 902.644 277.07 902.939C277.156 903.233 277.319 903.499 277.543 903.71C277.766 903.92 278.041 904.068 278.34 904.137C281.6 904.892 284.935 905.274 288.282 905.275C297.801 905.275 307.333 902.176 316.3 896.102C325.369 889.958 330.616 883.031 330.835 882.739C331.085 882.406 331.206 881.994 331.177 881.579C331.147 881.164 330.969 880.773 330.674 880.479L324.88 874.684L338.229 860.465C339.623 859.057 340.404 857.154 340.4 855.173C340.396 853.191 339.608 851.291 338.209 849.889ZM327.126 881.821C323.367 886.198 319.044 890.058 314.271 893.299C303.843 900.337 293.074 903.042 282.208 901.362L314.045 868.74L321.184 875.879C321.216 875.915 321.251 875.95 321.287 875.984C321.296 875.993 321.304 876.001 321.314 876.009L327.126 881.821ZM335.763 858.041C335.75 858.053 335.738 858.067 335.726 858.08L322.433 872.237L316.461 866.265L330.057 852.335C330.432 851.96 330.876 851.663 331.366 851.46C331.856 851.257 332.38 851.153 332.91 851.153C333.44 851.153 333.965 851.257 334.454 851.46C334.944 851.663 335.389 851.96 335.763 852.335C336.138 852.709 336.435 853.154 336.638 853.644C336.841 854.133 336.945 854.658 336.945 855.188C336.945 855.718 336.841 856.242 336.638 856.732C336.435 857.221 336.138 857.666 335.763 858.041Z" fill="#4E3189" stroke="#4E3189" stroke-width="3.39641"/>
<path d="M442.124 891.464C442.124 894.757 444.801 897.433 448.094 897.433C451.387 897.433 454.064 894.757 454.064 891.463C454.064 890.442 453.798 889.445 453.311 888.565H458.635C459.92 888.565 460.973 887.52 460.973 886.228L460.973 886.225C460.969 885.606 460.72 885.014 460.282 884.578C459.843 884.141 459.249 883.896 458.63 883.896H458.63L443.374 888.565C442.84 889.434 442.555 890.437 442.556 891.463H442.124C442.124 891.464 442.124 891.464 442.124 891.464ZM442.124 891.464C442.123 890.445 442.384 889.448 442.874 888.565H435.764M442.124 891.464L435.764 888.565M435.764 888.565C436.25 889.445 436.516 890.442 436.516 891.463C436.516 894.757 433.84 897.433 430.546 897.433C427.253 897.433 424.577 894.757 424.577 891.463M435.764 888.565L425.009 891.463M424.577 891.463H425.009M424.577 891.463C424.577 891.464 424.577 891.464 424.577 891.464L425.009 891.463M424.577 891.463C424.576 890.445 424.836 889.448 425.326 888.565M425.009 891.463C425.008 890.437 425.292 889.434 425.826 888.565H425.326M425.326 888.565H422.731C421.844 888.565 421.043 888.068 420.646 887.282M425.326 888.565C425.408 888.418 425.496 888.274 425.591 888.133H422.731C422.008 888.133 421.354 887.728 421.031 887.086L420.646 887.282M420.646 887.282C420.448 886.898 420.362 886.465 420.398 886.035C420.432 885.61 420.583 885.203 420.834 884.859L424.772 878.429L421.671 863.415L421.671 863.413L420.47 857.702H414.024C413.405 857.702 412.81 857.455 412.372 857.017C411.934 856.579 411.687 855.984 411.687 855.364C411.687 854.745 411.934 854.15 412.372 853.712C412.81 853.274 413.405 853.027 414.024 853.027H422.364C423.463 853.027 424.428 853.806 424.654 854.881C424.654 854.881 424.654 854.882 424.654 854.882L424.873 855.911L458.637 856.023L458.638 856.023C458.975 856.025 459.307 856.1 459.611 856.243C459.916 856.386 460.186 856.594 460.402 856.852L460.403 856.853C460.842 857.378 461.02 858.069 460.901 858.738L460.901 858.738L457.188 879.524L457.187 879.525C456.988 880.627 456.032 881.424 454.917 881.424M420.646 887.282L454.917 880.992M454.917 881.424V880.992M454.917 881.424L454.917 881.424L454.917 880.992M454.917 881.424L428.371 881.472M454.917 880.992L428.101 881.041M428.371 881.472L428.489 881.231L428.101 881.041M428.371 881.472L428.102 881.473L428.101 881.041M428.371 881.472L428.101 881.041M426.969 884.328H426.487L426.699 883.896H427.181L426.969 884.328ZM429.288 876.857L425.849 860.532L455.88 860.631L452.99 876.815L429.288 876.857ZM430.546 892.737C429.846 892.737 429.273 892.164 429.273 891.463C429.273 890.763 429.846 890.19 430.546 890.19C431.247 890.19 431.82 890.763 431.82 891.463C431.82 891.801 431.686 892.125 431.447 892.364C431.208 892.603 430.884 892.737 430.546 892.737ZM448.094 892.737C447.393 892.737 446.82 892.164 446.82 891.463C446.82 890.763 447.393 890.19 448.094 890.19C448.795 890.19 449.368 890.763 449.368 891.463C449.368 891.801 449.234 892.125 448.995 892.364C448.756 892.603 448.432 892.737 448.094 892.737Z" fill="#4E3189" stroke="#4E3189" stroke-width="0.863612"/>
<g clip-path="url(#clip8)">
<rect x="412.119" y="874.063" width="27.6356" height="27.6356" rx="13.8178" fill="#4E3189"/>
<path d="M425.242 896.882H429.563V879.844H425.242L420.908 882.796V886.527L425.017 883.752H425.242V896.882Z" fill="white"/>
</g>
<path d="M545.014 852.999H592.918V859.532H545.014V852.999Z" fill="#4E3189"/>
<path d="M545.014 870.419H592.918V876.951H545.014V870.419Z" fill="#4E3189"/>
<path d="M545.014 887.839H592.918V894.371H545.014V887.839Z" fill="#4E3189"/>
<path d="M34.542 1052.2H5V1009.98H19.771L34.542 1006.64V1052.2Z" stroke="#4E3189" stroke-width="4" stroke-miterlimit="10" stroke-linecap="round" stroke-linejoin="round"/>
<path d="M16.6706 997.547C16.6706 1001.04 14.0593 1005.64 10.8353 1005.64C7.61129 1005.64 5 1001.04 5 997.547C5 991.072 10.8353 987.865 10.8353 984.531C10.8353 987.865 16.6706 990.564 16.6706 997.547Z" stroke="#4E3189" stroke-width="4" stroke-miterlimit="10" stroke-linecap="round" stroke-linejoin="round"/>
<path d="M5 1017.75H34.542" stroke="#4E3189" stroke-width="4" stroke-miterlimit="10" stroke-linecap="round" stroke-linejoin="round"/>
<path d="M142.031 1060.87H142.129C143.961 1060.87 145.692 1060.15 147.004 1058.84L156.415 1049.43C156.738 1049.1 156.994 1048.72 157.168 1048.3C157.343 1047.88 157.433 1047.43 157.433 1046.97C157.433 1046.52 157.343 1046.07 157.168 1045.65C156.994 1045.22 156.738 1044.84 156.415 1044.52L142.535 1030.64C142.213 1030.32 141.83 1030.06 141.409 1029.89C140.988 1029.71 140.537 1029.62 140.081 1029.62C139.625 1029.62 139.174 1029.71 138.753 1029.89C138.332 1030.06 137.95 1030.32 137.628 1030.64L132.096 1036.17C129.532 1035.41 124.747 1033.67 121.714 1030.64C118.681 1027.61 116.946 1022.82 116.182 1020.26L121.714 1014.73C122.036 1014.4 122.292 1014.02 122.467 1013.6C122.641 1013.18 122.731 1012.73 122.731 1012.27C122.731 1011.82 122.641 1011.36 122.467 1010.94C122.292 1010.52 122.036 1010.14 121.714 1009.82L107.833 995.938C107.17 995.312 106.292 994.963 105.38 994.963C104.467 994.963 103.59 995.312 102.926 995.938L93.5186 1005.35C92.2 1006.67 91.4574 1008.48 91.4851 1010.33C91.5649 1015.27 92.8732 1032.43 106.4 1045.96C119.927 1059.49 137.09 1060.79 142.031 1060.87ZM105.383 1003.3L114.357 1012.27L109.87 1016.76C109.462 1017.17 109.162 1017.67 108.997 1018.22C108.833 1018.77 108.81 1019.36 108.93 1019.92C109.013 1020.32 111.05 1029.79 116.81 1035.55C122.571 1041.31 132.034 1043.34 132.433 1043.43C132.997 1043.55 133.582 1043.52 134.135 1043.36C134.688 1043.2 135.191 1042.9 135.598 1042.49L140.085 1038L149.058 1046.97L142.097 1053.93C137.767 1053.86 122.949 1052.7 111.307 1041.05C99.6261 1029.37 98.4948 1014.5 98.4254 1010.26L105.383 1003.3ZM153.944 1022.7H160.885C160.885 1004.9 147.445 991.472 129.619 991.472V998.412C143.714 998.412 153.944 1008.62 153.944 1022.7Z" fill="#4E3189"/>
<path d="M129.652 1012.29C136.95 1012.29 140.063 1015.41 140.063 1022.7H147.003C147.003 1011.51 140.844 1005.35 129.652 1005.35V1012.29Z" fill="#4E3189"/>
<defs>
<clipPath id="clip0">
<rect width="72" height="57.8432" fill="white" transform="translate(285.465 19.5784)"/>
</clipPath>
<clipPath id="clip1">
<rect width="116.691" height="42.3709" fill="white" transform="translate(5 197.409)"/>
</clipPath>
<clipPath id="clip2">
<rect width="80" height="80" fill="white" transform="translate(103.607 664.907)"/>
</clipPath>
<clipPath id="clip3">
<rect width="67" height="80" fill="white" transform="translate(233.607 664.907)"/>
</clipPath>
<clipPath id="clip4">
<rect width="33" height="33" fill="white" transform="translate(284.107 704.907)"/>
</clipPath>
<clipPath id="clip5">
<rect width="67" height="80" fill="white" transform="translate(367.107 664.907)"/>
</clipPath>
<clipPath id="clip6">
<rect width="34.5307" height="34.5307" fill="white" transform="translate(417.607 710.376)"/>
</clipPath>
<clipPath id="clip7">
<rect width="80" height="80" fill="white" transform="translate(135 832.625)"/>
</clipPath>
<clipPath id="clip8">
<rect x="412.119" y="874.063" width="27.6356" height="27.6356" rx="13.8178" fill="white"/>
</clipPath>
</defs>
</svg>
