<svg version="1.1" viewBox="0.0 0.0 1131.0 442.0" fill="none" stroke="none" stroke-linecap="square" stroke-miterlimit="10" width="1131" height="442" xmlns:xlink="http://www.w3.org/1999/xlink" xmlns="http://www.w3.org/2000/svg"><path fill="#ffffff" d="M0 0L1131.0 0L1131.0 442.0L0 442.0L0 0Z" fill-rule="nonzero"/><path fill="#4285f4" d="M477.39777 71.833336C545.53217 71.833336 607.4 111.59338 635.70404 173.5706C664.0081 235.54784 653.54193 308.34174 608.9234 359.83426L483.97406 251.56505C486.205 248.99042 486.7283 245.35072 485.31308 242.25186C483.8979 239.153 480.8045 237.165 477.39777 237.165Z" fill-rule="nonzero"/><path fill="#fbbc04" d="M305.13586 270.6342C297.95206 220.66982 312.81598 170.04793 345.87216 131.89906C378.92834 93.750206 426.9196 71.833336 477.39777 71.833336L477.39777 237.165C474.87387 237.165 472.4743 238.26085 470.8215 240.16829C469.1687 242.07573 468.4255 244.60683 468.78467 247.10504Z" fill-rule="nonzero"/><path fill="#ea4335" d="M608.9234 359.83426C564.3049 411.3268 493.7414 432.0461 428.3669 412.85043C362.99246 393.65475 314.8324 338.07507 305.13586 270.6342L468.78467 247.10504C469.2695 250.47708 471.67752 253.25607 474.94623 254.21585C478.21497 255.17564 481.74313 254.13968 483.97406 251.56505Z" fill-rule="nonzero"/><path fill="#000000" d="M549.0903 201.75943L551.19965 201.47818Q551.559 203.25943 552.434 204.0563Q553.309 204.85318 554.559 204.85318Q556.0434 204.85318 557.059 203.82193Q558.0903 202.79068 558.0903 201.25943Q558.0903 199.8063 557.13715 198.8688Q556.19965 197.91568 554.7309 197.91568Q554.13715 197.91568 553.2465 198.15005L553.4809 196.3063Q553.684 196.32193 553.82465 196.32193Q555.1684 196.32193 556.2465 195.6188Q557.32465 194.91568 557.32465 193.46255Q557.32465 192.29068 556.5278 191.54068Q555.7465 190.77505 554.51215 190.77505Q553.2778 190.77505 552.44965 191.5563Q551.63715 192.32193 551.4028 193.8688L549.2934 193.4938Q549.684 191.3688 551.0434 190.21255Q552.4184 189.04068 554.4653 189.04068Q555.8715 189.04068 557.0434 189.65005Q558.2309 190.2438 558.8559 191.29068Q559.4965 192.33755 559.4965 193.50943Q559.4965 194.6188 558.88715 195.54068Q558.2934 196.44693 557.1215 196.97818Q558.6528 197.33755 559.4965 198.44693Q560.3403 199.5563 560.3403 201.21255Q560.3403 203.46255 558.69965 205.04068Q557.059 206.60318 554.5434 206.60318Q552.2778 206.60318 550.7778 205.25943Q549.2934 203.90005 549.0903 201.75943ZM573.01215 193.32193L570.9184 193.47818Q570.63715 192.2438 570.1215 191.6813Q569.26215 190.77505 568.01215 190.77505Q567.01215 190.77505 566.2465 191.33755Q565.2465 192.0563 564.6684 193.46255Q564.1059 194.85318 564.07465 197.4313Q564.8403 196.27505 565.934 195.71255Q567.0434 195.15005 568.2465 195.15005Q570.3559 195.15005 571.8403 196.69693Q573.32465 198.2438 573.32465 200.71255Q573.32465 202.32193 572.6215 203.71255Q571.934 205.10318 570.7153 205.85318Q569.4965 206.58755 567.94965 206.58755Q565.309 206.58755 563.63715 204.65005Q561.9809 202.69693 561.9809 198.2438Q561.9809 193.27505 563.82465 191.00943Q565.4184 189.04068 568.13715 189.04068Q570.1684 189.04068 571.4653 190.1813Q572.76215 191.3063 573.01215 193.32193ZM564.4028 200.72818Q564.4028 201.8063 564.8559 202.8063Q565.32465 203.8063 566.1528 204.33755Q566.9965 204.85318 567.9028 204.85318Q569.2465 204.85318 570.19965 203.77505Q571.1684 202.69693 571.1684 200.83755Q571.1684 199.0563 570.2153 198.04068Q569.26215 197.00943 567.82465 197.00943Q566.4028 197.00943 565.4028 198.04068Q564.4028 199.0563 564.4028 200.72818ZM576.2153 206.29068L576.2153 203.88443L578.6059 203.88443L578.6059 206.29068Q578.6059 207.6188 578.13715 208.4313Q577.6684 209.2438 576.6528 209.69693L576.07465 208.79068Q576.7309 208.4938 577.0434 207.91568Q577.3715 207.35318 577.4028 206.29068L576.2153 206.29068ZM588.8403 206.29068L588.8403 202.1813L581.38715 202.1813L581.38715 200.2438L589.2153 189.10318L590.94965 189.10318L590.94965 200.2438L593.26215 200.2438L593.26215 202.1813L590.94965 202.1813L590.94965 206.29068L588.8403 206.29068ZM588.8403 200.2438L588.8403 192.4938L583.44965 200.2438L588.8403 200.2438ZM595.4653 193.22818Q595.4653 191.40005 596.38715 190.1188Q597.32465 188.82193 599.07465 188.82193Q600.69965 188.82193 601.76215 189.97818Q602.82465 191.1188 602.82465 193.3688Q602.82465 195.54068 601.7465 196.72818Q600.6684 197.90005 599.1059 197.90005Q597.5434 197.90005 596.4965 196.7438Q595.4653 195.57193 595.4653 193.22818ZM599.13715 190.27505Q598.3559 190.27505 597.82465 190.96255Q597.309 191.63443 597.309 193.44693Q597.309 195.10318 597.8403 195.77505Q598.3715 196.44693 599.13715 196.44693Q599.934 196.44693 600.44965 195.77505Q600.9809 195.08755 600.9809 193.27505Q600.9809 191.6188 600.44965 190.94693Q599.9184 190.27505 599.13715 190.27505ZM599.1528 206.9313L608.5434 188.82193L610.26215 188.82193L600.9028 206.9313L599.1528 206.9313ZM606.57465 202.25943Q606.57465 200.40005 607.4965 199.1188Q608.434 197.83755 610.19965 197.83755Q611.82465 197.83755 612.8715 198.9938Q613.934 200.15005 613.934 202.38443Q613.934 204.57193 612.8559 205.75943Q611.7934 206.9313 610.2153 206.9313Q608.6528 206.9313 607.6059 205.75943Q606.57465 204.58755 606.57465 202.25943ZM610.26215 199.29068Q609.4653 199.29068 608.934 199.97818Q608.4184 200.65005 608.4184 202.46255Q608.4184 204.10318 608.94965 204.79068Q609.4809 205.46255 610.2465 205.46255Q611.059 205.46255 611.57465 204.79068Q612.1059 204.10318 612.1059 202.3063Q612.1059 200.63443 611.57465 199.96255Q611.0434 199.29068 610.26215 199.29068Z" fill-rule="nonzero"/><path fill="#000000" d="M409.72412 369.1791L411.8335 368.89786Q412.19287 370.6791 413.06787 371.47598Q413.94287 372.27286 415.19287 372.27286Q416.67725 372.27286 417.69287 371.2416Q418.72412 370.21036 418.72412 368.6791Q418.72412 367.22598 417.771 366.28848Q416.8335 365.33536 415.36475 365.33536Q414.771 365.33536 413.88037 365.56973L414.11475 363.72598Q414.31787 363.7416 414.4585 363.7416Q415.80225 363.7416 416.88037 363.03848Q417.9585 362.33536 417.9585 360.88223Q417.9585 359.71036 417.16162 358.96036Q416.38037 358.19473 415.146 358.19473Q413.91162 358.19473 413.0835 358.97598Q412.271 359.7416 412.03662 361.28848L409.92725 360.91348Q410.31787 358.78848 411.67725 357.63223Q413.05225 356.46036 415.09912 356.46036Q416.50537 356.46036 417.67725 357.06973Q418.86475 357.66348 419.48975 358.71036Q420.13037 359.75723 420.13037 360.9291Q420.13037 362.03848 419.521 362.96036Q418.92725 363.8666 417.75537 364.39786Q419.28662 364.75723 420.13037 365.8666Q420.97412 366.97598 420.97412 368.63223Q420.97412 370.88223 419.3335 372.46036Q417.69287 374.02286 415.17725 374.02286Q412.91162 374.02286 411.41162 372.6791Q409.92725 371.31973 409.72412 369.1791ZM433.646 360.7416L431.55225 360.89786Q431.271 359.66348 430.75537 359.10098Q429.896 358.19473 428.646 358.19473Q427.646 358.19473 426.88037 358.75723Q425.88037 359.47598 425.30225 360.88223Q424.73975 362.27286 424.7085 364.85098Q425.47412 363.69473 426.56787 363.13223Q427.67725 362.56973 428.88037 362.56973Q430.98975 362.56973 432.47412 364.1166Q433.9585 365.66348 433.9585 368.13223Q433.9585 369.7416 433.25537 371.13223Q432.56787 372.52286 431.34912 373.27286Q430.13037 374.00723 428.5835 374.00723Q425.94287 374.00723 424.271 372.06973Q422.61475 370.1166 422.61475 365.66348Q422.61475 360.69473 424.4585 358.4291Q426.05225 356.46036 428.771 356.46036Q430.80225 356.46036 432.09912 357.60098Q433.396 358.72598 433.646 360.7416ZM425.03662 368.14786Q425.03662 369.22598 425.48975 370.22598Q425.9585 371.22598 426.78662 371.75723Q427.63037 372.27286 428.53662 372.27286Q429.88037 372.27286 430.8335 371.19473Q431.80225 370.1166 431.80225 368.25723Q431.80225 366.47598 430.84912 365.46036Q429.896 364.4291 428.4585 364.4291Q427.03662 364.4291 426.03662 365.46036Q425.03662 366.47598 425.03662 368.14786ZM436.84912 373.71036L436.84912 371.3041L439.23975 371.3041L439.23975 373.71036Q439.23975 375.03848 438.771 375.85098Q438.30225 376.66348 437.28662 377.1166L436.7085 376.21036Q437.36475 375.91348 437.67725 375.33536Q438.00537 374.77286 438.03662 373.71036L436.84912 373.71036ZM449.47412 373.71036L449.47412 369.60098L442.021 369.60098L442.021 367.66348L449.84912 356.52286L451.5835 356.52286L451.5835 367.66348L453.896 367.66348L453.896 369.60098L451.5835 369.60098L451.5835 373.71036L449.47412 373.71036ZM449.47412 367.66348L449.47412 359.91348L444.0835 367.66348L449.47412 367.66348ZM456.09912 360.64786Q456.09912 358.81973 457.021 357.53848Q457.9585 356.2416 459.7085 356.2416Q461.3335 356.2416 462.396 357.39786Q463.4585 358.53848 463.4585 360.78848Q463.4585 362.96036 462.38037 364.14786Q461.30225 365.31973 459.73975 365.31973Q458.17725 365.31973 457.13037 364.16348Q456.09912 362.9916 456.09912 360.64786ZM459.771 357.69473Q458.98975 357.69473 458.4585 358.38223Q457.94287 359.0541 457.94287 360.8666Q457.94287 362.52286 458.47412 363.19473Q459.00537 363.8666 459.771 363.8666Q460.56787 363.8666 461.0835 363.19473Q461.61475 362.50723 461.61475 360.69473Q461.61475 359.03848 461.0835 358.3666Q460.55225 357.69473 459.771 357.69473ZM459.78662 374.35098L469.17725 356.2416L470.896 356.2416L461.53662 374.35098L459.78662 374.35098ZM467.2085 369.6791Q467.2085 367.81973 468.13037 366.53848Q469.06787 365.25723 470.8335 365.25723Q472.4585 365.25723 473.50537 366.41348Q474.56787 367.56973 474.56787 369.8041Q474.56787 371.9916 473.48975 373.1791Q472.42725 374.35098 470.84912 374.35098Q469.28662 374.35098 468.23975 373.1791Q467.2085 372.00723 467.2085 369.6791ZM470.896 366.71036Q470.09912 366.71036 469.56787 367.39786Q469.05225 368.06973 469.05225 369.88223Q469.05225 371.52286 469.5835 372.21036Q470.11475 372.88223 470.88037 372.88223Q471.69287 372.88223 472.2085 372.21036Q472.73975 371.52286 472.73975 369.72598Q472.73975 368.0541 472.2085 367.38223Q471.67725 366.71036 470.896 366.71036Z" fill-rule="nonzero"/><path fill="#000000" d="M369.26627 176.7011L369.26627 178.73235L357.92252 178.73235Q357.89127 177.96672 358.1569 177.2636Q358.5944 176.10735 359.54752 174.98235Q360.50064 173.85735 362.31314 172.37297Q365.11002 170.0761 366.0944 168.74797Q367.07877 167.40422 367.07877 166.2011Q367.07877 164.9511 366.17252 164.09172Q365.2819 163.23235 363.8444 163.23235Q362.32877 163.23235 361.4069 164.15422Q360.50064 165.06047 360.48502 166.66985L358.31314 166.4511Q358.5319 164.02922 359.98502 162.7636Q361.43814 161.48235 363.89127 161.48235Q366.36002 161.48235 367.79752 162.85735Q369.25064 164.21672 369.25064 166.24797Q369.25064 167.27922 368.82877 168.27922Q368.4069 169.27922 367.42252 170.3886Q366.45377 171.48235 364.17252 173.40422Q362.2819 174.99797 361.73502 175.56047Q361.20377 176.12297 360.8444 176.7011L369.26627 176.7011ZM371.32877 163.79485L371.32877 161.77922L382.45377 161.77922L382.45377 163.41985Q380.81314 165.15422 379.18814 168.06047Q377.57877 170.9511 376.70377 174.0136Q376.07877 176.16985 375.89127 178.73235L373.73502 178.73235Q373.76627 176.7011 374.51627 173.84172Q375.2819 170.96672 376.70377 168.29485Q378.14127 165.62297 379.73502 163.79485L371.32877 163.79485ZM385.32877 178.73235L385.32877 176.3261L387.7194 176.3261L387.7194 178.73235Q387.7194 180.06047 387.25064 180.87297Q386.7819 181.68547 385.76627 182.1386L385.18814 181.23235Q385.8444 180.93547 386.1569 180.35735Q386.48502 179.79485 386.51627 178.73235L385.32877 178.73235ZM391.20377 174.2011L393.31314 173.91985Q393.67252 175.7011 394.54752 176.49797Q395.42252 177.29485 396.67252 177.29485Q398.1569 177.29485 399.17252 176.2636Q400.20377 175.23235 400.20377 173.7011Q400.20377 172.24797 399.25064 171.31047Q398.31314 170.35735 396.8444 170.35735Q396.25064 170.35735 395.36002 170.59172L395.5944 168.74797Q395.79752 168.7636 395.93814 168.7636Q397.2819 168.7636 398.36002 168.06047Q399.43814 167.35735 399.43814 165.90422Q399.43814 164.73235 398.64127 163.98235Q397.86002 163.21672 396.62564 163.21672Q395.39127 163.21672 394.56314 163.99797Q393.75064 164.7636 393.51627 166.31047L391.4069 165.93547Q391.79752 163.81047 393.1569 162.65422Q394.5319 161.48235 396.57877 161.48235Q397.98502 161.48235 399.1569 162.09172Q400.3444 162.68547 400.9694 163.73235Q401.61002 164.77922 401.61002 165.9511Q401.61002 167.06047 401.00064 167.98235Q400.4069 168.8886 399.23502 169.41985Q400.76627 169.77922 401.61002 170.8886Q402.45377 171.99797 402.45377 173.65422Q402.45377 175.90422 400.81314 177.48235Q399.17252 179.04485 396.6569 179.04485Q394.39127 179.04485 392.89127 177.7011Q391.4069 176.34172 391.20377 174.2011ZM404.57877 165.66985Q404.57877 163.84172 405.50064 162.56047Q406.43814 161.2636 408.18814 161.2636Q409.81314 161.2636 410.87564 162.41985Q411.93814 163.56047 411.93814 165.81047Q411.93814 167.98235 410.86002 169.16985Q409.7819 170.34172 408.2194 170.34172Q406.6569 170.34172 405.61002 169.18547Q404.57877 168.0136 404.57877 165.66985ZM408.25064 162.71672Q407.4694 162.71672 406.93814 163.40422Q406.42252 164.0761 406.42252 165.8886Q406.42252 167.54485 406.95377 168.21672Q407.48502 168.8886 408.25064 168.8886Q409.04752 168.8886 409.56314 168.21672Q410.0944 167.52922 410.0944 165.71672Q410.0944 164.06047 409.56314 163.3886Q409.0319 162.71672 408.25064 162.71672ZM408.26627 179.37297L417.6569 161.2636L419.37564 161.2636L410.01627 179.37297L408.26627 179.37297ZM415.68814 174.7011Q415.68814 172.84172 416.61002 171.56047Q417.54752 170.27922 419.31314 170.27922Q420.93814 170.27922 421.98502 171.43547Q423.04752 172.59172 423.04752 174.8261Q423.04752 177.0136 421.9694 178.2011Q420.9069 179.37297 419.32877 179.37297Q417.76627 179.37297 416.7194 178.2011Q415.68814 177.02922 415.68814 174.7011ZM419.37564 171.73235Q418.57877 171.73235 418.04752 172.41985Q417.5319 173.09172 417.5319 174.90422Q417.5319 176.54485 418.06314 177.23235Q418.5944 177.90422 419.36002 177.90422Q420.17252 177.90422 420.68814 177.23235Q421.2194 176.54485 421.2194 174.74797Q421.2194 173.0761 420.68814 172.40422Q420.1569 171.73235 419.37564 171.73235Z" fill-rule="nonzero"/><path stroke="#ffffff" stroke-width="1.0" stroke-linejoin="round" stroke-linecap="round" d="M483.97406 251.56505C486.205 248.99042 486.7283 245.35072 485.31308 242.25186C483.8979 239.153 480.8045 237.165 477.39777 237.165L477.39777 71.833336C545.53217 71.833336 607.4 111.59338 635.70404 173.5706C664.0081 235.54784 653.54193 308.34174 608.9234 359.83426" fill-rule="nonzero"/><path stroke="#ffffff" stroke-width="1.0" stroke-linejoin="round" stroke-linecap="round" d="M468.78467 247.10504C469.2695 250.47708 471.67752 253.25607 474.94623 254.21585C478.21497 255.17564 481.74313 254.13968 483.97406 251.56505L608.9234 359.83426C564.3049 411.3268 493.7414 432.0461 428.3669 412.85043C362.99246 393.65475 314.8324 338.07507 305.13586 270.6342" fill-rule="nonzero"/><path stroke="#ffffff" stroke-width="1.0" stroke-linejoin="round" stroke-linecap="round" d="M477.39777 237.165C474.87387 237.165 472.4743 238.26085 470.8215 240.16829C469.1687 242.07573 468.4255 244.60683 468.78467 247.10504L305.13586 270.6342C297.95206 220.66982 312.81598 170.04793 345.87216 131.89906C378.92834 93.750206 426.9196 71.833336 477.39777 71.833336" fill-rule="nonzero"/><path fill="#4285f4" d="M967.9 89.333336C967.9 92.64704 965.2137 95.333336 961.9 95.333336C958.5863 95.333336 955.9 92.64704 955.9 89.333336C955.9 86.01962 958.5863 83.333336 961.9 83.333336C965.2137 83.333336 967.9 86.01962 967.9 89.333336Z" fill-rule="nonzero"/><path fill="#000000" d="M991.0094 97.302086L991.0094 99.833336L976.8063 99.833336Q976.775 98.88021 977.1188 98.00521Q977.66565 96.552086 978.85315 95.145836Q980.04065 93.739586 982.3063 91.895836Q985.8063 89.020836 987.025 87.34896Q988.2594 85.66146 988.2594 84.177086Q988.2594 82.59896 987.1344 81.53646Q986.025 80.458336 984.22815 80.458336Q982.3219 80.458336 981.16565 81.59896Q980.025 82.739586 980.0094 84.75521L977.3063 84.47396Q977.5875 81.44271 979.4 79.864586Q981.2125 78.270836 984.275 78.270836Q987.3688 78.270836 989.16565 79.989586Q990.97815 81.69271 990.97815 84.239586Q990.97815 85.520836 990.4469 86.770836Q989.91565 88.00521 988.6969 89.395836Q987.47815 90.770836 984.6344 93.16146Q982.2594 95.16146 981.5875 95.88021Q980.91565 96.583336 980.47815 97.302086L991.0094 97.302086ZM994.15 89.239586Q994.15 85.427086 994.9313 83.114586Q995.7125 80.78646 997.2594 79.53646Q998.8063 78.270836 1001.15 78.270836Q1002.8688 78.270836 1004.16565 78.97396Q1005.47815 79.66146 1006.3219 80.97396Q1007.1813 82.28646 1007.66565 84.177086Q1008.15 86.052086 1008.15 89.239586Q1008.15 93.020836 1007.3688 95.34896Q1006.60315 97.66146 1005.0563 98.927086Q1003.5094 100.19271 1001.15 100.19271Q998.04065 100.19271 996.275 97.97396Q994.15 95.28646 994.15 89.239586ZM996.85315 89.239586Q996.85315 94.53646 998.0875 96.28646Q999.3375 98.03646 1001.15 98.03646Q1002.9625 98.03646 1004.1969 96.28646Q1005.4469 94.520836 1005.4469 89.239586Q1005.4469 83.94271 1004.1969 82.208336Q1002.9625 80.458336 1001.1188 80.458336Q999.3063 80.458336 998.2125 81.989586Q996.85315 83.958336 996.85315 89.239586ZM1018.85315 93.38021L1018.85315 90.739586L1026.9469 90.739586L1026.9469 93.38021L1018.85315 93.38021ZM1037.1656 94.16146L1039.7906 93.81771Q1040.2438 96.052086 1041.3375 97.052086Q1042.4313 98.03646 1043.9938 98.03646Q1045.8688 98.03646 1047.15 96.75521Q1048.4313 95.458336 1048.4313 93.552086Q1048.4313 91.739586 1047.2438 90.56771Q1046.0563 89.38021 1044.2281 89.38021Q1043.4781 89.38021 1042.3531 89.66146L1042.65 87.34896Q1042.9156 87.38021 1043.0719 87.38021Q1044.7594 87.38021 1046.1031 86.50521Q1047.4625 85.63021 1047.4625 83.78646Q1047.4625 82.34896 1046.4781 81.395836Q1045.4938 80.44271 1043.9469 80.44271Q1042.4 80.44271 1041.3688 81.41146Q1040.3531 82.364586 1040.0563 84.302086L1037.4313 83.833336Q1037.9 81.19271 1039.6188 79.739586Q1041.3375 78.270836 1043.8844 78.270836Q1045.6344 78.270836 1047.1188 79.03646Q1048.6031 79.78646 1049.3844 81.083336Q1050.1656 82.38021 1050.1656 83.84896Q1050.1656 85.239586 1049.4156 86.38021Q1048.6813 87.520836 1047.2125 88.208336Q1049.1188 88.645836 1050.1656 90.03646Q1051.2281 91.41146 1051.2281 93.489586Q1051.2281 96.302086 1049.1656 98.25521Q1047.1188 100.208336 1043.9938 100.208336Q1041.1656 100.208336 1039.2906 98.53646Q1037.4313 96.84896 1037.1656 94.16146ZM1054.15 89.239586Q1054.15 85.427086 1054.9313 83.114586Q1055.7125 80.78646 1057.2594 79.53646Q1058.8063 78.270836 1061.15 78.270836Q1062.8688 78.270836 1064.1656 78.97396Q1065.4781 79.66146 1066.3219 80.97396Q1067.1813 82.28646 1067.6656 84.177086Q1068.15 86.052086 1068.15 89.239586Q1068.15 93.020836 1067.3688 95.34896Q1066.6031 97.66146 1065.0563 98.927086Q1063.5094 100.19271 1061.15 100.19271Q1058.0406 100.19271 1056.275 97.97396Q1054.15 95.28646 1054.15 89.239586ZM1056.8531 89.239586Q1056.8531 94.53646 1058.0875 96.28646Q1059.3375 98.03646 1061.15 98.03646Q1062.9625 98.03646 1064.1969 96.28646Q1065.4469 94.520836 1065.4469 89.239586Q1065.4469 83.94271 1064.1969 82.208336Q1062.9625 80.458336 1061.1188 80.458336Q1059.3063 80.458336 1058.2125 81.989586Q1056.8531 83.958336 1056.8531 89.239586ZM1079.8219 99.833336L1079.8219 78.364586L1082.4625 78.364586L1082.4625 99.833336L1079.8219 99.833336ZM1097.025 97.91146Q1095.5719 99.16146 1094.2125 99.677086Q1092.8531 100.19271 1091.3063 100.19271Q1088.7438 100.19271 1087.3531 98.94271Q1085.9781 97.677086 1085.9781 95.72396Q1085.9781 94.583336 1086.4938 93.645836Q1087.025 92.69271 1087.8688 92.13021Q1088.7125 91.552086 1089.7594 91.270836Q1090.5406 91.052086 1092.1031 90.864586Q1095.3063 90.489586 1096.8063 89.958336Q1096.8219 89.41146 1096.8219 89.270836Q1096.8219 87.66146 1096.0719 87.00521Q1095.0719 86.114586 1093.0719 86.114586Q1091.2125 86.114586 1090.3219 86.770836Q1089.4469 87.41146 1089.0094 89.06771L1086.4313 88.708336Q1086.7906 87.052086 1087.5875 86.03646Q1088.4 85.020836 1089.9156 84.47396Q1091.4469 83.927086 1093.4625 83.927086Q1095.4469 83.927086 1096.6813 84.395836Q1097.9313 84.864586 1098.5094 85.583336Q1099.1031 86.28646 1099.3375 87.364586Q1099.4781 88.03646 1099.4781 89.802086L1099.4781 93.31771Q1099.4781 96.989586 1099.6344 97.97396Q1099.8063 98.94271 1100.3063 99.833336L1097.5563 99.833336Q1097.15 99.00521 1097.025 97.91146ZM1096.8063 92.020836Q1095.3688 92.614586 1092.5094 93.020836Q1090.8844 93.25521 1090.1969 93.552086Q1089.525 93.84896 1089.15 94.41146Q1088.7906 94.97396 1088.7906 95.66146Q1088.7906 96.708336 1089.5875 97.41146Q1090.4 98.114586 1091.9313 98.114586Q1093.4625 98.114586 1094.6344 97.458336Q1095.8219 96.78646 1096.3844 95.63021Q1096.8063 94.739586 1096.8063 92.989586L1096.8063 92.020836ZM1108.6344 97.47396L1109.0094 99.802086Q1107.9 100.03646 1107.025 100.03646Q1105.5875 100.03646 1104.7906 99.583336Q1104.0094 99.13021 1103.6813 98.395836Q1103.3688 97.645836 1103.3688 95.270836L1103.3688 86.333336L1101.4313 86.333336L1101.4313 84.270836L1103.3688 84.270836L1103.3688 80.427086L1105.9781 78.84896L1105.9781 84.270836L1108.6344 84.270836L1108.6344 86.333336L1105.9781 86.333336L1105.9781 95.427086Q1105.9781 96.552086 1106.1188 96.88021Q1106.2594 97.19271 1106.5719 97.395836Q1106.8844 97.583336 1107.4781 97.583336Q1107.9156 97.583336 1108.6344 97.47396Z" fill-rule="nonzero"/><path fill="#ea4335" d="M967.9 134.33333C967.9 137.64705 965.2137 140.33333 961.9 140.33333C958.5863 140.33333 955.9 137.64705 955.9 134.33333C955.9 131.01962 958.5863 128.33333 961.9 128.33333C965.2137 128.33333 967.9 131.01962 967.9 134.33333Z" fill-rule="nonzero"/><path fill="#000000" d="M977.16565 139.16145L979.79065 138.8177Q980.2438 141.05208 981.3375 142.05208Q982.4313 143.03645 983.9938 143.03645Q985.8688 143.03645 987.15 141.7552Q988.4313 140.45833 988.4313 138.55208Q988.4313 136.73958 987.2438 135.5677Q986.0563 134.3802 984.22815 134.3802Q983.47815 134.3802 982.35315 134.66145L982.65 132.34895Q982.91565 132.3802 983.0719 132.3802Q984.7594 132.3802 986.10315 131.5052Q987.4625 130.6302 987.4625 128.78645Q987.4625 127.34895 986.47815 126.39583Q985.4938 125.4427 983.9469 125.4427Q982.4 125.4427 981.3688 126.41145Q980.35315 127.36458 980.0563 129.30208L977.4313 128.83333Q977.9 126.1927 979.6188 124.73958Q981.3375 123.27083 983.8844 123.27083Q985.6344 123.27083 987.1188 124.03645Q988.60315 124.78645 989.3844 126.08333Q990.16565 127.3802 990.16565 128.84895Q990.16565 130.23958 989.41565 131.3802Q988.6813 132.52083 987.2125 133.20833Q989.1188 133.64583 990.16565 135.03645Q991.22815 136.41145 991.22815 138.48958Q991.22815 141.30208 989.16565 143.2552Q987.1188 145.20833 983.9938 145.20833Q981.16565 145.20833 979.29065 143.53645Q977.4313 141.84895 977.16565 139.16145ZM1004.0719 144.83333L1001.4469 144.83333L1001.4469 128.03645Q1000.4938 128.9427 998.9469 129.84895Q997.4 130.7552 996.16565 131.20833L996.16565 128.66145Q998.3844 127.61458 1000.04065 126.14583Q1001.6969 124.66145 1002.3844 123.27083L1004.0719 123.27083L1004.0719 144.83333ZM1018.85315 138.3802L1018.85315 135.73958L1026.9469 135.73958L1026.9469 138.3802L1018.85315 138.3802ZM1045.6031 144.83333L1045.6031 139.6927L1036.275 139.6927L1036.275 137.27083L1046.0875 123.36458L1048.2281 123.36458L1048.2281 137.27083L1051.1344 137.27083L1051.1344 139.6927L1048.2281 139.6927L1048.2281 144.83333L1045.6031 144.83333ZM1045.6031 137.27083L1045.6031 127.59895L1038.8688 137.27083L1045.6031 137.27083ZM1054.15 134.23958Q1054.15 130.42708 1054.9313 128.11458Q1055.7125 125.78645 1057.2594 124.53645Q1058.8063 123.27083 1061.15 123.27083Q1062.8688 123.27083 1064.1656 123.97395Q1065.4781 124.66145 1066.3219 125.97395Q1067.1813 127.28645 1067.6656 129.17708Q1068.15 131.05208 1068.15 134.23958Q1068.15 138.02083 1067.3688 140.34895Q1066.6031 142.66145 1065.0563 143.92708Q1063.5094 145.1927 1061.15 145.1927Q1058.0406 145.1927 1056.275 142.97395Q1054.15 140.28645 1054.15 134.23958ZM1056.8531 134.23958Q1056.8531 139.53645 1058.0875 141.28645Q1059.3375 143.03645 1061.15 143.03645Q1062.9625 143.03645 1064.1969 141.28645Q1065.4469 139.52083 1065.4469 134.23958Q1065.4469 128.9427 1064.1969 127.20833Q1062.9625 125.45833 1061.1188 125.45833Q1059.3063 125.45833 1058.2125 126.98958Q1056.8531 128.95833 1056.8531 134.23958ZM1079.8219 144.83333L1079.8219 123.36458L1082.4625 123.36458L1082.4625 144.83333L1079.8219 144.83333ZM1097.025 142.91145Q1095.5719 144.16145 1094.2125 144.67708Q1092.8531 145.1927 1091.3063 145.1927Q1088.7438 145.1927 1087.3531 143.9427Q1085.9781 142.67708 1085.9781 140.72395Q1085.9781 139.58333 1086.4938 138.64583Q1087.025 137.6927 1087.8688 137.1302Q1088.7125 136.55208 1089.7594 136.27083Q1090.5406 136.05208 1092.1031 135.86458Q1095.3063 135.48958 1096.8063 134.95833Q1096.8219 134.41145 1096.8219 134.27083Q1096.8219 132.66145 1096.0719 132.0052Q1095.0719 131.11458 1093.0719 131.11458Q1091.2125 131.11458 1090.3219 131.77083Q1089.4469 132.41145 1089.0094 134.0677L1086.4313 133.70833Q1086.7906 132.05208 1087.5875 131.03645Q1088.4 130.02083 1089.9156 129.47395Q1091.4469 128.92708 1093.4625 128.92708Q1095.4469 128.92708 1096.6813 129.39583Q1097.9313 129.86458 1098.5094 130.58333Q1099.1031 131.28645 1099.3375 132.36458Q1099.4781 133.03645 1099.4781 134.80208L1099.4781 138.3177Q1099.4781 141.98958 1099.6344 142.97395Q1099.8063 143.9427 1100.3063 144.83333L1097.5563 144.83333Q1097.15 144.0052 1097.025 142.91145ZM1096.8063 137.02083Q1095.3688 137.61458 1092.5094 138.02083Q1090.8844 138.2552 1090.1969 138.55208Q1089.525 138.84895 1089.15 139.41145Q1088.7906 139.97395 1088.7906 140.66145Q1088.7906 141.70833 1089.5875 142.41145Q1090.4 143.11458 1091.9313 143.11458Q1093.4625 143.11458 1094.6344 142.45833Q1095.8219 141.78645 1096.3844 140.6302Q1096.8063 139.73958 1096.8063 137.98958L1096.8063 137.02083ZM1108.6344 142.47395L1109.0094 144.80208Q1107.9 145.03645 1107.025 145.03645Q1105.5875 145.03645 1104.7906 144.58333Q1104.0094 144.1302 1103.6813 143.39583Q1103.3688 142.64583 1103.3688 140.27083L1103.3688 131.33333L1101.4313 131.33333L1101.4313 129.27083L1103.3688 129.27083L1103.3688 125.42708L1105.9781 123.84895L1105.9781 129.27083L1108.6344 129.27083L1108.6344 131.33333L1105.9781 131.33333L1105.9781 140.42708Q1105.9781 141.55208 1106.1188 141.8802Q1106.2594 142.1927 1106.5719 142.39583Q1106.8844 142.58333 1107.4781 142.58333Q1107.9156 142.58333 1108.6344 142.47395Z" fill-rule="nonzero"/><path fill="#fbbc04" d="M967.9 179.33333C967.9 182.64705 965.2137 185.33333 961.9 185.33333C958.5863 185.33333 955.9 182.64705 955.9 179.33333C955.9 176.01962 958.5863 173.33333 961.9 173.33333C965.2137 173.33333 967.9 176.01962 967.9 179.33333Z" fill-rule="nonzero"/><path fill="#000000" d="M985.60315 189.83333L985.60315 184.6927L976.275 184.6927L976.275 182.27083L986.0875 168.36458L988.22815 168.36458L988.22815 182.27083L991.1344 182.27083L991.1344 184.6927L988.22815 184.6927L988.22815 189.83333L985.60315 189.83333ZM985.60315 182.27083L985.60315 172.59895L978.8688 182.27083L985.60315 182.27083ZM1004.0719 189.83333L1001.4469 189.83333L1001.4469 173.03645Q1000.4938 173.9427 998.9469 174.84895Q997.4 175.7552 996.16565 176.20833L996.16565 173.66145Q998.3844 172.61458 1000.04065 171.14583Q1001.6969 169.66145 1002.3844 168.27083L1004.0719 168.27083L1004.0719 189.83333ZM1018.85315 183.3802L1018.85315 180.73958L1026.9469 180.73958L1026.9469 183.3802L1018.85315 183.3802ZM1045.6031 189.83333L1045.6031 184.6927L1036.275 184.6927L1036.275 182.27083L1046.0875 168.36458L1048.2281 168.36458L1048.2281 182.27083L1051.1344 182.27083L1051.1344 184.6927L1048.2281 184.6927L1048.2281 189.83333L1045.6031 189.83333ZM1045.6031 182.27083L1045.6031 172.59895L1038.8688 182.27083L1045.6031 182.27083ZM1054.15 184.20833L1056.9156 183.97395Q1057.2281 185.98958 1058.3375 187.02083Q1059.4625 188.03645 1061.0406 188.03645Q1062.9469 188.03645 1064.2594 186.59895Q1065.5875 185.16145 1065.5875 182.78645Q1065.5875 180.53645 1064.3219 179.23958Q1063.0563 177.92708 1060.9938 177.92708Q1059.7281 177.92708 1058.6969 178.5052Q1057.6813 179.08333 1057.0875 180.0052L1054.6188 179.67708L1056.6969 168.64583L1067.3688 168.64583L1067.3688 171.17708L1058.8063 171.17708L1057.65 176.9427Q1059.5875 175.59895 1061.6969 175.59895Q1064.5094 175.59895 1066.4469 177.55208Q1068.3844 179.48958 1068.3844 182.55208Q1068.3844 185.47395 1066.6813 187.59895Q1064.6188 190.1927 1061.0406 190.1927Q1058.1188 190.1927 1056.2594 188.55208Q1054.4156 186.91145 1054.15 184.20833ZM1079.8219 189.83333L1079.8219 168.36458L1082.4625 168.36458L1082.4625 189.83333L1079.8219 189.83333ZM1097.025 187.91145Q1095.5719 189.16145 1094.2125 189.67708Q1092.8531 190.1927 1091.3063 190.1927Q1088.7438 190.1927 1087.3531 188.9427Q1085.9781 187.67708 1085.9781 185.72395Q1085.9781 184.58333 1086.4938 183.64583Q1087.025 182.6927 1087.8688 182.1302Q1088.7125 181.55208 1089.7594 181.27083Q1090.5406 181.05208 1092.1031 180.86458Q1095.3063 180.48958 1096.8063 179.95833Q1096.8219 179.41145 1096.8219 179.27083Q1096.8219 177.66145 1096.0719 177.0052Q1095.0719 176.11458 1093.0719 176.11458Q1091.2125 176.11458 1090.3219 176.77083Q1089.4469 177.41145 1089.0094 179.0677L1086.4313 178.70833Q1086.7906 177.05208 1087.5875 176.03645Q1088.4 175.02083 1089.9156 174.47395Q1091.4469 173.92708 1093.4625 173.92708Q1095.4469 173.92708 1096.6813 174.39583Q1097.9313 174.86458 1098.5094 175.58333Q1099.1031 176.28645 1099.3375 177.36458Q1099.4781 178.03645 1099.4781 179.80208L1099.4781 183.3177Q1099.4781 186.98958 1099.6344 187.97395Q1099.8063 188.9427 1100.3063 189.83333L1097.5563 189.83333Q1097.15 189.0052 1097.025 187.91145ZM1096.8063 182.02083Q1095.3688 182.61458 1092.5094 183.02083Q1090.8844 183.2552 1090.1969 183.55208Q1089.525 183.84895 1089.15 184.41145Q1088.7906 184.97395 1088.7906 185.66145Q1088.7906 186.70833 1089.5875 187.41145Q1090.4 188.11458 1091.9313 188.11458Q1093.4625 188.11458 1094.6344 187.45833Q1095.8219 186.78645 1096.3844 185.6302Q1096.8063 184.73958 1096.8063 182.98958L1096.8063 182.02083ZM1108.6344 187.47395L1109.0094 189.80208Q1107.9 190.03645 1107.025 190.03645Q1105.5875 190.03645 1104.7906 189.58333Q1104.0094 189.1302 1103.6813 188.39583Q1103.3688 187.64583 1103.3688 185.27083L1103.3688 176.33333L1101.4313 176.33333L1101.4313 174.27083L1103.3688 174.27083L1103.3688 170.42708L1105.9781 168.84895L1105.9781 174.27083L1108.6344 174.27083L1108.6344 176.33333L1105.9781 176.33333L1105.9781 185.42708Q1105.9781 186.55208 1106.1188 186.8802Q1106.2594 187.1927 1106.5719 187.39583Q1106.8844 187.58333 1107.4781 187.58333Q1107.9156 187.58333 1108.6344 187.47395Z" fill-rule="nonzero"/><path fill="#000000" d="M27.334375 50.1L22.209375 28.631248L26.646875 28.631248L29.88125 43.38125L33.803123 28.631248L38.959373 28.631248L42.725 43.63125L46.021873 28.631248L50.38125 28.631248L45.178123 50.1L40.56875 50.1L36.2875 34.0375L32.0375 50.1L27.334375 50.1ZM61.1625 32.428123L61.1625 28.631248L65.2875 28.631248L65.2875 32.428123L61.1625 32.428123ZM65.2875 34.5375L65.2875 49.615623Q65.2875 52.584373 64.89687 53.803123Q64.50625 55.0375 63.396873 55.725Q62.2875 56.4125 60.584373 56.4125Q59.959373 56.4125 59.240623 56.303123Q58.5375 56.19375 57.725 55.975L58.44375 52.459373Q58.740623 52.521873 58.990623 52.553123Q59.240623 52.584373 59.459373 52.584373Q60.1 52.584373 60.490623 52.31875Q60.896873 52.053123 61.021873 51.6625Q61.1625 51.2875 61.1625 49.38125L61.1625 34.5375L65.2875 34.5375ZM73.33437 39.2875L69.6 38.615623Q70.225 36.365623 71.75625 35.2875Q73.30312 34.19375 76.33437 34.19375Q79.08437 34.19375 80.42812 34.85Q81.7875 35.490623 82.33437 36.50625Q82.88125 37.50625 82.88125 40.178123L82.83437 44.990623Q82.83437 47.0375 83.02187 48.021873Q83.225 48.990623 83.77187 50.1L79.70937 50.1Q79.5375 49.69375 79.30312 48.88125Q79.20937 48.521873 79.1625 48.396873Q78.1 49.428123 76.89687 49.94375Q75.70937 50.459373 74.33437 50.459373Q71.94375 50.459373 70.55312 49.1625Q69.1625 47.85 69.1625 45.85Q69.1625 44.5375 69.7875 43.50625Q70.42812 42.475 71.55312 41.928123Q72.69375 41.365623 74.83437 40.959373Q77.725 40.4125 78.83437 39.94375L78.83437 39.5375Q78.83437 38.35 78.24062 37.85Q77.6625 37.334373 76.0375 37.334373Q74.94375 37.334373 74.31875 37.771873Q73.70937 38.209373 73.33437 39.2875ZM78.83437 42.63125Q78.05312 42.896873 76.33437 43.271873Q74.61562 43.63125 74.08437 43.975Q73.2875 44.553123 73.2875 45.428123Q73.2875 46.2875 73.92812 46.928123Q74.56875 47.553123 75.56875 47.553123Q76.67812 47.553123 77.69375 46.81875Q78.44375 46.25625 78.67812 45.459373Q78.83437 44.928123 78.83437 43.44375L78.83437 42.63125ZM87.1 50.1L87.1 28.631248L91.225 28.631248L91.225 40.021873L96.0375 34.5375L101.11562 34.5375L95.7875 40.225L101.49062 50.1L97.05312 50.1L93.14687 43.115623L91.225 45.115623L91.225 50.1L87.1 50.1ZM104.25625 32.428123L104.25625 28.631248L108.36562 28.631248L108.36562 32.428123L104.25625 32.428123ZM104.25625 50.1L104.25625 34.5375L108.36562 34.5375L108.36562 50.1L104.25625 50.1ZM111.94375 34.5375L115.74062 34.5375L115.74062 36.6625Q117.77187 34.19375 120.58437 34.19375Q122.08437 34.19375 123.17812 34.81875Q124.2875 35.428123 124.99062 36.6625Q126.00625 35.428123 127.19375 34.81875Q128.38126 34.19375 129.725 34.19375Q131.44376 34.19375 132.63126 34.896873Q133.81876 35.584373 134.39688 36.928123Q134.83438 37.928123 134.83438 40.146873L134.83438 50.1L130.70938 50.1L130.70938 41.209373Q130.70938 38.896873 130.2875 38.225Q129.70938 37.334373 128.52188 37.334373Q127.6625 37.334373 126.89687 37.865623Q126.14687 38.396873 125.80312 39.4125Q125.45937 40.428123 125.45937 42.63125L125.45937 50.1L121.35 50.1L121.35 41.56875Q121.35 39.303123 121.13125 38.646873Q120.9125 37.990623 120.44375 37.6625Q119.99062 37.334373 119.19375 37.334373Q118.24062 37.334373 117.475 37.85Q116.725 38.365623 116.39687 39.334373Q116.06875 40.303123 116.06875 42.5375L116.06875 50.1L111.94375 50.1L111.94375 34.5375ZM146.13126 34.5375L149.975 34.5375L149.975 36.834373Q150.725 35.6625 151.99063 34.928123Q153.27188 34.19375 154.81876 34.19375Q157.5375 34.19375 159.42813 36.31875Q161.31876 38.44375 161.31876 42.240623Q161.31876 46.13125 159.4125 48.303123Q157.50626 50.459373 154.7875 50.459373Q153.50626 50.459373 152.45938 49.94375Q151.4125 49.428123 150.25626 48.178123L150.25626 56.021873L146.13126 56.021873L146.13126 34.5375ZM150.20938 42.053123Q150.20938 44.678123 151.24063 45.928123Q152.2875 47.178123 153.7875 47.178123Q155.225 47.178123 156.1625 46.0375Q157.11563 44.88125 157.11563 42.25625Q157.11563 39.81875 156.13126 38.63125Q155.1625 37.44375 153.70938 37.44375Q152.19376 37.44375 151.19376 38.615623Q150.20938 39.771873 150.20938 42.053123ZM168.19376 50.1L164.08438 50.1L164.08438 34.5375L167.89688 34.5375L167.89688 36.75625Q168.88126 35.19375 169.6625 34.69375Q170.44376 34.19375 171.44376 34.19375Q172.85 34.19375 174.1625 34.975L172.88126 38.553123Q171.83438 37.88125 170.94376 37.88125Q170.08438 37.88125 169.475 38.365623Q168.88126 38.834373 168.5375 40.084373Q168.19376 41.31875 168.19376 45.2875L168.19376 50.1ZM174.6 50.1L174.6 46.896873L180.42813 40.19375Q181.86563 38.553123 182.55313 37.865623Q181.83438 37.9125 180.6625 37.928123L175.1625 37.959373L175.1625 34.5375L188.0375 34.5375L188.0375 37.459373L182.08438 44.31875L179.99063 46.584373Q181.70938 46.475 182.11563 46.475L188.49063 46.475L188.49063 50.1L174.6 50.1ZM200.25626 45.146873L204.36563 45.834373Q203.56876 48.1 201.86563 49.2875Q200.1625 50.459373 197.6 50.459373Q193.5375 50.459373 191.58438 47.803123Q190.05313 45.678123 190.05313 42.44375Q190.05313 38.56875 192.06876 36.38125Q194.1 34.19375 197.19376 34.19375Q200.6625 34.19375 202.6625 36.490623Q204.67813 38.771873 204.58438 43.50625L194.27188 43.50625Q194.31876 45.334373 195.27188 46.365623Q196.225 47.38125 197.64688 47.38125Q198.6 47.38125 199.25626 46.85Q199.92813 46.31875 200.25626 45.146873ZM200.49063 40.990623Q200.45938 39.19375 199.56876 38.271873Q198.69376 37.334373 197.42813 37.334373Q196.08438 37.334373 195.20938 38.31875Q194.33438 39.303123 194.35 40.990623L200.49063 40.990623ZM222.52188 50.1L218.69376 50.1L218.69376 47.81875Q217.74063 49.146873 216.44376 49.803123Q215.14688 50.459373 213.83438 50.459373Q211.14688 50.459373 209.24063 48.303123Q207.33438 46.13125 207.33438 42.25625Q207.33438 38.303123 209.19376 36.25625Q211.05313 34.19375 213.89688 34.19375Q216.50626 34.19375 218.4125 36.365623L218.4125 28.631248L222.52188 28.631248L222.52188 50.1ZM211.5375 41.990623Q211.5375 44.475 212.225 45.584373Q213.225 47.19375 215.00626 47.19375Q216.42813 47.19375 217.4125 45.990623Q218.4125 44.7875 218.4125 42.38125Q218.4125 39.69375 217.44376 38.521873Q216.49063 37.334373 214.975 37.334373Q213.50626 37.334373 212.52188 38.50625Q211.5375 39.6625 211.5375 41.990623ZM224.6 50.1L224.6 46.896873L230.42813 40.19375Q231.86563 38.553123 232.55313 37.865623Q231.83438 37.9125 230.6625 37.928123L225.1625 37.959373L225.1625 34.5375L238.0375 34.5375L238.0375 37.459373L232.08438 44.31875L229.99063 46.584373Q231.70938 46.475 232.11563 46.475L238.49063 46.475L238.49063 50.1L224.6 50.1ZM241.25626 32.428123L241.25626 28.631248L245.36563 28.631248L245.36563 32.428123L241.25626 32.428123ZM241.25626 50.1L241.25626 34.5375L245.36563 34.5375L245.36563 50.1L241.25626 50.1ZM252.33438 39.2875L248.6 38.615623Q249.225 36.365623 250.75626 35.2875Q252.30313 34.19375 255.33438 34.19375Q258.08438 34.19375 259.42813 34.85Q260.7875 35.490623 261.33438 36.50625Q261.88126 37.50625 261.88126 40.178123L261.83438 44.990623Q261.83438 47.0375 262.02188 48.021873Q262.225 48.990623 262.77188 50.1L258.70938 50.1Q258.5375 49.69375 258.30313 48.88125Q258.20938 48.521873 258.1625 48.396873Q257.1 49.428123 255.89688 49.94375Q254.70938 50.459373 253.33438 50.459373Q250.94376 50.459373 249.55313 49.1625Q248.1625 47.85 248.1625 45.85Q248.1625 44.5375 248.7875 43.50625Q249.42813 42.475 250.55313 41.928123Q251.69376 41.365623 253.83438 40.959373Q256.725 40.4125 257.83438 39.94375L257.83438 39.5375Q257.83438 38.35 257.24063 37.85Q256.6625 37.334373 255.0375 37.334373Q253.94376 37.334373 253.31876 37.771873Q252.70938 38.209373 252.33438 39.2875ZM257.83438 42.63125Q257.05313 42.896873 255.33438 43.271873Q253.61563 43.63125 253.08438 43.975Q252.2875 44.553123 252.2875 45.428123Q252.2875 46.2875 252.92813 46.928123Q253.56876 47.553123 254.56876 47.553123Q255.67813 47.553123 256.69376 46.81875Q257.44376 46.25625 257.67813 45.459373Q257.83438 44.928123 257.83438 43.44375L257.83438 42.63125ZM266.25626 50.1L266.25626 28.631248L270.36563 28.631248L270.36563 50.1L266.25626 50.1ZM283.25626 45.146873L287.36563 45.834373Q286.56876 48.1 284.86563 49.2875Q283.1625 50.459373 280.6 50.459373Q276.5375 50.459373 274.58438 47.803123Q273.05313 45.678123 273.05313 42.44375Q273.05313 38.56875 275.06876 36.38125Q277.1 34.19375 280.19376 34.19375Q283.6625 34.19375 285.6625 36.490623Q287.67813 38.771873 287.58438 43.50625L277.27188 43.50625Q277.31876 45.334373 278.27188 46.365623Q279.225 47.38125 280.64688 47.38125Q281.6 47.38125 282.25626 46.85Q282.92813 46.31875 283.25626 45.146873ZM283.49063 40.990623Q283.45938 39.19375 282.56876 38.271873Q281.69376 37.334373 280.42813 37.334373Q279.08438 37.334373 278.20938 38.31875Q277.33438 39.303123 277.35 40.990623L283.49063 40.990623ZM302.14688 50.1L297.225 34.5375L301.225 34.5375L304.14688 44.740623L306.83438 34.5375L310.80313 34.5375L313.39688 44.740623L316.36563 34.5375L320.42813 34.5375L315.42813 50.1L311.475 50.1L308.7875 40.1L306.14688 50.1L302.14688 50.1ZM324.25626 32.428123L324.25626 28.631248L328.36563 28.631248L328.36563 32.428123L324.25626 32.428123ZM324.25626 50.1L324.25626 34.5375L328.36563 34.5375L328.36563 50.1L324.25626 50.1ZM341.25626 45.146873L345.36563 45.834373Q344.56876 48.1 342.86563 49.2875Q341.1625 50.459373 338.6 50.459373Q334.5375 50.459373 332.58438 47.803123Q331.05313 45.678123 331.05313 42.44375Q331.05313 38.56875 333.06876 36.38125Q335.1 34.19375 338.19376 34.19375Q341.6625 34.19375 343.6625 36.490623Q345.67813 38.771873 345.58438 43.50625L335.27188 43.50625Q335.31876 45.334373 336.27188 46.365623Q337.225 47.38125 338.64688 47.38125Q339.6 47.38125 340.25626 46.85Q340.92813 46.31875 341.25626 45.146873ZM341.49063 40.990623Q341.45938 39.19375 340.56876 38.271873Q339.69376 37.334373 338.42813 37.334373Q337.08438 37.334373 336.20938 38.31875Q335.33438 39.303123 335.35 40.990623L341.49063 40.990623ZM349.1 50.1L349.1 28.631248L353.225 28.631248L353.225 40.021873L358.0375 34.5375L363.11563 34.5375L357.7875 40.225L363.49063 50.1L359.05313 50.1L355.14688 43.115623L353.225 45.115623L353.225 50.1L349.1 50.1ZM365.30313 42.1Q365.30313 40.053123 366.30313 38.13125Q367.31876 36.209373 369.1625 35.209373Q371.02188 34.19375 373.31876 34.19375Q376.85 34.19375 379.1 36.490623Q381.35 38.771873 381.35 42.271873Q381.35 45.803123 379.06876 48.13125Q376.80313 50.459373 373.35 50.459373Q371.20938 50.459373 369.25626 49.490623Q367.31876 48.521873 366.30313 46.6625Q365.30313 44.7875 365.30313 42.1ZM369.52188 42.31875Q369.52188 44.63125 370.61563 45.865623Q371.725 47.1 373.33438 47.1Q374.94376 47.1 376.02188 45.865623Q377.11563 44.63125 377.11563 42.2875Q377.11563 40.00625 376.02188 38.7875Q374.94376 37.553123 373.33438 37.553123Q371.725 37.553123 370.61563 38.7875Q369.52188 40.00625 369.52188 42.31875ZM387.14688 50.1L382.225 34.5375L386.225 34.5375L389.14688 44.740623L391.83438 34.5375L395.80313 34.5375L398.39688 44.740623L401.36563 34.5375L405.42813 34.5375L400.42813 50.1L396.475 50.1L393.7875 40.1L391.14688 50.1L387.14688 50.1ZM407.30313 34.5375L411.67813 34.5375L415.4125 45.584373L419.0375 34.5375L423.30313 34.5375L417.80313 49.50625L416.83438 52.225Q416.2875 53.584373 415.7875 54.303123Q415.30313 55.021873 414.6625 55.459373Q414.02188 55.9125 413.08438 56.1625Q412.1625 56.4125 410.99063 56.4125Q409.80313 56.4125 408.6625 56.1625L408.30313 52.94375Q409.27188 53.13125 410.0375 53.13125Q411.475 53.13125 412.1625 52.2875Q412.85 51.44375 413.225 50.146873L407.30313 34.5375ZM424.94376 34.5375L428.74063 34.5375L428.74063 36.6625Q430.77188 34.19375 433.58438 34.19375Q435.08438 34.19375 436.17813 34.81875Q437.2875 35.428123 437.99063 36.6625Q439.00626 35.428123 440.19376 34.81875Q441.38126 34.19375 442.725 34.19375Q444.44376 34.19375 445.63126 34.896873Q446.81876 35.584373 447.39688 36.928123Q447.83438 37.928123 447.83438 40.146873L447.83438 50.1L443.70938 50.1L443.70938 41.209373Q443.70938 38.896873 443.2875 38.225Q442.70938 37.334373 441.52188 37.334373Q440.6625 37.334373 439.89688 37.865623Q439.14688 38.396873 438.80313 39.4125Q438.45938 40.428123 438.45938 42.63125L438.45938 50.1L434.35 50.1L434.35 41.56875Q434.35 39.303123 434.13126 38.646873Q433.9125 37.990623 433.44376 37.6625Q432.99063 37.334373 432.19376 37.334373Q431.24063 37.334373 430.475 37.85Q429.725 38.365623 429.39688 39.334373Q429.06876 40.303123 429.06876 42.5375L429.06876 50.1L424.94376 50.1L424.94376 34.5375ZM459.1625 32.428123L459.1625 28.631248L463.2875 28.631248L463.2875 32.428123L459.1625 32.428123ZM463.2875 34.5375L463.2875 49.615623Q463.2875 52.584373 462.89688 53.803123Q462.50626 55.0375 461.39688 55.725Q460.2875 56.4125 458.58438 56.4125Q457.95938 56.4125 457.24063 56.303123Q456.5375 56.19375 455.725 55.975L456.44376 52.459373Q456.74063 52.521873 456.99063 52.553123Q457.24063 52.584373 457.45938 52.584373Q458.1 52.584373 458.49063 52.31875Q458.89688 52.053123 459.02188 51.6625Q459.1625 51.2875 459.1625 49.38125L459.1625 34.5375L463.2875 34.5375ZM477.25626 45.146873L481.36563 45.834373Q480.56876 48.1 478.86563 49.2875Q477.1625 50.459373 474.6 50.459373Q470.5375 50.459373 468.58438 47.803123Q467.05313 45.678123 467.05313 42.44375Q467.05313 38.56875 469.06876 36.38125Q471.1 34.19375 474.19376 34.19375Q477.6625 34.19375 479.6625 36.490623Q481.67813 38.771873 481.58438 43.50625L471.27188 43.50625Q471.31876 45.334373 472.27188 46.365623Q473.225 47.38125 474.64688 47.38125Q475.6 47.38125 476.25626 46.85Q476.92813 46.31875 477.25626 45.146873ZM477.49063 40.990623Q477.45938 39.19375 476.56876 38.271873Q475.69376 37.334373 474.42813 37.334373Q473.08438 37.334373 472.20938 38.31875Q471.33438 39.303123 471.35 40.990623L477.49063 40.990623ZM483.80313 45.6625L487.92813 45.0375Q488.19376 46.225 488.99063 46.85Q489.80313 47.475 491.25626 47.475Q492.85 47.475 493.6625 46.896873Q494.20938 46.475 494.20938 45.7875Q494.20938 45.31875 493.9125 45.021873Q493.6 44.725 492.5375 44.475Q487.55313 43.38125 486.225 42.475Q484.38126 41.209373 484.38126 38.959373Q484.38126 36.94375 485.975 35.56875Q487.56876 34.19375 490.92813 34.19375Q494.11563 34.19375 495.6625 35.240623Q497.225 36.271873 497.80313 38.303123L493.92813 39.021873Q493.67813 38.115623 492.975 37.63125Q492.2875 37.146873 490.99063 37.146873Q489.36563 37.146873 488.6625 37.6Q488.19376 37.928123 488.19376 38.44375Q488.19376 38.88125 488.61563 39.19375Q489.1625 39.6 492.44376 40.35Q495.74063 41.084373 497.05313 42.178123Q498.33438 43.271873 498.33438 45.240623Q498.33438 47.38125 496.5375 48.928123Q494.75626 50.459373 491.25626 50.459373Q488.08438 50.459373 486.225 49.1625Q484.38126 47.865623 483.80313 45.6625ZM509.38126 34.5375L509.38126 37.81875L506.56876 37.81875L506.56876 44.1Q506.56876 45.990623 506.64688 46.31875Q506.74063 46.63125 507.02188 46.834373Q507.30313 47.0375 507.725 47.0375Q508.2875 47.0375 509.36563 46.646873L509.725 49.834373Q508.2875 50.459373 506.475 50.459373Q505.36563 50.459373 504.45938 50.084373Q503.56876 49.709373 503.14688 49.115623Q502.74063 48.521873 502.56876 47.50625Q502.44376 46.7875 502.44376 44.6L502.44376 37.81875L500.55313 37.81875L500.55313 34.5375L502.44376 34.5375L502.44376 31.459373L506.56876 29.053123L506.56876 34.5375L509.38126 34.5375ZM521.2562 45.146873L525.3656 45.834373Q524.5687 48.1 522.8656 49.2875Q521.1625 50.459373 518.6 50.459373Q514.5375 50.459373 512.58435 47.803123Q511.05313 45.678123 511.05313 42.44375Q511.05313 38.56875 513.0687 36.38125Q515.1 34.19375 518.1937 34.19375Q521.6625 34.19375 523.6625 36.490623Q525.6781 38.771873 525.58435 43.50625L515.27185 43.50625Q515.3187 45.334373 516.27185 46.365623Q517.225 47.38125 518.64685 47.38125Q519.6 47.38125 520.2562 46.85Q520.9281 46.31875 521.2562 45.146873ZM521.4906 40.990623Q521.45935 39.19375 520.5687 38.271873Q519.6937 37.334373 518.4281 37.334373Q517.08435 37.334373 516.20935 38.31875Q515.33435 39.303123 515.35 40.990623L521.4906 40.990623ZM527.8031 45.6625L531.9281 45.0375Q532.1937 46.225 532.9906 46.85Q533.8031 47.475 535.2562 47.475Q536.85 47.475 537.6625 46.896873Q538.20935 46.475 538.20935 45.7875Q538.20935 45.31875 537.9125 45.021873Q537.6 44.725 536.5375 44.475Q531.5531 43.38125 530.225 42.475Q528.3812 41.209373 528.3812 38.959373Q528.3812 36.94375 529.975 35.56875Q531.5687 34.19375 534.9281 34.19375Q538.1156 34.19375 539.6625 35.240623Q541.225 36.271873 541.8031 38.303123L537.9281 39.021873Q537.6781 38.115623 536.975 37.63125Q536.2875 37.146873 534.9906 37.146873Q533.3656 37.146873 532.6625 37.6Q532.1937 37.928123 532.1937 38.44375Q532.1937 38.88125 532.6156 39.19375Q533.1625 39.6 536.4437 40.35Q539.7406 41.084373 541.0531 42.178123Q542.33435 43.271873 542.33435 45.240623Q542.33435 47.38125 540.5375 48.928123Q538.7562 50.459373 535.2562 50.459373Q532.08435 50.459373 530.225 49.1625Q528.3812 47.865623 527.8031 45.6625ZM533.7406 32.63125L535.77185 28.256248L540.3812 28.256248L536.35 32.63125L533.7406 32.63125ZM555.1 44.56875L551.3656 44.56875Q551.35 43.75625 551.35 43.584373Q551.35 41.771873 551.9437 40.6Q552.5531 39.428123 554.35 37.959373Q556.1625 36.490623 556.5062 36.0375Q557.0531 35.31875 557.0531 34.459373Q557.0531 33.25625 556.08435 32.396873Q555.1312 31.537498 553.5062 31.537498Q551.9437 31.537498 550.8812 32.44375Q549.83435 33.334373 549.4281 35.1625L545.64685 34.69375Q545.8187 32.06875 547.8812 30.240623Q549.95935 28.412498 553.33435 28.412498Q556.8812 28.412498 558.975 30.271873Q561.0687 32.115623 561.0687 34.56875Q561.0687 35.928123 560.2875 37.146873Q559.52185 38.365623 557.0062 40.459373Q555.70935 41.5375 555.3812 42.209373Q555.0687 42.865623 555.1 44.56875ZM551.3656 50.1L551.3656 45.990623L555.475 45.990623L555.475 50.1L551.3656 50.1Z" fill-rule="nonzero"/></svg>