<svg width="478" height="43" viewBox="0 0 478 43" fill="none" xmlns="http://www.w3.org/2000/svg">
<rect width="191.7" height="37.2233" transform="translate(0 2.39954)" fill="#4E3189"/>
<path d="M6.20312 13.5665C6.20312 10.8256 8.42517 8.60339 11.1662 8.60339H180.532C183.273 8.60339 185.495 10.8256 185.495 13.5665V32.7986H6.20312V13.5665Z" fill="white" fill-opacity="0.05"/>
<path d="M19.1908 19.6786V20.9311H19.7689C19.8966 20.9311 20.0192 20.982 20.1096 21.0726C20.1999 21.1625 20.2506 21.2854 20.2506 21.4132C20.2506 21.541 20.1999 21.6632 20.1096 21.7538C20.0192 21.8437 19.8966 21.8946 19.7689 21.8946H18.8054C18.7892 21.8946 18.773 21.894 18.7569 21.8921C18.6899 21.8989 18.6221 21.8921 18.5581 21.871C18.4941 21.8499 18.4352 21.8158 18.3853 21.7705C18.3353 21.7252 18.2953 21.67 18.268 21.6086C18.2406 21.5472 18.2266 21.4802 18.2266 21.4132V19.6786C18.2266 19.5508 18.2774 19.4279 18.3678 19.338C18.4582 19.2474 18.5808 19.1965 18.7087 19.1965C18.8366 19.1965 18.9592 19.2474 19.0496 19.338C19.14 19.4279 19.1908 19.5508 19.1908 19.6786Z" fill="white"/>
<path d="M18.7081 17.274C18.2273 17.274 17.7512 17.369 17.307 17.5526C16.8628 17.7368 16.4592 18.0061 16.1192 18.3461C15.7792 18.6861 15.5096 19.0899 15.3256 19.5341C15.1416 19.9783 15.0469 20.4542 15.0469 20.935C15.0469 21.4158 15.1416 21.8922 15.3256 22.3364C15.5096 22.7806 15.7792 23.1839 16.1192 23.5238C16.4592 23.8638 16.8628 24.1337 17.307 24.3179C17.7512 24.5016 18.2273 24.5965 18.7081 24.5965C19.6791 24.5965 20.6104 24.2106 21.297 23.5238C21.9836 22.8377 22.3693 21.9065 22.3693 20.935C22.3693 19.9641 21.9836 19.0328 21.297 18.3461C20.6104 17.6599 19.6791 17.274 18.7081 17.274ZM16.0103 20.935C16.0103 20.2197 16.2946 19.5335 16.8005 19.0279C17.3065 18.5216 17.9926 18.2375 18.7081 18.2375C19.4236 18.2375 20.1098 18.5216 20.6157 19.0279C21.1217 19.5335 21.4059 20.2197 21.4059 20.935C21.4059 21.6509 21.1217 22.337 20.6157 22.8426C20.1098 23.3489 19.4236 23.633 18.7081 23.633C17.9926 23.633 17.3065 23.3489 16.8005 22.8426C16.2946 22.337 16.0103 21.6509 16.0103 20.935Z" fill="white"/>
<path fill-rule="evenodd" clip-rule="evenodd" d="M12.8163 14.7514C13.1777 14.3898 13.6679 14.1869 14.1789 14.1869H23.0429C23.296 14.1869 23.5466 14.2365 23.7804 14.3333C24.0142 14.4301 24.2266 14.5722 24.4056 14.7514C24.5845 14.9301 24.7264 15.1429 24.8233 15.3762C24.9201 15.6101 24.9699 15.8607 24.9699 16.1138V27.0978C24.9699 27.251 24.909 27.3981 24.8006 27.506C24.6922 27.6146 24.5451 27.6754 24.3918 27.6754H13.4081H12.252V16.1138C12.252 15.6026 12.4549 15.1125 12.8163 14.7514ZM13.4081 26.5196H23.8138V16.1138C23.8138 15.9097 23.7326 15.7137 23.588 15.5691C23.4435 15.4246 23.2474 15.3433 23.0429 15.3433H14.1789C13.9745 15.3433 13.7784 15.4246 13.6339 15.5691C13.4893 15.7137 13.4081 15.9097 13.4081 16.1138V26.5196Z" fill="white"/>
<path d="M31.8945 26.5946H37.2119V25.543H33.4554V25.4555L37.1194 20.4341V19.6009H31.9963V20.6525H35.5734V20.7393L31.8945 25.7608V26.5946ZM40.5018 26.7013C41.9411 26.7013 42.649 25.8724 42.8183 25.1888L42.8326 25.1453H41.6843L41.6694 25.1794C41.5534 25.4214 41.1799 25.7514 40.526 25.7514C39.7065 25.7514 39.1928 25.1987 39.1785 24.2489H42.8816V23.8512C42.8816 22.2518 41.951 21.1953 40.4435 21.1953C38.9359 21.1953 37.9712 22.286 37.9712 23.9529V23.9579C37.9712 25.6447 38.9266 26.7013 40.5018 26.7013ZM40.4578 22.1402C41.1315 22.1402 41.621 22.572 41.7035 23.4393H39.1878C39.2803 22.5962 39.784 22.1402 40.4578 22.1402ZM46.1132 28.4557C47.6592 28.4557 48.6382 27.6852 48.6382 26.4637V21.2971H47.4315V22.1693H47.3683C47.068 21.5682 46.496 21.2096 45.7639 21.2096C44.3972 21.2096 43.5634 22.2661 43.5634 23.7978V23.8078C43.5634 25.3103 44.3972 26.3476 45.7397 26.3476C46.4718 26.3476 47.0488 26.0374 47.354 25.4704H47.4365V26.4829C47.4365 27.1616 46.9563 27.5444 46.1325 27.5444C45.4587 27.5444 45.0567 27.3068 44.9742 26.968L44.9692 26.9531H43.7626L43.7576 26.968C43.8786 27.8595 44.7173 28.4557 46.1132 28.4557ZM46.1132 25.3879C45.2745 25.3879 44.7999 24.7433 44.7999 23.8078V23.7978C44.7999 22.8623 45.2745 22.2134 46.1132 22.2134C46.9464 22.2134 47.4557 22.8623 47.4557 23.7978V23.8078C47.4557 24.7433 46.9514 25.3879 46.1132 25.3879ZM51.3077 26.682C52.0057 26.682 52.5677 26.3811 52.8587 25.8675H52.9412V26.5946H54.1336V22.974C54.1336 21.8542 53.3674 21.1953 52.0057 21.1953C50.7457 21.1953 49.8926 21.7865 49.776 22.6787L49.771 22.7221H50.9101L50.915 22.7029C51.036 22.3536 51.3952 22.1551 51.9473 22.1551C52.5969 22.1551 52.9412 22.4454 52.9412 22.974V23.4293L51.5788 23.5118C50.2897 23.5894 49.5675 24.1422 49.5675 25.087V25.0969C49.5675 26.0616 50.2996 26.682 51.3077 26.682ZM50.7599 25.0386V25.0293C50.7599 24.5926 51.0751 24.3456 51.7488 24.3022L52.9412 24.2247V24.6509C52.9412 25.2812 52.4033 25.7558 51.6762 25.7558C51.1427 25.7558 50.7599 25.4896 50.7599 25.0386ZM55.3297 26.5946H56.5364V23.5168C56.5364 22.7606 57.0643 22.281 57.869 22.281C58.0774 22.281 58.2766 22.3102 58.4701 22.3486V21.2679C58.3541 21.2338 58.1649 21.2096 57.9806 21.2096C57.2827 21.2096 56.7982 21.544 56.6189 22.111H56.5364V21.2971H55.3297V26.5946ZM59.8213 28.4557C60.9945 28.4557 61.6 28.0339 62.056 26.7062L63.9556 21.2971H62.6857L61.4548 25.4363H61.3624L60.1266 21.2971H58.8082L60.7035 26.5995L60.6402 26.8415C60.5093 27.3217 60.214 27.5251 59.7196 27.5251C59.5936 27.5251 59.4578 27.5202 59.361 27.5109V28.4365C59.5062 28.4508 59.6762 28.4557 59.8213 28.4557ZM68.1414 26.5946H69.3914L70.4188 22.7556H70.5013L71.5336 26.5946H72.7986L74.2336 21.2971H73.0362L72.159 25.2762H72.0765L71.0491 21.2971H69.9008L68.8827 25.2762H68.8002L67.918 21.2971H66.7064L68.1414 26.5946ZM79.4268 26.7013C80.7309 26.7013 81.6758 26.0275 81.6758 25.0194V25.0095C81.6758 24.2389 81.1863 23.7978 80.149 23.5652L79.2916 23.376C78.7196 23.2457 78.4963 23.0565 78.4963 22.7463V22.7413C78.4963 22.3437 78.884 22.0825 79.4225 22.0825C79.9895 22.0825 80.3382 22.3536 80.4257 22.688L80.4306 22.7029H81.5647V22.6929C81.4872 21.8349 80.7166 21.1953 79.4268 21.1953C78.1768 21.1953 77.3045 21.8542 77.3045 22.809V22.8139C77.3045 23.5944 77.7841 24.0696 78.7922 24.2923L79.6502 24.4865C80.2315 24.6168 80.4641 24.8209 80.4641 25.1311V25.1404C80.4641 25.538 80.0472 25.8092 79.4467 25.8092C78.8455 25.8092 78.4919 25.5523 78.3654 25.1844L78.361 25.1745H77.1637V25.1844C77.2654 26.0809 78.08 26.7013 79.4268 26.7013ZM82.6392 28.354H83.8465V25.7514H83.9284C84.2051 26.3228 84.8106 26.682 85.5377 26.682C86.8802 26.682 87.714 25.6398 87.714 23.9529V23.9436C87.714 22.2661 86.8659 21.2096 85.5377 21.2096C84.7963 21.2096 84.2193 21.5489 83.9284 22.1259H83.8465V21.2971H82.6392V28.354ZM85.1599 25.664C84.3409 25.664 83.8316 25.0095 83.8316 23.948V23.9387C83.8316 22.8772 84.3409 22.2276 85.1599 22.2276C85.9837 22.2276 86.4832 22.8772 86.4832 23.9436V23.9529C86.4832 25.0144 85.9837 25.664 85.1599 25.664ZM88.6775 26.5946H89.8841V23.5168C89.8841 22.7606 90.4127 22.281 91.2173 22.281C91.4258 22.281 91.6243 22.3102 91.8179 22.3486V21.2679C91.7019 21.2338 91.5126 21.2096 91.3284 21.2096C90.6305 21.2096 90.1459 21.544 89.9666 22.111H89.8841V21.2971H88.6775V26.5946ZM92.4327 26.5946H96.727V25.664H93.9595V25.5765L96.683 22.1017V21.2971H92.4569V22.2326H95.2585V22.3151L92.4327 25.8575V26.5946ZM99.9586 26.7013C101.398 26.7013 102.106 25.8724 102.275 25.1888L102.29 25.1453H101.141L101.127 25.1794C101.01 25.4214 100.637 25.7514 99.9828 25.7514C99.1639 25.7514 98.6502 25.1987 98.6353 24.2489H102.338V23.8512C102.338 22.2518 101.408 21.1953 99.9003 21.1953C98.3934 21.1953 97.4287 22.286 97.4287 23.9529V23.9579C97.4287 25.6447 98.3834 26.7013 99.9586 26.7013ZM99.9152 22.1402C100.589 22.1402 101.078 22.572 101.16 23.4393H98.6452C98.7371 22.5962 99.2414 22.1402 99.9152 22.1402ZM105.202 26.682C105.948 26.682 106.52 26.3427 106.811 25.7657H106.893V26.5946H108.105V19.2467H106.893V22.1402H106.811C106.535 21.5682 105.929 21.2096 105.202 21.2096C103.859 21.2096 103.03 22.2568 103.03 23.9436V23.9529C103.03 25.6299 103.874 26.682 105.202 26.682ZM105.58 25.664C104.756 25.664 104.257 25.0194 104.257 23.9529V23.9436C104.257 22.8772 104.76 22.2276 105.58 22.2276C106.399 22.2276 106.913 22.8821 106.913 23.9436V23.9529C106.913 25.0144 106.404 25.664 105.58 25.664ZM110.813 26.682C111.511 26.682 112.074 26.3811 112.364 25.8675H112.446V26.5946H113.639V22.974C113.639 21.8542 112.873 21.1953 111.511 21.1953C110.251 21.1953 109.398 21.7865 109.282 22.6787L109.277 22.7221H110.416L110.421 22.7029C110.542 22.3536 110.9 22.1551 111.453 22.1551C112.103 22.1551 112.446 22.4454 112.446 22.974V23.4293L111.085 23.5118C109.796 23.5894 109.073 24.1422 109.073 25.087V25.0969C109.073 26.0616 109.805 26.682 110.813 26.682ZM110.266 25.0386V25.0293C110.266 24.5926 110.58 24.3456 111.254 24.3022L112.446 24.2247V24.6509C112.446 25.2812 111.909 25.7558 111.181 25.7558C110.649 25.7558 110.266 25.4896 110.266 25.0386ZM116.837 20.4248C117.234 20.4248 117.554 20.1047 117.554 19.712C117.554 19.3193 117.234 18.9998 116.837 18.9998C116.444 18.9998 116.119 19.3193 116.119 19.712C116.119 20.1047 116.444 20.4248 116.837 20.4248ZM114.714 26.5946H119.008V25.664H116.241V25.5765L118.964 22.1017V21.2971H114.738V22.2326H117.539V22.3151L114.714 25.8575V26.5946ZM120.674 28.4557C121.847 28.4557 122.453 28.0339 122.909 26.7062L124.808 21.2971H123.539L122.307 25.4363H122.216L120.98 21.2971H119.662L121.556 26.5995L121.494 26.8415C121.363 27.3217 121.067 27.5251 120.572 27.5251C120.446 27.5251 120.31 27.5202 120.214 27.5109V28.4365C120.359 28.4508 120.529 28.4557 120.674 28.4557Z" fill="white"/>
<path d="M185.495 32.7986H6.20312V33.419H185.495V32.7986Z" fill="white"/>
<path d="M250.664 21.0112L238.233 4.65869V13.7253L218.7 13.7434V28.279H238.233V37.3638L250.664 21.0112Z" stroke="black" stroke-width="3.6339" stroke-linecap="round" stroke-linejoin="round"/>
<rect width="200.223" height="42.0224" transform="translate(277.664)" fill="#4E3189"/>
<path d="M279.664 12.8635C279.664 9.86364 282.096 7.43176 285.096 7.43176H470.455C473.455 7.43176 475.887 9.86365 475.887 12.8635V33.9116H279.664V12.8635Z" fill="white" fill-opacity="0.05"/>
<g clip-path="url(#clip0)">
<path d="M300.214 24.5184H290.167L290.671 23.491L299.053 23.4758C299.337 23.4758 299.58 23.2733 299.63 22.9932L300.791 16.496C300.821 16.3256 300.776 16.1502 300.664 16.0169C300.609 15.9513 300.541 15.8985 300.463 15.862C300.386 15.8256 300.301 15.8065 300.216 15.806L289.553 15.7706L289.462 15.342C289.404 15.0687 289.158 14.8696 288.878 14.8696H286.271C286.113 14.8696 285.962 14.9324 285.85 15.0441C285.739 15.1558 285.676 15.3072 285.676 15.4652C285.676 15.6231 285.739 15.7746 285.85 15.8863C285.962 15.998 286.113 16.0608 286.271 16.0608H288.395L288.794 17.9537L289.774 22.6997L288.512 24.7597C288.446 24.8481 288.407 24.9532 288.398 25.0629C288.389 25.1726 288.411 25.2827 288.461 25.3806C288.562 25.5813 288.767 25.7079 288.993 25.7079H290.052C289.826 26.0079 289.704 26.3733 289.705 26.7488C289.705 27.7038 290.481 28.4799 291.436 28.4799C292.391 28.4799 293.167 27.7038 293.167 26.7488C293.167 26.3726 293.042 26.0065 292.819 25.7079H295.537C295.311 26.0079 295.189 26.3733 295.19 26.7488C295.19 27.7038 295.966 28.4799 296.921 28.4799C297.876 28.4799 298.652 27.7038 298.652 26.7488C298.652 26.3726 298.527 26.0065 298.304 25.7079H300.216C300.543 25.7079 300.811 25.4413 300.811 25.1123C300.81 24.9545 300.747 24.8035 300.635 24.6923C300.523 24.581 300.372 24.5185 300.214 24.5184ZM289.801 16.9448L299.515 16.9769L298.564 22.3049L290.933 22.3184L289.801 16.9448ZM291.436 27.282C291.142 27.282 290.903 27.0424 290.903 26.7488C290.903 26.4553 291.142 26.2157 291.436 26.2157C291.729 26.2157 291.969 26.4553 291.969 26.7488C291.969 26.8902 291.913 27.0258 291.813 27.1258C291.713 27.2258 291.577 27.282 291.436 27.282ZM296.921 27.282C296.627 27.282 296.387 27.0424 296.387 26.7488C296.387 26.4553 296.627 26.2157 296.921 26.2157C297.214 26.2157 297.454 26.4553 297.454 26.7488C297.454 26.8902 297.398 27.0258 297.298 27.1258C297.198 27.2258 297.062 27.282 296.921 27.282Z" fill="white"/>
<path d="M300.214 24.5184H290.167L290.671 23.491L299.053 23.4758C299.337 23.4758 299.58 23.2733 299.63 22.9932L300.791 16.496C300.821 16.3256 300.776 16.1502 300.664 16.0169C300.609 15.9513 300.541 15.8985 300.463 15.862C300.386 15.8256 300.301 15.8065 300.216 15.806L289.553 15.7706L289.462 15.342C289.404 15.0687 289.158 14.8696 288.878 14.8696H286.271C286.113 14.8696 285.962 14.9324 285.85 15.0441C285.739 15.1558 285.676 15.3072 285.676 15.4652C285.676 15.6231 285.739 15.7746 285.85 15.8863C285.962 15.998 286.113 16.0608 286.271 16.0608H288.395L288.794 17.9537L289.774 22.6997L288.512 24.7597C288.446 24.8481 288.407 24.9532 288.398 25.0629C288.389 25.1726 288.411 25.2827 288.461 25.3806C288.562 25.5813 288.767 25.7079 288.993 25.7079H290.052C289.826 26.0079 289.704 26.3733 289.705 26.7488C289.705 27.7038 290.481 28.4799 291.436 28.4799C292.391 28.4799 293.167 27.7038 293.167 26.7488C293.167 26.3726 293.042 26.0065 292.819 25.7079H295.537C295.311 26.0079 295.189 26.3733 295.19 26.7488C295.19 27.7038 295.966 28.4799 296.921 28.4799C297.876 28.4799 298.652 27.7038 298.652 26.7488C298.652 26.3726 298.527 26.0065 298.304 25.7079H300.216C300.543 25.7079 300.811 25.4413 300.811 25.1123C300.81 24.9545 300.747 24.8035 300.635 24.6923C300.523 24.581 300.372 24.5185 300.214 24.5184ZM289.801 16.9448L299.515 16.9769L298.564 22.3049L290.933 22.3184L289.801 16.9448ZM291.436 27.282C291.142 27.282 290.903 27.0424 290.903 26.7488C290.903 26.4553 291.142 26.2157 291.436 26.2157C291.729 26.2157 291.969 26.4553 291.969 26.7488C291.969 26.8902 291.913 27.0258 291.813 27.1258C291.713 27.2258 291.577 27.282 291.436 27.282ZM296.921 27.282C296.627 27.282 296.387 27.0424 296.387 26.7488C296.387 26.4553 296.627 26.2157 296.921 26.2157C297.214 26.2157 297.454 26.4553 297.454 26.7488C297.454 26.8902 297.398 27.0258 297.298 27.1258C297.198 27.2258 297.062 27.282 296.921 27.282Z" stroke="white"/>
</g>
<path d="M308.114 26.4799H309.482V24.0186L310.299 23.0691L312.718 26.4799H314.389L311.275 22.162L314.161 18.8255H312.591L309.572 22.3636H309.482V18.8255H308.114V26.4799ZM316.759 26.5966C317.597 26.5966 318.186 26.2199 318.456 25.5993H318.546V26.4799H319.867V20.6821H318.546V24.061C318.546 24.931 318.09 25.4826 317.236 25.4826C316.44 25.4826 316.106 25.0264 316.106 24.13V20.6821H314.785V24.4323C314.785 25.8115 315.454 26.5966 316.759 26.5966ZM321.203 28.4054H322.523V25.5569H322.614C322.916 26.1828 323.579 26.5753 324.375 26.5753C325.844 26.5753 326.756 25.4349 326.756 23.5889V23.5783C326.756 21.743 325.828 20.5866 324.375 20.5866C323.563 20.5866 322.932 20.9579 322.614 21.5891H322.523V20.6821H321.203V28.4054ZM323.961 25.4614C323.064 25.4614 322.507 24.7453 322.507 23.5836V23.573C322.507 22.4113 323.064 21.7005 323.961 21.7005C324.863 21.7005 325.409 22.4113 325.409 23.5783V23.5889C325.409 24.7506 324.863 25.4614 323.961 25.4614ZM330.297 26.4799H334.997V25.4614H331.968V25.3659L334.949 21.5626V20.6821H330.324V21.7058H333.39V21.796L330.297 25.6736V26.4799ZM338.534 26.5966C340.109 26.5966 340.884 25.6895 341.07 24.9416L341.085 24.8938H339.828L339.812 24.931C339.685 25.1962 339.277 25.5569 338.561 25.5569C337.664 25.5569 337.102 24.9522 337.086 23.9125H341.138V23.4775C341.138 21.7271 340.12 20.5707 338.47 20.5707C336.821 20.5707 335.765 21.7642 335.765 23.5889V23.5942C335.765 25.4402 336.81 26.5966 338.534 26.5966ZM338.486 21.6051C339.224 21.6051 339.759 22.0772 339.849 23.0267H337.096C337.197 22.1037 337.749 21.6051 338.486 21.6051ZM344.675 28.5168C346.367 28.5168 347.439 27.6734 347.439 26.3366V20.6821H346.118V21.6369H346.049C345.72 20.9791 345.094 20.5866 344.293 20.5866C342.798 20.5866 341.885 21.743 341.885 23.4192V23.4298C341.885 25.0742 342.798 26.2093 344.267 26.2093C345.068 26.2093 345.699 25.8698 346.033 25.2492H346.123V26.3579C346.123 27.1005 345.598 27.5195 344.697 27.5195C343.959 27.5195 343.519 27.2596 343.429 26.8883L343.424 26.8724H342.103L342.097 26.8883C342.23 27.8643 343.148 28.5168 344.675 28.5168ZM344.675 25.159C343.758 25.159 343.238 24.4536 343.238 23.4298V23.4192C343.238 22.3954 343.758 21.6846 344.675 21.6846C345.588 21.6846 346.145 22.3954 346.145 23.4192V23.4298C346.145 24.4536 345.593 25.159 344.675 25.159ZM350.361 26.5753C351.124 26.5753 351.74 26.2465 352.058 25.6842H352.148V26.4799H353.453V22.5174C353.453 21.2921 352.615 20.5707 351.124 20.5707C349.745 20.5707 348.812 21.2178 348.684 22.1939L348.679 22.2416H349.926L349.931 22.2204C350.063 21.8385 350.456 21.621 351.061 21.621C351.772 21.621 352.148 21.9392 352.148 22.5174V23.016L350.658 23.1062C349.247 23.1911 348.456 23.7958 348.456 24.8302V24.8408C348.456 25.8964 349.257 26.5753 350.361 26.5753ZM349.761 24.7771V24.7665C349.761 24.2891 350.106 24.0186 350.843 23.9708L352.148 23.886V24.3528C352.148 25.0424 351.559 25.5622 350.764 25.5622C350.18 25.5622 349.761 25.2704 349.761 24.7771ZM354.762 26.4799H356.083V23.1115C356.083 22.284 356.661 21.7589 357.542 21.7589C357.77 21.7589 357.987 21.7907 358.199 21.8332V20.6503C358.072 20.6131 357.865 20.5866 357.664 20.5866C356.9 20.5866 356.369 20.9526 356.173 21.5732H356.083V20.6821H354.762V26.4799Z" fill="white"/>
<path d="M279.664 12.8635C279.664 9.86364 282.096 7.43176 285.096 7.43176H470.455C473.455 7.43176 475.887 9.86365 475.887 12.8635V33.9116H279.664V12.8635Z" stroke="white"/>
<rect x="279.664" y="33.9116" width="196.223" height="0.678971" fill="white"/>
<defs>
<clipPath id="clip0">
<rect width="16.2953" height="16.2953" fill="white" transform="translate(285.096 12.1846)"/>
</clipPath>
</defs>
</svg>
