<svg width="371" height="51" viewBox="0 0 371 51" fill="none" xmlns="http://www.w3.org/2000/svg">
<rect width="44" height="44" transform="translate(0 3.08301)" fill="white"/>
<path d="M22 37.083C28.627 37.083 34 31.7104 34 25.083C34 18.4556 28.627 13.083 22 13.083C15.373 13.083 10 18.4556 10 25.083C10 31.7104 15.373 37.083 22 37.083Z" fill="#4E3189"/>
<path d="M20.8555 23.9404H23.1414V30.2261H20.8555V23.9404Z" fill="white"/>
<path d="M22.0013 22.2259C22.7903 22.2259 23.4293 21.5863 23.4293 20.7973C23.4293 20.0083 22.7903 19.3687 22.0013 19.3687C21.2123 19.3687 20.5723 20.0083 20.5723 20.7973C20.5723 21.5863 21.2123 22.2259 22.0013 22.2259Z" fill="white"/>
<path d="M82.9102 25.0829L73.223 12.3394V19.4049L58.0003 19.4191V30.7467H73.223V37.8265L82.9102 25.0829Z" stroke="black" stroke-width="2.8319" stroke-linecap="round" stroke-linejoin="round"/>
<rect width="273.394" height="50.1659" transform="translate(96.9102)" fill="white"/>
<rect x="118.977" y="10" width="229.261" height="30.1659" rx="10.5581" fill="#4E3189"/>
<path d="M146.666 24.0139H149.517V31.8549H146.666V24.0139Z" fill="white"/>
<path d="M148.091 21.8751C149.075 21.8751 149.873 21.0773 149.873 20.0931C149.873 19.1089 149.075 18.311 148.091 18.311C147.106 18.311 146.309 19.1089 146.309 20.0931C146.309 21.0773 147.106 21.8751 148.091 21.8751Z" fill="white"/>
<path d="M163.987 28.583H170.45V27.3045H165.884V27.1984L170.338 21.0946V20.0812H164.111V21.3597H168.459V21.4657L163.987 27.5696V28.583ZM173.92 28.6891C174.769 28.6891 175.452 28.3238 175.806 27.6992H175.906V28.583H177.355V24.1818C177.355 22.8208 176.424 22.0196 174.769 22.0196C173.237 22.0196 172.2 22.7384 172.059 23.8224L172.053 23.8755H173.437L173.443 23.8519C173.59 23.4277 174.026 23.1861 174.698 23.1861C175.488 23.1861 175.906 23.5396 175.906 24.1818V24.7357L174.25 24.8358C172.683 24.9301 171.805 25.6018 171.805 26.7507V26.7624C171.805 27.9349 172.695 28.6891 173.92 28.6891ZM173.255 26.6917V26.68C173.255 26.1497 173.638 25.8492 174.457 25.7962L175.906 25.7019V26.2204C175.906 26.9863 175.252 27.5637 174.368 27.5637C173.72 27.5637 173.255 27.2397 173.255 26.6917ZM179.176 28.583H180.643V26.3206L181.156 25.7962L183.224 28.583H184.991L182.222 24.8653L184.814 22.1433H183.118L180.743 24.7828H180.643V19.6511H179.176V28.583ZM186.116 28.583H187.583V24.8417C187.583 23.9226 188.226 23.3393 189.204 23.3393C189.457 23.3393 189.699 23.3747 189.934 23.4218V22.1079C189.793 22.0667 189.563 22.0372 189.339 22.0372C188.491 22.0372 187.902 22.4438 187.684 23.1331H187.583V22.1433H186.116V28.583ZM193.729 28.7126C195.478 28.7126 196.339 27.7051 196.545 26.8744L196.563 26.8214H195.166L195.149 26.8626C195.007 27.1572 194.553 27.5578 193.758 27.5578C192.762 27.5578 192.138 26.8862 192.12 25.7314H196.621V25.2483C196.621 23.304 195.49 22.0196 193.658 22.0196C191.826 22.0196 190.653 23.3452 190.653 25.372V25.3779C190.653 27.4282 191.814 28.7126 193.729 28.7126ZM193.676 23.1685C194.495 23.1685 195.09 23.6928 195.19 24.7475H192.132C192.244 23.7223 192.857 23.1685 193.676 23.1685ZM200.522 28.7126C202.107 28.7126 203.256 27.8937 203.256 26.6682V26.6564C203.256 25.7196 202.661 25.1835 201.4 24.9006L200.357 24.6709C199.662 24.5118 199.391 24.282 199.391 23.9049V23.899C199.391 23.4159 199.862 23.0978 200.516 23.0978C201.205 23.0978 201.629 23.4277 201.736 23.8342L201.741 23.8519H203.12V23.8401C203.026 22.7973 202.089 22.0196 200.522 22.0196C199.002 22.0196 197.941 22.8208 197.941 23.9815V23.9874C197.941 24.936 198.525 25.5134 199.75 25.7844L200.793 26.0201C201.5 26.1792 201.783 26.4266 201.783 26.8037V26.8155C201.783 27.2986 201.276 27.6285 200.545 27.6285C199.815 27.6285 199.385 27.3163 199.232 26.8685L199.226 26.8567H197.77V26.8685C197.894 27.9585 198.884 28.7126 200.522 28.7126ZM207.951 28.583H209.418V24.8417C209.418 23.9226 210.061 23.3393 211.039 23.3393C211.292 23.3393 211.534 23.3747 211.769 23.4218V22.1079C211.628 22.0667 211.398 22.0372 211.174 22.0372C210.326 22.0372 209.737 22.4438 209.519 23.1331H209.418V22.1433H207.951V28.583ZM215.564 28.7126C217.313 28.7126 218.174 27.7051 218.38 26.8744L218.397 26.8214H217.001L216.983 26.8626C216.842 27.1572 216.388 27.5578 215.593 27.5578C214.597 27.5578 213.973 26.8862 213.955 25.7314H218.456V25.2483C218.456 23.304 217.325 22.0196 215.493 22.0196C213.66 22.0196 212.488 23.3452 212.488 25.372V25.3779C212.488 27.4282 213.649 28.7126 215.564 28.7126ZM215.511 23.1685C216.329 23.1685 216.925 23.6928 217.025 24.7475H213.967C214.079 23.7223 214.692 23.1685 215.511 23.1685ZM221.679 28.6891C222.528 28.6891 223.211 28.3238 223.565 27.6992H223.665V28.583H225.114V24.1818C225.114 22.8208 224.183 22.0196 222.528 22.0196C220.996 22.0196 219.959 22.7384 219.817 23.8224L219.812 23.8755H221.196L221.202 23.8519C221.349 23.4277 221.785 23.1861 222.457 23.1861C223.246 23.1861 223.665 23.5396 223.665 24.1818V24.7357L222.009 24.8358C220.442 24.9301 219.564 25.6018 219.564 26.7507V26.7624C219.564 27.9349 220.454 28.6891 221.679 28.6891ZM221.013 26.6917V26.68C221.013 26.1497 221.396 25.8492 222.215 25.7962L223.665 25.7019V26.2204C223.665 26.9863 223.011 27.5637 222.127 27.5637C221.479 27.5637 221.013 27.2397 221.013 26.6917ZM226.935 28.583H228.402V19.6511H226.935V28.583ZM231.012 21.0651C231.489 21.0651 231.884 20.6821 231.884 20.199C231.884 19.7218 231.489 19.3329 231.012 19.3329C230.529 19.3329 230.134 19.7218 230.134 20.199C230.134 20.6821 230.529 21.0651 231.012 21.0651ZM230.275 28.583H231.742V22.1433H230.275V28.583ZM233.398 28.583H238.618V27.4518H235.254V27.3457L238.565 23.1213V22.1433H233.427V23.2804H236.833V23.3806L233.398 27.6875V28.583ZM242.878 28.7126C244.804 28.7126 245.977 27.4518 245.977 25.3661V25.3543C245.977 23.2804 244.799 22.0196 242.878 22.0196C240.963 22.0196 239.779 23.2863 239.779 25.3543V25.3661C239.779 27.4518 240.945 28.7126 242.878 28.7126ZM242.878 27.5225C241.859 27.5225 241.275 26.7271 241.275 25.372V25.3602C241.275 24.0051 241.859 23.2038 242.878 23.2038C243.891 23.2038 244.474 24.0051 244.474 25.3602V25.372C244.474 26.7271 243.897 27.5225 242.878 27.5225ZM248.416 28.583H249.936L251.185 23.9167H251.285L252.54 28.583H254.078L255.822 22.1433H254.367L253.3 26.9804H253.2L251.951 22.1433H250.555L249.318 26.9804H249.217L248.145 22.1433H246.672L248.416 28.583ZM258.68 28.6891C259.528 28.6891 260.211 28.3238 260.565 27.6992H260.665V28.583H262.114V24.1818C262.114 22.8208 261.184 22.0196 259.528 22.0196C257.996 22.0196 256.959 22.7384 256.818 23.8224L256.812 23.8755H258.196L258.202 23.8519C258.35 23.4277 258.786 23.1861 259.457 23.1861C260.247 23.1861 260.665 23.5396 260.665 24.1818V24.7357L259.01 24.8358C257.442 24.9301 256.564 25.6018 256.564 26.7507V26.7624C256.564 27.9349 257.454 28.6891 258.68 28.6891ZM258.014 26.6917V26.68C258.014 26.1497 258.397 25.8492 259.216 25.7962L260.665 25.7019V26.2204C260.665 26.9863 260.011 27.5637 259.127 27.5637C258.479 27.5637 258.014 27.2397 258.014 26.6917ZM263.876 28.583H265.343V24.8299C265.343 23.8637 265.885 23.2509 266.757 23.2509C267.647 23.2509 268.053 23.7576 268.053 24.7592V28.583H269.52V24.4175C269.52 22.8857 268.737 22.0196 267.299 22.0196C266.368 22.0196 265.75 22.4379 265.443 23.1272H265.343V22.1433H263.876V28.583ZM271.742 30.8455C273.167 30.8455 273.904 30.3329 274.458 28.7185L276.767 22.1433H275.224L273.727 27.1749H273.615L272.113 22.1433H270.51L272.814 28.5889L272.737 28.8835C272.578 29.4668 272.219 29.7142 271.618 29.7142C271.465 29.7142 271.3 29.7083 271.182 29.6966V30.8219C271.359 30.8396 271.565 30.8455 271.742 30.8455ZM280.532 28.7126C282.164 28.7126 283.113 27.8348 283.325 26.515L283.337 26.4679L281.952 26.4738L281.94 26.4973C281.758 27.1749 281.292 27.5225 280.532 27.5225C279.536 27.5225 278.941 26.7212 278.941 25.3543V25.3425C278.941 23.9933 279.531 23.2038 280.532 23.2038C281.333 23.2038 281.811 23.6516 281.946 24.2761L281.952 24.2938H283.337V24.2702C283.172 22.9387 282.182 22.0196 280.526 22.0196C278.588 22.0196 277.451 23.2627 277.451 25.3425V25.3543C277.451 27.4577 278.594 28.7126 280.532 28.7126ZM284.792 28.583H286.259V24.8299C286.259 23.8637 286.801 23.2509 287.673 23.2509C288.563 23.2509 288.969 23.7576 288.969 24.7592V28.583H290.436V24.4175C290.436 22.8857 289.653 22.0196 288.215 22.0196C287.284 22.0196 286.666 22.4379 286.359 23.1272H286.259V19.6511H284.792V28.583ZM297.518 28.7126C298.449 28.7126 299.103 28.2943 299.404 27.605H299.504V28.583H300.971V22.1433H299.504V25.8964C299.504 26.8626 298.997 27.4754 298.048 27.4754C297.165 27.4754 296.794 26.9687 296.794 25.9729V22.1433H295.326V26.3088C295.326 27.8406 296.069 28.7126 297.518 28.7126ZM305.195 28.7126C306.78 28.7126 307.929 27.8937 307.929 26.6682V26.6564C307.929 25.7196 307.334 25.1835 306.073 24.9006L305.03 24.6709C304.335 24.5118 304.064 24.282 304.064 23.9049V23.899C304.064 23.4159 304.535 23.0978 305.189 23.0978C305.879 23.0978 306.303 23.4277 306.409 23.8342L306.415 23.8519H307.793V23.8401C307.699 22.7973 306.762 22.0196 305.195 22.0196C303.675 22.0196 302.615 22.8208 302.615 23.9815V23.9874C302.615 24.936 303.198 25.5134 304.423 25.7844L305.466 26.0201C306.173 26.1792 306.456 26.4266 306.456 26.8037V26.8155C306.456 27.2986 305.949 27.6285 305.219 27.6285C304.488 27.6285 304.058 27.3163 303.905 26.8685L303.899 26.8567H302.444V26.8685C302.567 27.9585 303.557 28.7126 305.195 28.7126ZM309.856 28.583H311.323V24.2408L312.336 23.7341V22.6559L311.323 23.1626V19.6511H309.856V23.899L308.83 24.4116V25.4898L309.856 24.9772V28.583ZM315.688 28.7126C316.619 28.7126 317.273 28.2943 317.574 27.605H317.674V28.583H319.141V22.1433H317.674V25.8964C317.674 26.8626 317.167 27.4754 316.219 27.4754C315.335 27.4754 314.964 26.9687 314.964 25.9729V22.1433H313.497V26.3088C313.497 27.8406 314.239 28.7126 315.688 28.7126ZM323.701 30.8455C325.581 30.8455 326.771 29.9087 326.771 28.4239V22.1433H325.304V23.2038H325.227C324.862 22.4732 324.167 22.0372 323.277 22.0372C321.616 22.0372 320.602 23.3216 320.602 25.1835V25.1952C320.602 27.0217 321.616 28.2825 323.248 28.2825C324.137 28.2825 324.838 27.9055 325.21 27.2161H325.31V28.4475C325.31 29.2723 324.726 29.7378 323.725 29.7378C322.906 29.7378 322.417 29.4491 322.317 29.0367L322.311 29.019H320.844L320.838 29.0367C320.985 30.1208 322.004 30.8455 323.701 30.8455ZM323.701 27.116C322.682 27.116 322.105 26.3323 322.105 25.1952V25.1835C322.105 24.0463 322.682 23.2568 323.701 23.2568C324.715 23.2568 325.333 24.0463 325.333 25.1835V25.1952C325.333 26.3323 324.721 27.116 323.701 27.116Z" fill="white"/>
</svg>
