<svg version="1.1" viewBox="0.0 0.0 1132.0 442.0" fill="none" stroke="none" stroke-linecap="square" stroke-miterlimit="10" width="1132" height="442" xmlns:xlink="http://www.w3.org/1999/xlink" xmlns="http://www.w3.org/2000/svg"><path fill="#ffffff" d="M0 0L1132.0 0L1132.0 442.0L0 442.0L0 0Z" fill-rule="nonzero"/><path fill="#4285f4" d="M456.90598 71.833336C553.0219 71.833336 630.9393 149.75072 630.9393 245.86667C630.9393 341.98264 553.0219 419.9 456.90598 419.9L456.90598 254.56833C461.71176 254.56833 465.60764 250.67247 465.60764 245.86667C465.60764 241.06087 461.71176 237.165 456.90598 237.165Z" fill-rule="nonzero"/><path fill="#34a853" d="M362.81644 99.46051C390.88315 81.423134 423.543 71.833336 456.90598 71.833336L456.90598 237.165C455.23782 237.165 453.60483 237.64449 452.20148 238.54636Z" fill-rule="nonzero"/><path fill="#fbbc04" d="M284.64404 221.09914C291.82782 171.13475 320.3515 126.751076 362.81644 99.46051L452.20148 238.54636C450.07825 239.91089 448.65207 242.13007 448.29288 244.6283Z" fill-rule="nonzero"/><path fill="#ea4335" d="M456.90598 419.9C406.4278 419.9 358.43652 397.98312 325.38034 359.83426C292.32416 321.6854 277.46024 271.06354 284.64404 221.09914L448.29288 244.6283C447.9337 247.12651 448.67688 249.65761 450.32968 251.56505C451.98248 253.47249 454.38205 254.56833 456.90598 254.56833Z" fill-rule="nonzero"/><path fill="#000000" d="M544.67926 249.36667L546.898 249.17917Q547.1324 250.78854 548.023 251.61667Q548.92926 252.42917 550.1949 252.42917Q551.72614 252.42917 552.773 251.28854Q553.8355 250.1323 553.8355 248.22604Q553.8355 246.42917 552.8199 245.3823Q551.80426 244.33542 550.16364 244.33542Q549.148 244.33542 548.3199 244.80417Q547.5074 245.2573 547.03864 246.0073L545.05426 245.74167L546.7105 236.91354L555.2574 236.91354L555.2574 238.92917L548.398 238.92917L547.47614 243.55417Q549.023 242.47604 550.72614 242.47604Q552.97614 242.47604 554.523 244.03854Q556.0699 245.58542 556.0699 248.03854Q556.0699 250.36667 554.7105 252.0698Q553.05426 254.16354 550.1949 254.16354Q547.85114 254.16354 546.36676 252.85104Q544.8824 251.53854 544.67926 249.36667ZM557.67926 245.39792Q557.67926 242.35104 558.30426 240.49167Q558.92926 238.6323 560.16364 237.6323Q561.398 236.61667 563.273 236.61667Q564.66364 236.61667 565.6949 237.17917Q566.74176 237.72604 567.41364 238.77292Q568.10114 239.8198 568.49176 241.33542Q568.8824 242.83542 568.8824 245.39792Q568.8824 248.41354 568.2574 250.27292Q567.6324 252.1323 566.398 253.14792Q565.16364 254.16354 563.273 254.16354Q560.78864 254.16354 559.3824 252.3823Q557.67926 250.22604 557.67926 245.39792ZM559.85114 245.39792Q559.85114 249.61667 560.8355 251.02292Q561.8199 252.42917 563.273 252.42917Q564.72614 252.42917 565.7105 251.02292Q566.7105 249.61667 566.7105 245.39792Q566.7105 241.14792 565.7105 239.7573Q564.72614 238.36667 563.2574 238.36667Q561.80426 238.36667 560.92926 239.58542Q559.85114 241.16354 559.85114 245.39792ZM571.8199 253.86667L571.8199 251.46042L574.2105 251.46042L574.2105 253.86667Q574.2105 255.1948 573.74176 256.0073Q573.273 256.8198 572.2574 257.27292L571.67926 256.36667Q572.3355 256.0698 572.648 255.49167Q572.97614 254.92917 573.0074 253.86667L571.8199 253.86667ZM577.67926 245.39792Q577.67926 242.35104 578.30426 240.49167Q578.92926 238.6323 580.16364 237.6323Q581.398 236.61667 583.273 236.61667Q584.66364 236.61667 585.6949 237.17917Q586.74176 237.72604 587.41364 238.77292Q588.10114 239.8198 588.49176 241.33542Q588.8824 242.83542 588.8824 245.39792Q588.8824 248.41354 588.2574 250.27292Q587.6324 252.1323 586.398 253.14792Q585.16364 254.16354 583.273 254.16354Q580.78864 254.16354 579.3824 252.3823Q577.67926 250.22604 577.67926 245.39792ZM579.85114 245.39792Q579.85114 249.61667 580.8355 251.02292Q581.8199 252.42917 583.273 252.42917Q584.72614 252.42917 585.7105 251.02292Q586.7105 249.61667 586.7105 245.39792Q586.7105 241.14792 585.7105 239.7573Q584.72614 238.36667 583.2574 238.36667Q581.80426 238.36667 580.92926 239.58542Q579.85114 241.16354 579.85114 245.39792ZM591.0699 240.80417Q591.0699 238.97604 591.99176 237.6948Q592.92926 236.39792 594.67926 236.39792Q596.30426 236.39792 597.36676 237.55417Q598.42926 238.6948 598.42926 240.9448Q598.42926 243.11667 597.35114 244.30417Q596.273 245.47604 594.7105 245.47604Q593.148 245.47604 592.10114 244.3198Q591.0699 243.14792 591.0699 240.80417ZM594.74176 237.85104Q593.9605 237.85104 593.42926 238.53854Q592.91364 239.21042 592.91364 241.02292Q592.91364 242.67917 593.4449 243.35104Q593.97614 244.02292 594.74176 244.02292Q595.53864 244.02292 596.05426 243.35104Q596.5855 242.66354 596.5855 240.85104Q596.5855 239.1948 596.05426 238.52292Q595.523 237.85104 594.74176 237.85104ZM594.7574 254.5073L604.148 236.39792L605.86676 236.39792L596.5074 254.5073L594.7574 254.5073ZM602.17926 249.83542Q602.17926 247.97604 603.10114 246.6948Q604.03864 245.41354 605.80426 245.41354Q607.42926 245.41354 608.47614 246.5698Q609.53864 247.72604 609.53864 249.96042Q609.53864 252.14792 608.4605 253.33542Q607.398 254.5073 605.8199 254.5073Q604.2574 254.5073 603.2105 253.33542Q602.17926 252.16354 602.17926 249.83542ZM605.86676 246.86667Q605.0699 246.86667 604.53864 247.55417Q604.023 248.22604 604.023 250.03854Q604.023 251.67917 604.55426 252.36667Q605.0855 253.03854 605.85114 253.03854Q606.66364 253.03854 607.17926 252.36667Q607.7105 251.67917 607.7105 249.8823Q607.7105 248.21042 607.17926 247.53854Q606.648 246.86667 605.86676 246.86667Z" fill-rule="nonzero"/><path fill="#000000" d="M348.77444 326.96973L348.77444 329.00098L337.4307 329.00098Q337.39944 328.23535 337.66507 327.53223Q338.10257 326.37598 339.0557 325.25098Q340.00882 324.12598 341.82132 322.6416Q344.6182 320.34473 345.60257 319.0166Q346.58694 317.67285 346.58694 316.46973Q346.58694 315.21973 345.6807 314.36035Q344.79007 313.50098 343.35257 313.50098Q341.83694 313.50098 340.91507 314.42285Q340.00882 315.3291 339.9932 316.93848L337.82132 316.71973Q338.04007 314.29785 339.4932 313.03223Q340.94632 311.75098 343.39944 311.75098Q345.8682 311.75098 347.3057 313.12598Q348.75882 314.48535 348.75882 316.5166Q348.75882 317.54785 348.33694 318.54785Q347.91507 319.54785 346.9307 320.65723Q345.96194 321.75098 343.6807 323.67285Q341.79007 325.2666 341.2432 325.8291Q340.71194 326.3916 340.35257 326.96973L348.77444 326.96973ZM350.83694 314.06348L350.83694 312.04785L361.96194 312.04785L361.96194 313.68848Q360.32132 315.42285 358.69632 318.3291Q357.08694 321.21973 356.21194 324.28223Q355.58694 326.43848 355.39944 329.00098L353.2432 329.00098Q353.27444 326.96973 354.02444 324.11035Q354.79007 321.23535 356.21194 318.56348Q357.64944 315.8916 359.2432 314.06348L350.83694 314.06348ZM364.83694 329.00098L364.83694 326.59473L367.22757 326.59473L367.22757 329.00098Q367.22757 330.3291 366.75882 331.1416Q366.29007 331.9541 365.27444 332.40723L364.69632 331.50098Q365.35257 331.2041 365.66507 330.62598Q365.9932 330.06348 366.02444 329.00098L364.83694 329.00098ZM370.71194 324.46973L372.82132 324.18848Q373.1807 325.96973 374.0557 326.7666Q374.9307 327.56348 376.1807 327.56348Q377.66507 327.56348 378.6807 326.53223Q379.71194 325.50098 379.71194 323.96973Q379.71194 322.5166 378.75882 321.5791Q377.82132 320.62598 376.35257 320.62598Q375.75882 320.62598 374.8682 320.86035L375.10257 319.0166Q375.3057 319.03223 375.44632 319.03223Q376.79007 319.03223 377.8682 318.3291Q378.94632 317.62598 378.94632 316.17285Q378.94632 315.00098 378.14944 314.25098Q377.3682 313.48535 376.13382 313.48535Q374.89944 313.48535 374.07132 314.2666Q373.25882 315.03223 373.02444 316.5791L370.91507 316.2041Q371.3057 314.0791 372.66507 312.92285Q374.04007 311.75098 376.08694 311.75098Q377.4932 311.75098 378.66507 312.36035Q379.85257 312.9541 380.47757 314.00098Q381.1182 315.04785 381.1182 316.21973Q381.1182 317.3291 380.50882 318.25098Q379.91507 319.15723 378.7432 319.68848Q380.27444 320.04785 381.1182 321.15723Q381.96194 322.2666 381.96194 323.92285Q381.96194 326.17285 380.32132 327.75098Q378.6807 329.31348 376.16507 329.31348Q373.89944 329.31348 372.39944 327.96973Q370.91507 326.61035 370.71194 324.46973ZM384.08694 315.93848Q384.08694 314.11035 385.00882 312.8291Q385.94632 311.53223 387.69632 311.53223Q389.32132 311.53223 390.38382 312.68848Q391.44632 313.8291 391.44632 316.0791Q391.44632 318.25098 390.3682 319.43848Q389.29007 320.61035 387.72757 320.61035Q386.16507 320.61035 385.1182 319.4541Q384.08694 318.28223 384.08694 315.93848ZM387.75882 312.98535Q386.97757 312.98535 386.44632 313.67285Q385.9307 314.34473 385.9307 316.15723Q385.9307 317.81348 386.46194 318.48535Q386.9932 319.15723 387.75882 319.15723Q388.5557 319.15723 389.07132 318.48535Q389.60257 317.79785 389.60257 315.98535Q389.60257 314.3291 389.07132 313.65723Q388.54007 312.98535 387.75882 312.98535ZM387.77444 329.6416L397.16507 311.53223L398.88382 311.53223L389.52444 329.6416L387.77444 329.6416ZM395.19632 324.96973Q395.19632 323.11035 396.1182 321.8291Q397.0557 320.54785 398.82132 320.54785Q400.44632 320.54785 401.4932 321.7041Q402.5557 322.86035 402.5557 325.09473Q402.5557 327.28223 401.47757 328.46973Q400.41507 329.6416 398.83694 329.6416Q397.27444 329.6416 396.22757 328.46973Q395.19632 327.29785 395.19632 324.96973ZM398.88382 322.00098Q398.08694 322.00098 397.5557 322.68848Q397.04007 323.36035 397.04007 325.17285Q397.04007 326.81348 397.57132 327.50098Q398.10257 328.17285 398.8682 328.17285Q399.6807 328.17285 400.19632 327.50098Q400.72757 326.81348 400.72757 325.0166Q400.72757 323.34473 400.19632 322.67285Q399.66507 322.00098 398.88382 322.00098Z" fill-rule="nonzero"/><path fill="#000000" d="M336.24765 192.10963L334.13828 192.10963L334.13828 178.67213Q333.38828 179.39088 332.13828 180.12526Q330.9039 180.84401 329.91953 181.20338L329.91953 179.17213Q331.70078 178.34401 333.01328 177.15651Q334.3414 175.96901 334.88828 174.85963L336.24765 174.85963L336.24765 192.10963ZM341.32578 187.57838L343.43515 187.29713Q343.79453 189.07838 344.66953 189.87526Q345.54453 190.67213 346.79453 190.67213Q348.2789 190.67213 349.29453 189.64088Q350.32578 188.60963 350.32578 187.07838Q350.32578 185.62526 349.37265 184.68776Q348.43515 183.73463 346.9664 183.73463Q346.37265 183.73463 345.48203 183.96901L345.7164 182.12526Q345.91953 182.14088 346.06015 182.14088Q347.4039 182.14088 348.48203 181.43776Q349.56015 180.73463 349.56015 179.28151Q349.56015 178.10963 348.76328 177.35963Q347.98203 176.59401 346.74765 176.59401Q345.51328 176.59401 344.68515 177.37526Q343.87265 178.14088 343.63828 179.68776L341.5289 179.31276Q341.91953 177.18776 343.2789 176.03151Q344.6539 174.85963 346.70078 174.85963Q348.10703 174.85963 349.2789 175.46901Q350.4664 176.06276 351.0914 177.10963Q351.73203 178.15651 351.73203 179.32838Q351.73203 180.43776 351.12265 181.35963Q350.5289 182.26588 349.35703 182.79713Q350.88828 183.15651 351.73203 184.26588Q352.57578 185.37526 352.57578 187.03151Q352.57578 189.28151 350.93515 190.85963Q349.29453 192.42213 346.7789 192.42213Q344.51328 192.42213 343.01328 191.07838Q341.5289 189.71901 341.32578 187.57838ZM355.45078 192.10963L355.45078 189.70338L357.8414 189.70338L357.8414 192.10963Q357.8414 193.43776 357.37265 194.25026Q356.9039 195.06276 355.88828 195.51588L355.31015 194.60963Q355.9664 194.31276 356.2789 193.73463Q356.60703 193.17213 356.63828 192.10963L355.45078 192.10963ZM372.24765 179.14088L370.1539 179.29713Q369.87265 178.06276 369.35703 177.50026Q368.49765 176.59401 367.24765 176.59401Q366.24765 176.59401 365.48203 177.15651Q364.48203 177.87526 363.9039 179.28151Q363.3414 180.67213 363.31015 183.25026Q364.07578 182.09401 365.16953 181.53151Q366.2789 180.96901 367.48203 180.96901Q369.5914 180.96901 371.07578 182.51588Q372.56015 184.06276 372.56015 186.53151Q372.56015 188.14088 371.85703 189.53151Q371.16953 190.92213 369.95078 191.67213Q368.73203 192.40651 367.18515 192.40651Q364.54453 192.40651 362.87265 190.46901Q361.2164 188.51588 361.2164 184.06276Q361.2164 179.09401 363.06015 176.82838Q364.6539 174.85963 367.37265 174.85963Q369.4039 174.85963 370.70078 176.00026Q371.99765 177.12526 372.24765 179.14088ZM363.63828 186.54713Q363.63828 187.62526 364.0914 188.62526Q364.56015 189.62526 365.38828 190.15651Q366.23203 190.67213 367.13828 190.67213Q368.48203 190.67213 369.43515 189.59401Q370.4039 188.51588 370.4039 186.65651Q370.4039 184.87526 369.45078 183.85963Q368.49765 182.82838 367.06015 182.82838Q365.63828 182.82838 364.63828 183.85963Q363.63828 184.87526 363.63828 186.54713ZM374.70078 179.04713Q374.70078 177.21901 375.62265 175.93776Q376.56015 174.64088 378.31015 174.64088Q379.93515 174.64088 380.99765 175.79713Q382.06015 176.93776 382.06015 179.18776Q382.06015 181.35963 380.98203 182.54713Q379.9039 183.71901 378.3414 183.71901Q376.7789 183.71901 375.73203 182.56276Q374.70078 181.39088 374.70078 179.04713ZM378.37265 176.09401Q377.5914 176.09401 377.06015 176.78151Q376.54453 177.45338 376.54453 179.26588Q376.54453 180.92213 377.07578 181.59401Q377.60703 182.26588 378.37265 182.26588Q379.16953 182.26588 379.68515 181.59401Q380.2164 180.90651 380.2164 179.09401Q380.2164 177.43776 379.68515 176.76588Q379.1539 176.09401 378.37265 176.09401ZM378.38828 192.75026L387.7789 174.64088L389.49765 174.64088L380.13828 192.75026L378.38828 192.75026ZM385.81015 188.07838Q385.81015 186.21901 386.73203 184.93776Q387.66953 183.65651 389.43515 183.65651Q391.06015 183.65651 392.10703 184.81276Q393.16953 185.96901 393.16953 188.20338Q393.16953 190.39088 392.0914 191.57838Q391.0289 192.75026 389.45078 192.75026Q387.88828 192.75026 386.8414 191.57838Q385.81015 190.40651 385.81015 188.07838ZM389.49765 185.10963Q388.70078 185.10963 388.16953 185.79713Q387.6539 186.46901 387.6539 188.28151Q387.6539 189.92213 388.18515 190.60963Q388.7164 191.28151 389.48203 191.28151Q390.29453 191.28151 390.81015 190.60963Q391.3414 189.92213 391.3414 188.12526Q391.3414 186.45338 390.81015 185.78151Q390.2789 185.10963 389.49765 185.10963Z" fill-rule="nonzero"/><path fill="#000000" d="M395.13223 126.9995L397.16348 126.812Q397.41348 128.23387 398.13223 128.89012Q398.8666 129.53075 400.00723 129.53075Q400.97598 129.53075 401.71036 129.09325Q402.44473 128.64012 402.91348 127.89012Q403.38223 127.14012 403.69473 125.8745Q404.02286 124.60887 404.02286 123.29637Q404.02286 123.15575 404.00723 122.8745Q403.3666 123.89012 402.27286 124.51512Q401.1791 125.14012 399.89786 125.14012Q397.77286 125.14012 396.28848 123.59325Q394.81973 122.04637 394.81973 119.51512Q394.81973 116.90575 396.35098 115.312Q397.89786 113.71825 400.22598 113.71825Q401.89786 113.71825 403.28848 114.6245Q404.6791 115.51512 405.39786 117.187Q406.1166 118.85887 406.1166 122.03075Q406.1166 125.312 405.39786 127.26512Q404.6791 129.21825 403.27286 130.2495Q401.8666 131.26512 399.96036 131.26512Q397.94473 131.26512 396.66348 130.14012Q395.39786 129.01512 395.13223 126.9995ZM403.77286 119.40575Q403.77286 117.59325 402.8041 116.53075Q401.83536 115.46825 400.47598 115.46825Q399.06973 115.46825 398.02286 116.6245Q396.9916 117.76512 396.9916 119.59325Q396.9916 121.23387 397.97598 122.26512Q398.96036 123.28075 400.41348 123.28075Q401.88223 123.28075 402.81973 122.26512Q403.77286 121.23387 403.77286 119.40575ZM408.96036 130.96825L408.96036 128.562L411.35098 128.562L411.35098 130.96825Q411.35098 132.29637 410.88223 133.10887Q410.41348 133.92137 409.39786 134.3745L408.81973 133.46825Q409.47598 133.17137 409.78848 132.59325Q410.1166 132.03075 410.14786 130.96825L408.96036 130.96825ZM422.75723 130.96825L420.64786 130.96825L420.64786 117.53075Q419.89786 118.2495 418.64786 118.98387Q417.41348 119.70262 416.4291 120.062L416.4291 118.03075Q418.21036 117.20262 419.52286 116.01512Q420.85098 114.82762 421.39786 113.71825L422.75723 113.71825L422.75723 130.96825ZM428.21036 117.90575Q428.21036 116.07762 429.13223 114.79637Q430.06973 113.4995 431.81973 113.4995Q433.44473 113.4995 434.50723 114.65575Q435.56973 115.79637 435.56973 118.04637Q435.56973 120.21825 434.4916 121.40575Q433.41348 122.57762 431.85098 122.57762Q430.28848 122.57762 429.2416 121.42137Q428.21036 120.2495 428.21036 117.90575ZM431.88223 114.95262Q431.10098 114.95262 430.56973 115.64012Q430.0541 116.312 430.0541 118.1245Q430.0541 119.78075 430.58536 120.45262Q431.1166 121.1245 431.88223 121.1245Q432.6791 121.1245 433.19473 120.45262Q433.72598 119.76512 433.72598 117.95262Q433.72598 116.29637 433.19473 115.6245Q432.66348 114.95262 431.88223 114.95262ZM431.89786 131.60887L441.28848 113.4995L443.00723 113.4995L433.64786 131.60887L431.89786 131.60887ZM439.31973 126.937Q439.31973 125.07762 440.2416 123.79637Q441.1791 122.51512 442.94473 122.51512Q444.56973 122.51512 445.6166 123.67137Q446.6791 124.82762 446.6791 127.062Q446.6791 129.2495 445.60098 130.437Q444.53848 131.60887 442.96036 131.60887Q441.39786 131.60887 440.35098 130.437Q439.31973 129.26512 439.31973 126.937ZM443.00723 123.96825Q442.21036 123.96825 441.6791 124.65575Q441.16348 125.32762 441.16348 127.14012Q441.16348 128.78075 441.69473 129.46825Q442.22598 130.14012 442.9916 130.14012Q443.8041 130.14012 444.31973 129.46825Q444.85098 128.78075 444.85098 126.98387Q444.85098 125.312 444.31973 124.64012Q443.78848 123.96825 443.00723 123.96825Z" fill-rule="nonzero"/><path stroke="#ffffff" stroke-width="1.0" stroke-linejoin="round" stroke-linecap="round" d="M456.90598 254.56833C461.71176 254.56833 465.60764 250.67247 465.60764 245.86667C465.60764 241.06087 461.71176 237.165 456.90598 237.165L456.90598 71.833336C553.0219 71.833336 630.9393 149.75072 630.9393 245.86667C630.9393 341.98264 553.0219 419.9 456.90598 419.9" fill-rule="nonzero"/><path stroke="#ffffff" stroke-width="1.0" stroke-linejoin="round" stroke-linecap="round" d="M448.29288 244.6283C447.9337 247.12651 448.67688 249.65761 450.32968 251.56505C451.98248 253.47249 454.38205 254.56833 456.90598 254.56833L456.90598 419.9C406.4278 419.9 358.43652 397.98312 325.38034 359.83426C292.32416 321.6854 277.46024 271.06354 284.64404 221.09914" fill-rule="nonzero"/><path stroke="#ffffff" stroke-width="1.0" stroke-linejoin="round" stroke-linecap="round" d="M452.20148 238.54636C450.07825 239.91089 448.65207 242.13007 448.29288 244.6283L284.64404 221.09914C291.82782 171.13475 320.3515 126.751076 362.81644 99.46051" fill-rule="nonzero"/><path stroke="#ffffff" stroke-width="1.0" stroke-linejoin="round" stroke-linecap="round" d="M456.90598 237.165C455.23782 237.165 453.60483 237.64449 452.20148 238.54636L362.81644 99.46051C390.88315 81.423134 423.543 71.833336 456.90598 71.833336" fill-rule="nonzero"/><path fill="#4285f4" d="M913.9783 73.333336C913.9783 76.64704 911.292 79.333336 907.9783 79.333336C904.66455 79.333336 901.9783 76.64704 901.9783 73.333336C901.9783 70.01962 904.66455 67.333336 907.9783 67.333336C911.292 67.333336 913.9783 70.01962 913.9783 73.333336Z" fill-rule="nonzero"/><path fill="#000000" d="M924.1814 83.833336L924.1814 62.364586L932.2283 62.364586Q934.697 62.364586 936.1814 63.020836Q937.6658 63.66146 938.5095 65.020836Q939.3533 66.364586 939.3533 67.84896Q939.3533 69.22396 938.6033 70.44271Q937.8533 71.66146 936.3533 72.41146Q938.2908 72.97396 939.33765 74.364586Q940.3845 75.739586 940.3845 77.614586Q940.3845 79.114586 939.7439 80.41146Q939.1189 81.708336 938.1814 82.41146Q937.2439 83.114586 935.822 83.47396Q934.4158 83.833336 932.3689 83.833336L924.1814 83.833336ZM927.02515 71.38021L931.6658 71.38021Q933.5564 71.38021 934.3689 71.13021Q935.46265 70.81771 936.0095 70.06771Q936.5564 69.31771 936.5564 68.19271Q936.5564 67.114586 936.0408 66.302086Q935.52515 65.489586 934.572 65.19271Q933.6189 64.895836 931.3064 64.895836L927.02515 64.895836L927.02515 71.38021ZM927.02515 81.302086L932.3689 81.302086Q933.7439 81.302086 934.2908 81.19271Q935.27515 81.020836 935.9314 80.614586Q936.6033 80.19271 937.02515 79.41146Q937.447 78.63021 937.447 77.614586Q937.447 76.41146 936.822 75.520836Q936.21265 74.63021 935.1189 74.270836Q934.0408 73.91146 931.9783 73.91146L927.02515 73.91146L927.02515 81.302086ZM954.1033 81.91146Q952.65015 83.16146 951.2908 83.677086Q949.9314 84.19271 948.3845 84.19271Q945.822 84.19271 944.4314 82.94271Q943.0564 81.677086 943.0564 79.72396Q943.0564 78.583336 943.572 77.645836Q944.1033 76.69271 944.947 76.13021Q945.7908 75.552086 946.83765 75.270836Q947.6189 75.052086 949.1814 74.864586Q952.3845 74.489586 953.8845 73.958336Q953.90015 73.41146 953.90015 73.270836Q953.90015 71.66146 953.15015 71.00521Q952.15015 70.114586 950.15015 70.114586Q948.2908 70.114586 947.40015 70.770836Q946.52515 71.41146 946.08765 73.06771L943.5095 72.708336Q943.8689 71.052086 944.6658 70.03646Q945.4783 69.020836 946.9939 68.47396Q948.52515 67.927086 950.5408 67.927086Q952.52515 67.927086 953.7595 68.395836Q955.0095 68.864586 955.58765 69.583336Q956.1814 70.28646 956.4158 71.364586Q956.5564 72.03646 956.5564 73.802086L956.5564 77.31771Q956.5564 80.989586 956.71265 81.97396Q956.8845 82.94271 957.3845 83.833336L954.6345 83.833336Q954.2283 83.00521 954.1033 81.91146ZM953.8845 76.020836Q952.447 76.614586 949.58765 77.020836Q947.96265 77.25521 947.27515 77.552086Q946.6033 77.84896 946.2283 78.41146Q945.8689 78.97396 945.8689 79.66146Q945.8689 80.708336 946.6658 81.41146Q947.4783 82.114586 949.0095 82.114586Q950.5408 82.114586 951.71265 81.458336Q952.90015 80.78646 953.46265 79.63021Q953.8845 78.739586 953.8845 76.989586L953.8845 76.020836ZM959.9314 83.833336L959.9314 68.270836L962.3064 68.270836L962.3064 70.63021Q963.21265 68.97396 963.9783 68.458336Q964.7439 67.927086 965.6658 67.927086Q967.0095 67.927086 968.3845 68.770836L967.4783 71.22396Q966.5095 70.645836 965.5408 70.645836Q964.6658 70.645836 963.9783 71.177086Q963.2908 71.69271 963.0095 72.614586Q962.5564 74.020836 962.5564 75.69271L962.5564 83.833336L959.9314 83.833336ZM980.0564 83.833336L980.0564 81.864586Q978.572 84.19271 975.697 84.19271Q973.83765 84.19271 972.27515 83.16146Q970.71265 82.13021 969.8533 80.302086Q969.0095 78.458336 969.0095 76.06771Q969.0095 73.739586 969.77515 71.84896Q970.5564 69.94271 972.1033 68.94271Q973.6658 67.927086 975.58765 67.927086Q976.9939 67.927086 978.08765 68.520836Q979.1814 69.114586 979.8689 70.06771L979.8689 62.364586L982.4939 62.364586L982.4939 83.833336L980.0564 83.833336ZM971.71265 76.06771Q971.71265 79.052086 972.96265 80.53646Q974.2283 82.020836 975.947 82.020836Q977.6814 82.020836 978.8845 80.614586Q980.08765 79.19271 980.08765 76.28646Q980.08765 73.09896 978.8533 71.614586Q977.6345 70.114586 975.83765 70.114586Q974.072 70.114586 972.8845 71.552086Q971.71265 72.97396 971.71265 76.06771ZM985.572 83.833336L985.572 81.69271L995.46265 70.333336Q993.77515 70.41146 992.4939 70.41146L986.15015 70.41146L986.15015 68.270836L998.8689 68.270836L998.8689 70.020836L990.447 79.895836L988.822 81.69271Q990.58765 81.56771 992.1345 81.56771L999.33765 81.56771L999.33765 83.833336L985.572 83.833336ZM1000.9783 76.052086Q1000.9783 71.739586 1003.3845 69.645836Q1005.3845 67.927086 1008.27515 67.927086Q1011.4783 67.927086 1013.5095 70.03646Q1015.5564 72.13021 1015.5564 75.833336Q1015.5564 78.833336 1014.65015 80.56771Q1013.7439 82.28646 1012.02515 83.239586Q1010.3064 84.19271 1008.27515 84.19271Q1005.0095 84.19271 1002.9939 82.09896Q1000.9783 79.989586 1000.9783 76.052086ZM1003.6814 76.052086Q1003.6814 79.03646 1004.9783 80.53646Q1006.2908 82.020836 1008.27515 82.020836Q1010.2283 82.020836 1011.52515 80.520836Q1012.83765 79.020836 1012.83765 75.97396Q1012.83765 73.083336 1011.52515 71.59896Q1010.21265 70.114586 1008.27515 70.114586Q1006.2908 70.114586 1004.9783 71.59896Q1003.6814 73.06771 1003.6814 76.052086ZM1036.0564 83.833336L1036.0564 81.864586Q1034.572 84.19271 1031.697 84.19271Q1029.8376 84.19271 1028.2751 83.16146Q1026.7126 82.13021 1025.8533 80.302086Q1025.0095 78.458336 1025.0095 76.06771Q1025.0095 73.739586 1025.7751 71.84896Q1026.5564 69.94271 1028.1033 68.94271Q1029.6658 67.927086 1031.5876 67.927086Q1032.9939 67.927086 1034.0876 68.520836Q1035.1814 69.114586 1035.8689 70.06771L1035.8689 62.364586L1038.4939 62.364586L1038.4939 83.833336L1036.0564 83.833336ZM1027.7126 76.06771Q1027.7126 79.052086 1028.9626 80.53646Q1030.2283 82.020836 1031.947 82.020836Q1033.6814 82.020836 1034.8845 80.614586Q1036.0876 79.19271 1036.0876 76.28646Q1036.0876 73.09896 1034.8533 71.614586Q1033.6345 70.114586 1031.8376 70.114586Q1030.072 70.114586 1028.8845 71.552086Q1027.7126 72.97396 1027.7126 76.06771ZM1041.9783 76.052086Q1041.9783 71.739586 1044.3845 69.645836Q1046.3845 67.927086 1049.2751 67.927086Q1052.4783 67.927086 1054.5095 70.03646Q1056.5564 72.13021 1056.5564 75.833336Q1056.5564 78.833336 1055.6501 80.56771Q1054.7439 82.28646 1053.0251 83.239586Q1051.3064 84.19271 1049.2751 84.19271Q1046.0095 84.19271 1043.9939 82.09896Q1041.9783 79.989586 1041.9783 76.052086ZM1044.6814 76.052086Q1044.6814 79.03646 1045.9783 80.53646Q1047.2908 82.020836 1049.2751 82.020836Q1051.2283 82.020836 1052.5251 80.520836Q1053.8376 79.020836 1053.8376 75.97396Q1053.8376 73.083336 1052.5251 71.59896Q1051.2126 70.114586 1049.2751 70.114586Q1047.2908 70.114586 1045.9783 71.59896Q1044.6814 73.06771 1044.6814 76.052086ZM1061.3845 83.833336L1058.947 83.833336L1058.947 62.364586L1061.572 62.364586L1061.572 70.020836Q1063.2439 67.927086 1065.8376 67.927086Q1067.2751 67.927086 1068.5564 68.50521Q1069.8376 69.083336 1070.6658 70.13021Q1071.4939 71.177086 1071.9626 72.66146Q1072.4314 74.13021 1072.4314 75.81771Q1072.4314 79.81771 1070.447 82.00521Q1068.4783 84.19271 1065.7126 84.19271Q1062.9626 84.19271 1061.3845 81.88021L1061.3845 83.833336ZM1061.3533 75.94271Q1061.3533 78.739586 1062.1189 79.97396Q1063.3689 82.020836 1065.4939 82.020836Q1067.2126 82.020836 1068.4783 80.520836Q1069.7439 79.020836 1069.7439 76.03646Q1069.7439 72.989586 1068.5251 71.552086Q1067.322 70.09896 1065.6033 70.09896Q1063.8845 70.09896 1062.6189 71.59896Q1061.3533 73.09896 1061.3533 75.94271ZM1075.9314 83.833336L1075.9314 68.270836L1078.3064 68.270836L1078.3064 70.63021Q1079.2126 68.97396 1079.9783 68.458336Q1080.7439 67.927086 1081.6658 67.927086Q1083.0095 67.927086 1084.3845 68.770836L1083.4783 71.22396Q1082.5095 70.645836 1081.5408 70.645836Q1080.6658 70.645836 1079.9783 71.177086Q1079.2908 71.69271 1079.0095 72.614586Q1078.5564 74.020836 1078.5564 75.69271L1078.5564 83.833336L1075.9314 83.833336ZM1085.8376 89.81771L1085.5408 87.34896Q1086.4158 87.583336 1087.0564 87.583336Q1087.9314 87.583336 1088.4626 87.28646Q1088.9939 87.00521 1089.322 86.47396Q1089.572 86.06771 1090.1345 84.50521Q1090.197 84.28646 1090.3689 83.864586L1084.4626 68.270836L1087.3064 68.270836L1090.5408 77.28646Q1091.1658 79.00521 1091.6658 80.895836Q1092.1189 79.06771 1092.7595 77.34896L1096.072 68.270836L1098.7126 68.270836L1092.7908 84.09896Q1091.8376 86.66146 1091.322 87.63021Q1090.6189 88.927086 1089.697 89.53646Q1088.7908 90.145836 1087.5408 90.145836Q1086.7751 90.145836 1085.8376 89.81771Z" fill-rule="nonzero"/><path fill="#ea4335" d="M913.9783 118.333336C913.9783 121.64704 911.292 124.333336 907.9783 124.333336C904.66455 124.333336 901.9783 121.64704 901.9783 118.333336C901.9783 115.01962 904.66455 112.333336 907.9783 112.333336C911.292 112.333336 913.9783 115.01962 913.9783 118.333336Z" fill-rule="nonzero"/><path fill="#000000" d="M924.2908 128.83333L924.2908 107.36458L931.697 107.36458Q934.197 107.36458 935.5095 107.66145Q937.3533 108.08333 938.6658 109.20833Q940.3689 110.64583 941.197 112.8802Q942.0408 115.11458 942.0408 117.97395Q942.0408 120.42708 941.46265 122.3177Q940.90015 124.20833 940.0095 125.4427Q939.1189 126.67708 938.0564 127.39583Q936.9939 128.09895 935.4939 128.47395Q933.9939 128.83333 932.0408 128.83333L924.2908 128.83333ZM927.1345 126.30208L931.71265 126.30208Q933.83765 126.30208 935.0408 125.91145Q936.2595 125.5052 936.9783 124.78645Q937.9939 123.78645 938.5564 122.08333Q939.1189 120.36458 939.1189 117.92708Q939.1189 114.5677 938.0095 112.7552Q936.90015 110.9427 935.322 110.33333Q934.1814 109.89583 931.65015 109.89583L927.1345 109.89583L927.1345 126.30208ZM944.9783 121.05208Q944.9783 116.73958 947.3845 114.64583Q949.3845 112.92708 952.27515 112.92708Q955.4783 112.92708 957.5095 115.03645Q959.5564 117.1302 959.5564 120.83333Q959.5564 123.83333 958.65015 125.5677Q957.7439 127.28645 956.02515 128.23958Q954.3064 129.1927 952.27515 129.1927Q949.0095 129.1927 946.9939 127.09895Q944.9783 124.98958 944.9783 121.05208ZM947.6814 121.05208Q947.6814 124.03645 948.9783 125.53645Q950.2908 127.02083 952.27515 127.02083Q954.2283 127.02083 955.52515 125.52083Q956.83765 124.02083 956.83765 120.97395Q956.83765 118.08333 955.52515 116.59895Q954.21265 115.11458 952.27515 115.11458Q950.2908 115.11458 948.9783 116.59895Q947.6814 118.0677 947.6814 121.05208ZM964.3845 128.83333L961.947 128.83333L961.947 107.36458L964.572 107.36458L964.572 115.02083Q966.2439 112.92708 968.83765 112.92708Q970.27515 112.92708 971.5564 113.5052Q972.83765 114.08333 973.6658 115.1302Q974.4939 116.17708 974.96265 117.66145Q975.4314 119.1302 975.4314 120.8177Q975.4314 124.8177 973.447 127.0052Q971.4783 129.1927 968.71265 129.1927Q965.96265 129.1927 964.3845 126.8802L964.3845 128.83333ZM964.3533 120.9427Q964.3533 123.73958 965.1189 124.97395Q966.3689 127.02083 968.4939 127.02083Q970.21265 127.02083 971.4783 125.52083Q972.7439 124.02083 972.7439 121.03645Q972.7439 117.98958 971.52515 116.55208Q970.322 115.09895 968.6033 115.09895Q966.8845 115.09895 965.6189 116.59895Q964.3533 118.09895 964.3533 120.9427ZM978.9314 128.83333L978.9314 113.27083L981.3064 113.27083L981.3064 115.6302Q982.21265 113.97395 982.9783 113.45833Q983.7439 112.92708 984.6658 112.92708Q986.0095 112.92708 987.3845 113.77083L986.4783 116.22395Q985.5095 115.64583 984.5408 115.64583Q983.6658 115.64583 982.9783 116.17708Q982.2908 116.6927 982.0095 117.61458Q981.5564 119.02083 981.5564 120.6927L981.5564 128.83333L978.9314 128.83333ZM988.83765 134.8177L988.5408 132.34895Q989.4158 132.58333 990.0564 132.58333Q990.9314 132.58333 991.46265 132.28645Q991.9939 132.0052 992.322 131.47395Q992.572 131.0677 993.1345 129.5052Q993.197 129.28645 993.3689 128.86458L987.46265 113.27083L990.3064 113.27083L993.5408 122.28645Q994.1658 124.0052 994.6658 125.89583Q995.1189 124.0677 995.7595 122.34895L999.072 113.27083L1001.71265 113.27083L995.7908 129.09895Q994.83765 131.66145 994.322 132.6302Q993.6189 133.92708 992.697 134.53645Q991.7908 135.14583 990.5408 135.14583Q989.77515 135.14583 988.83765 134.8177Z" fill-rule="nonzero"/><path fill="#fbbc04" d="M913.9783 163.33333C913.9783 166.64705 911.292 169.33333 907.9783 169.33333C904.66455 169.33333 901.9783 166.64705 901.9783 163.33333C901.9783 160.01962 904.66455 157.33333 907.9783 157.33333C911.292 157.33333 913.9783 160.01962 913.9783 163.33333Z" fill-rule="nonzero"/><path fill="#000000" d="M923.322 166.92708L926.0095 166.6927Q926.197 168.3177 926.8845 169.34895Q927.58765 170.3802 929.0564 171.02083Q930.52515 171.64583 932.3533 171.64583Q933.9783 171.64583 935.21265 171.16145Q936.46265 170.67708 937.072 169.84895Q937.6814 169.0052 937.6814 168.0052Q937.6814 166.98958 937.08765 166.23958Q936.5095 165.48958 935.1658 164.97395Q934.2908 164.6302 931.33765 163.92708Q928.3845 163.20833 927.197 162.58333Q925.65015 161.77083 924.90015 160.58333Q924.15015 159.39583 924.15015 157.91145Q924.15015 156.28645 925.072 154.8802Q925.9939 153.45833 927.7595 152.72395Q929.5408 151.98958 931.71265 151.98958Q934.08765 151.98958 935.9158 152.77083Q937.7439 153.53645 938.71265 155.03645Q939.697 156.52083 939.77515 158.41145L937.0564 158.61458Q936.83765 156.58333 935.5564 155.53645Q934.2908 154.48958 931.822 154.48958Q929.2439 154.48958 928.0564 155.4427Q926.8845 156.3802 926.8845 157.72395Q926.8845 158.8802 927.7283 159.6302Q928.5408 160.36458 931.9939 161.16145Q935.46265 161.9427 936.7595 162.52083Q938.6345 163.39583 939.52515 164.72395Q940.4158 166.03645 940.4158 167.77083Q940.4158 169.48958 939.4314 171.0052Q938.46265 172.52083 936.6189 173.36458Q934.77515 174.1927 932.4783 174.1927Q929.572 174.1927 927.58765 173.34895Q925.6189 172.5052 924.4939 170.80208Q923.3845 169.08333 923.322 166.92708ZM943.9314 165.42708L942.02515 167.03645L942.02515 164.72395L943.9314 163.11458L943.9314 152.36458L946.5564 152.36458L946.5564 160.8802L948.52515 159.1927L948.52515 161.5052L946.5564 163.17708L946.5564 173.83333L943.9314 173.83333L943.9314 165.42708ZM961.1033 171.91145Q959.65015 173.16145 958.2908 173.67708Q956.9314 174.1927 955.3845 174.1927Q952.822 174.1927 951.4314 172.9427Q950.0564 171.67708 950.0564 169.72395Q950.0564 168.58333 950.572 167.64583Q951.1033 166.6927 951.947 166.1302Q952.7908 165.55208 953.83765 165.27083Q954.6189 165.05208 956.1814 164.86458Q959.3845 164.48958 960.8845 163.95833Q960.90015 163.41145 960.90015 163.27083Q960.90015 161.66145 960.15015 161.0052Q959.15015 160.11458 957.15015 160.11458Q955.2908 160.11458 954.40015 160.77083Q953.52515 161.41145 953.08765 163.0677L950.5095 162.70833Q950.8689 161.05208 951.6658 160.03645Q952.4783 159.02083 953.9939 158.47395Q955.52515 157.92708 957.5408 157.92708Q959.52515 157.92708 960.7595 158.39583Q962.0095 158.86458 962.58765 159.58333Q963.1814 160.28645 963.4158 161.36458Q963.5564 162.03645 963.5564 163.80208L963.5564 167.3177Q963.5564 170.98958 963.71265 171.97395Q963.8845 172.9427 964.3845 173.83333L961.6345 173.83333Q961.2283 173.0052 961.1033 171.91145ZM960.8845 166.02083Q959.447 166.61458 956.58765 167.02083Q954.96265 167.2552 954.27515 167.55208Q953.6033 167.84895 953.2283 168.41145Q952.8689 168.97395 952.8689 169.66145Q952.8689 170.70833 953.6658 171.41145Q954.4783 172.11458 956.0095 172.11458Q957.5408 172.11458 958.71265 171.45833Q959.90015 170.78645 960.46265 169.6302Q960.8845 168.73958 960.8845 166.98958L960.8845 166.02083ZM969.3845 173.83333L966.947 173.83333L966.947 152.36458L969.572 152.36458L969.572 160.02083Q971.2439 157.92708 973.83765 157.92708Q975.27515 157.92708 976.5564 158.5052Q977.83765 159.08333 978.6658 160.1302Q979.4939 161.17708 979.96265 162.66145Q980.4314 164.1302 980.4314 165.8177Q980.4314 169.8177 978.447 172.0052Q976.4783 174.1927 973.71265 174.1927Q970.96265 174.1927 969.3845 171.8802L969.3845 173.83333ZM969.3533 165.9427Q969.3533 168.73958 970.1189 169.97395Q971.3689 172.02083 973.4939 172.02083Q975.21265 172.02083 976.4783 170.52083Q977.7439 169.02083 977.7439 166.03645Q977.7439 162.98958 976.52515 161.55208Q975.322 160.09895 973.6033 160.09895Q971.8845 160.09895 970.6189 161.59895Q969.3533 163.09895 969.3533 165.9427ZM983.83765 179.8177L983.5408 177.34895Q984.4158 177.58333 985.0564 177.58333Q985.9314 177.58333 986.46265 177.28645Q986.9939 177.0052 987.322 176.47395Q987.572 176.0677 988.1345 174.5052Q988.197 174.28645 988.3689 173.86458L982.46265 158.27083L985.3064 158.27083L988.5408 167.28645Q989.1658 169.0052 989.6658 170.89583Q990.1189 169.0677 990.7595 167.34895L994.072 158.27083L996.71265 158.27083L990.7908 174.09895Q989.83765 176.66145 989.322 177.6302Q988.6189 178.92708 987.697 179.53645Q986.7908 180.14583 985.5408 180.14583Q984.77515 180.14583 983.83765 179.8177Z" fill-rule="nonzero"/><path fill="#34a853" d="M913.9783 208.33333C913.9783 211.64705 911.292 214.33333 907.9783 214.33333C904.66455 214.33333 901.9783 211.64705 901.9783 208.33333C901.9783 205.01962 904.66455 202.33333 907.9783 202.33333C911.292 202.33333 913.9783 205.01962 913.9783 208.33333Z" fill-rule="nonzero"/><path fill="#000000" d="M928.0408 218.83333L922.33765 197.36458L925.2595 197.36458L928.52515 211.4427Q929.0564 213.64583 929.4314 215.83333Q930.2595 212.3802 930.40015 211.86458L934.4939 197.36458L937.9158 197.36458L940.9939 208.22395Q942.15015 212.27083 942.6658 215.83333Q943.072 213.78645 943.7283 211.16145L947.1033 197.36458L949.96265 197.36458L944.072 218.83333L941.322 218.83333L936.8064 202.47395Q936.2283 200.42708 936.1345 199.95833Q935.7908 201.42708 935.4939 202.47395L930.947 218.83333L928.0408 218.83333ZM953.83765 224.8177L953.5408 222.34895Q954.4158 222.58333 955.0564 222.58333Q955.9314 222.58333 956.46265 222.28645Q956.9939 222.0052 957.322 221.47395Q957.572 221.0677 958.1345 219.5052Q958.197 219.28645 958.3689 218.86458L952.46265 203.27083L955.3064 203.27083L958.5408 212.28645Q959.1658 214.0052 959.6658 215.89583Q960.1189 214.0677 960.7595 212.34895L964.072 203.27083L966.71265 203.27083L960.7908 219.09895Q959.83765 221.66145 959.322 222.6302Q958.6189 223.92708 957.697 224.53645Q956.7908 225.14583 955.5408 225.14583Q954.77515 225.14583 953.83765 224.8177ZM967.90015 214.1927L970.5095 213.78645Q970.7283 215.34895 971.7283 216.1927Q972.7283 217.02083 974.5408 217.02083Q976.3533 217.02083 977.2283 216.28645Q978.1189 215.53645 978.1189 214.53645Q978.1189 213.64583 977.33765 213.1302Q976.7908 212.78645 974.6345 212.23958Q971.7439 211.5052 970.6189 210.97395Q969.4939 210.4427 968.9158 209.5052Q968.33765 208.55208 968.33765 207.41145Q968.33765 206.36458 968.8064 205.48958Q969.2908 204.59895 970.1189 204.0052Q970.7283 203.55208 971.7908 203.23958Q972.8533 202.92708 974.072 202.92708Q975.90015 202.92708 977.27515 203.45833Q978.6658 203.97395 979.322 204.8802Q979.9939 205.78645 980.2283 207.28645L977.65015 207.64583Q977.4783 206.4427 976.6345 205.77083Q975.7908 205.09895 974.2595 205.09895Q972.447 205.09895 971.6658 205.6927Q970.8845 206.28645 970.8845 207.09895Q970.8845 207.61458 971.21265 208.02083Q971.5408 208.4427 972.2283 208.72395Q972.6189 208.86458 974.5564 209.39583Q977.3533 210.14583 978.447 210.6302Q979.5564 211.09895 980.1814 212.0052Q980.822 212.91145 980.822 214.2552Q980.822 215.58333 980.0564 216.7552Q979.2908 217.91145 977.83765 218.55208Q976.3845 219.1927 974.5564 219.1927Q971.52515 219.1927 969.9314 217.92708Q968.33765 216.66145 967.90015 214.1927ZM989.71265 216.47395L990.08765 218.80208Q988.9783 219.03645 988.1033 219.03645Q986.6658 219.03645 985.8689 218.58333Q985.08765 218.1302 984.7595 217.39583Q984.447 216.64583 984.447 214.27083L984.447 205.33333L982.5095 205.33333L982.5095 203.27083L984.447 203.27083L984.447 199.42708L987.0564 197.84895L987.0564 203.27083L989.71265 203.27083L989.71265 205.33333L987.0564 205.33333L987.0564 214.42708Q987.0564 215.55208 987.197 215.8802Q987.33765 216.1927 987.65015 216.39583Q987.96265 216.58333 988.5564 216.58333Q988.9939 216.58333 989.71265 216.47395ZM1002.1033 216.91145Q1000.65015 218.16145 999.2908 218.67708Q997.9314 219.1927 996.3845 219.1927Q993.822 219.1927 992.4314 217.9427Q991.0564 216.67708 991.0564 214.72395Q991.0564 213.58333 991.572 212.64583Q992.1033 211.6927 992.947 211.1302Q993.7908 210.55208 994.83765 210.27083Q995.6189 210.05208 997.1814 209.86458Q1000.3845 209.48958 1001.8845 208.95833Q1001.90015 208.41145 1001.90015 208.27083Q1001.90015 206.66145 1001.15015 206.0052Q1000.15015 205.11458 998.15015 205.11458Q996.2908 205.11458 995.40015 205.77083Q994.52515 206.41145 994.08765 208.0677L991.5095 207.70833Q991.8689 206.05208 992.6658 205.03645Q993.4783 204.02083 994.9939 203.47395Q996.52515 202.92708 998.5408 202.92708Q1000.52515 202.92708 1001.7595 203.39583Q1003.0095 203.86458 1003.58765 204.58333Q1004.1814 205.28645 1004.4158 206.36458Q1004.5564 207.03645 1004.5564 208.80208L1004.5564 212.3177Q1004.5564 215.98958 1004.71265 216.97395Q1004.8845 217.9427 1005.3845 218.83333L1002.6345 218.83333Q1002.2283 218.0052 1002.1033 216.91145ZM1001.8845 211.02083Q1000.447 211.61458 997.58765 212.02083Q995.96265 212.2552 995.27515 212.55208Q994.6033 212.84895 994.2283 213.41145Q993.8689 213.97395 993.8689 214.66145Q993.8689 215.70833 994.6658 216.41145Q995.4783 217.11458 997.0095 217.11458Q998.5408 217.11458 999.71265 216.45833Q1000.90015 215.78645 1001.46265 214.6302Q1001.8845 213.73958 1001.8845 211.98958L1001.8845 211.02083ZM1007.9314 218.83333L1007.9314 203.27083L1010.3064 203.27083L1010.3064 205.6302Q1011.21265 203.97395 1011.9783 203.45833Q1012.7439 202.92708 1013.6658 202.92708Q1015.0095 202.92708 1016.3845 203.77083L1015.4783 206.22395Q1014.5095 205.64583 1013.5408 205.64583Q1012.6658 205.64583 1011.9783 206.17708Q1011.2908 206.6927 1011.0095 207.61458Q1010.5564 209.02083 1010.5564 210.6927L1010.5564 218.83333L1007.9314 218.83333ZM1028.1033 213.1302L1030.697 213.47395Q1030.2751 216.14583 1028.5251 217.67708Q1026.7751 219.1927 1024.2283 219.1927Q1021.02515 219.1927 1019.08765 217.09895Q1017.15015 215.0052 1017.15015 211.11458Q1017.15015 208.59895 1017.9783 206.70833Q1018.822 204.8177 1020.52515 203.8802Q1022.2283 202.92708 1024.2439 202.92708Q1026.7751 202.92708 1028.3845 204.20833Q1029.9939 205.48958 1030.447 207.84895L1027.8845 208.23958Q1027.5251 206.67708 1026.5876 205.89583Q1025.6658 205.09895 1024.3376 205.09895Q1022.3533 205.09895 1021.1033 206.52083Q1019.8533 207.9427 1019.8533 211.03645Q1019.8533 214.17708 1021.0564 215.59895Q1022.2595 217.02083 1024.197 217.02083Q1025.7439 217.02083 1026.7751 216.0677Q1027.822 215.11458 1028.1033 213.1302ZM1031.572 218.83333L1031.572 216.6927L1041.4626 205.33333Q1039.7751 205.41145 1038.4939 205.41145L1032.1501 205.41145L1032.1501 203.27083L1044.8689 203.27083L1044.8689 205.02083L1036.447 214.89583L1034.822 216.6927Q1036.5876 216.5677 1038.1345 216.5677L1045.3376 216.5677L1045.3376 218.83333L1031.572 218.83333ZM1058.1033 216.91145Q1056.6501 218.16145 1055.2908 218.67708Q1053.9314 219.1927 1052.3845 219.1927Q1049.822 219.1927 1048.4314 217.9427Q1047.0564 216.67708 1047.0564 214.72395Q1047.0564 213.58333 1047.572 212.64583Q1048.1033 211.6927 1048.947 211.1302Q1049.7908 210.55208 1050.8376 210.27083Q1051.6189 210.05208 1053.1814 209.86458Q1056.3845 209.48958 1057.8845 208.95833Q1057.9001 208.41145 1057.9001 208.27083Q1057.9001 206.66145 1057.1501 206.0052Q1056.1501 205.11458 1054.1501 205.11458Q1052.2908 205.11458 1051.4001 205.77083Q1050.5251 206.41145 1050.0876 208.0677L1047.5095 207.70833Q1047.8689 206.05208 1048.6658 205.03645Q1049.4783 204.02083 1050.9939 203.47395Q1052.5251 202.92708 1054.5408 202.92708Q1056.5251 202.92708 1057.7595 203.39583Q1059.0095 203.86458 1059.5876 204.58333Q1060.1814 205.28645 1060.4158 206.36458Q1060.5564 207.03645 1060.5564 208.80208L1060.5564 212.3177Q1060.5564 215.98958 1060.7126 216.97395Q1060.8845 217.9427 1061.3845 218.83333L1058.6345 218.83333Q1058.2283 218.0052 1058.1033 216.91145ZM1057.8845 211.02083Q1056.447 211.61458 1053.5876 212.02083Q1051.9626 212.2552 1051.2751 212.55208Q1050.6033 212.84895 1050.2283 213.41145Q1049.8689 213.97395 1049.8689 214.66145Q1049.8689 215.70833 1050.6658 216.41145Q1051.4783 217.11458 1053.0095 217.11458Q1054.5408 217.11458 1055.7126 216.45833Q1056.9001 215.78645 1057.4626 214.6302Q1057.8845 213.73958 1057.8845 211.98958L1057.8845 211.02083ZM1063.947 200.42708L1063.947 197.36458L1066.572 197.36458L1066.572 200.42708L1063.947 200.42708ZM1060.6033 224.86458L1061.1033 222.6302Q1061.8845 222.83333 1062.3376 222.83333Q1063.1501 222.83333 1063.5408 222.30208Q1063.947 221.77083 1063.947 219.6302L1063.947 203.27083L1066.572 203.27083L1066.572 219.67708Q1066.572 222.55208 1065.8376 223.67708Q1064.8845 225.14583 1062.6658 225.14583Q1061.6033 225.14583 1060.6033 224.86458ZM1081.1033 216.91145Q1079.6501 218.16145 1078.2908 218.67708Q1076.9314 219.1927 1075.3845 219.1927Q1072.822 219.1927 1071.4314 217.9427Q1070.0564 216.67708 1070.0564 214.72395Q1070.0564 213.58333 1070.572 212.64583Q1071.1033 211.6927 1071.947 211.1302Q1072.7908 210.55208 1073.8376 210.27083Q1074.6189 210.05208 1076.1814 209.86458Q1079.3845 209.48958 1080.8845 208.95833Q1080.9001 208.41145 1080.9001 208.27083Q1080.9001 206.66145 1080.1501 206.0052Q1079.1501 205.11458 1077.1501 205.11458Q1075.2908 205.11458 1074.4001 205.77083Q1073.5251 206.41145 1073.0876 208.0677L1070.5095 207.70833Q1070.8689 206.05208 1071.6658 205.03645Q1072.4783 204.02083 1073.9939 203.47395Q1075.5251 202.92708 1077.5408 202.92708Q1079.5251 202.92708 1080.7595 203.39583Q1082.0095 203.86458 1082.5876 204.58333Q1083.1814 205.28645 1083.4158 206.36458Q1083.5564 207.03645 1083.5564 208.80208L1083.5564 212.3177Q1083.5564 215.98958 1083.7126 216.97395Q1083.8845 217.9427 1084.3845 218.83333L1081.6345 218.83333Q1081.2283 218.0052 1081.1033 216.91145ZM1080.8845 211.02083Q1079.447 211.61458 1076.5876 212.02083Q1074.9626 212.2552 1074.2751 212.55208Q1073.6033 212.84895 1073.2283 213.41145Q1072.8689 213.97395 1072.8689 214.66145Q1072.8689 215.70833 1073.6658 216.41145Q1074.4783 217.11458 1076.0095 217.11458Q1077.5408 217.11458 1078.7126 216.45833Q1079.9001 215.78645 1080.4626 214.6302Q1080.8845 213.73958 1080.8845 211.98958L1080.8845 211.02083ZM1083.8376 218.83333Q1083.0095 219.34895 1082.5408 220.09895Q1082.0876 220.84895 1082.0876 221.6302Q1082.0876 222.23958 1082.4158 222.66145Q1082.7595 223.09895 1083.5251 223.09895Q1083.8533 223.09895 1084.197 223.0052Q1084.5564 222.91145 1084.8533 222.73958L1084.8533 224.61458Q1083.7908 225.1302 1082.8689 225.1302Q1082.1189 225.1302 1081.5564 224.91145Q1081.0095 224.70833 1080.6345 224.33333Q1080.2595 223.95833 1080.072 223.47395Q1079.8845 222.98958 1079.8845 222.4427Q1079.8845 221.5052 1080.4158 220.55208Q1080.947 219.61458 1081.9158 218.83333L1083.8376 218.83333ZM1097.1033 213.1302L1099.697 213.47395Q1099.2751 216.14583 1097.5251 217.67708Q1095.7751 219.1927 1093.2283 219.1927Q1090.0251 219.1927 1088.0876 217.09895Q1086.1501 215.0052 1086.1501 211.11458Q1086.1501 208.59895 1086.9783 206.70833Q1087.822 204.8177 1089.5251 203.8802Q1091.2283 202.92708 1093.2439 202.92708Q1095.7751 202.92708 1097.3845 204.20833Q1098.9939 205.48958 1099.447 207.84895L1096.8845 208.23958Q1096.5251 206.67708 1095.5876 205.89583Q1094.6658 205.09895 1093.3376 205.09895Q1091.3533 205.09895 1090.1033 206.52083Q1088.8533 207.9427 1088.8533 211.03645Q1088.8533 214.17708 1090.0564 215.59895Q1091.2595 217.02083 1093.197 217.02083Q1094.7439 217.02083 1095.7751 216.0677Q1096.822 215.11458 1097.1033 213.1302ZM1101.8376 224.8177L1101.5408 222.34895Q1102.4158 222.58333 1103.0564 222.58333Q1103.9314 222.58333 1104.4626 222.28645Q1104.9939 222.0052 1105.322 221.47395Q1105.572 221.0677 1106.1345 219.5052Q1106.197 219.28645 1106.3689 218.86458L1100.4626 203.27083L1103.3064 203.27083L1106.5408 212.28645Q1107.1658 214.0052 1107.6658 215.89583Q1108.1189 214.0677 1108.7595 212.34895L1112.072 203.27083L1114.7126 203.27083L1108.7908 219.09895Q1107.8376 221.66145 1107.322 222.6302Q1106.6189 223.92708 1105.697 224.53645Q1104.7908 225.14583 1103.5408 225.14583Q1102.7751 225.14583 1101.8376 224.8177Z" fill-rule="nonzero"/><path fill="#000000" d="M32.0375 28.631248L36.35 28.631248L36.35 42.225Q36.35 44.88125 35.88125 46.31875Q35.25625 48.19375 33.6 49.334373Q31.94375 50.459373 29.240625 50.459373Q26.053125 50.459373 24.334375 48.69375Q22.63125 46.9125 22.615625 43.459373L26.69375 42.990623Q26.771875 44.834373 27.240625 45.6Q27.94375 46.75625 29.38125 46.75625Q30.834375 46.75625 31.428125 45.928123Q32.0375 45.1 32.0375 42.490623L32.0375 28.631248ZM44.334373 39.2875L40.6 38.615623Q41.225 36.365623 42.75625 35.2875Q44.303123 34.19375 47.334373 34.19375Q50.084373 34.19375 51.428123 34.85Q52.7875 35.490623 53.334373 36.50625Q53.88125 37.50625 53.88125 40.178123L53.834373 44.990623Q53.834373 47.0375 54.021873 48.021873Q54.225 48.990623 54.771873 50.1L50.709373 50.1Q50.5375 49.69375 50.303123 48.88125Q50.209373 48.521873 50.1625 48.396873Q49.1 49.428123 47.896873 49.94375Q46.709373 50.459373 45.334373 50.459373Q42.94375 50.459373 41.553123 49.1625Q40.1625 47.85 40.1625 45.85Q40.1625 44.5375 40.7875 43.50625Q41.428123 42.475 42.553123 41.928123Q43.69375 41.365623 45.834373 40.959373Q48.725 40.4125 49.834373 39.94375L49.834373 39.5375Q49.834373 38.35 49.240623 37.85Q48.6625 37.334373 47.0375 37.334373Q45.94375 37.334373 45.31875 37.771873Q44.709373 38.209373 44.334373 39.2875ZM49.834373 42.63125Q49.053123 42.896873 47.334373 43.271873Q45.615623 43.63125 45.084373 43.975Q44.2875 44.553123 44.2875 45.428123Q44.2875 46.2875 44.928123 46.928123Q45.56875 47.553123 46.56875 47.553123Q47.678123 47.553123 48.69375 46.81875Q49.44375 46.25625 49.678123 45.459373Q49.834373 44.928123 49.834373 43.44375L49.834373 42.63125ZM58.1 50.1L58.1 28.631248L62.225 28.631248L62.225 40.021873L67.0375 34.5375L72.11562 34.5375L66.7875 40.225L72.49062 50.1L68.05312 50.1L64.14687 43.115623L62.225 45.115623L62.225 50.1L58.1 50.1ZM82.30312 42.1Q82.30312 40.053123 83.30312 38.13125Q84.31875 36.209373 86.1625 35.209373Q88.02187 34.19375 90.31875 34.19375Q93.85 34.19375 96.1 36.490623Q98.35 38.771873 98.35 42.271873Q98.35 45.803123 96.06875 48.13125Q93.80312 50.459373 90.35 50.459373Q88.20937 50.459373 86.25625 49.490623Q84.31875 48.521873 83.30312 46.6625Q82.30312 44.7875 82.30312 42.1ZM86.52187 42.31875Q86.52187 44.63125 87.61562 45.865623Q88.725 47.1 90.33437 47.1Q91.94375 47.1 93.02187 45.865623Q94.11562 44.63125 94.11562 42.2875Q94.11562 40.00625 93.02187 38.7875Q91.94375 37.553123 90.33437 37.553123Q88.725 37.553123 87.61562 38.7875Q86.52187 40.00625 86.52187 42.31875ZM114.81875 39.146873L110.75625 39.88125Q110.55312 38.6625 109.81875 38.053123Q109.1 37.428123 107.94375 37.428123Q106.4125 37.428123 105.49062 38.490623Q104.58437 39.553123 104.58437 42.0375Q104.58437 44.81875 105.50625 45.959373Q106.44375 47.1 108.00625 47.1Q109.17812 47.1 109.92812 46.428123Q110.67812 45.75625 110.975 44.13125L115.02187 44.81875Q114.39687 47.615623 112.6 49.0375Q110.81875 50.459373 107.81875 50.459373Q104.39687 50.459373 102.36562 48.303123Q100.35 46.146873 100.35 42.334373Q100.35 38.490623 102.38125 36.35Q104.4125 34.19375 107.89687 34.19375Q110.725 34.19375 112.39687 35.4125Q114.08437 36.63125 114.81875 39.146873ZM127.25625 45.146873L131.36563 45.834373Q130.56876 48.1 128.86563 49.2875Q127.1625 50.459373 124.6 50.459373Q120.5375 50.459373 118.58437 47.803123Q117.05312 45.678123 117.05312 42.44375Q117.05312 38.56875 119.06875 36.38125Q121.1 34.19375 124.19375 34.19375Q127.6625 34.19375 129.6625 36.490623Q131.67813 38.771873 131.58438 43.50625L121.27187 43.50625Q121.31875 45.334373 122.27187 46.365623Q123.225 47.38125 124.64687 47.38125Q125.6 47.38125 126.25625 46.85Q126.92812 46.31875 127.25625 45.146873ZM127.49062 40.990623Q127.45937 39.19375 126.56875 38.271873Q125.69375 37.334373 124.42812 37.334373Q123.08437 37.334373 122.20937 38.31875Q121.33437 39.303123 121.35 40.990623L127.49062 40.990623ZM149.39688 50.1L145.2875 50.1L145.2875 42.1625Q145.2875 39.646873 145.02188 38.9125Q144.75626 38.1625 144.1625 37.75625Q143.56876 37.334373 142.74063 37.334373Q141.6625 37.334373 140.81876 37.928123Q139.975 38.50625 139.64688 39.475Q139.33438 40.44375 139.33438 43.053123L139.33438 50.1L135.225 50.1L135.225 34.5375L139.05313 34.5375L139.05313 36.834373Q141.08438 34.19375 144.17813 34.19375Q145.5375 34.19375 146.6625 34.69375Q147.7875 35.178123 148.36563 35.94375Q148.94376 36.69375 149.1625 37.6625Q149.39688 38.63125 149.39688 40.428123L149.39688 50.1ZM153.25626 32.428123L153.25626 28.631248L157.36563 28.631248L157.36563 32.428123L153.25626 32.428123ZM153.25626 50.1L153.25626 34.5375L157.36563 34.5375L157.36563 50.1L153.25626 50.1ZM164.33438 39.2875L160.6 38.615623Q161.225 36.365623 162.75626 35.2875Q164.30313 34.19375 167.33438 34.19375Q170.08438 34.19375 171.42813 34.85Q172.7875 35.490623 173.33438 36.50625Q173.88126 37.50625 173.88126 40.178123L173.83438 44.990623Q173.83438 47.0375 174.02188 48.021873Q174.225 48.990623 174.77188 50.1L170.70938 50.1Q170.5375 49.69375 170.30313 48.88125Q170.20938 48.521873 170.1625 48.396873Q169.1 49.428123 167.89688 49.94375Q166.70938 50.459373 165.33438 50.459373Q162.94376 50.459373 161.55313 49.1625Q160.1625 47.85 160.1625 45.85Q160.1625 44.5375 160.7875 43.50625Q161.42813 42.475 162.55313 41.928123Q163.69376 41.365623 165.83438 40.959373Q168.725 40.4125 169.83438 39.94375L169.83438 39.5375Q169.83438 38.35 169.24063 37.85Q168.6625 37.334373 167.0375 37.334373Q165.94376 37.334373 165.31876 37.771873Q164.70938 38.209373 164.33438 39.2875ZM169.83438 42.63125Q169.05313 42.896873 167.33438 43.271873Q165.61563 43.63125 165.08438 43.975Q164.2875 44.553123 164.2875 45.428123Q164.2875 46.2875 164.92813 46.928123Q165.56876 47.553123 166.56876 47.553123Q167.67813 47.553123 168.69376 46.81875Q169.44376 46.25625 169.67813 45.459373Q169.83438 44.928123 169.83438 43.44375L169.83438 42.63125ZM176.80313 45.6625L180.92813 45.0375Q181.19376 46.225 181.99063 46.85Q182.80313 47.475 184.25626 47.475Q185.85 47.475 186.6625 46.896873Q187.20938 46.475 187.20938 45.7875Q187.20938 45.31875 186.9125 45.021873Q186.6 44.725 185.5375 44.475Q180.55313 43.38125 179.225 42.475Q177.38126 41.209373 177.38126 38.959373Q177.38126 36.94375 178.975 35.56875Q180.56876 34.19375 183.92813 34.19375Q187.11563 34.19375 188.6625 35.240623Q190.225 36.271873 190.80313 38.303123L186.92813 39.021873Q186.67813 38.115623 185.975 37.63125Q185.2875 37.146873 183.99063 37.146873Q182.36563 37.146873 181.6625 37.6Q181.19376 37.928123 181.19376 38.44375Q181.19376 38.88125 181.61563 39.19375Q182.1625 39.6 185.44376 40.35Q188.74063 41.084373 190.05313 42.178123Q191.33438 43.271873 191.33438 45.240623Q191.33438 47.38125 189.5375 48.928123Q187.75626 50.459373 184.25626 50.459373Q181.08438 50.459373 179.225 49.1625Q177.38126 47.865623 176.80313 45.6625ZM193.6 50.1L193.6 46.896873L199.42813 40.19375Q200.86563 38.553123 201.55313 37.865623Q200.83438 37.9125 199.6625 37.928123L194.1625 37.959373L194.1625 34.5375L207.0375 34.5375L207.0375 37.459373L201.08438 44.31875L198.99063 46.584373Q200.70938 46.475 201.11563 46.475L207.49063 46.475L207.49063 50.1L193.6 50.1ZM218.13126 34.5375L221.975 34.5375L221.975 36.834373Q222.725 35.6625 223.99063 34.928123Q225.27188 34.19375 226.81876 34.19375Q229.5375 34.19375 231.42813 36.31875Q233.31876 38.44375 233.31876 42.240623Q233.31876 46.13125 231.4125 48.303123Q229.50626 50.459373 226.7875 50.459373Q225.50626 50.459373 224.45938 49.94375Q223.4125 49.428123 222.25626 48.178123L222.25626 56.021873L218.13126 56.021873L218.13126 34.5375ZM222.20938 42.053123Q222.20938 44.678123 223.24063 45.928123Q224.2875 47.178123 225.7875 47.178123Q227.225 47.178123 228.1625 46.0375Q229.11563 44.88125 229.11563 42.25625Q229.11563 39.81875 228.13126 38.63125Q227.1625 37.44375 225.70938 37.44375Q224.19376 37.44375 223.19376 38.615623Q222.20938 39.771873 222.20938 42.053123ZM240.19376 50.1L236.08438 50.1L236.08438 34.5375L239.89688 34.5375L239.89688 36.75625Q240.88126 35.19375 241.6625 34.69375Q242.44376 34.19375 243.44376 34.19375Q244.85 34.19375 246.1625 34.975L244.88126 38.553123Q243.83438 37.88125 242.94376 37.88125Q242.08438 37.88125 241.475 38.365623Q240.88126 38.834373 240.5375 40.084373Q240.19376 41.31875 240.19376 45.2875L240.19376 50.1ZM246.6 50.1L246.6 46.896873L252.42813 40.19375Q253.86563 38.553123 254.55313 37.865623Q253.83438 37.9125 252.6625 37.928123L247.1625 37.959373L247.1625 34.5375L260.0375 34.5375L260.0375 37.459373L254.08438 44.31875L251.99063 46.584373Q253.70938 46.475 254.11563 46.475L260.49063 46.475L260.49063 50.1L246.6 50.1ZM272.25626 45.146873L276.36563 45.834373Q275.56876 48.1 273.86563 49.2875Q272.1625 50.459373 269.6 50.459373Q265.5375 50.459373 263.58438 47.803123Q262.05313 45.678123 262.05313 42.44375Q262.05313 38.56875 264.06876 36.38125Q266.1 34.19375 269.19376 34.19375Q272.6625 34.19375 274.6625 36.490623Q276.67813 38.771873 276.58438 43.50625L266.27188 43.50625Q266.31876 45.334373 267.27188 46.365623Q268.225 47.38125 269.64688 47.38125Q270.6 47.38125 271.25626 46.85Q271.92813 46.31875 272.25626 45.146873ZM272.49063 40.990623Q272.45938 39.19375 271.56876 38.271873Q270.69376 37.334373 269.42813 37.334373Q268.08438 37.334373 267.20938 38.31875Q266.33438 39.303123 266.35 40.990623L272.49063 40.990623ZM280.1 50.1L280.1 28.631248L284.225 28.631248L284.225 40.021873L289.0375 34.5375L294.11563 34.5375L288.7875 40.225L294.49063 50.1L290.05313 50.1L286.14688 43.115623L284.225 45.115623L284.225 50.1L280.1 50.1ZM300.33438 39.2875L296.6 38.615623Q297.225 36.365623 298.75626 35.2875Q300.30313 34.19375 303.33438 34.19375Q306.08438 34.19375 307.42813 34.85Q308.7875 35.490623 309.33438 36.50625Q309.88126 37.50625 309.88126 40.178123L309.83438 44.990623Q309.83438 47.0375 310.02188 48.021873Q310.225 48.990623 310.77188 50.1L306.70938 50.1Q306.5375 49.69375 306.30313 48.88125Q306.20938 48.521873 306.1625 48.396873Q305.1 49.428123 303.89688 49.94375Q302.70938 50.459373 301.33438 50.459373Q298.94376 50.459373 297.55313 49.1625Q296.1625 47.85 296.1625 45.85Q296.1625 44.5375 296.7875 43.50625Q297.42813 42.475 298.55313 41.928123Q299.69376 41.365623 301.83438 40.959373Q304.725 40.4125 305.83438 39.94375L305.83438 39.5375Q305.83438 38.35 305.24063 37.85Q304.6625 37.334373 303.0375 37.334373Q301.94376 37.334373 301.31876 37.771873Q300.70938 38.209373 300.33438 39.2875ZM305.83438 42.63125Q305.05313 42.896873 303.33438 43.271873Q301.61563 43.63125 301.08438 43.975Q300.2875 44.553123 300.2875 45.428123Q300.2875 46.2875 300.92813 46.928123Q301.56876 47.553123 302.56876 47.553123Q303.67813 47.553123 304.69376 46.81875Q305.44376 46.25625 305.67813 45.459373Q305.83438 44.928123 305.83438 43.44375L305.83438 42.63125ZM312.6 50.1L312.6 46.896873L318.42813 40.19375Q319.86563 38.553123 320.55313 37.865623Q319.83438 37.9125 318.6625 37.928123L313.1625 37.959373L313.1625 34.5375L326.0375 34.5375L326.0375 37.459373L320.08438 44.31875L317.99063 46.584373Q319.70938 46.475 320.11563 46.475L326.49063 46.475L326.49063 50.1L312.6 50.1ZM332.33438 39.2875L328.6 38.615623Q329.225 36.365623 330.75626 35.2875Q332.30313 34.19375 335.33438 34.19375Q338.08438 34.19375 339.42813 34.85Q340.7875 35.490623 341.33438 36.50625Q341.88126 37.50625 341.88126 40.178123L341.83438 44.990623Q341.83438 47.0375 342.02188 48.021873Q342.225 48.990623 342.77188 50.1L338.70938 50.1Q338.5375 49.69375 338.30313 48.88125Q338.20938 48.521873 338.1625 48.396873Q337.1 49.428123 335.89688 49.94375Q334.70938 50.459373 333.33438 50.459373Q330.94376 50.459373 329.55313 49.1625Q328.1625 47.85 328.1625 45.85Q328.1625 44.5375 328.7875 43.50625Q329.42813 42.475 330.55313 41.928123Q331.69376 41.365623 333.83438 40.959373Q336.725 40.4125 337.83438 39.94375L337.83438 39.5375Q337.83438 38.35 337.24063 37.85Q336.6625 37.334373 335.0375 37.334373Q333.94376 37.334373 333.31876 37.771873Q332.70938 38.209373 332.33438 39.2875ZM337.83438 42.63125Q337.05313 42.896873 335.33438 43.271873Q333.61563 43.63125 333.08438 43.975Q332.2875 44.553123 332.2875 45.428123Q332.2875 46.2875 332.92813 46.928123Q333.56876 47.553123 334.56876 47.553123Q335.67813 47.553123 336.69376 46.81875Q337.44376 46.25625 337.67813 45.459373Q337.83438 44.928123 337.83438 43.44375L337.83438 42.63125ZM360.39688 50.1L356.2875 50.1L356.2875 42.1625Q356.2875 39.646873 356.02188 38.9125Q355.75626 38.1625 355.1625 37.75625Q354.56876 37.334373 353.74063 37.334373Q352.6625 37.334373 351.81876 37.928123Q350.975 38.50625 350.64688 39.475Q350.33438 40.44375 350.33438 43.053123L350.33438 50.1L346.225 50.1L346.225 34.5375L350.05313 34.5375L350.05313 36.834373Q352.08438 34.19375 355.17813 34.19375Q356.5375 34.19375 357.6625 34.69375Q358.7875 35.178123 359.36563 35.94375Q359.94376 36.69375 360.1625 37.6625Q360.39688 38.63125 360.39688 40.428123L360.39688 50.1ZM373.25626 45.146873L377.36563 45.834373Q376.56876 48.1 374.86563 49.2875Q373.1625 50.459373 370.6 50.459373Q366.5375 50.459373 364.58438 47.803123Q363.05313 45.678123 363.05313 42.44375Q363.05313 38.56875 365.06876 36.38125Q367.1 34.19375 370.19376 34.19375Q373.6625 34.19375 375.6625 36.490623Q377.67813 38.771873 377.58438 43.50625L367.27188 43.50625Q367.31876 45.334373 368.27188 46.365623Q369.225 47.38125 370.64688 47.38125Q371.6 47.38125 372.25626 46.85Q372.92813 46.31875 373.25626 45.146873ZM373.49063 40.990623Q373.45938 39.19375 372.56876 38.271873Q371.69376 37.334373 370.42813 37.334373Q369.08438 37.334373 368.20938 38.31875Q367.33438 39.303123 367.35 40.990623L373.49063 40.990623ZM403.02188 42.209373L407.225 43.5375Q406.25626 47.053123 404.00626 48.75625Q401.75626 50.459373 398.30313 50.459373Q394.02188 50.459373 391.27188 47.5375Q388.52188 44.615623 388.52188 39.553123Q388.52188 34.19375 391.2875 31.224998Q394.05313 28.256248 398.56876 28.256248Q402.50626 28.256248 404.975 30.584373Q406.44376 31.959373 407.1625 34.5375L402.88126 35.56875Q402.49063 33.896873 401.2875 32.928123Q400.08438 31.959373 398.35 31.959373Q395.95938 31.959373 394.475 33.678123Q392.99063 35.396873 392.99063 39.225Q392.99063 43.303123 394.44376 45.0375Q395.9125 46.75625 398.25626 46.75625Q399.99063 46.75625 401.225 45.6625Q402.475 44.56875 403.02188 42.209373ZM411.25626 32.428123L411.25626 28.631248L415.36563 28.631248L415.36563 32.428123L411.25626 32.428123ZM411.25626 50.1L411.25626 34.5375L415.36563 34.5375L415.36563 50.1L411.25626 50.1ZM427.25626 32.428123L427.25626 28.631248L431.36563 28.631248L431.36563 32.428123L427.25626 32.428123ZM427.25626 50.1L427.25626 34.5375L431.36563 34.5375L431.36563 50.1L427.25626 50.1ZM449.39688 50.1L445.2875 50.1L445.2875 42.1625Q445.2875 39.646873 445.02188 38.9125Q444.75626 38.1625 444.1625 37.75625Q443.56876 37.334373 442.74063 37.334373Q441.6625 37.334373 440.81876 37.928123Q439.975 38.50625 439.64688 39.475Q439.33438 40.44375 439.33438 43.053123L439.33438 50.1L435.225 50.1L435.225 34.5375L439.05313 34.5375L439.05313 36.834373Q441.08438 34.19375 444.17813 34.19375Q445.5375 34.19375 446.6625 34.69375Q447.7875 35.178123 448.36563 35.94375Q448.94376 36.69375 449.1625 37.6625Q449.39688 38.63125 449.39688 40.428123L449.39688 50.1ZM451.45938 34.5375L453.74063 34.5375L453.74063 33.365623Q453.74063 31.412498 454.14688 30.443748Q454.56876 29.474998 455.69376 28.865623Q456.81876 28.256248 458.52188 28.256248Q460.2875 28.256248 461.975 28.787498L461.4125 31.662498Q460.42813 31.428123 459.52188 31.428123Q458.63126 31.428123 458.24063 31.849998Q457.85 32.25625 457.85 33.44375L457.85 34.5375L460.92813 34.5375L460.92813 37.7875L457.85 37.7875L457.85 50.1L453.74063 50.1L453.74063 37.7875L451.45938 37.7875L451.45938 34.5375ZM462.30313 42.1Q462.30313 40.053123 463.30313 38.13125Q464.31876 36.209373 466.1625 35.209373Q468.02188 34.19375 470.31876 34.19375Q473.85 34.19375 476.1 36.490623Q478.35 38.771873 478.35 42.271873Q478.35 45.803123 476.06876 48.13125Q473.80313 50.459373 470.35 50.459373Q468.20938 50.459373 466.25626 49.490623Q464.31876 48.521873 463.30313 46.6625Q462.30313 44.7875 462.30313 42.1ZM466.52188 42.31875Q466.52188 44.63125 467.61563 45.865623Q468.725 47.1 470.33438 47.1Q471.94376 47.1 473.02188 45.865623Q474.11563 44.63125 474.11563 42.2875Q474.11563 40.00625 473.02188 38.7875Q471.94376 37.553123 470.33438 37.553123Q468.725 37.553123 467.61563 38.7875Q466.52188 40.00625 466.52188 42.31875ZM485.19376 50.1L481.08438 50.1L481.08438 34.5375L484.89688 34.5375L484.89688 36.75625Q485.88126 35.19375 486.6625 34.69375Q487.44376 34.19375 488.44376 34.19375Q489.85 34.19375 491.1625 34.975L489.88126 38.553123Q488.83438 37.88125 487.94376 37.88125Q487.08438 37.88125 486.475 38.365623Q485.88126 38.834373 485.5375 40.084373Q485.19376 41.31875 485.19376 45.2875L485.19376 50.1ZM492.94376 34.5375L496.74063 34.5375L496.74063 36.6625Q498.77188 34.19375 501.58438 34.19375Q503.08438 34.19375 504.17813 34.81875Q505.2875 35.428123 505.99063 36.6625Q507.00626 35.428123 508.19376 34.81875Q509.38126 34.19375 510.725 34.19375Q512.4437 34.19375 513.6312 34.896873Q514.8187 35.584373 515.39685 36.928123Q515.83435 37.928123 515.83435 40.146873L515.83435 50.1L511.70938 50.1L511.70938 41.209373Q511.70938 38.896873 511.2875 38.225Q510.70938 37.334373 509.52188 37.334373Q508.6625 37.334373 507.89688 37.865623Q507.14688 38.396873 506.80313 39.4125Q506.45938 40.428123 506.45938 42.63125L506.45938 50.1L502.35 50.1L502.35 41.56875Q502.35 39.303123 502.13126 38.646873Q501.9125 37.990623 501.44376 37.6625Q500.99063 37.334373 500.19376 37.334373Q499.24063 37.334373 498.475 37.85Q497.725 38.365623 497.39688 39.334373Q497.06876 40.303123 497.06876 42.5375L497.06876 50.1L492.94376 50.1L492.94376 34.5375ZM522.33435 39.2875L518.6 38.615623Q519.225 36.365623 520.7562 35.2875Q522.3031 34.19375 525.33435 34.19375Q528.08435 34.19375 529.4281 34.85Q530.7875 35.490623 531.33435 36.50625Q531.8812 37.50625 531.8812 40.178123L531.83435 44.990623Q531.83435 47.0375 532.02185 48.021873Q532.225 48.990623 532.77185 50.1L528.70935 50.1Q528.5375 49.69375 528.3031 48.88125Q528.20935 48.521873 528.1625 48.396873Q527.1 49.428123 525.89685 49.94375Q524.70935 50.459373 523.33435 50.459373Q520.9437 50.459373 519.5531 49.1625Q518.1625 47.85 518.1625 45.85Q518.1625 44.5375 518.7875 43.50625Q519.4281 42.475 520.5531 41.928123Q521.6937 41.365623 523.83435 40.959373Q526.725 40.4125 527.83435 39.94375L527.83435 39.5375Q527.83435 38.35 527.2406 37.85Q526.6625 37.334373 525.0375 37.334373Q523.9437 37.334373 523.3187 37.771873Q522.70935 38.209373 522.33435 39.2875ZM527.83435 42.63125Q527.0531 42.896873 525.33435 43.271873Q523.6156 43.63125 523.08435 43.975Q522.2875 44.553123 522.2875 45.428123Q522.2875 46.2875 522.9281 46.928123Q523.5687 47.553123 524.5687 47.553123Q525.6781 47.553123 526.6937 46.81875Q527.4437 46.25625 527.6781 45.459373Q527.83435 44.928123 527.83435 43.44375L527.83435 42.63125ZM549.8187 39.146873L545.7562 39.88125Q545.5531 38.6625 544.8187 38.053123Q544.1 37.428123 542.9437 37.428123Q541.4125 37.428123 540.4906 38.490623Q539.58435 39.553123 539.58435 42.0375Q539.58435 44.81875 540.5062 45.959373Q541.4437 47.1 543.0062 47.1Q544.1781 47.1 544.9281 46.428123Q545.6781 45.75625 545.975 44.13125L550.02185 44.81875Q549.39685 47.615623 547.6 49.0375Q545.8187 50.459373 542.8187 50.459373Q539.39685 50.459373 537.3656 48.303123Q535.35 46.146873 535.35 42.334373Q535.35 38.490623 537.3812 36.35Q539.4125 34.19375 542.89685 34.19375Q545.725 34.19375 547.39685 35.4125Q549.08435 36.63125 549.8187 39.146873ZM553.1625 32.428123L553.1625 28.631248L557.2875 28.631248L557.2875 32.428123L553.1625 32.428123ZM557.2875 34.5375L557.2875 49.615623Q557.2875 52.584373 556.89685 53.803123Q556.5062 55.0375 555.39685 55.725Q554.2875 56.4125 552.58435 56.4125Q551.95935 56.4125 551.2406 56.303123Q550.5375 56.19375 549.725 55.975L550.4437 52.459373Q550.7406 52.521873 550.9906 52.553123Q551.2406 52.584373 551.45935 52.584373Q552.1 52.584373 552.4906 52.31875Q552.89685 52.053123 553.02185 51.6625Q553.1625 51.2875 553.1625 49.38125L553.1625 34.5375L557.2875 34.5375ZM571.2562 45.146873L575.3656 45.834373Q574.5687 48.1 572.8656 49.2875Q571.1625 50.459373 568.6 50.459373Q564.5375 50.459373 562.58435 47.803123Q561.0531 45.678123 561.0531 42.44375Q561.0531 38.56875 563.0687 36.38125Q565.1 34.19375 568.1937 34.19375Q571.6625 34.19375 573.6625 36.490623Q575.6781 38.771873 575.58435 43.50625L565.27185 43.50625Q565.3187 45.334373 566.27185 46.365623Q567.225 47.38125 568.64685 47.38125Q569.6 47.38125 570.2562 46.85Q570.9281 46.31875 571.2562 45.146873ZM571.4906 40.990623Q571.45935 39.19375 570.5687 38.271873Q569.6937 37.334373 568.4281 37.334373Q567.08435 37.334373 566.20935 38.31875Q565.33435 39.303123 565.35 40.990623L571.4906 40.990623ZM586.3031 42.1Q586.3031 40.053123 587.3031 38.13125Q588.3187 36.209373 590.1625 35.209373Q592.02185 34.19375 594.3187 34.19375Q597.85 34.19375 600.1 36.490623Q602.35 38.771873 602.35 42.271873Q602.35 45.803123 600.0687 48.13125Q597.8031 50.459373 594.35 50.459373Q592.20935 50.459373 590.2562 49.490623Q588.3187 48.521873 587.3031 46.6625Q586.3031 44.7875 586.3031 42.1ZM590.52185 42.31875Q590.52185 44.63125 591.6156 45.865623Q592.725 47.1 594.33435 47.1Q595.9437 47.1 597.02185 45.865623Q598.1156 44.63125 598.1156 42.2875Q598.1156 40.00625 597.02185 38.7875Q595.9437 37.553123 594.33435 37.553123Q592.725 37.553123 591.6156 38.7875Q590.52185 40.00625 590.52185 42.31875ZM619.52185 50.1L615.6937 50.1L615.6937 47.81875Q614.7406 49.146873 613.4437 49.803123Q612.14685 50.459373 610.83435 50.459373Q608.14685 50.459373 606.2406 48.303123Q604.33435 46.13125 604.33435 42.25625Q604.33435 38.303123 606.1937 36.25625Q608.0531 34.19375 610.89685 34.19375Q613.5062 34.19375 615.4125 36.365623L615.4125 28.631248L619.52185 28.631248L619.52185 50.1ZM608.5375 41.990623Q608.5375 44.475 609.225 45.584373Q610.225 47.19375 612.0062 47.19375Q613.4281 47.19375 614.4125 45.990623Q615.4125 44.7875 615.4125 42.38125Q615.4125 39.69375 614.4437 38.521873Q613.4906 37.334373 611.975 37.334373Q610.5062 37.334373 609.52185 38.50625Q608.5375 39.6625 608.5375 41.990623ZM637.39685 50.1L633.2875 50.1L633.2875 42.1625Q633.2875 39.646873 633.02185 38.9125Q632.7562 38.1625 632.1625 37.75625Q631.5687 37.334373 630.7406 37.334373Q629.6625 37.334373 628.8187 37.928123Q627.975 38.50625 627.64685 39.475Q627.33435 40.44375 627.33435 43.053123L627.33435 50.1L623.225 50.1L623.225 34.5375L627.0531 34.5375L627.0531 36.834373Q629.08435 34.19375 632.1781 34.19375Q633.5375 34.19375 634.6625 34.69375Q635.7875 35.178123 636.3656 35.94375Q636.9437 36.69375 637.1625 37.6625Q637.39685 38.63125 637.39685 40.428123L637.39685 50.1ZM640.3031 42.1Q640.3031 40.053123 641.3031 38.13125Q642.3187 36.209373 644.1625 35.209373Q646.02185 34.19375 648.3187 34.19375Q651.85 34.19375 654.1 36.490623Q656.35 38.771873 656.35 42.271873Q656.35 45.803123 654.0687 48.13125Q651.8031 50.459373 648.35 50.459373Q646.20935 50.459373 644.2562 49.490623Q642.3187 48.521873 641.3031 46.6625Q640.3031 44.7875 640.3031 42.1ZM644.52185 42.31875Q644.52185 44.63125 645.6156 45.865623Q646.725 47.1 648.33435 47.1Q649.9437 47.1 651.02185 45.865623Q652.1156 44.63125 652.1156 42.2875Q652.1156 40.00625 651.02185 38.7875Q649.9437 37.553123 648.33435 37.553123Q646.725 37.553123 645.6156 38.7875Q644.52185 40.00625 644.52185 42.31875ZM657.8031 45.6625L661.9281 45.0375Q662.1937 46.225 662.9906 46.85Q663.8031 47.475 665.2562 47.475Q666.85 47.475 667.6625 46.896873Q668.20935 46.475 668.20935 45.7875Q668.20935 45.31875 667.9125 45.021873Q667.6 44.725 666.5375 44.475Q661.5531 43.38125 660.225 42.475Q658.3812 41.209373 658.3812 38.959373Q658.3812 36.94375 659.975 35.56875Q661.5687 34.19375 664.9281 34.19375Q668.1156 34.19375 669.6625 35.240623Q671.225 36.271873 671.8031 38.303123L667.9281 39.021873Q667.6781 38.115623 666.975 37.63125Q666.2875 37.146873 664.9906 37.146873Q663.3656 37.146873 662.6625 37.6Q662.1937 37.928123 662.1937 38.44375Q662.1937 38.88125 662.6156 39.19375Q663.1625 39.6 666.4437 40.35Q669.7406 41.084373 671.0531 42.178123Q672.33435 43.271873 672.33435 45.240623Q672.33435 47.38125 670.5375 48.928123Q668.7562 50.459373 665.2562 50.459373Q662.08435 50.459373 660.225 49.1625Q658.3812 47.865623 657.8031 45.6625ZM663.7406 32.63125L665.77185 28.256248L670.3812 28.256248L666.35 32.63125L663.7406 32.63125ZM690.39685 50.1L686.2875 50.1L686.2875 42.1625Q686.2875 39.646873 686.02185 38.9125Q685.7562 38.1625 685.1625 37.75625Q684.5687 37.334373 683.7406 37.334373Q682.6625 37.334373 681.8187 37.928123Q680.975 38.50625 680.64685 39.475Q680.33435 40.44375 680.33435 43.053123L680.33435 50.1L676.225 50.1L676.225 34.5375L680.0531 34.5375L680.0531 36.834373Q682.08435 34.19375 685.1781 34.19375Q686.5375 34.19375 687.6625 34.69375Q688.7875 35.178123 689.3656 35.94375Q689.9437 36.69375 690.1625 37.6625Q690.39685 38.63125 690.39685 40.428123L690.39685 50.1ZM694.2562 32.428123L694.2562 28.631248L698.3656 28.631248L698.3656 32.428123L694.2562 32.428123ZM694.2562 50.1L694.2562 34.5375L698.3656 34.5375L698.3656 50.1L694.2562 50.1ZM711.2562 45.146873L715.3656 45.834373Q714.5687 48.1 712.8656 49.2875Q711.1625 50.459373 708.6 50.459373Q704.5375 50.459373 702.58435 47.803123Q701.0531 45.678123 701.0531 42.44375Q701.0531 38.56875 703.0687 36.38125Q705.1 34.19375 708.1937 34.19375Q711.6625 34.19375 713.6625 36.490623Q715.6781 38.771873 715.58435 43.50625L705.27185 43.50625Q705.3187 45.334373 706.27185 46.365623Q707.225 47.38125 708.64685 47.38125Q709.6 47.38125 710.2562 46.85Q710.9281 46.31875 711.2562 45.146873ZM711.4906 40.990623Q711.45935 39.19375 710.5687 38.271873Q709.6937 37.334373 708.4281 37.334373Q707.08435 37.334373 706.20935 38.31875Q705.33435 39.303123 705.35 40.990623L711.4906 40.990623ZM731.1937 50.1L727.08435 50.1L727.08435 34.5375L730.89685 34.5375L730.89685 36.75625Q731.8812 35.19375 732.6625 34.69375Q733.4437 34.19375 734.4437 34.19375Q735.85 34.19375 737.1625 34.975L735.8812 38.553123Q734.83435 37.88125 733.9437 37.88125Q733.08435 37.88125 732.475 38.365623Q731.8812 38.834373 731.5375 40.084373Q731.1937 41.31875 731.1937 45.2875L731.1937 50.1ZM748.2562 45.146873L752.3656 45.834373Q751.5687 48.1 749.8656 49.2875Q748.1625 50.459373 745.6 50.459373Q741.5375 50.459373 739.58435 47.803123Q738.0531 45.678123 738.0531 42.44375Q738.0531 38.56875 740.0687 36.38125Q742.1 34.19375 745.1937 34.19375Q748.6625 34.19375 750.6625 36.490623Q752.6781 38.771873 752.58435 43.50625L742.27185 43.50625Q742.3187 45.334373 743.27185 46.365623Q744.225 47.38125 745.64685 47.38125Q746.6 47.38125 747.2562 46.85Q747.9281 46.31875 748.2562 45.146873ZM748.4906 40.990623Q748.45935 39.19375 747.5687 38.271873Q746.6937 37.334373 745.4281 37.334373Q744.08435 37.334373 743.20935 38.31875Q742.33435 39.303123 742.35 40.990623L748.4906 40.990623ZM759.33435 39.2875L755.6 38.615623Q756.225 36.365623 757.7562 35.2875Q759.3031 34.19375 762.33435 34.19375Q765.08435 34.19375 766.4281 34.85Q767.7875 35.490623 768.33435 36.50625Q768.8812 37.50625 768.8812 40.178123L768.83435 44.990623Q768.83435 47.0375 769.02185 48.021873Q769.225 48.990623 769.77185 50.1L765.70935 50.1Q765.5375 49.69375 765.3031 48.88125Q765.20935 48.521873 765.1625 48.396873Q764.1 49.428123 762.89685 49.94375Q761.70935 50.459373 760.33435 50.459373Q757.9437 50.459373 756.5531 49.1625Q755.1625 47.85 755.1625 45.85Q755.1625 44.5375 755.7875 43.50625Q756.4281 42.475 757.5531 41.928123Q758.6937 41.365623 760.83435 40.959373Q763.725 40.4125 764.83435 39.94375L764.83435 39.5375Q764.83435 38.35 764.2406 37.85Q763.6625 37.334373 762.0375 37.334373Q760.9437 37.334373 760.3187 37.771873Q759.70935 38.209373 759.33435 39.2875ZM764.83435 42.63125Q764.0531 42.896873 762.33435 43.271873Q760.6156 43.63125 760.08435 43.975Q759.2875 44.553123 759.2875 45.428123Q759.2875 46.2875 759.9281 46.928123Q760.5687 47.553123 761.5687 47.553123Q762.6781 47.553123 763.6937 46.81875Q764.4437 46.25625 764.6781 45.459373Q764.83435 44.928123 764.83435 43.44375L764.83435 42.63125ZM773.2562 50.1L773.2562 28.631248L777.3656 28.631248L777.3656 50.1L773.2562 50.1ZM781.2562 32.428123L781.2562 28.631248L785.3656 28.631248L785.3656 32.428123L781.2562 32.428123ZM781.2562 50.1L781.2562 34.5375L785.3656 34.5375L785.3656 50.1L781.2562 50.1ZM787.6 50.1L787.6 46.896873L793.4281 40.19375Q794.8656 38.553123 795.5531 37.865623Q794.83435 37.9125 793.6625 37.928123L788.1625 37.959373L788.1625 34.5375L801.0375 34.5375L801.0375 37.459373L795.08435 44.31875L792.9906 46.584373Q794.70935 46.475 795.1156 46.475L801.4906 46.475L801.4906 50.1L787.6 50.1ZM803.3031 42.1Q803.3031 40.053123 804.3031 38.13125Q805.3187 36.209373 807.1625 35.209373Q809.02185 34.19375 811.3187 34.19375Q814.85 34.19375 817.1 36.490623Q819.35 38.771873 819.35 42.271873Q819.35 45.803123 817.0687 48.13125Q814.8031 50.459373 811.35 50.459373Q809.20935 50.459373 807.2562 49.490623Q805.3187 48.521873 804.3031 46.6625Q803.3031 44.7875 803.3031 42.1ZM807.52185 42.31875Q807.52185 44.63125 808.6156 45.865623Q809.725 47.1 811.33435 47.1Q812.9437 47.1 814.02185 45.865623Q815.1156 44.63125 815.1156 42.2875Q815.1156 40.00625 814.02185 38.7875Q812.9437 37.553123 811.33435 37.553123Q809.725 37.553123 808.6156 38.7875Q807.52185 40.00625 807.52185 42.31875ZM825.14685 50.1L820.225 34.5375L824.225 34.5375L827.14685 44.740623L829.83435 34.5375L833.8031 34.5375L836.39685 44.740623L839.3656 34.5375L843.4281 34.5375L838.4281 50.1L834.475 50.1L831.7875 40.1L829.14685 50.1L825.14685 50.1ZM850.33435 39.2875L846.6 38.615623Q847.225 36.365623 848.7562 35.2875Q850.3031 34.19375 853.33435 34.19375Q856.08435 34.19375 857.4281 34.85Q858.7875 35.490623 859.33435 36.50625Q859.8812 37.50625 859.8812 40.178123L859.83435 44.990623Q859.83435 47.0375 860.02185 48.021873Q860.225 48.990623 860.77185 50.1L856.70935 50.1Q856.5375 49.69375 856.3031 48.88125Q856.20935 48.521873 856.1625 48.396873Q855.1 49.428123 853.89685 49.94375Q852.70935 50.459373 851.33435 50.459373Q848.9437 50.459373 847.5531 49.1625Q846.1625 47.85 846.1625 45.85Q846.1625 44.5375 846.7875 43.50625Q847.4281 42.475 848.5531 41.928123Q849.6937 41.365623 851.83435 40.959373Q854.725 40.4125 855.83435 39.94375L855.83435 39.5375Q855.83435 38.35 855.2406 37.85Q854.6625 37.334373 853.0375 37.334373Q851.9437 37.334373 851.3187 37.771873Q850.70935 38.209373 850.33435 39.2875ZM855.83435 42.63125Q855.0531 42.896873 853.33435 43.271873Q851.6156 43.63125 851.08435 43.975Q850.2875 44.553123 850.2875 45.428123Q850.2875 46.2875 850.9281 46.928123Q851.5687 47.553123 852.5687 47.553123Q853.6781 47.553123 854.6937 46.81875Q855.4437 46.25625 855.6781 45.459373Q855.83435 44.928123 855.83435 43.44375L855.83435 42.63125ZM878.39685 50.1L874.2875 50.1L874.2875 42.1625Q874.2875 39.646873 874.02185 38.9125Q873.7562 38.1625 873.1625 37.75625Q872.5687 37.334373 871.7406 37.334373Q870.6625 37.334373 869.8187 37.928123Q868.975 38.50625 868.64685 39.475Q868.33435 40.44375 868.33435 43.053123L868.33435 50.1L864.225 50.1L864.225 34.5375L868.0531 34.5375L868.0531 36.834373Q870.08435 34.19375 873.1781 34.19375Q874.5375 34.19375 875.6625 34.69375Q876.7875 35.178123 877.3656 35.94375Q877.9437 36.69375 878.1625 37.6625Q878.39685 38.63125 878.39685 40.428123L878.39685 50.1ZM891.2562 45.146873L895.3656 45.834373Q894.5687 48.1 892.8656 49.2875Q891.1625 50.459373 888.6 50.459373Q884.5375 50.459373 882.58435 47.803123Q881.0531 45.678123 881.0531 42.44375Q881.0531 38.56875 883.0687 36.38125Q885.1 34.19375 888.1937 34.19375Q891.6625 34.19375 893.6625 36.490623Q895.6781 38.771873 895.58435 43.50625L885.27185 43.50625Q885.3187 45.334373 886.27185 46.365623Q887.225 47.38125 888.64685 47.38125Q889.6 47.38125 890.2562 46.85Q890.9281 46.31875 891.2562 45.146873ZM891.4906 40.990623Q891.45935 39.19375 890.5687 38.271873Q889.6937 37.334373 888.4281 37.334373Q887.08435 37.334373 886.20935 38.31875Q885.33435 39.303123 885.35 40.990623L891.4906 40.990623ZM899.1625 32.428123L899.1625 28.631248L903.2875 28.631248L903.2875 32.428123L899.1625 32.428123ZM903.2875 34.5375L903.2875 49.615623Q903.2875 52.584373 902.89685 53.803123Q902.5062 55.0375 901.39685 55.725Q900.2875 56.4125 898.58435 56.4125Q897.95935 56.4125 897.2406 56.303123Q896.5375 56.19375 895.725 55.975L896.4437 52.459373Q896.7406 52.521873 896.9906 52.553123Q897.2406 52.584373 897.45935 52.584373Q898.1 52.584373 898.4906 52.31875Q898.89685 52.053123 899.02185 51.6625Q899.1625 51.2875 899.1625 49.38125L899.1625 34.5375L903.2875 34.5375ZM926.4906 50.1L926.4906 47.771873Q925.64685 49.021873 924.2562 49.740623Q922.8812 50.459373 921.33435 50.459373Q919.77185 50.459373 918.52185 49.771873Q917.27185 49.06875 916.70935 47.834373Q916.1625 46.584373 916.1625 44.38125L916.1625 34.5375L920.2875 34.5375L920.2875 41.69375Q920.2875 44.975 920.5062 45.725Q920.7406 46.459373 921.33435 46.896873Q921.9437 47.31875 922.8656 47.31875Q923.9125 47.31875 924.7406 46.740623Q925.58435 46.1625 925.8812 45.303123Q926.1937 44.44375 926.1937 41.1L926.1937 34.5375L930.3187 34.5375L930.3187 50.1L926.4906 50.1ZM932.8031 45.6625L936.9281 45.0375Q937.1937 46.225 937.9906 46.85Q938.8031 47.475 940.2562 47.475Q941.85 47.475 942.6625 46.896873Q943.20935 46.475 943.20935 45.7875Q943.20935 45.31875 942.9125 45.021873Q942.6 44.725 941.5375 44.475Q936.5531 43.38125 935.225 42.475Q933.3812 41.209373 933.3812 38.959373Q933.3812 36.94375 934.975 35.56875Q936.5687 34.19375 939.9281 34.19375Q943.1156 34.19375 944.6625 35.240623Q946.225 36.271873 946.8031 38.303123L942.9281 39.021873Q942.6781 38.115623 941.975 37.63125Q941.2875 37.146873 939.9906 37.146873Q938.3656 37.146873 937.6625 37.6Q937.1937 37.928123 937.1937 38.44375Q937.1937 38.88125 937.6156 39.19375Q938.1625 39.6 941.4437 40.35Q944.7406 41.084373 946.0531 42.178123Q947.33435 43.271873 947.33435 45.240623Q947.33435 47.38125 945.5375 48.928123Q943.7562 50.459373 940.2562 50.459373Q937.08435 50.459373 935.225 49.1625Q933.3812 47.865623 932.8031 45.6625ZM951.2562 39.553123L951.2562 28.631248L955.3656 28.631248L955.3656 36.053123L957.3812 34.35L957.3812 37.13125L955.3656 38.834373L955.3656 50.1L951.2562 50.1L951.2562 42.334373L949.2406 44.0375L949.2406 41.25625L951.2562 39.553123ZM969.4906 50.1L969.4906 47.771873Q968.64685 49.021873 967.2562 49.740623Q965.8812 50.459373 964.33435 50.459373Q962.77185 50.459373 961.52185 49.771873Q960.27185 49.06875 959.70935 47.834373Q959.1625 46.584373 959.1625 44.38125L959.1625 34.5375L963.2875 34.5375L963.2875 41.69375Q963.2875 44.975 963.5062 45.725Q963.7406 46.459373 964.33435 46.896873Q964.9437 47.31875 965.8656 47.31875Q966.9125 47.31875 967.7406 46.740623Q968.58435 46.1625 968.8812 45.303123Q969.1937 44.44375 969.1937 41.1L969.1937 34.5375L973.3187 34.5375L973.3187 50.1L969.4906 50.1ZM976.8656 51.13125L981.5687 51.69375Q981.6937 52.521873 982.1156 52.81875Q982.70935 53.271873 983.95935 53.271873Q985.5687 53.271873 986.3812 52.7875Q986.9281 52.459373 987.1937 51.740623Q987.39685 51.225 987.39685 49.85L987.39685 47.584373Q985.5375 50.1 982.725 50.1Q979.6 50.1 977.77185 47.44375Q976.33435 45.35 976.33435 42.240623Q976.33435 38.31875 978.20935 36.25625Q980.1 34.19375 982.89685 34.19375Q985.77185 34.19375 987.64685 36.725L987.64685 34.5375L991.5062 34.5375L991.5062 48.50625Q991.5062 51.25625 991.0531 52.615623Q990.6 53.975 989.77185 54.75625Q988.95935 55.5375 987.58435 55.975Q986.225 56.4125 984.1312 56.4125Q980.1625 56.4125 978.5062 55.053123Q976.8656 53.709373 976.8656 51.63125Q976.8656 51.4125 976.8656 51.13125ZM980.5531 42.00625Q980.5531 44.475 981.5062 45.63125Q982.475 46.771873 983.8812 46.771873Q985.3812 46.771873 986.4125 45.6Q987.45935 44.4125 987.45935 42.1Q987.45935 39.678123 986.45935 38.50625Q985.475 37.334373 983.9437 37.334373Q982.475 37.334373 981.5062 38.490623Q980.5531 39.646873 980.5531 42.00625ZM995.2562 32.428123L995.2562 28.631248L999.3656 28.631248L999.3656 32.428123L995.2562 32.428123ZM995.2562 50.1L995.2562 34.5375L999.3656 34.5375L999.3656 50.1L995.2562 50.1ZM1012.1 44.56875L1008.3656 44.56875Q1008.35 43.75625 1008.35 43.584373Q1008.35 41.771873 1008.9437 40.6Q1009.5531 39.428123 1011.35 37.959373Q1013.1625 36.490623 1013.5062 36.0375Q1014.0531 35.31875 1014.0531 34.459373Q1014.0531 33.25625 1013.08435 32.396873Q1012.1312 31.537498 1010.5062 31.537498Q1008.9437 31.537498 1007.8812 32.44375Q1006.83435 33.334373 1006.4281 35.1625L1002.64685 34.69375Q1002.8187 32.06875 1004.8812 30.240623Q1006.95935 28.412498 1010.33435 28.412498Q1013.8812 28.412498 1015.975 30.271873Q1018.0687 32.115623 1018.0687 34.56875Q1018.0687 35.928123 1017.2875 37.146873Q1016.52185 38.365623 1014.0062 40.459373Q1012.70935 41.5375 1012.3812 42.209373Q1012.0687 42.865623 1012.1 44.56875ZM1008.3656 50.1L1008.3656 45.990623L1012.475 45.990623L1012.475 50.1L1008.3656 50.1Z" fill-rule="nonzero"/></svg>