<svg width="1131" height="443" viewBox="0 0 1131 443" fill="none" xmlns="http://www.w3.org/2000/svg">
<g clip-path="url(#clip0)">
<path d="M0 0.921875H1131V442.922H0V0.921875Z" fill="white"/>
<path d="M274.035 72.7549C342.169 72.7549 404.037 112.515 432.341 174.492C460.645 236.469 450.179 309.263 405.56 360.756L280.611 252.487C282.842 249.912 283.365 246.272 281.95 243.173C280.535 240.075 277.441 238.087 274.035 238.087V72.7549Z" fill="#4285F4"/>
<path d="M101.773 271.556C94.5888 221.591 109.453 170.969 142.509 132.821C175.565 94.6718 223.556 72.7549 274.034 72.7549V238.087C271.511 238.087 269.111 239.182 267.458 241.09C265.805 242.997 265.062 245.528 265.421 248.027L101.773 271.556Z" fill="#FBBC04"/>
<path d="M405.56 360.756C360.941 412.248 290.378 432.967 225.004 413.772C159.629 394.576 111.469 338.996 101.772 271.556L265.421 248.026C265.906 251.398 268.314 254.177 271.583 255.137C274.852 256.097 278.38 255.061 280.611 252.486L405.56 360.756Z" fill="#EA4335"/>
<path d="M345.727 202.681L347.836 202.4C348.076 203.587 348.487 204.447 349.071 204.978C349.654 205.509 350.362 205.775 351.196 205.775C352.185 205.775 353.019 205.431 353.696 204.744C354.383 204.056 354.727 203.202 354.727 202.181C354.727 201.212 354.409 200.416 353.774 199.791C353.149 199.155 352.347 198.837 351.368 198.837C350.972 198.837 350.477 198.916 349.883 199.072L350.118 197.228C350.253 197.238 350.368 197.244 350.461 197.244C351.357 197.244 352.165 197.009 352.883 196.541C353.602 196.072 353.961 195.353 353.961 194.384C353.961 193.603 353.696 192.962 353.165 192.462C352.644 191.952 351.972 191.697 351.149 191.697C350.326 191.697 349.639 191.957 349.086 192.478C348.545 192.988 348.196 193.759 348.04 194.791L345.93 194.416C346.191 192.999 346.774 191.905 347.68 191.134C348.597 190.353 349.737 189.962 351.102 189.962C352.04 189.962 352.899 190.166 353.68 190.572C354.472 190.968 355.076 191.514 355.493 192.212C355.92 192.91 356.133 193.65 356.133 194.431C356.133 195.171 355.93 195.848 355.524 196.462C355.128 197.067 354.54 197.546 353.758 197.9C354.779 198.139 355.571 198.629 356.133 199.369C356.696 200.108 356.977 201.03 356.977 202.134C356.977 203.634 356.43 204.91 355.336 205.962C354.243 207.004 352.857 207.525 351.18 207.525C349.67 207.525 348.415 207.077 347.415 206.181C346.425 205.275 345.862 204.108 345.727 202.681ZM369.649 194.244L367.555 194.4C367.368 193.577 367.102 192.978 366.758 192.603C366.185 191.999 365.482 191.697 364.649 191.697C363.982 191.697 363.394 191.884 362.883 192.259C362.217 192.738 361.691 193.447 361.305 194.384C360.93 195.311 360.732 196.634 360.711 198.353C361.222 197.582 361.842 197.009 362.571 196.634C363.31 196.259 364.081 196.072 364.883 196.072C366.29 196.072 367.487 196.587 368.477 197.619C369.467 198.65 369.961 199.988 369.961 201.634C369.961 202.707 369.727 203.707 369.258 204.634C368.8 205.561 368.165 206.275 367.352 206.775C366.54 207.264 365.618 207.509 364.586 207.509C362.826 207.509 361.388 206.863 360.274 205.572C359.17 204.27 358.618 202.134 358.618 199.166C358.618 195.853 359.232 193.442 360.461 191.931C361.524 190.619 362.961 189.962 364.774 189.962C366.128 189.962 367.237 190.343 368.102 191.103C368.967 191.853 369.482 192.9 369.649 194.244ZM361.04 201.65C361.04 202.369 361.191 203.061 361.493 203.728C361.805 204.395 362.237 204.905 362.79 205.259C363.352 205.603 363.935 205.775 364.54 205.775C365.435 205.775 366.201 205.416 366.836 204.697C367.482 203.978 367.805 202.999 367.805 201.759C367.805 200.572 367.487 199.639 366.852 198.962C366.217 198.275 365.42 197.931 364.461 197.931C363.514 197.931 362.706 198.275 362.04 198.962C361.373 199.639 361.04 200.535 361.04 201.65ZM372.852 207.212V204.806H375.243V207.212C375.243 208.098 375.086 208.811 374.774 209.353C374.461 209.895 373.967 210.317 373.29 210.619L372.711 209.712C373.149 209.514 373.472 209.223 373.68 208.837C373.899 208.462 374.019 207.921 374.04 207.212H372.852ZM385.477 207.212V203.103H378.024V201.166L385.852 190.025H387.586V201.166H389.899V203.103H387.586V207.212H385.477ZM385.477 201.166V193.416L380.086 201.166H385.477ZM392.102 194.15C392.102 192.931 392.409 191.895 393.024 191.041C393.649 190.176 394.545 189.744 395.711 189.744C396.795 189.744 397.691 190.129 398.399 190.9C399.107 191.66 399.461 192.791 399.461 194.291C399.461 195.738 399.102 196.858 398.383 197.65C397.665 198.431 396.784 198.822 395.743 198.822C394.701 198.822 393.831 198.436 393.133 197.666C392.446 196.884 392.102 195.712 392.102 194.15ZM395.774 191.197C395.253 191.197 394.816 191.426 394.461 191.884C394.118 192.332 393.946 193.16 393.946 194.369C393.946 195.473 394.123 196.249 394.477 196.697C394.831 197.145 395.263 197.369 395.774 197.369C396.305 197.369 396.743 197.145 397.086 196.697C397.441 196.238 397.618 195.405 397.618 194.197C397.618 193.093 397.441 192.317 397.086 191.869C396.732 191.421 396.295 191.197 395.774 191.197ZM395.79 207.853L405.18 189.744H406.899L397.54 207.853H395.79ZM403.211 203.181C403.211 201.942 403.519 200.895 404.133 200.041C404.758 199.186 405.659 198.759 406.836 198.759C407.92 198.759 408.81 199.145 409.508 199.916C410.217 200.686 410.571 201.817 410.571 203.306C410.571 204.764 410.211 205.889 409.493 206.681C408.784 207.462 407.904 207.853 406.852 207.853C405.81 207.853 404.941 207.462 404.243 206.681C403.555 205.9 403.211 204.733 403.211 203.181ZM406.899 200.212C406.368 200.212 405.925 200.442 405.571 200.9C405.227 201.348 405.055 202.176 405.055 203.384C405.055 204.478 405.232 205.254 405.586 205.712C405.941 206.16 406.373 206.384 406.883 206.384C407.425 206.384 407.868 206.16 408.211 205.712C408.566 205.254 408.743 204.426 408.743 203.228C408.743 202.113 408.566 201.332 408.211 200.884C407.857 200.436 407.42 200.212 406.899 200.212Z" fill="black"/>
<path d="M206.361 370.101L208.47 369.819C208.71 371.007 209.121 371.866 209.705 372.397C210.288 372.929 210.996 373.194 211.83 373.194C212.819 373.194 213.653 372.851 214.33 372.163C215.017 371.476 215.361 370.621 215.361 369.601C215.361 368.632 215.043 367.835 214.408 367.21C213.783 366.575 212.981 366.257 212.001 366.257C211.606 366.257 211.111 366.335 210.517 366.491L210.751 364.647C210.887 364.658 211.001 364.663 211.095 364.663C211.991 364.663 212.798 364.429 213.517 363.96C214.236 363.491 214.595 362.772 214.595 361.804C214.595 361.022 214.33 360.382 213.798 359.882C213.278 359.371 212.606 359.116 211.783 359.116C210.96 359.116 210.272 359.377 209.72 359.897C209.179 360.408 208.83 361.179 208.673 362.21L206.564 361.835C206.824 360.418 207.408 359.325 208.314 358.554C209.231 357.772 210.371 357.382 211.736 357.382C212.673 357.382 213.533 357.585 214.314 357.991C215.106 358.387 215.71 358.934 216.126 359.632C216.554 360.33 216.767 361.069 216.767 361.851C216.767 362.59 216.564 363.267 216.158 363.882C215.762 364.486 215.173 364.965 214.392 365.319C215.413 365.559 216.205 366.049 216.767 366.788C217.33 367.528 217.611 368.45 217.611 369.554C217.611 371.054 217.064 372.33 215.97 373.382C214.876 374.424 213.491 374.944 211.814 374.944C210.304 374.944 209.048 374.496 208.048 373.601C207.059 372.694 206.496 371.528 206.361 370.101ZM230.283 361.663L228.189 361.819C228.001 360.996 227.736 360.397 227.392 360.022C226.819 359.418 226.116 359.116 225.283 359.116C224.616 359.116 224.028 359.304 223.517 359.679C222.85 360.158 222.324 360.866 221.939 361.804C221.564 362.731 221.366 364.054 221.345 365.772C221.856 365.002 222.475 364.429 223.205 364.054C223.944 363.679 224.715 363.491 225.517 363.491C226.923 363.491 228.121 364.007 229.111 365.038C230.1 366.069 230.595 367.408 230.595 369.054C230.595 370.127 230.361 371.127 229.892 372.054C229.434 372.981 228.798 373.694 227.986 374.194C227.173 374.684 226.251 374.929 225.22 374.929C223.46 374.929 222.022 374.283 220.908 372.991C219.804 371.689 219.251 369.554 219.251 366.585C219.251 363.272 219.866 360.861 221.095 359.351C222.158 358.038 223.595 357.382 225.408 357.382C226.762 357.382 227.871 357.762 228.736 358.522C229.6 359.272 230.116 360.319 230.283 361.663ZM221.673 369.069C221.673 369.788 221.824 370.481 222.126 371.147C222.439 371.814 222.871 372.325 223.423 372.679C223.986 373.022 224.569 373.194 225.173 373.194C226.069 373.194 226.835 372.835 227.47 372.116C228.116 371.397 228.439 370.418 228.439 369.179C228.439 367.991 228.121 367.059 227.486 366.382C226.85 365.694 226.054 365.351 225.095 365.351C224.147 365.351 223.34 365.694 222.673 366.382C222.007 367.059 221.673 367.955 221.673 369.069ZM233.486 374.632V372.226H235.876V374.632C235.876 375.517 235.72 376.231 235.408 376.772C235.095 377.314 234.6 377.736 233.923 378.038L233.345 377.132C233.783 376.934 234.106 376.642 234.314 376.257C234.533 375.882 234.653 375.34 234.673 374.632H233.486ZM246.111 374.632V370.522H238.658V368.585L246.486 357.444H248.22V368.585H250.533V370.522H248.22V374.632H246.111ZM246.111 368.585V360.835L240.72 368.585H246.111ZM252.736 361.569C252.736 360.351 253.043 359.314 253.658 358.46C254.283 357.595 255.179 357.163 256.345 357.163C257.429 357.163 258.324 357.548 259.033 358.319C259.741 359.08 260.095 360.21 260.095 361.71C260.095 363.158 259.736 364.278 259.017 365.069C258.298 365.851 257.418 366.241 256.376 366.241C255.335 366.241 254.465 365.856 253.767 365.085C253.08 364.304 252.736 363.132 252.736 361.569ZM256.408 358.616C255.887 358.616 255.449 358.845 255.095 359.304C254.751 359.752 254.58 360.58 254.58 361.788C254.58 362.892 254.757 363.668 255.111 364.116C255.465 364.564 255.897 364.788 256.408 364.788C256.939 364.788 257.376 364.564 257.72 364.116C258.074 363.658 258.251 362.825 258.251 361.616C258.251 360.512 258.074 359.736 257.72 359.288C257.366 358.84 256.929 358.616 256.408 358.616ZM256.423 375.272L265.814 357.163H267.533L258.173 375.272H256.423ZM263.845 370.601C263.845 369.361 264.153 368.314 264.767 367.46C265.392 366.606 266.293 366.179 267.47 366.179C268.554 366.179 269.444 366.564 270.142 367.335C270.85 368.106 271.205 369.236 271.205 370.726C271.205 372.184 270.845 373.309 270.126 374.101C269.418 374.882 268.538 375.272 267.486 375.272C266.444 375.272 265.574 374.882 264.876 374.101C264.189 373.319 263.845 372.153 263.845 370.601ZM267.533 367.632C267.001 367.632 266.559 367.861 266.205 368.319C265.861 368.767 265.689 369.595 265.689 370.804C265.689 371.897 265.866 372.674 266.22 373.132C266.574 373.58 267.007 373.804 267.517 373.804C268.059 373.804 268.501 373.58 268.845 373.132C269.199 372.674 269.376 371.845 269.376 370.647C269.376 369.533 269.199 368.752 268.845 368.304C268.491 367.856 268.054 367.632 267.533 367.632Z" fill="black"/>
<path d="M165.903 177.623V179.654H154.559C154.539 179.144 154.617 178.654 154.794 178.186C155.085 177.415 155.549 176.654 156.184 175.904C156.82 175.154 157.742 174.285 158.95 173.295C160.815 171.764 162.075 170.555 162.731 169.67C163.388 168.774 163.716 167.925 163.716 167.123C163.716 166.29 163.414 165.587 162.809 165.014C162.216 164.441 161.44 164.154 160.481 164.154C159.471 164.154 158.658 164.462 158.044 165.076C157.44 165.68 157.132 166.519 157.122 167.592L154.95 167.373C155.096 165.758 155.653 164.529 156.622 163.686C157.591 162.831 158.893 162.404 160.528 162.404C162.174 162.404 163.476 162.863 164.434 163.779C165.403 164.686 165.888 165.816 165.888 167.17C165.888 167.857 165.747 168.535 165.466 169.201C165.184 169.868 164.716 170.571 164.059 171.311C163.414 172.04 162.33 173.045 160.809 174.326C159.549 175.389 158.737 176.107 158.372 176.482C158.018 176.857 157.721 177.238 157.481 177.623H165.903ZM167.966 164.717V162.701H179.091V164.342C177.997 165.498 176.908 167.045 175.825 168.982C174.752 170.91 173.924 172.894 173.341 174.936C172.924 176.373 172.653 177.946 172.528 179.654H170.372C170.393 178.3 170.653 176.67 171.153 174.764C171.664 172.847 172.393 170.998 173.341 169.217C174.299 167.436 175.309 165.936 176.372 164.717H167.966ZM181.966 179.654V177.248H184.356V179.654C184.356 180.54 184.2 181.253 183.888 181.795C183.575 182.337 183.08 182.758 182.403 183.061L181.825 182.154C182.263 181.956 182.585 181.665 182.794 181.279C183.013 180.904 183.132 180.363 183.153 179.654H181.966ZM187.841 175.123L189.95 174.842C190.19 176.029 190.601 176.889 191.184 177.42C191.768 177.951 192.476 178.217 193.309 178.217C194.299 178.217 195.132 177.873 195.809 177.186C196.497 176.498 196.841 175.644 196.841 174.623C196.841 173.654 196.523 172.857 195.888 172.232C195.263 171.597 194.46 171.279 193.481 171.279C193.085 171.279 192.591 171.357 191.997 171.514L192.231 169.67C192.367 169.68 192.481 169.686 192.575 169.686C193.471 169.686 194.278 169.451 194.997 168.982C195.716 168.514 196.075 167.795 196.075 166.826C196.075 166.045 195.809 165.404 195.278 164.904C194.757 164.394 194.085 164.139 193.263 164.139C192.44 164.139 191.752 164.399 191.2 164.92C190.658 165.43 190.309 166.201 190.153 167.232L188.044 166.857C188.304 165.441 188.888 164.347 189.794 163.576C190.71 162.795 191.851 162.404 193.216 162.404C194.153 162.404 195.013 162.607 195.794 163.014C196.585 163.41 197.19 163.956 197.606 164.654C198.033 165.352 198.247 166.092 198.247 166.873C198.247 167.613 198.044 168.29 197.638 168.904C197.242 169.508 196.653 169.988 195.872 170.342C196.893 170.581 197.684 171.071 198.247 171.811C198.809 172.55 199.091 173.472 199.091 174.576C199.091 176.076 198.544 177.352 197.45 178.404C196.356 179.446 194.971 179.967 193.294 179.967C191.783 179.967 190.528 179.519 189.528 178.623C188.539 177.717 187.976 176.55 187.841 175.123ZM201.216 166.592C201.216 165.373 201.523 164.337 202.138 163.482C202.763 162.618 203.658 162.186 204.825 162.186C205.908 162.186 206.804 162.571 207.513 163.342C208.221 164.102 208.575 165.232 208.575 166.732C208.575 168.18 208.216 169.3 207.497 170.092C206.778 170.873 205.898 171.264 204.856 171.264C203.815 171.264 202.945 170.878 202.247 170.107C201.559 169.326 201.216 168.154 201.216 166.592ZM204.888 163.639C204.367 163.639 203.929 163.868 203.575 164.326C203.231 164.774 203.059 165.602 203.059 166.811C203.059 167.915 203.237 168.691 203.591 169.139C203.945 169.587 204.377 169.811 204.888 169.811C205.419 169.811 205.856 169.587 206.2 169.139C206.554 168.68 206.731 167.847 206.731 166.639C206.731 165.535 206.554 164.758 206.2 164.311C205.846 163.863 205.408 163.639 204.888 163.639ZM204.903 180.295L214.294 162.186H216.013L206.653 180.295H204.903ZM212.325 175.623C212.325 174.383 212.632 173.337 213.247 172.482C213.872 171.628 214.773 171.201 215.95 171.201C217.033 171.201 217.924 171.587 218.622 172.357C219.33 173.128 219.684 174.258 219.684 175.748C219.684 177.206 219.325 178.331 218.606 179.123C217.898 179.904 217.018 180.295 215.966 180.295C214.924 180.295 214.054 179.904 213.356 179.123C212.669 178.342 212.325 177.175 212.325 175.623ZM216.013 172.654C215.481 172.654 215.039 172.883 214.684 173.342C214.341 173.79 214.169 174.618 214.169 175.826C214.169 176.92 214.346 177.696 214.7 178.154C215.054 178.602 215.487 178.826 215.997 178.826C216.539 178.826 216.981 178.602 217.325 178.154C217.679 177.696 217.856 176.868 217.856 175.67C217.856 174.555 217.679 173.774 217.325 173.326C216.971 172.878 216.533 172.654 216.013 172.654Z" fill="black"/>
<path d="M280.611 252.487C282.842 249.912 283.365 246.272 281.95 243.173C280.535 240.075 277.441 238.087 274.035 238.087V72.7549C342.169 72.7549 404.037 112.515 432.341 174.492C460.645 236.469 450.179 309.263 405.56 360.756" stroke="white" stroke-miterlimit="10" stroke-linecap="round" stroke-linejoin="round"/>
<path d="M265.421 248.026C265.906 251.398 268.314 254.177 271.583 255.137C274.852 256.097 278.38 255.061 280.611 252.486L405.56 360.756C360.941 412.248 290.378 432.967 225.004 413.772C159.629 394.576 111.469 338.996 101.772 271.556" stroke="white" stroke-miterlimit="10" stroke-linecap="round" stroke-linejoin="round"/>
<path d="M274.034 238.087C271.511 238.087 269.111 239.182 267.458 241.09C265.805 242.997 265.062 245.528 265.421 248.027L101.773 271.556C94.5888 221.591 109.453 170.969 142.509 132.821C175.565 94.6718 223.556 72.7549 274.034 72.7549" stroke="white" stroke-miterlimit="10" stroke-linecap="round" stroke-linejoin="round"/>
<path d="M750.64 90.2549C750.64 93.5686 747.953 96.2549 744.64 96.2549C741.326 96.2549 738.64 93.5686 738.64 90.2549C738.64 86.9412 741.326 84.2549 744.64 84.2549C747.953 84.2549 750.64 86.9412 750.64 90.2549Z" fill="#4285F4"/>
<path d="M773.749 98.2236V100.755H759.546C759.525 100.119 759.629 99.5101 759.858 98.9268C760.223 97.958 760.801 97.0049 761.592 96.0674C762.384 95.1299 763.535 94.0465 765.046 92.8174C767.379 90.9007 768.952 89.3851 769.764 88.2705C770.587 87.1455 770.999 86.0882 770.999 85.0986C770.999 84.0465 770.624 83.1663 769.874 82.458C769.134 81.7393 768.165 81.3799 766.967 81.3799C765.697 81.3799 764.676 81.7601 763.905 82.5205C763.145 83.2809 762.759 84.333 762.749 85.6768L760.046 85.3955C760.233 83.3747 760.931 81.8382 762.139 80.7861C763.348 79.7236 764.973 79.1924 767.014 79.1924C769.077 79.1924 770.707 79.7653 771.905 80.9111C773.113 82.0465 773.717 83.4632 773.717 85.1611C773.717 86.0153 773.54 86.859 773.186 87.6924C772.832 88.5153 772.249 89.3903 771.436 90.3174C770.624 91.234 769.27 92.4893 767.374 94.083C765.79 95.4163 764.775 96.3226 764.327 96.8018C763.879 97.2705 763.509 97.7445 763.217 98.2236H773.749ZM776.889 90.1611C776.889 87.6195 777.15 85.5778 777.671 84.0361C778.191 82.484 778.967 81.2913 779.999 80.458C781.03 79.6143 782.327 79.1924 783.889 79.1924C785.035 79.1924 786.04 79.4268 786.905 79.8955C787.78 80.3538 788.499 81.0205 789.061 81.8955C789.634 82.7705 790.082 83.8382 790.405 85.0986C790.728 86.3486 790.889 88.0361 790.889 90.1611C790.889 92.682 790.629 94.7184 790.108 96.2705C789.598 97.8122 788.827 99.0049 787.796 99.8486C786.764 100.692 785.462 101.114 783.889 101.114C781.816 101.114 780.191 100.375 779.014 98.8955C777.598 97.1038 776.889 94.1924 776.889 90.1611ZM779.592 90.1611C779.592 93.6924 780.004 96.0413 780.827 97.208C781.66 98.3747 782.681 98.958 783.889 98.958C785.098 98.958 786.113 98.3747 786.936 97.208C787.77 96.0309 788.186 93.682 788.186 90.1611C788.186 86.6299 787.77 84.2861 786.936 83.1299C786.113 81.9632 785.087 81.3799 783.858 81.3799C782.65 81.3799 781.681 81.8903 780.952 82.9111C780.046 84.2236 779.592 86.6403 779.592 90.1611ZM801.592 94.3018V91.6611H809.686V94.3018H801.592ZM819.905 95.083L822.53 94.7393C822.832 96.2288 823.348 97.307 824.077 97.9736C824.806 98.6299 825.691 98.958 826.733 98.958C827.983 98.958 829.035 98.5309 829.889 97.6768C830.744 96.8122 831.171 95.7445 831.171 94.4736C831.171 93.2653 830.775 92.2705 829.983 91.4893C829.191 90.6976 828.186 90.3018 826.967 90.3018C826.467 90.3018 825.842 90.3955 825.092 90.583L825.389 88.2705C825.566 88.2913 825.707 88.3018 825.811 88.3018C826.936 88.3018 827.947 88.0101 828.842 87.4268C829.749 86.8434 830.202 85.9372 830.202 84.708C830.202 83.7497 829.874 82.9528 829.217 82.3174C828.561 81.682 827.717 81.3643 826.686 81.3643C825.655 81.3643 824.796 81.6872 824.108 82.333C823.431 82.9684 822.993 83.932 822.796 85.2236L820.171 84.7549C820.483 82.9945 821.212 81.6299 822.358 80.6611C823.504 79.682 824.926 79.1924 826.624 79.1924C827.79 79.1924 828.868 79.4476 829.858 79.958C830.848 80.458 831.603 81.1403 832.124 82.0049C832.645 82.8695 832.905 83.7913 832.905 84.7705C832.905 85.6976 832.655 86.5413 832.155 87.3018C831.665 88.0622 830.931 88.6715 829.952 89.1299C831.223 89.4215 832.207 90.0309 832.905 90.958C833.613 91.8747 833.967 93.0257 833.967 94.4111C833.967 96.2861 833.28 97.8747 831.905 99.1768C830.54 100.479 828.816 101.13 826.733 101.13C824.848 101.13 823.28 100.573 822.03 99.458C820.79 98.333 820.082 96.8747 819.905 95.083ZM836.889 90.1611C836.889 87.6195 837.15 85.5778 837.671 84.0361C838.191 82.484 838.967 81.2913 839.999 80.458C841.03 79.6143 842.327 79.1924 843.889 79.1924C845.035 79.1924 846.04 79.4268 846.905 79.8955C847.78 80.3538 848.499 81.0205 849.061 81.8955C849.634 82.7705 850.082 83.8382 850.405 85.0986C850.728 86.3486 850.889 88.0361 850.889 90.1611C850.889 92.682 850.629 94.7184 850.108 96.2705C849.598 97.8122 848.827 99.0049 847.796 99.8486C846.764 100.692 845.462 101.114 843.889 101.114C841.816 101.114 840.191 100.375 839.014 98.8955C837.598 97.1038 836.889 94.1924 836.889 90.1611ZM839.592 90.1611C839.592 93.6924 840.004 96.0413 840.827 97.208C841.66 98.3747 842.681 98.958 843.889 98.958C845.098 98.958 846.113 98.3747 846.936 97.208C847.77 96.0309 848.186 93.682 848.186 90.1611C848.186 86.6299 847.77 84.2861 846.936 83.1299C846.113 81.9632 845.087 81.3799 843.858 81.3799C842.65 81.3799 841.681 81.8903 840.952 82.9111C840.046 84.2236 839.592 86.6403 839.592 90.1611ZM862.561 100.755V79.2861H865.202V100.755H862.561ZM879.764 98.833C878.796 99.6663 877.858 100.255 876.952 100.599C876.046 100.942 875.077 101.114 874.046 101.114C872.337 101.114 871.02 100.698 870.092 99.8643C869.176 99.0205 868.717 97.9476 868.717 96.6455C868.717 95.8851 868.889 95.1924 869.233 94.5674C869.587 93.932 870.046 93.4268 870.608 93.0518C871.171 92.6663 871.801 92.3799 872.499 92.1924C873.02 92.0465 873.801 91.9111 874.842 91.7861C876.978 91.5361 878.546 91.234 879.546 90.8799C879.556 90.5153 879.561 90.2861 879.561 90.1924C879.561 89.1195 879.311 88.3643 878.811 87.9268C878.145 87.333 877.145 87.0361 875.811 87.0361C874.572 87.0361 873.655 87.2549 873.061 87.6924C872.478 88.1195 872.04 88.8851 871.749 89.9893L869.171 89.6299C869.41 88.5257 869.796 87.6351 870.327 86.958C870.868 86.2809 871.645 85.7601 872.655 85.3955C873.676 85.0309 874.858 84.8486 876.202 84.8486C877.525 84.8486 878.598 85.0049 879.421 85.3174C880.254 85.6299 880.863 86.0257 881.249 86.5049C881.645 86.9736 881.921 87.5674 882.077 88.2861C882.171 88.734 882.217 89.5465 882.217 90.7236V94.2393C882.217 96.6872 882.27 98.2393 882.374 98.8955C882.488 99.5413 882.712 100.161 883.046 100.755H880.296C880.025 100.203 879.848 99.5622 879.764 98.833ZM879.546 92.9424C878.587 93.3382 877.155 93.6715 875.249 93.9424C874.165 94.0986 873.395 94.2757 872.936 94.4736C872.488 94.6715 872.139 94.958 871.889 95.333C871.65 95.708 871.53 96.1247 871.53 96.583C871.53 97.2809 871.796 97.8643 872.327 98.333C872.868 98.8018 873.65 99.0361 874.671 99.0361C875.691 99.0361 876.592 98.8174 877.374 98.3799C878.165 97.932 878.749 97.3226 879.124 96.5518C879.405 95.958 879.546 95.0778 879.546 93.9111V92.9424ZM891.374 98.3955L891.749 100.724C891.009 100.88 890.348 100.958 889.764 100.958C888.806 100.958 888.061 100.807 887.53 100.505C887.009 100.203 886.639 99.807 886.421 99.3174C886.212 98.8174 886.108 97.7757 886.108 96.1924V87.2549H884.171V85.1924H886.108V81.3486L888.717 79.7705V85.1924H891.374V87.2549H888.717V96.3486C888.717 97.0986 888.764 97.583 888.858 97.8018C888.952 98.0101 889.103 98.182 889.311 98.3174C889.52 98.4424 889.822 98.5049 890.217 98.5049C890.509 98.5049 890.895 98.4684 891.374 98.3955Z" fill="black"/>
<path d="M750.64 135.255C750.64 138.569 747.953 141.255 744.64 141.255C741.326 141.255 738.64 138.569 738.64 135.255C738.64 131.941 741.326 129.255 744.64 129.255C747.953 129.255 750.64 131.941 750.64 135.255Z" fill="#EA4335"/>
<path d="M759.905 140.083L762.53 139.739C762.832 141.229 763.348 142.307 764.077 142.974C764.806 143.63 765.692 143.958 766.733 143.958C767.983 143.958 769.036 143.531 769.89 142.677C770.744 141.812 771.171 140.744 771.171 139.474C771.171 138.265 770.775 137.271 769.983 136.489C769.192 135.698 768.187 135.302 766.968 135.302C766.468 135.302 765.843 135.396 765.093 135.583L765.39 133.271C765.567 133.291 765.707 133.302 765.812 133.302C766.937 133.302 767.947 133.01 768.843 132.427C769.749 131.843 770.202 130.937 770.202 129.708C770.202 128.75 769.874 127.953 769.218 127.317C768.562 126.682 767.718 126.364 766.687 126.364C765.655 126.364 764.796 126.687 764.108 127.333C763.431 127.968 762.994 128.932 762.796 130.224L760.171 129.755C760.483 127.994 761.213 126.63 762.358 125.661C763.504 124.682 764.926 124.192 766.624 124.192C767.791 124.192 768.869 124.448 769.858 124.958C770.848 125.458 771.603 126.14 772.124 127.005C772.645 127.869 772.905 128.791 772.905 129.771C772.905 130.698 772.655 131.541 772.155 132.302C771.666 133.062 770.931 133.672 769.952 134.13C771.223 134.422 772.207 135.031 772.905 135.958C773.614 136.875 773.968 138.026 773.968 139.411C773.968 141.286 773.28 142.875 771.905 144.177C770.541 145.479 768.817 146.13 766.733 146.13C764.848 146.13 763.28 145.573 762.03 144.458C760.791 143.333 760.082 141.875 759.905 140.083ZM786.812 145.755H784.187V128.958C783.551 129.562 782.718 130.166 781.687 130.771C780.655 131.375 779.728 131.828 778.905 132.13V129.583C780.384 128.885 781.676 128.047 782.78 127.067C783.884 126.078 784.666 125.119 785.124 124.192H786.812V145.755ZM801.593 139.302V136.661H809.687V139.302H801.593ZM828.343 145.755V140.614H819.015V138.192L828.827 124.286H830.968V138.192H833.874V140.614H830.968V145.755H828.343ZM828.343 138.192V128.521L821.608 138.192H828.343ZM836.89 135.161C836.89 132.619 837.15 130.578 837.671 129.036C838.192 127.484 838.968 126.291 839.999 125.458C841.03 124.614 842.327 124.192 843.89 124.192C845.036 124.192 846.041 124.427 846.905 124.896C847.78 125.354 848.499 126.021 849.062 126.896C849.634 127.771 850.082 128.838 850.405 130.099C850.728 131.349 850.89 133.036 850.89 135.161C850.89 137.682 850.629 139.718 850.108 141.271C849.598 142.812 848.827 144.005 847.796 144.849C846.765 145.692 845.463 146.114 843.89 146.114C841.817 146.114 840.192 145.375 839.015 143.896C837.598 142.104 836.89 139.192 836.89 135.161ZM839.593 135.161C839.593 138.692 840.004 141.041 840.827 142.208C841.66 143.375 842.681 143.958 843.89 143.958C845.098 143.958 846.114 143.375 846.937 142.208C847.77 141.031 848.187 138.682 848.187 135.161C848.187 131.63 847.77 129.286 846.937 128.13C846.114 126.963 845.088 126.38 843.858 126.38C842.65 126.38 841.681 126.89 840.952 127.911C840.046 129.224 839.593 131.64 839.593 135.161ZM862.562 145.755V124.286H865.202V145.755H862.562ZM879.765 143.833C878.796 144.666 877.858 145.255 876.952 145.599C876.046 145.942 875.077 146.114 874.046 146.114C872.338 146.114 871.02 145.698 870.093 144.864C869.176 144.021 868.718 142.948 868.718 141.646C868.718 140.885 868.89 140.192 869.233 139.567C869.588 138.932 870.046 138.427 870.608 138.052C871.171 137.666 871.801 137.38 872.499 137.192C873.02 137.047 873.801 136.911 874.843 136.786C876.978 136.536 878.546 136.234 879.546 135.88C879.556 135.515 879.562 135.286 879.562 135.192C879.562 134.119 879.312 133.364 878.812 132.927C878.145 132.333 877.145 132.036 875.812 132.036C874.572 132.036 873.655 132.255 873.062 132.692C872.478 133.119 872.041 133.885 871.749 134.989L869.171 134.63C869.41 133.526 869.796 132.635 870.327 131.958C870.869 131.281 871.645 130.76 872.655 130.396C873.676 130.031 874.858 129.849 876.202 129.849C877.525 129.849 878.598 130.005 879.421 130.317C880.254 130.63 880.864 131.026 881.249 131.505C881.645 131.974 881.921 132.567 882.077 133.286C882.171 133.734 882.218 134.547 882.218 135.724V139.239C882.218 141.687 882.27 143.239 882.374 143.896C882.489 144.541 882.713 145.161 883.046 145.755H880.296C880.025 145.203 879.848 144.562 879.765 143.833ZM879.546 137.942C878.588 138.338 877.155 138.672 875.249 138.942C874.166 139.099 873.395 139.276 872.937 139.474C872.489 139.672 872.14 139.958 871.89 140.333C871.65 140.708 871.53 141.125 871.53 141.583C871.53 142.281 871.796 142.864 872.327 143.333C872.869 143.802 873.65 144.036 874.671 144.036C875.692 144.036 876.593 143.817 877.374 143.38C878.166 142.932 878.749 142.323 879.124 141.552C879.405 140.958 879.546 140.078 879.546 138.911V137.942ZM891.374 143.396L891.749 145.724C891.009 145.88 890.348 145.958 889.765 145.958C888.806 145.958 888.062 145.807 887.53 145.505C887.009 145.203 886.64 144.807 886.421 144.317C886.213 143.817 886.108 142.776 886.108 141.192V132.255H884.171V130.192H886.108V126.349L888.718 124.771V130.192H891.374V132.255H888.718V141.349C888.718 142.099 888.765 142.583 888.858 142.802C888.952 143.01 889.103 143.182 889.312 143.317C889.52 143.442 889.822 143.505 890.218 143.505C890.509 143.505 890.895 143.468 891.374 143.396Z" fill="black"/>
<path d="M750.64 180.255C750.64 183.569 747.953 186.255 744.64 186.255C741.326 186.255 738.64 183.569 738.64 180.255C738.64 176.941 741.326 174.255 744.64 174.255C747.953 174.255 750.64 176.941 750.64 180.255Z" fill="#FBBC04"/>
<path d="M768.343 190.755V185.614H759.015V183.192L768.827 169.286H770.968V183.192H773.874V185.614H770.968V190.755H768.343ZM768.343 183.192V173.521L761.608 183.192H768.343ZM786.812 190.755H784.187V173.958C783.551 174.562 782.718 175.166 781.687 175.771C780.655 176.375 779.728 176.828 778.905 177.13V174.583C780.384 173.885 781.676 173.047 782.78 172.067C783.884 171.078 784.666 170.119 785.124 169.192H786.812V190.755ZM801.593 184.302V181.661H809.687V184.302H801.593ZM828.343 190.755V185.614H819.015V183.192L828.827 169.286H830.968V183.192H833.874V185.614H830.968V190.755H828.343ZM828.343 183.192V173.521L821.608 183.192H828.343ZM836.89 185.13L839.655 184.896C839.864 186.239 840.338 187.255 841.077 187.942C841.827 188.619 842.728 188.958 843.78 188.958C845.051 188.958 846.124 188.479 846.999 187.521C847.884 186.562 848.327 185.291 848.327 183.708C848.327 182.208 847.905 181.026 847.062 180.161C846.218 179.286 845.108 178.849 843.733 178.849C842.89 178.849 842.124 179.041 841.437 179.427C840.759 179.812 840.223 180.312 839.827 180.927L837.358 180.599L839.437 169.567H850.108V172.099H841.546L840.39 177.864C841.681 176.968 843.03 176.521 844.437 176.521C846.312 176.521 847.895 177.172 849.187 178.474C850.478 179.765 851.124 181.432 851.124 183.474C851.124 185.422 850.556 187.104 849.421 188.521C848.046 190.25 846.166 191.114 843.78 191.114C841.832 191.114 840.239 190.567 838.999 189.474C837.77 188.38 837.067 186.932 836.89 185.13ZM862.562 190.755V169.286H865.202V190.755H862.562ZM879.765 188.833C878.796 189.666 877.858 190.255 876.952 190.599C876.046 190.942 875.077 191.114 874.046 191.114C872.338 191.114 871.02 190.698 870.093 189.864C869.176 189.021 868.718 187.948 868.718 186.646C868.718 185.885 868.89 185.192 869.233 184.567C869.588 183.932 870.046 183.427 870.608 183.052C871.171 182.666 871.801 182.38 872.499 182.192C873.02 182.047 873.801 181.911 874.843 181.786C876.978 181.536 878.546 181.234 879.546 180.88C879.556 180.515 879.562 180.286 879.562 180.192C879.562 179.119 879.312 178.364 878.812 177.927C878.145 177.333 877.145 177.036 875.812 177.036C874.572 177.036 873.655 177.255 873.062 177.692C872.478 178.119 872.041 178.885 871.749 179.989L869.171 179.63C869.41 178.526 869.796 177.635 870.327 176.958C870.869 176.281 871.645 175.76 872.655 175.396C873.676 175.031 874.858 174.849 876.202 174.849C877.525 174.849 878.598 175.005 879.421 175.317C880.254 175.63 880.864 176.026 881.249 176.505C881.645 176.974 881.921 177.567 882.077 178.286C882.171 178.734 882.218 179.547 882.218 180.724V184.239C882.218 186.687 882.27 188.239 882.374 188.896C882.489 189.541 882.713 190.161 883.046 190.755H880.296C880.025 190.203 879.848 189.562 879.765 188.833ZM879.546 182.942C878.588 183.338 877.155 183.672 875.249 183.942C874.166 184.099 873.395 184.276 872.937 184.474C872.489 184.672 872.14 184.958 871.89 185.333C871.65 185.708 871.53 186.125 871.53 186.583C871.53 187.281 871.796 187.864 872.327 188.333C872.869 188.802 873.65 189.036 874.671 189.036C875.692 189.036 876.593 188.817 877.374 188.38C878.166 187.932 878.749 187.323 879.124 186.552C879.405 185.958 879.546 185.078 879.546 183.911V182.942ZM891.374 188.396L891.749 190.724C891.009 190.88 890.348 190.958 889.765 190.958C888.806 190.958 888.062 190.807 887.53 190.505C887.009 190.203 886.64 189.807 886.421 189.317C886.213 188.817 886.108 187.776 886.108 186.192V177.255H884.171V175.192H886.108V171.349L888.718 169.771V175.192H891.374V177.255H888.718V186.349C888.718 187.099 888.765 187.583 888.858 187.802C888.952 188.01 889.103 188.182 889.312 188.317C889.52 188.442 889.822 188.505 890.218 188.505C890.509 188.505 890.895 188.468 891.374 188.396Z" fill="black"/>
<path d="M28.6621 50.4897H23.9746V27.7397H28.6621V50.4897ZM36.8809 33.5835L37.0215 35.5366C38.2298 34.0262 39.8496 33.271 41.8809 33.271C43.6725 33.271 45.0059 33.797 45.8809 34.8491C46.7559 35.9012 47.2038 37.4741 47.2246 39.5679V50.4897H42.709V39.6772C42.709 38.7189 42.5007 38.0262 42.084 37.5991C41.6673 37.1616 40.9746 36.9429 40.0059 36.9429C38.735 36.9429 37.7819 37.4845 37.1465 38.5679V50.4897H32.6309V33.5835H36.8809ZM73.334 44.3491L75.5527 33.5835H79.9121L75.5996 50.4897H71.8184L68.6152 39.8491L65.4121 50.4897H61.6465L57.334 33.5835H61.6934L63.8965 44.3335L66.9902 33.5835H70.2559L73.334 44.3491ZM86.5684 35.4272C87.7663 33.9897 89.2715 33.271 91.084 33.271C94.7507 33.271 96.61 35.4012 96.6621 39.6616V50.4897H92.1465V39.7866C92.1465 38.8179 91.9382 38.1043 91.5215 37.646C91.1048 37.1772 90.4121 36.9429 89.4434 36.9429C88.1204 36.9429 87.1621 37.4533 86.5684 38.4741V50.4897H82.0527V26.4897H86.5684V35.4272ZM109.865 50.4897C109.657 50.0835 109.506 49.5783 109.412 48.9741C108.318 50.1929 106.896 50.8022 105.146 50.8022C103.49 50.8022 102.115 50.3231 101.021 49.3647C99.9382 48.4064 99.3965 47.1981 99.3965 45.7397C99.3965 43.9481 100.058 42.5731 101.381 41.6147C102.714 40.6564 104.636 40.172 107.146 40.1616H109.225V39.1929C109.225 38.4116 109.021 37.7866 108.615 37.3179C108.219 36.8491 107.589 36.6147 106.725 36.6147C105.964 36.6147 105.365 36.797 104.928 37.1616C104.501 37.5262 104.287 38.0262 104.287 38.6616H99.7715C99.7715 37.6825 100.074 36.7762 100.678 35.9429C101.282 35.1095 102.136 34.4585 103.24 33.9897C104.344 33.5106 105.584 33.271 106.959 33.271C109.042 33.271 110.693 33.797 111.912 34.8491C113.141 35.8908 113.756 37.3595 113.756 39.2554V46.5835C113.766 48.1877 113.99 49.4012 114.428 50.2241V50.4897H109.865ZM106.131 47.3491C106.798 47.3491 107.412 47.2033 107.975 46.9116C108.537 46.6095 108.954 46.2085 109.225 45.7085V42.8022H107.537C105.277 42.8022 104.074 43.5835 103.928 45.146L103.912 45.4116C103.912 45.9741 104.11 46.4377 104.506 46.8022C104.902 47.1668 105.443 47.3491 106.131 47.3491ZM122.631 29.4272V33.5835H125.521V36.896H122.631V45.3335C122.631 45.9585 122.751 46.4064 122.99 46.6772C123.23 46.9481 123.688 47.0835 124.365 47.0835C124.865 47.0835 125.308 47.047 125.693 46.9741V50.396C124.808 50.6668 123.896 50.8022 122.959 50.8022C119.792 50.8022 118.178 49.2033 118.115 46.0054V36.896H115.646V33.5835H118.115V29.4272H122.631ZM145.803 50.4897C145.594 50.0835 145.443 49.5783 145.35 48.9741C144.256 50.1929 142.834 50.8022 141.084 50.8022C139.428 50.8022 138.053 50.3231 136.959 49.3647C135.876 48.4064 135.334 47.1981 135.334 45.7397C135.334 43.9481 135.995 42.5731 137.318 41.6147C138.652 40.6564 140.574 40.172 143.084 40.1616H145.162V39.1929C145.162 38.4116 144.959 37.7866 144.553 37.3179C144.157 36.8491 143.527 36.6147 142.662 36.6147C141.902 36.6147 141.303 36.797 140.865 37.1616C140.438 37.5262 140.225 38.0262 140.225 38.6616H135.709C135.709 37.6825 136.011 36.7762 136.615 35.9429C137.219 35.1095 138.074 34.4585 139.178 33.9897C140.282 33.5106 141.521 33.271 142.896 33.271C144.98 33.271 146.631 33.797 147.85 34.8491C149.079 35.8908 149.693 37.3595 149.693 39.2554V46.5835C149.704 48.1877 149.928 49.4012 150.365 50.2241V50.4897H145.803ZM142.068 47.3491C142.735 47.3491 143.35 47.2033 143.912 46.9116C144.475 46.6095 144.891 46.2085 145.162 45.7085V42.8022H143.475C141.214 42.8022 140.011 43.5835 139.865 45.146L139.85 45.4116C139.85 45.9741 140.048 46.4377 140.443 46.8022C140.839 47.1668 141.381 47.3491 142.068 47.3491ZM152.506 41.9116C152.506 39.3179 153.12 37.2293 154.35 35.646C155.589 34.0627 157.256 33.271 159.35 33.271C161.204 33.271 162.646 33.9064 163.678 35.1772L163.865 33.5835H167.959V49.9272C167.959 51.4064 167.62 52.6929 166.943 53.7866C166.277 54.8804 165.334 55.7137 164.115 56.2866C162.896 56.8595 161.469 57.146 159.834 57.146C158.594 57.146 157.386 56.896 156.209 56.396C155.032 55.9064 154.141 55.271 153.537 54.4897L155.537 51.7397C156.662 53.0002 158.027 53.6304 159.631 53.6304C160.829 53.6304 161.761 53.3075 162.428 52.6616C163.094 52.0262 163.428 51.12 163.428 49.9429V49.0366C162.386 50.2137 161.016 50.8022 159.318 50.8022C157.287 50.8022 155.641 50.0106 154.381 48.4272C153.131 46.8335 152.506 44.7241 152.506 42.0991V41.9116ZM157.021 42.2397C157.021 43.771 157.329 44.9741 157.943 45.8491C158.558 46.7137 159.402 47.146 160.475 47.146C161.85 47.146 162.834 46.6304 163.428 45.5991V38.4897C162.824 37.4585 161.85 36.9429 160.506 36.9429C159.423 36.9429 158.568 37.3856 157.943 38.271C157.329 39.1564 157.021 40.4793 157.021 42.2397ZM179.225 50.8022C176.745 50.8022 174.725 50.0418 173.162 48.521C171.61 47.0002 170.834 44.9741 170.834 42.4429V42.0054C170.834 40.3075 171.162 38.7918 171.818 37.4585C172.475 36.1147 173.402 35.0835 174.6 34.3647C175.808 33.6356 177.183 33.271 178.725 33.271C181.037 33.271 182.855 34.0002 184.178 35.4585C185.511 36.9168 186.178 38.9845 186.178 41.6616V43.5054H175.412C175.558 44.6095 175.995 45.495 176.725 46.1616C177.464 46.8283 178.396 47.1616 179.521 47.1616C181.261 47.1616 182.62 46.5314 183.6 45.271L185.818 47.7554C185.141 48.7137 184.225 49.4637 183.068 50.0054C181.912 50.5366 180.631 50.8022 179.225 50.8022ZM178.709 36.9272C177.813 36.9272 177.084 37.2293 176.521 37.8335C175.969 38.4377 175.615 39.3022 175.459 40.4272H181.74V40.0679C181.719 39.0679 181.449 38.297 180.928 37.7554C180.407 37.2033 179.667 36.9272 178.709 36.9272ZM206.225 37.8179C205.61 37.7345 205.068 37.6929 204.6 37.6929C202.891 37.6929 201.771 38.271 201.24 39.4272V50.4897H196.725V33.5835H200.99L201.115 35.5991C202.021 34.047 203.277 33.271 204.881 33.271C205.381 33.271 205.85 33.3387 206.287 33.4741L206.225 37.8179ZM217.74 50.4897C217.532 50.0835 217.381 49.5783 217.287 48.9741C216.193 50.1929 214.771 50.8022 213.021 50.8022C211.365 50.8022 209.99 50.3231 208.896 49.3647C207.813 48.4064 207.271 47.1981 207.271 45.7397C207.271 43.9481 207.933 42.5731 209.256 41.6147C210.589 40.6564 212.511 40.172 215.021 40.1616H217.1V39.1929C217.1 38.4116 216.896 37.7866 216.49 37.3179C216.094 36.8491 215.464 36.6147 214.6 36.6147C213.839 36.6147 213.24 36.797 212.803 37.1616C212.376 37.5262 212.162 38.0262 212.162 38.6616H207.646C207.646 37.6825 207.949 36.7762 208.553 35.9429C209.157 35.1095 210.011 34.4585 211.115 33.9897C212.219 33.5106 213.459 33.271 214.834 33.271C216.917 33.271 218.568 33.797 219.787 34.8491C221.016 35.8908 221.631 37.3595 221.631 39.2554V46.5835C221.641 48.1877 221.865 49.4012 222.303 50.2241V50.4897H217.74ZM214.006 47.3491C214.673 47.3491 215.287 47.2033 215.85 46.9116C216.412 46.6095 216.829 46.2085 217.1 45.7085V42.8022H215.412C213.152 42.8022 211.949 43.5835 211.803 45.146L211.787 45.4116C211.787 45.9741 211.985 46.4377 212.381 46.8022C212.777 47.1668 213.318 47.3491 214.006 47.3491ZM229.256 33.5835L229.396 35.5366C230.605 34.0262 232.225 33.271 234.256 33.271C236.048 33.271 237.381 33.797 238.256 34.8491C239.131 35.9012 239.579 37.4741 239.6 39.5679V50.4897H235.084V39.6772C235.084 38.7189 234.876 38.0262 234.459 37.5991C234.042 37.1616 233.35 36.9429 232.381 36.9429C231.11 36.9429 230.157 37.4845 229.521 38.5679V50.4897H225.006V33.5835H229.256ZM242.381 41.9116C242.381 39.3179 242.995 37.2293 244.225 35.646C245.464 34.0627 247.131 33.271 249.225 33.271C251.079 33.271 252.521 33.9064 253.553 35.1772L253.74 33.5835H257.834V49.9272C257.834 51.4064 257.495 52.6929 256.818 53.7866C256.152 54.8804 255.209 55.7137 253.99 56.2866C252.771 56.8595 251.344 57.146 249.709 57.146C248.469 57.146 247.261 56.896 246.084 56.396C244.907 55.9064 244.016 55.271 243.412 54.4897L245.412 51.7397C246.537 53.0002 247.902 53.6304 249.506 53.6304C250.704 53.6304 251.636 53.3075 252.303 52.6616C252.969 52.0262 253.303 51.12 253.303 49.9429V49.0366C252.261 50.2137 250.891 50.8022 249.193 50.8022C247.162 50.8022 245.516 50.0106 244.256 48.4272C243.006 46.8335 242.381 44.7241 242.381 42.0991V41.9116ZM246.896 42.2397C246.896 43.771 247.204 44.9741 247.818 45.8491C248.433 46.7137 249.277 47.146 250.35 47.146C251.725 47.146 252.709 46.6304 253.303 45.5991V38.4897C252.699 37.4585 251.725 36.9429 250.381 36.9429C249.298 36.9429 248.443 37.3856 247.818 38.271C247.204 39.1564 246.896 40.4793 246.896 42.2397ZM269.1 50.8022C266.62 50.8022 264.6 50.0418 263.037 48.521C261.485 47.0002 260.709 44.9741 260.709 42.4429V42.0054C260.709 40.3075 261.037 38.7918 261.693 37.4585C262.35 36.1147 263.277 35.0835 264.475 34.3647C265.683 33.6356 267.058 33.271 268.6 33.271C270.912 33.271 272.73 34.0002 274.053 35.4585C275.386 36.9168 276.053 38.9845 276.053 41.6616V43.5054H265.287C265.433 44.6095 265.87 45.495 266.6 46.1616C267.339 46.8283 268.271 47.1616 269.396 47.1616C271.136 47.1616 272.495 46.5314 273.475 45.271L275.693 47.7554C275.016 48.7137 274.1 49.4637 272.943 50.0054C271.787 50.5366 270.506 50.8022 269.1 50.8022ZM268.584 36.9272C267.688 36.9272 266.959 37.2293 266.396 37.8335C265.844 38.4377 265.49 39.3022 265.334 40.4272H271.615V40.0679C271.594 39.0679 271.324 38.297 270.803 37.7554C270.282 37.2033 269.542 36.9272 268.584 36.9272ZM296.396 50.4897C296.188 50.0835 296.037 49.5783 295.943 48.9741C294.85 50.1929 293.428 50.8022 291.678 50.8022C290.021 50.8022 288.646 50.3231 287.553 49.3647C286.469 48.4064 285.928 47.1981 285.928 45.7397C285.928 43.9481 286.589 42.5731 287.912 41.6147C289.245 40.6564 291.167 40.172 293.678 40.1616H295.756V39.1929C295.756 38.4116 295.553 37.7866 295.146 37.3179C294.751 36.8491 294.12 36.6147 293.256 36.6147C292.495 36.6147 291.896 36.797 291.459 37.1616C291.032 37.5262 290.818 38.0262 290.818 38.6616H286.303C286.303 37.6825 286.605 36.7762 287.209 35.9429C287.813 35.1095 288.667 34.4585 289.771 33.9897C290.876 33.5106 292.115 33.271 293.49 33.271C295.574 33.271 297.225 33.797 298.443 34.8491C299.673 35.8908 300.287 37.3595 300.287 39.2554V46.5835C300.298 48.1877 300.521 49.4012 300.959 50.2241V50.4897H296.396ZM292.662 47.3491C293.329 47.3491 293.943 47.2033 294.506 46.9116C295.068 46.6095 295.485 46.2085 295.756 45.7085V42.8022H294.068C291.808 42.8022 290.605 43.5835 290.459 45.146L290.443 45.4116C290.443 45.9741 290.641 46.4377 291.037 46.8022C291.433 47.1668 291.975 47.3491 292.662 47.3491ZM313.256 37.8179C312.641 37.7345 312.1 37.6929 311.631 37.6929C309.923 37.6929 308.803 38.271 308.271 39.4272V50.4897H303.756V33.5835H308.021L308.146 35.5991C309.053 34.047 310.308 33.271 311.912 33.271C312.412 33.271 312.881 33.3387 313.318 33.4741L313.256 37.8179ZM322.912 50.8022C320.433 50.8022 318.412 50.0418 316.85 48.521C315.298 47.0002 314.521 44.9741 314.521 42.4429V42.0054C314.521 40.3075 314.85 38.7918 315.506 37.4585C316.162 36.1147 317.089 35.0835 318.287 34.3647C319.495 33.6356 320.87 33.271 322.412 33.271C324.725 33.271 326.542 34.0002 327.865 35.4585C329.199 36.9168 329.865 38.9845 329.865 41.6616V43.5054H319.1C319.245 44.6095 319.683 45.495 320.412 46.1616C321.152 46.8283 322.084 47.1616 323.209 47.1616C324.949 47.1616 326.308 46.5314 327.287 45.271L329.506 47.7554C328.829 48.7137 327.912 49.4637 326.756 50.0054C325.6 50.5366 324.318 50.8022 322.912 50.8022ZM322.396 36.9272C321.501 36.9272 320.771 37.2293 320.209 37.8335C319.657 38.4377 319.303 39.3022 319.146 40.4272H325.428V40.0679C325.407 39.0679 325.136 38.297 324.615 37.7554C324.094 37.2033 323.355 36.9272 322.396 36.9272ZM346.725 44.0991L349.85 33.5835H354.693L347.896 53.1147L347.521 54.0054C346.511 56.2137 344.844 57.3179 342.521 57.3179C341.865 57.3179 341.199 57.2189 340.521 57.021V53.5991L341.209 53.6147C342.063 53.6147 342.699 53.4845 343.115 53.2241C343.542 52.9637 343.876 52.5314 344.115 51.9272L344.646 50.5366L338.725 33.5835H343.584L346.725 44.0991ZM355.521 41.8804C355.521 40.2033 355.844 38.7085 356.49 37.396C357.136 36.0835 358.063 35.0679 359.271 34.3491C360.49 33.6304 361.902 33.271 363.506 33.271C365.787 33.271 367.646 33.9689 369.084 35.3647C370.532 36.7606 371.339 38.6564 371.506 41.0522L371.537 42.2085C371.537 44.8022 370.813 46.8856 369.365 48.4585C367.917 50.021 365.975 50.8022 363.537 50.8022C361.1 50.8022 359.152 50.021 357.693 48.4585C356.245 46.896 355.521 44.771 355.521 42.0835V41.8804ZM360.037 42.2085C360.037 43.8127 360.339 45.0418 360.943 45.896C361.548 46.7397 362.412 47.1616 363.537 47.1616C364.631 47.1616 365.485 46.745 366.1 45.9116C366.714 45.0679 367.021 43.7241 367.021 41.8804C367.021 40.3075 366.714 39.0887 366.1 38.2241C365.485 37.3595 364.62 36.9272 363.506 36.9272C362.402 36.9272 361.548 37.3595 360.943 38.2241C360.339 39.0783 360.037 40.4064 360.037 42.2085ZM384.443 48.771C383.329 50.1252 381.787 50.8022 379.818 50.8022C378.006 50.8022 376.62 50.2814 375.662 49.2397C374.714 48.1981 374.23 46.672 374.209 44.6616V33.5835H378.725V44.5054C378.725 46.2658 379.527 47.146 381.131 47.146C382.662 47.146 383.714 46.6147 384.287 45.5522V33.5835H388.818V50.4897H384.568L384.443 48.771ZM395.912 43.5054C395.912 42.047 396.089 40.8856 396.443 40.021C396.798 39.1564 397.443 38.3075 398.381 37.4741C399.329 36.6304 399.959 35.9481 400.271 35.4272C400.584 34.896 400.74 34.3387 400.74 33.7554C400.74 31.995 399.928 31.1147 398.303 31.1147C397.532 31.1147 396.912 31.3543 396.443 31.8335C395.985 32.3022 395.745 32.9533 395.725 33.7866H391.193C391.214 31.797 391.855 30.2397 393.115 29.1147C394.386 27.9897 396.115 27.4272 398.303 27.4272C400.511 27.4272 402.225 27.9637 403.443 29.0366C404.662 30.0991 405.271 31.6043 405.271 33.5522C405.271 34.4377 405.074 35.2762 404.678 36.0679C404.282 36.8491 403.589 37.7189 402.6 38.6772L401.334 39.8804C400.542 40.6408 400.089 41.5314 399.975 42.5522L399.912 43.5054H395.912ZM395.459 48.3022C395.459 47.6043 395.693 47.0314 396.162 46.5835C396.641 46.1252 397.251 45.896 397.99 45.896C398.73 45.896 399.334 46.1252 399.803 46.5835C400.282 47.0314 400.521 47.6043 400.521 48.3022C400.521 48.9897 400.287 49.5575 399.818 50.0054C399.36 50.4533 398.751 50.6772 397.99 50.6772C397.23 50.6772 396.615 50.4533 396.146 50.0054C395.688 49.5575 395.459 48.9897 395.459 48.3022Z" fill="black"/>
</g>
<defs>
<clipPath id="clip0">
<rect width="1131" height="442" fill="white" transform="translate(0 0.921875)"/>
</clipPath>
</defs>
</svg>
