<svg width="1131" height="442" viewBox="0 0 1131 442" fill="none" xmlns="http://www.w3.org/2000/svg">
<path d="M0 0H1131V442H0V0Z" fill="white"/>
<path d="M274.035 71.8333C342.169 71.8333 404.037 111.593 432.341 173.571C460.645 235.548 450.179 308.342 405.56 359.834L280.611 251.565C282.842 248.99 283.365 245.351 281.95 242.252C280.535 239.153 277.441 237.165 274.035 237.165V71.8333Z" fill="#4285F4"/>
<path d="M101.773 270.634C94.5888 220.67 109.453 170.048 142.509 131.899C175.565 93.7501 223.556 71.8333 274.034 71.8333V237.165C271.511 237.165 269.111 238.261 267.458 240.168C265.805 242.076 265.062 244.607 265.421 247.105L101.773 270.634Z" fill="#FBBC04"/>
<path d="M405.56 359.834C360.941 411.327 290.378 432.046 225.004 412.85C159.629 393.655 111.469 338.075 101.772 270.634L265.421 247.105C265.906 250.477 268.314 253.256 271.583 254.216C274.852 255.176 278.38 254.14 280.611 251.565L405.56 359.834Z" fill="#EA4335"/>
<path d="M345.727 201.76L347.836 201.478C348.076 202.666 348.487 203.525 349.071 204.056C349.654 204.588 350.362 204.853 351.196 204.853C352.185 204.853 353.019 204.51 353.696 203.822C354.383 203.135 354.727 202.28 354.727 201.26C354.727 200.291 354.409 199.494 353.774 198.869C353.149 198.233 352.347 197.916 351.368 197.916C350.972 197.916 350.477 197.994 349.883 198.15L350.118 196.306C350.253 196.317 350.368 196.322 350.461 196.322C351.357 196.322 352.165 196.088 352.883 195.619C353.602 195.15 353.961 194.431 353.961 193.463C353.961 192.681 353.696 192.041 353.165 191.541C352.644 191.03 351.972 190.775 351.149 190.775C350.326 190.775 349.639 191.036 349.086 191.556C348.545 192.067 348.196 192.838 348.04 193.869L345.93 193.494C346.191 192.077 346.774 190.983 347.68 190.213C348.597 189.431 349.737 189.041 351.102 189.041C352.04 189.041 352.899 189.244 353.68 189.65C354.472 190.046 355.076 190.593 355.493 191.291C355.92 191.989 356.133 192.728 356.133 193.51C356.133 194.249 355.93 194.926 355.524 195.541C355.128 196.145 354.54 196.624 353.758 196.978C354.779 197.218 355.571 197.707 356.133 198.447C356.696 199.187 356.977 200.108 356.977 201.213C356.977 202.713 356.43 203.989 355.336 205.041C354.243 206.082 352.857 206.603 351.18 206.603C349.67 206.603 348.415 206.155 347.415 205.26C346.425 204.353 345.862 203.187 345.727 201.76ZM369.649 193.322L367.555 193.478C367.368 192.655 367.102 192.056 366.758 191.681C366.185 191.077 365.482 190.775 364.649 190.775C363.982 190.775 363.394 190.963 362.883 191.338C362.217 191.817 361.691 192.525 361.305 193.463C360.93 194.39 360.732 195.713 360.711 197.431C361.222 196.661 361.842 196.088 362.571 195.713C363.31 195.338 364.081 195.15 364.883 195.15C366.29 195.15 367.487 195.666 368.477 196.697C369.467 197.728 369.961 199.067 369.961 200.713C369.961 201.786 369.727 202.786 369.258 203.713C368.8 204.64 368.165 205.353 367.352 205.853C366.54 206.343 365.618 206.588 364.586 206.588C362.826 206.588 361.388 205.942 360.274 204.65C359.17 203.348 358.618 201.213 358.618 198.244C358.618 194.931 359.232 192.52 360.461 191.01C361.524 189.697 362.961 189.041 364.774 189.041C366.128 189.041 367.237 189.421 368.102 190.181C368.967 190.931 369.482 191.978 369.649 193.322ZM361.04 200.728C361.04 201.447 361.191 202.14 361.493 202.806C361.805 203.473 362.237 203.983 362.79 204.338C363.352 204.681 363.935 204.853 364.54 204.853C365.435 204.853 366.201 204.494 366.836 203.775C367.482 203.056 367.805 202.077 367.805 200.838C367.805 199.65 367.487 198.718 366.852 198.041C366.217 197.353 365.42 197.01 364.461 197.01C363.514 197.01 362.706 197.353 362.04 198.041C361.373 198.718 361.04 199.614 361.04 200.728ZM372.852 206.291V203.885H375.243V206.291C375.243 207.176 375.086 207.89 374.774 208.431C374.461 208.973 373.967 209.395 373.29 209.697L372.711 208.791C373.149 208.593 373.472 208.301 373.68 207.916C373.899 207.541 374.019 206.999 374.04 206.291H372.852ZM385.477 206.291V202.181H378.024V200.244L385.852 189.103H387.586V200.244H389.899V202.181H387.586V206.291H385.477ZM385.477 200.244V192.494L380.086 200.244H385.477ZM392.102 193.228C392.102 192.01 392.409 190.973 393.024 190.119C393.649 189.254 394.545 188.822 395.711 188.822C396.795 188.822 397.691 189.207 398.399 189.978C399.107 190.739 399.461 191.869 399.461 193.369C399.461 194.817 399.102 195.937 398.383 196.728C397.665 197.51 396.784 197.9 395.743 197.9C394.701 197.9 393.831 197.515 393.133 196.744C392.446 195.963 392.102 194.791 392.102 193.228ZM395.774 190.275C395.253 190.275 394.816 190.504 394.461 190.963C394.118 191.411 393.946 192.239 393.946 193.447C393.946 194.551 394.123 195.327 394.477 195.775C394.831 196.223 395.263 196.447 395.774 196.447C396.305 196.447 396.743 196.223 397.086 195.775C397.441 195.317 397.618 194.483 397.618 193.275C397.618 192.171 397.441 191.395 397.086 190.947C396.732 190.499 396.295 190.275 395.774 190.275ZM395.79 206.931L405.18 188.822H406.899L397.54 206.931H395.79ZM403.211 202.26C403.211 201.02 403.519 199.973 404.133 199.119C404.758 198.265 405.659 197.838 406.836 197.838C407.92 197.838 408.81 198.223 409.508 198.994C410.217 199.765 410.571 200.895 410.571 202.385C410.571 203.843 410.211 204.968 409.493 205.76C408.784 206.541 407.904 206.931 406.852 206.931C405.81 206.931 404.941 206.541 404.243 205.76C403.555 204.978 403.211 203.812 403.211 202.26ZM406.899 199.291C406.368 199.291 405.925 199.52 405.571 199.978C405.227 200.426 405.055 201.254 405.055 202.463C405.055 203.556 405.232 204.332 405.586 204.791C405.941 205.239 406.373 205.463 406.883 205.463C407.425 205.463 407.868 205.239 408.211 204.791C408.566 204.332 408.743 203.504 408.743 202.306C408.743 201.192 408.566 200.411 408.211 199.963C407.857 199.515 407.42 199.291 406.899 199.291Z" fill="black"/>
<path d="M206.361 369.179L208.47 368.898C208.71 370.085 209.121 370.945 209.705 371.476C210.288 372.007 210.996 372.273 211.83 372.273C212.819 372.273 213.653 371.929 214.33 371.242C215.017 370.554 215.361 369.7 215.361 368.679C215.361 367.71 215.043 366.914 214.408 366.289C213.783 365.653 212.981 365.335 212.001 365.335C211.606 365.335 211.111 365.414 210.517 365.57L210.751 363.726C210.887 363.736 211.001 363.742 211.095 363.742C211.991 363.742 212.798 363.507 213.517 363.039C214.236 362.57 214.595 361.851 214.595 360.882C214.595 360.101 214.33 359.46 213.798 358.96C213.278 358.45 212.606 358.195 211.783 358.195C210.96 358.195 210.272 358.455 209.72 358.976C209.179 359.486 208.83 360.257 208.673 361.289L206.564 360.914C206.824 359.497 207.408 358.403 208.314 357.632C209.231 356.851 210.371 356.46 211.736 356.46C212.673 356.46 213.533 356.664 214.314 357.07C215.106 357.466 215.71 358.013 216.126 358.71C216.554 359.408 216.767 360.148 216.767 360.929C216.767 361.669 216.564 362.346 216.158 362.96C215.762 363.565 215.173 364.044 214.392 364.398C215.413 364.638 216.205 365.127 216.767 365.867C217.33 366.606 217.611 367.528 217.611 368.632C217.611 370.132 217.064 371.408 215.97 372.46C214.876 373.502 213.491 374.023 211.814 374.023C210.304 374.023 209.048 373.575 208.048 372.679C207.059 371.773 206.496 370.606 206.361 369.179ZM230.283 360.742L228.189 360.898C228.001 360.075 227.736 359.476 227.392 359.101C226.819 358.497 226.116 358.195 225.283 358.195C224.616 358.195 224.028 358.382 223.517 358.757C222.85 359.236 222.324 359.945 221.939 360.882C221.564 361.809 221.366 363.132 221.345 364.851C221.856 364.08 222.475 363.507 223.205 363.132C223.944 362.757 224.715 362.57 225.517 362.57C226.923 362.57 228.121 363.085 229.111 364.117C230.1 365.148 230.595 366.486 230.595 368.132C230.595 369.205 230.361 370.205 229.892 371.132C229.434 372.059 228.798 372.773 227.986 373.273C227.173 373.763 226.251 374.007 225.22 374.007C223.46 374.007 222.022 373.361 220.908 372.07C219.804 370.768 219.251 368.632 219.251 365.664C219.251 362.351 219.866 359.94 221.095 358.429C222.158 357.117 223.595 356.46 225.408 356.46C226.762 356.46 227.871 356.841 228.736 357.601C229.6 358.351 230.116 359.398 230.283 360.742ZM221.673 368.148C221.673 368.867 221.824 369.559 222.126 370.226C222.439 370.893 222.871 371.403 223.423 371.757C223.986 372.101 224.569 372.273 225.173 372.273C226.069 372.273 226.835 371.914 227.47 371.195C228.116 370.476 228.439 369.497 228.439 368.257C228.439 367.07 228.121 366.138 227.486 365.46C226.85 364.773 226.054 364.429 225.095 364.429C224.147 364.429 223.34 364.773 222.673 365.46C222.007 366.138 221.673 367.033 221.673 368.148ZM233.486 373.71V371.304H235.876V373.71C235.876 374.596 235.72 375.309 235.408 375.851C235.095 376.393 234.6 376.815 233.923 377.117L233.345 376.21C233.783 376.013 234.106 375.721 234.314 375.335C234.533 374.96 234.653 374.419 234.673 373.71H233.486ZM246.111 373.71V369.601H238.658V367.664L246.486 356.523H248.22V367.664H250.533V369.601H248.22V373.71H246.111ZM246.111 367.664V359.914L240.72 367.664H246.111ZM252.736 360.648C252.736 359.429 253.043 358.393 253.658 357.539C254.283 356.674 255.179 356.242 256.345 356.242C257.429 356.242 258.324 356.627 259.033 357.398C259.741 358.158 260.095 359.289 260.095 360.789C260.095 362.236 259.736 363.356 259.017 364.148C258.298 364.929 257.418 365.32 256.376 365.32C255.335 365.32 254.465 364.934 253.767 364.164C253.08 363.382 252.736 362.21 252.736 360.648ZM256.408 357.695C255.887 357.695 255.449 357.924 255.095 358.382C254.751 358.83 254.58 359.658 254.58 360.867C254.58 361.971 254.757 362.747 255.111 363.195C255.465 363.643 255.897 363.867 256.408 363.867C256.939 363.867 257.376 363.643 257.72 363.195C258.074 362.736 258.251 361.903 258.251 360.695C258.251 359.591 258.074 358.815 257.72 358.367C257.366 357.919 256.929 357.695 256.408 357.695ZM256.423 374.351L265.814 356.242H267.533L258.173 374.351H256.423ZM263.845 369.679C263.845 368.44 264.153 367.393 264.767 366.539C265.392 365.684 266.293 365.257 267.47 365.257C268.554 365.257 269.444 365.643 270.142 366.414C270.85 367.184 271.205 368.315 271.205 369.804C271.205 371.263 270.845 372.388 270.126 373.179C269.418 373.96 268.538 374.351 267.486 374.351C266.444 374.351 265.574 373.96 264.876 373.179C264.189 372.398 263.845 371.231 263.845 369.679ZM267.533 366.71C267.001 366.71 266.559 366.94 266.205 367.398C265.861 367.846 265.689 368.674 265.689 369.882C265.689 370.976 265.866 371.752 266.22 372.21C266.574 372.658 267.007 372.882 267.517 372.882C268.059 372.882 268.501 372.658 268.845 372.21C269.199 371.752 269.376 370.924 269.376 369.726C269.376 368.611 269.199 367.83 268.845 367.382C268.491 366.934 268.054 366.71 267.533 366.71Z" fill="black"/>
<path d="M165.903 176.701V178.732H154.559C154.539 178.222 154.617 177.732 154.794 177.264C155.085 176.493 155.549 175.732 156.184 174.982C156.82 174.232 157.742 173.363 158.95 172.373C160.815 170.842 162.075 169.633 162.731 168.748C163.388 167.852 163.716 167.003 163.716 166.201C163.716 165.368 163.414 164.665 162.809 164.092C162.216 163.519 161.44 163.232 160.481 163.232C159.471 163.232 158.658 163.54 158.044 164.154C157.44 164.758 157.132 165.597 157.122 166.67L154.95 166.451C155.096 164.837 155.653 163.607 156.622 162.764C157.591 161.91 158.893 161.482 160.528 161.482C162.174 161.482 163.476 161.941 164.434 162.857C165.403 163.764 165.888 164.894 165.888 166.248C165.888 166.936 165.747 167.613 165.466 168.279C165.184 168.946 164.716 169.649 164.059 170.389C163.414 171.118 162.33 172.123 160.809 173.404C159.549 174.467 158.737 175.186 158.372 175.561C158.018 175.936 157.721 176.316 157.481 176.701H165.903ZM167.966 163.795V161.779H179.091V163.42C177.997 164.576 176.908 166.123 175.825 168.061C174.752 169.988 173.924 171.972 173.341 174.014C172.924 175.451 172.653 177.024 172.528 178.732H170.372C170.393 177.378 170.653 175.748 171.153 173.842C171.664 171.925 172.393 170.076 173.341 168.295C174.299 166.514 175.309 165.014 176.372 163.795H167.966ZM181.966 178.732V176.326H184.356V178.732C184.356 179.618 184.2 180.331 183.888 180.873C183.575 181.415 183.08 181.837 182.403 182.139L181.825 181.232C182.263 181.035 182.585 180.743 182.794 180.357C183.013 179.982 183.132 179.441 183.153 178.732H181.966ZM187.841 174.201L189.95 173.92C190.19 175.107 190.601 175.967 191.184 176.498C191.768 177.029 192.476 177.295 193.309 177.295C194.299 177.295 195.132 176.951 195.809 176.264C196.497 175.576 196.841 174.722 196.841 173.701C196.841 172.732 196.523 171.936 195.888 171.311C195.263 170.675 194.46 170.357 193.481 170.357C193.085 170.357 192.591 170.436 191.997 170.592L192.231 168.748C192.367 168.758 192.481 168.764 192.575 168.764C193.471 168.764 194.278 168.529 194.997 168.061C195.716 167.592 196.075 166.873 196.075 165.904C196.075 165.123 195.809 164.482 195.278 163.982C194.757 163.472 194.085 163.217 193.263 163.217C192.44 163.217 191.752 163.477 191.2 163.998C190.658 164.508 190.309 165.279 190.153 166.311L188.044 165.936C188.304 164.519 188.888 163.425 189.794 162.654C190.71 161.873 191.851 161.482 193.216 161.482C194.153 161.482 195.013 161.686 195.794 162.092C196.585 162.488 197.19 163.035 197.606 163.732C198.033 164.43 198.247 165.17 198.247 165.951C198.247 166.691 198.044 167.368 197.638 167.982C197.242 168.587 196.653 169.066 195.872 169.42C196.893 169.66 197.684 170.149 198.247 170.889C198.809 171.628 199.091 172.55 199.091 173.654C199.091 175.154 198.544 176.43 197.45 177.482C196.356 178.524 194.971 179.045 193.294 179.045C191.783 179.045 190.528 178.597 189.528 177.701C188.539 176.795 187.976 175.628 187.841 174.201ZM201.216 165.67C201.216 164.451 201.523 163.415 202.138 162.561C202.763 161.696 203.658 161.264 204.825 161.264C205.908 161.264 206.804 161.649 207.513 162.42C208.221 163.18 208.575 164.311 208.575 165.811C208.575 167.258 208.216 168.378 207.497 169.17C206.778 169.951 205.898 170.342 204.856 170.342C203.815 170.342 202.945 169.956 202.247 169.186C201.559 168.404 201.216 167.232 201.216 165.67ZM204.888 162.717C204.367 162.717 203.929 162.946 203.575 163.404C203.231 163.852 203.059 164.68 203.059 165.889C203.059 166.993 203.237 167.769 203.591 168.217C203.945 168.665 204.377 168.889 204.888 168.889C205.419 168.889 205.856 168.665 206.2 168.217C206.554 167.758 206.731 166.925 206.731 165.717C206.731 164.613 206.554 163.837 206.2 163.389C205.846 162.941 205.408 162.717 204.888 162.717ZM204.903 179.373L214.294 161.264H216.013L206.653 179.373H204.903ZM212.325 174.701C212.325 173.462 212.632 172.415 213.247 171.561C213.872 170.706 214.773 170.279 215.95 170.279C217.033 170.279 217.924 170.665 218.622 171.436C219.33 172.206 219.684 173.337 219.684 174.826C219.684 176.285 219.325 177.41 218.606 178.201C217.898 178.982 217.018 179.373 215.966 179.373C214.924 179.373 214.054 178.982 213.356 178.201C212.669 177.42 212.325 176.253 212.325 174.701ZM216.013 171.732C215.481 171.732 215.039 171.962 214.684 172.42C214.341 172.868 214.169 173.696 214.169 174.904C214.169 175.998 214.346 176.774 214.7 177.232C215.054 177.68 215.487 177.904 215.997 177.904C216.539 177.904 216.981 177.68 217.325 177.232C217.679 176.774 217.856 175.946 217.856 174.748C217.856 173.633 217.679 172.852 217.325 172.404C216.971 171.956 216.533 171.732 216.013 171.732Z" fill="black"/>
<path d="M280.611 251.565C282.842 248.99 283.365 245.351 281.95 242.252C280.535 239.153 277.441 237.165 274.035 237.165V71.8333C342.169 71.8333 404.037 111.593 432.341 173.571C460.645 235.548 450.179 308.342 405.56 359.834" stroke="white" stroke-miterlimit="10" stroke-linecap="round" stroke-linejoin="round"/>
<path d="M265.421 247.105C265.906 250.477 268.314 253.256 271.583 254.216C274.852 255.176 278.38 254.14 280.611 251.565L405.56 359.834C360.941 411.327 290.378 432.046 225.004 412.85C159.629 393.655 111.469 338.075 101.772 270.634" stroke="white" stroke-miterlimit="10" stroke-linecap="round" stroke-linejoin="round"/>
<path d="M274.034 237.165C271.511 237.165 269.111 238.261 267.458 240.168C265.805 242.076 265.062 244.607 265.421 247.105L101.773 270.634C94.5888 220.67 109.453 170.048 142.509 131.899C175.565 93.7501 223.556 71.8333 274.034 71.8333" stroke="white" stroke-miterlimit="10" stroke-linecap="round" stroke-linejoin="round"/>
<path d="M750.64 89.3333C750.64 92.647 747.954 95.3333 744.64 95.3333C741.326 95.3333 738.64 92.647 738.64 89.3333C738.64 86.0195 741.326 83.3333 744.64 83.3333C747.954 83.3333 750.64 86.0195 750.64 89.3333Z" fill="#4285F4"/>
<path d="M773.75 97.302V99.8333H759.547C759.526 99.1978 759.63 98.5885 759.859 98.0051C760.224 97.0364 760.802 96.0833 761.593 95.1458C762.385 94.2083 763.536 93.1249 765.047 91.8958C767.38 89.9791 768.953 88.4635 769.765 87.3489C770.588 86.2239 771 85.1666 771 84.177C771 83.1249 770.625 82.2447 769.875 81.5364C769.135 80.8176 768.166 80.4583 766.968 80.4583C765.698 80.4583 764.677 80.8385 763.906 81.5989C763.145 82.3593 762.76 83.4114 762.75 84.7551L760.047 84.4739C760.234 82.453 760.932 80.9166 762.14 79.8645C763.349 78.802 764.974 78.2708 767.015 78.2708C769.078 78.2708 770.708 78.8437 771.906 79.9895C773.114 81.1249 773.718 82.5416 773.718 84.2395C773.718 85.0937 773.541 85.9374 773.187 86.7708C772.833 87.5937 772.25 88.4687 771.437 89.3958C770.625 90.3124 769.271 91.5676 767.375 93.1614C765.791 94.4947 764.776 95.401 764.328 95.8801C763.88 96.3489 763.51 96.8228 763.218 97.302H773.75ZM776.89 89.2395C776.89 86.6978 777.151 84.6562 777.672 83.1145C778.192 81.5624 778.968 80.3697 780 79.5364C781.031 78.6926 782.328 78.2708 783.89 78.2708C785.036 78.2708 786.041 78.5051 786.906 78.9739C787.781 79.4322 788.5 80.0989 789.062 80.9739C789.635 81.8489 790.083 82.9166 790.406 84.177C790.729 85.427 790.89 87.1145 790.89 89.2395C790.89 91.7603 790.63 93.7968 790.109 95.3489C789.599 96.8905 788.828 98.0833 787.797 98.927C786.765 99.7708 785.463 100.193 783.89 100.193C781.817 100.193 780.192 99.453 779.015 97.9739C777.599 96.1822 776.89 93.2708 776.89 89.2395ZM779.593 89.2395C779.593 92.7708 780.005 95.1197 780.828 96.2864C781.661 97.453 782.682 98.0364 783.89 98.0364C785.099 98.0364 786.114 97.453 786.937 96.2864C787.771 95.1093 788.187 92.7603 788.187 89.2395C788.187 85.7083 787.771 83.3645 786.937 82.2083C786.114 81.0416 785.088 80.4583 783.859 80.4583C782.651 80.4583 781.682 80.9687 780.953 81.9895C780.047 83.302 779.593 85.7187 779.593 89.2395ZM801.593 93.3801V90.7395H809.687V93.3801H801.593ZM819.906 94.1614L822.531 93.8176C822.833 95.3072 823.349 96.3853 824.078 97.052C824.807 97.7083 825.692 98.0364 826.734 98.0364C827.984 98.0364 829.036 97.6093 829.89 96.7551C830.745 95.8905 831.172 94.8228 831.172 93.552C831.172 92.3437 830.776 91.3489 829.984 90.5676C829.192 89.776 828.187 89.3801 826.968 89.3801C826.468 89.3801 825.843 89.4739 825.093 89.6614L825.39 87.3489C825.567 87.3697 825.708 87.3801 825.812 87.3801C826.937 87.3801 827.948 87.0885 828.843 86.5051C829.75 85.9218 830.203 85.0155 830.203 83.7864C830.203 82.828 829.875 82.0312 829.218 81.3958C828.562 80.7603 827.718 80.4426 826.687 80.4426C825.656 80.4426 824.797 80.7655 824.109 81.4114C823.432 82.0468 822.994 83.0103 822.797 84.302L820.172 83.8333C820.484 82.0728 821.213 80.7083 822.359 79.7395C823.505 78.7603 824.927 78.2708 826.625 78.2708C827.791 78.2708 828.869 78.526 829.859 79.0364C830.849 79.5364 831.604 80.2187 832.125 81.0833C832.645 81.9478 832.906 82.8697 832.906 83.8489C832.906 84.776 832.656 85.6197 832.156 86.3801C831.666 87.1405 830.932 87.7499 829.953 88.2083C831.224 88.4999 832.208 89.1093 832.906 90.0364C833.614 90.953 833.968 92.1041 833.968 93.4895C833.968 95.3645 833.281 96.953 831.906 98.2551C830.541 99.5572 828.817 100.208 826.734 100.208C824.849 100.208 823.281 99.651 822.031 98.5364C820.791 97.4114 820.083 95.953 819.906 94.1614ZM836.89 89.2395C836.89 86.6978 837.151 84.6562 837.672 83.1145C838.192 81.5624 838.968 80.3697 840 79.5364C841.031 78.6926 842.328 78.2708 843.89 78.2708C845.036 78.2708 846.041 78.5051 846.906 78.9739C847.781 79.4322 848.5 80.0989 849.062 80.9739C849.635 81.8489 850.083 82.9166 850.406 84.177C850.729 85.427 850.89 87.1145 850.89 89.2395C850.89 91.7603 850.63 93.7968 850.109 95.3489C849.599 96.8905 848.828 98.0833 847.797 98.927C846.765 99.7708 845.463 100.193 843.89 100.193C841.817 100.193 840.192 99.453 839.015 97.9739C837.599 96.1822 836.89 93.2708 836.89 89.2395ZM839.593 89.2395C839.593 92.7708 840.005 95.1197 840.828 96.2864C841.661 97.453 842.682 98.0364 843.89 98.0364C845.099 98.0364 846.114 97.453 846.937 96.2864C847.771 95.1093 848.187 92.7603 848.187 89.2395C848.187 85.7083 847.771 83.3645 846.937 82.2083C846.114 81.0416 845.088 80.4583 843.859 80.4583C842.651 80.4583 841.682 80.9687 840.953 81.9895C840.047 83.302 839.593 85.7187 839.593 89.2395ZM862.562 99.8333V78.3645H865.203V99.8333H862.562ZM879.765 97.9114C878.797 98.7447 877.859 99.3333 876.953 99.677C876.047 100.021 875.078 100.193 874.047 100.193C872.338 100.193 871.021 99.776 870.093 98.9426C869.177 98.0989 868.718 97.026 868.718 95.7239C868.718 94.9635 868.89 94.2708 869.234 93.6458C869.588 93.0103 870.047 92.5051 870.609 92.1301C871.172 91.7447 871.802 91.4583 872.5 91.2708C873.02 91.1249 873.802 90.9895 874.843 90.8645C876.979 90.6145 878.547 90.3124 879.547 89.9583C879.557 89.5937 879.562 89.3645 879.562 89.2708C879.562 88.1978 879.312 87.4426 878.812 87.0051C878.146 86.4114 877.146 86.1145 875.812 86.1145C874.573 86.1145 873.656 86.3333 873.062 86.7708C872.479 87.1978 872.041 87.9635 871.75 89.0676L869.172 88.7083C869.411 87.6041 869.797 86.7135 870.328 86.0364C870.869 85.3593 871.646 84.8385 872.656 84.4739C873.677 84.1093 874.859 83.927 876.203 83.927C877.526 83.927 878.599 84.0833 879.422 84.3958C880.255 84.7083 880.864 85.1041 881.25 85.5833C881.645 86.052 881.922 86.6458 882.078 87.3645C882.172 87.8124 882.218 88.6249 882.218 89.802V93.3176C882.218 95.7655 882.27 97.3176 882.375 97.9739C882.489 98.6197 882.713 99.2395 883.047 99.8333H880.297C880.026 99.2812 879.849 98.6405 879.765 97.9114ZM879.547 92.0208C878.588 92.4166 877.156 92.7499 875.25 93.0208C874.166 93.177 873.396 93.3541 872.937 93.552C872.489 93.7499 872.14 94.0364 871.89 94.4114C871.651 94.7864 871.531 95.203 871.531 95.6614C871.531 96.3593 871.797 96.9426 872.328 97.4114C872.869 97.8801 873.651 98.1145 874.672 98.1145C875.692 98.1145 876.593 97.8958 877.375 97.4583C878.166 97.0103 878.75 96.401 879.125 95.6301C879.406 95.0364 879.547 94.1562 879.547 92.9895V92.0208ZM891.375 97.4739L891.75 99.802C891.01 99.9583 890.349 100.036 889.765 100.036C888.807 100.036 888.062 99.8853 887.531 99.5833C887.01 99.2812 886.64 98.8853 886.422 98.3958C886.213 97.8958 886.109 96.8541 886.109 95.2708V86.3333H884.172V84.2708H886.109V80.427L888.718 78.8489V84.2708H891.375V86.3333H888.718V95.427C888.718 96.177 888.765 96.6614 888.859 96.8801C888.953 97.0885 889.104 97.2603 889.312 97.3958C889.521 97.5208 889.823 97.5833 890.218 97.5833C890.51 97.5833 890.895 97.5468 891.375 97.4739Z" fill="black"/>
<path d="M750.64 134.333C750.64 137.647 747.954 140.333 744.64 140.333C741.326 140.333 738.64 137.647 738.64 134.333C738.64 131.02 741.326 128.333 744.64 128.333C747.954 128.333 750.64 131.02 750.64 134.333Z" fill="#EA4335"/>
<path d="M759.906 139.161L762.531 138.818C762.833 140.307 763.349 141.385 764.078 142.052C764.807 142.708 765.692 143.036 766.734 143.036C767.984 143.036 769.036 142.609 769.89 141.755C770.744 140.891 771.171 139.823 771.171 138.552C771.171 137.344 770.776 136.349 769.984 135.568C769.192 134.776 768.187 134.38 766.968 134.38C766.468 134.38 765.843 134.474 765.093 134.661L765.39 132.349C765.567 132.37 765.708 132.38 765.812 132.38C766.937 132.38 767.947 132.088 768.843 131.505C769.749 130.922 770.203 130.016 770.203 128.786C770.203 127.828 769.874 127.031 769.218 126.396C768.562 125.76 767.718 125.443 766.687 125.443C765.656 125.443 764.796 125.766 764.109 126.411C763.432 127.047 762.994 128.01 762.796 129.302L760.171 128.833C760.484 127.073 761.213 125.708 762.359 124.74C763.505 123.76 764.927 123.271 766.625 123.271C767.791 123.271 768.869 123.526 769.859 124.036C770.848 124.536 771.604 125.219 772.125 126.083C772.645 126.948 772.906 127.87 772.906 128.849C772.906 129.776 772.656 130.62 772.156 131.38C771.666 132.141 770.932 132.75 769.953 133.208C771.224 133.5 772.208 134.109 772.906 135.036C773.614 135.953 773.968 137.104 773.968 138.49C773.968 140.365 773.281 141.953 771.906 143.255C770.541 144.557 768.817 145.208 766.734 145.208C764.848 145.208 763.281 144.651 762.031 143.536C760.791 142.411 760.083 140.953 759.906 139.161ZM786.812 144.833H784.187V128.036C783.552 128.641 782.718 129.245 781.687 129.849C780.656 130.453 779.729 130.906 778.906 131.208V128.661C780.385 127.963 781.677 127.125 782.781 126.146C783.885 125.156 784.666 124.198 785.125 123.271H786.812V144.833ZM801.593 138.38V135.74H809.687V138.38H801.593ZM828.343 144.833V139.693H819.015V137.271L828.828 123.365H830.968V137.271H833.875V139.693H830.968V144.833H828.343ZM828.343 137.271V127.599L821.609 137.271H828.343ZM836.89 134.24C836.89 131.698 837.151 129.656 837.671 128.115C838.192 126.562 838.968 125.37 840 124.536C841.031 123.693 842.328 123.271 843.89 123.271C845.036 123.271 846.041 123.505 846.906 123.974C847.781 124.432 848.499 125.099 849.062 125.974C849.635 126.849 850.083 127.917 850.406 129.177C850.729 130.427 850.89 132.115 850.89 134.24C850.89 136.76 850.63 138.797 850.109 140.349C849.598 141.891 848.828 143.083 847.796 143.927C846.765 144.771 845.463 145.193 843.89 145.193C841.817 145.193 840.192 144.453 839.015 142.974C837.598 141.182 836.89 138.271 836.89 134.24ZM839.593 134.24C839.593 137.771 840.005 140.12 840.828 141.286C841.661 142.453 842.682 143.036 843.89 143.036C845.098 143.036 846.114 142.453 846.937 141.286C847.77 140.109 848.187 137.76 848.187 134.24C848.187 130.708 847.77 128.364 846.937 127.208C846.114 126.042 845.088 125.458 843.859 125.458C842.651 125.458 841.682 125.969 840.953 126.99C840.046 128.302 839.593 130.719 839.593 134.24ZM862.562 144.833V123.365H865.203V144.833H862.562ZM879.765 142.911C878.796 143.745 877.859 144.333 876.953 144.677C876.046 145.021 875.078 145.193 874.046 145.193C872.338 145.193 871.02 144.776 870.093 143.943C869.177 143.099 868.718 142.026 868.718 140.724C868.718 139.963 868.89 139.271 869.234 138.646C869.588 138.01 870.046 137.505 870.609 137.13C871.171 136.745 871.802 136.458 872.5 136.271C873.02 136.125 873.802 135.99 874.843 135.865C876.979 135.615 878.546 135.312 879.546 134.958C879.557 134.594 879.562 134.364 879.562 134.271C879.562 133.198 879.312 132.443 878.812 132.005C878.145 131.411 877.145 131.115 875.812 131.115C874.572 131.115 873.656 131.333 873.062 131.771C872.479 132.198 872.041 132.963 871.75 134.068L869.171 133.708C869.411 132.604 869.796 131.713 870.328 131.036C870.869 130.359 871.645 129.838 872.656 129.474C873.677 129.109 874.859 128.927 876.203 128.927C877.526 128.927 878.598 129.083 879.421 129.396C880.255 129.708 880.864 130.104 881.25 130.583C881.645 131.052 881.921 131.646 882.078 132.365C882.171 132.812 882.218 133.625 882.218 134.802V138.318C882.218 140.766 882.27 142.318 882.375 142.974C882.489 143.62 882.713 144.239 883.046 144.833H880.296C880.026 144.281 879.848 143.641 879.765 142.911ZM879.546 137.021C878.588 137.417 877.156 137.75 875.25 138.021C874.166 138.177 873.395 138.354 872.937 138.552C872.489 138.75 872.14 139.036 871.89 139.411C871.651 139.786 871.531 140.203 871.531 140.661C871.531 141.359 871.796 141.943 872.328 142.411C872.869 142.88 873.651 143.115 874.671 143.115C875.692 143.115 876.593 142.896 877.375 142.458C878.166 142.01 878.75 141.401 879.125 140.63C879.406 140.036 879.546 139.156 879.546 137.99V137.021ZM891.375 142.474L891.75 144.802C891.01 144.958 890.348 145.036 889.765 145.036C888.807 145.036 888.062 144.885 887.531 144.583C887.01 144.281 886.64 143.885 886.421 143.396C886.213 142.896 886.109 141.854 886.109 140.271V131.333H884.171V129.271H886.109V125.427L888.718 123.849V129.271H891.375V131.333H888.718V140.427C888.718 141.177 888.765 141.661 888.859 141.88C888.953 142.088 889.104 142.26 889.312 142.396C889.52 142.521 889.822 142.583 890.218 142.583C890.51 142.583 890.895 142.547 891.375 142.474Z" fill="black"/>
<path d="M750.64 179.333C750.64 182.647 747.954 185.333 744.64 185.333C741.326 185.333 738.64 182.647 738.64 179.333C738.64 176.02 741.326 173.333 744.64 173.333C747.954 173.333 750.64 176.02 750.64 179.333Z" fill="#FBBC04"/>
<path d="M768.343 189.833V184.693H759.015V182.271L768.828 168.365H770.968V182.271H773.875V184.693H770.968V189.833H768.343ZM768.343 182.271V172.599L761.609 182.271H768.343ZM786.812 189.833H784.187V173.036C783.552 173.641 782.718 174.245 781.687 174.849C780.656 175.453 779.729 175.906 778.906 176.208V173.661C780.385 172.963 781.677 172.125 782.781 171.146C783.885 170.156 784.666 169.198 785.125 168.271H786.812V189.833ZM801.593 183.38V180.74H809.687V183.38H801.593ZM828.343 189.833V184.693H819.015V182.271L828.828 168.365H830.968V182.271H833.875V184.693H830.968V189.833H828.343ZM828.343 182.271V172.599L821.609 182.271H828.343ZM836.89 184.208L839.656 183.974C839.864 185.318 840.338 186.333 841.078 187.021C841.828 187.698 842.729 188.036 843.781 188.036C845.052 188.036 846.125 187.557 847 186.599C847.885 185.641 848.328 184.37 848.328 182.786C848.328 181.286 847.906 180.104 847.062 179.24C846.218 178.365 845.109 177.927 843.734 177.927C842.89 177.927 842.124 178.12 841.437 178.505C840.76 178.891 840.224 179.391 839.828 180.005L837.359 179.677L839.437 168.646H850.109V171.177H841.546L840.39 176.943C841.682 176.047 843.031 175.599 844.437 175.599C846.312 175.599 847.895 176.25 849.187 177.552C850.479 178.844 851.125 180.51 851.125 182.552C851.125 184.5 850.557 186.182 849.421 187.599C848.046 189.328 846.166 190.193 843.781 190.193C841.833 190.193 840.239 189.646 839 188.552C837.77 187.458 837.067 186.01 836.89 184.208ZM862.562 189.833V168.365H865.203V189.833H862.562ZM879.765 187.911C878.796 188.745 877.859 189.333 876.953 189.677C876.046 190.021 875.078 190.193 874.046 190.193C872.338 190.193 871.02 189.776 870.093 188.943C869.177 188.099 868.718 187.026 868.718 185.724C868.718 184.963 868.89 184.271 869.234 183.646C869.588 183.01 870.046 182.505 870.609 182.13C871.171 181.745 871.802 181.458 872.5 181.271C873.02 181.125 873.802 180.99 874.843 180.865C876.979 180.615 878.546 180.312 879.546 179.958C879.557 179.594 879.562 179.364 879.562 179.271C879.562 178.198 879.312 177.443 878.812 177.005C878.145 176.411 877.145 176.115 875.812 176.115C874.572 176.115 873.656 176.333 873.062 176.771C872.479 177.198 872.041 177.963 871.75 179.068L869.171 178.708C869.411 177.604 869.796 176.713 870.328 176.036C870.869 175.359 871.645 174.838 872.656 174.474C873.677 174.109 874.859 173.927 876.203 173.927C877.526 173.927 878.598 174.083 879.421 174.396C880.255 174.708 880.864 175.104 881.25 175.583C881.645 176.052 881.921 176.646 882.078 177.365C882.171 177.812 882.218 178.625 882.218 179.802V183.318C882.218 185.766 882.27 187.318 882.375 187.974C882.489 188.62 882.713 189.239 883.046 189.833H880.296C880.026 189.281 879.848 188.641 879.765 187.911ZM879.546 182.021C878.588 182.417 877.156 182.75 875.25 183.021C874.166 183.177 873.395 183.354 872.937 183.552C872.489 183.75 872.14 184.036 871.89 184.411C871.651 184.786 871.531 185.203 871.531 185.661C871.531 186.359 871.796 186.943 872.328 187.411C872.869 187.88 873.651 188.115 874.671 188.115C875.692 188.115 876.593 187.896 877.375 187.458C878.166 187.01 878.75 186.401 879.125 185.63C879.406 185.036 879.546 184.156 879.546 182.99V182.021ZM891.375 187.474L891.75 189.802C891.01 189.958 890.348 190.036 889.765 190.036C888.807 190.036 888.062 189.885 887.531 189.583C887.01 189.281 886.64 188.885 886.421 188.396C886.213 187.896 886.109 186.854 886.109 185.271V176.333H884.171V174.271H886.109V170.427L888.718 168.849V174.271H891.375V176.333H888.718V185.427C888.718 186.177 888.765 186.661 888.859 186.88C888.953 187.088 889.104 187.26 889.312 187.396C889.52 187.521 889.822 187.583 890.218 187.583C890.51 187.583 890.895 187.547 891.375 187.474Z" fill="black"/>
<path d="M27.3345 50.1001L22.2095 28.6313H26.647L29.8813 43.3813L33.8032 28.6313H38.9595L42.7251 43.6313L46.022 28.6313H50.3813L45.1782 50.1001H40.5688L36.2876 34.0376L32.0376 50.1001H27.3345ZM61.1626 32.4282V28.6313H65.2876V32.4282H61.1626ZM65.2876 34.5376V49.6157C65.2876 51.5949 65.1574 52.9907 64.897 53.8032C64.6366 54.6261 64.1366 55.2668 63.397 55.7251C62.6574 56.1834 61.7199 56.4126 60.5845 56.4126C60.1678 56.4126 59.7199 56.3761 59.2407 56.3032C58.772 56.2303 58.2668 56.1209 57.7251 55.9751L58.4438 52.4595C58.6418 52.5011 58.8241 52.5324 58.9907 52.5532C59.1574 52.5741 59.3136 52.5845 59.4595 52.5845C59.8866 52.5845 60.2303 52.4959 60.4907 52.3188C60.7616 52.1418 60.9386 51.923 61.022 51.6626C61.1157 51.4126 61.1626 50.6522 61.1626 49.3813V34.5376H65.2876ZM73.3345 39.2876L69.6001 38.6157C70.0168 37.1157 70.7355 36.0063 71.7563 35.2876C72.7876 34.5584 74.3136 34.1938 76.3345 34.1938C78.1678 34.1938 79.5324 34.4126 80.4282 34.8501C81.3345 35.2772 81.9699 35.8293 82.3345 36.5063C82.6991 37.173 82.8813 38.397 82.8813 40.1782L82.8345 44.9907C82.8345 46.3553 82.897 47.3657 83.022 48.022C83.1574 48.6678 83.4074 49.3605 83.772 50.1001H79.7095C79.5949 49.8293 79.4595 49.423 79.3032 48.8813C79.2407 48.6418 79.1938 48.4803 79.1626 48.397C78.4543 49.0845 77.6991 49.6001 76.897 49.9438C76.1053 50.2876 75.2511 50.4595 74.3345 50.4595C72.7407 50.4595 71.4803 50.0272 70.5532 49.1626C69.6261 48.2876 69.1626 47.1834 69.1626 45.8501C69.1626 44.9751 69.3709 44.1938 69.7876 43.5063C70.2147 42.8188 70.8032 42.2928 71.5532 41.9282C72.3136 41.5532 73.4074 41.2303 74.8345 40.9595C76.7616 40.5949 78.0949 40.2563 78.8345 39.9438V39.5376C78.8345 38.7459 78.6366 38.1834 78.2407 37.8501C77.8553 37.5063 77.1209 37.3345 76.0376 37.3345C75.3084 37.3345 74.7355 37.4803 74.3188 37.772C73.9126 38.0636 73.5845 38.5688 73.3345 39.2876ZM78.8345 42.6313C78.3136 42.8084 77.4803 43.022 76.3345 43.272C75.1886 43.5116 74.4386 43.7459 74.0845 43.9751C73.5532 44.3605 73.2876 44.8449 73.2876 45.4282C73.2876 46.0011 73.5011 46.5011 73.9282 46.9282C74.3553 47.3449 74.9022 47.5532 75.5688 47.5532C76.3084 47.5532 77.0168 47.3084 77.6938 46.8188C78.1938 46.4438 78.522 45.9907 78.6782 45.4595C78.7824 45.1053 78.8345 44.4334 78.8345 43.4438V42.6313ZM87.1001 50.1001V28.6313H91.2251V40.022L96.0376 34.5376H101.116L95.7876 40.2251L101.491 50.1001H97.0532L93.147 43.1157L91.2251 45.1157V50.1001H87.1001ZM104.256 32.4282V28.6313H108.366V32.4282H104.256ZM104.256 50.1001V34.5376H108.366V50.1001H104.256ZM111.944 34.5376H115.741V36.6626C117.095 35.0168 118.709 34.1938 120.584 34.1938C121.584 34.1938 122.449 34.4022 123.178 34.8188C123.918 35.2251 124.522 35.8397 124.991 36.6626C125.668 35.8397 126.402 35.2251 127.194 34.8188C127.986 34.4022 128.829 34.1938 129.725 34.1938C130.871 34.1938 131.84 34.4282 132.631 34.897C133.423 35.3553 134.012 36.0324 134.397 36.9282C134.689 37.5949 134.834 38.6678 134.834 40.147V50.1001H130.709V41.2095C130.709 39.6678 130.569 38.673 130.288 38.2251C129.902 37.6313 129.314 37.3345 128.522 37.3345C127.949 37.3345 127.407 37.5116 126.897 37.8657C126.397 38.2199 126.032 38.7355 125.803 39.4126C125.574 40.0897 125.459 41.1626 125.459 42.6313V50.1001H121.35V41.5688C121.35 40.0584 121.277 39.0845 121.131 38.647C120.986 38.2095 120.756 37.8813 120.444 37.6626C120.142 37.4438 119.725 37.3345 119.194 37.3345C118.558 37.3345 117.986 37.5063 117.475 37.8501C116.975 38.1938 116.616 38.6886 116.397 39.3345C116.178 39.9803 116.069 41.048 116.069 42.5376V50.1001H111.944V34.5376ZM146.131 34.5376H149.975V36.8345C150.475 36.0532 151.147 35.4178 151.991 34.9282C152.845 34.4386 153.788 34.1938 154.819 34.1938C156.631 34.1938 158.168 34.9022 159.428 36.3188C160.689 37.7355 161.319 39.7095 161.319 42.2407C161.319 44.8345 160.683 46.8553 159.413 48.3032C158.142 49.7407 156.6 50.4595 154.788 50.4595C153.933 50.4595 153.157 50.2876 152.459 49.9438C151.762 49.6001 151.027 49.0116 150.256 48.1782V56.022H146.131V34.5376ZM150.209 42.0532C150.209 43.8032 150.553 45.0949 151.241 45.9282C151.939 46.7616 152.788 47.1782 153.788 47.1782C154.746 47.1782 155.538 46.798 156.163 46.0376C156.798 45.2668 157.116 44.0063 157.116 42.2563C157.116 40.6313 156.788 39.423 156.131 38.6313C155.486 37.8397 154.678 37.4438 153.709 37.4438C152.699 37.4438 151.861 37.8345 151.194 38.6157C150.538 39.3866 150.209 40.5324 150.209 42.0532ZM168.194 50.1001H164.084V34.5376H167.897V36.7563C168.553 35.7147 169.142 35.0272 169.663 34.6938C170.183 34.3605 170.777 34.1938 171.444 34.1938C172.381 34.1938 173.288 34.4543 174.163 34.9751L172.881 38.5532C172.183 38.1053 171.538 37.8813 170.944 37.8813C170.371 37.8813 169.881 38.0428 169.475 38.3657C169.079 38.6782 168.767 39.2511 168.538 40.0845C168.308 40.9074 168.194 42.6418 168.194 45.2876V50.1001ZM174.6 50.1001V46.897L180.428 40.1938C181.387 39.1001 182.095 38.3241 182.553 37.8657C182.074 37.897 181.444 37.9178 180.663 37.9282L175.163 37.9595V34.5376H188.038V37.4595L182.084 44.3188L179.991 46.5845C181.137 46.5116 181.845 46.4751 182.116 46.4751H188.491V50.1001H174.6ZM200.256 45.147L204.366 45.8345C203.834 47.3449 203.001 48.4959 201.866 49.2876C200.73 50.0688 199.308 50.4595 197.6 50.4595C194.892 50.4595 192.887 49.5741 191.584 47.8032C190.564 46.3866 190.053 44.6001 190.053 42.4438C190.053 39.8605 190.725 37.8397 192.069 36.3813C193.423 34.923 195.131 34.1938 197.194 34.1938C199.506 34.1938 201.329 34.9595 202.663 36.4907C204.006 38.0116 204.647 40.3501 204.584 43.5063H194.272C194.303 44.7251 194.637 45.6782 195.272 46.3657C195.907 47.0428 196.699 47.3813 197.647 47.3813C198.282 47.3813 198.819 47.2043 199.256 46.8501C199.704 46.4959 200.038 45.9282 200.256 45.147ZM200.491 40.9907C200.47 39.7928 200.163 38.8866 199.569 38.272C198.986 37.647 198.272 37.3345 197.428 37.3345C196.532 37.3345 195.793 37.6626 195.209 38.3188C194.626 38.9751 194.34 39.8657 194.35 40.9907H200.491ZM222.522 50.1001H218.694V47.8188C218.058 48.7043 217.308 49.3657 216.444 49.8032C215.579 50.2407 214.709 50.4595 213.834 50.4595C212.043 50.4595 210.512 49.7407 209.241 48.3032C207.97 46.8553 207.334 44.8397 207.334 42.2563C207.334 39.6209 207.954 37.6209 209.194 36.2563C210.433 34.8813 212.001 34.1938 213.897 34.1938C215.637 34.1938 217.142 34.9178 218.413 36.3657V28.6313H222.522V50.1001ZM211.538 41.9907C211.538 43.647 211.767 44.8449 212.225 45.5845C212.892 46.6574 213.819 47.1938 215.006 47.1938C215.954 47.1938 216.756 46.7928 217.413 45.9907C218.079 45.1886 218.413 43.9855 218.413 42.3813C218.413 40.5897 218.09 39.3032 217.444 38.522C216.808 37.7303 215.986 37.3345 214.975 37.3345C213.996 37.3345 213.178 37.7251 212.522 38.5063C211.866 39.2772 211.538 40.4386 211.538 41.9907ZM224.6 50.1001V46.897L230.428 40.1938C231.387 39.1001 232.095 38.3241 232.553 37.8657C232.074 37.897 231.444 37.9178 230.663 37.9282L225.163 37.9595V34.5376H238.038V37.4595L232.084 44.3188L229.991 46.5845C231.137 46.5116 231.845 46.4751 232.116 46.4751H238.491V50.1001H224.6ZM241.256 32.4282V28.6313H245.366V32.4282H241.256ZM241.256 50.1001V34.5376H245.366V50.1001H241.256ZM252.334 39.2876L248.6 38.6157C249.017 37.1157 249.736 36.0063 250.756 35.2876C251.788 34.5584 253.314 34.1938 255.334 34.1938C257.168 34.1938 258.532 34.4126 259.428 34.8501C260.334 35.2772 260.97 35.8293 261.334 36.5063C261.699 37.173 261.881 38.397 261.881 40.1782L261.834 44.9907C261.834 46.3553 261.897 47.3657 262.022 48.022C262.157 48.6678 262.407 49.3605 262.772 50.1001H258.709C258.595 49.8293 258.459 49.423 258.303 48.8813C258.241 48.6418 258.194 48.4803 258.163 48.397C257.454 49.0845 256.699 49.6001 255.897 49.9438C255.105 50.2876 254.251 50.4595 253.334 50.4595C251.741 50.4595 250.48 50.0272 249.553 49.1626C248.626 48.2876 248.163 47.1834 248.163 45.8501C248.163 44.9751 248.371 44.1938 248.788 43.5063C249.215 42.8188 249.803 42.2928 250.553 41.9282C251.314 41.5532 252.407 41.2303 253.834 40.9595C255.762 40.5949 257.095 40.2563 257.834 39.9438V39.5376C257.834 38.7459 257.637 38.1834 257.241 37.8501C256.855 37.5063 256.121 37.3345 255.038 37.3345C254.308 37.3345 253.736 37.4803 253.319 37.772C252.913 38.0636 252.584 38.5688 252.334 39.2876ZM257.834 42.6313C257.314 42.8084 256.48 43.022 255.334 43.272C254.189 43.5116 253.439 43.7459 253.084 43.9751C252.553 44.3605 252.288 44.8449 252.288 45.4282C252.288 46.0011 252.501 46.5011 252.928 46.9282C253.355 47.3449 253.902 47.5532 254.569 47.5532C255.308 47.5532 256.017 47.3084 256.694 46.8188C257.194 46.4438 257.522 45.9907 257.678 45.4595C257.782 45.1053 257.834 44.4334 257.834 43.4438V42.6313ZM266.256 50.1001V28.6313H270.366V50.1001H266.256ZM283.256 45.147L287.366 45.8345C286.834 47.3449 286.001 48.4959 284.866 49.2876C283.73 50.0688 282.308 50.4595 280.6 50.4595C277.892 50.4595 275.887 49.5741 274.584 47.8032C273.564 46.3866 273.053 44.6001 273.053 42.4438C273.053 39.8605 273.725 37.8397 275.069 36.3813C276.423 34.923 278.131 34.1938 280.194 34.1938C282.506 34.1938 284.329 34.9595 285.663 36.4907C287.006 38.0116 287.647 40.3501 287.584 43.5063H277.272C277.303 44.7251 277.637 45.6782 278.272 46.3657C278.907 47.0428 279.699 47.3813 280.647 47.3813C281.282 47.3813 281.819 47.2043 282.256 46.8501C282.704 46.4959 283.038 45.9282 283.256 45.147ZM283.491 40.9907C283.47 39.7928 283.163 38.8866 282.569 38.272C281.986 37.647 281.272 37.3345 280.428 37.3345C279.532 37.3345 278.793 37.6626 278.209 38.3188C277.626 38.9751 277.34 39.8657 277.35 40.9907H283.491ZM302.147 50.1001L297.225 34.5376H301.225L304.147 44.7407L306.834 34.5376H310.803L313.397 44.7407L316.366 34.5376H320.428L315.428 50.1001H311.475L308.788 40.1001L306.147 50.1001H302.147ZM324.256 32.4282V28.6313H328.366V32.4282H324.256ZM324.256 50.1001V34.5376H328.366V50.1001H324.256ZM341.256 45.147L345.366 45.8345C344.834 47.3449 344.001 48.4959 342.866 49.2876C341.73 50.0688 340.308 50.4595 338.6 50.4595C335.892 50.4595 333.887 49.5741 332.584 47.8032C331.564 46.3866 331.053 44.6001 331.053 42.4438C331.053 39.8605 331.725 37.8397 333.069 36.3813C334.423 34.923 336.131 34.1938 338.194 34.1938C340.506 34.1938 342.329 34.9595 343.663 36.4907C345.006 38.0116 345.647 40.3501 345.584 43.5063H335.272C335.303 44.7251 335.637 45.6782 336.272 46.3657C336.907 47.0428 337.699 47.3813 338.647 47.3813C339.282 47.3813 339.819 47.2043 340.256 46.8501C340.704 46.4959 341.038 45.9282 341.256 45.147ZM341.491 40.9907C341.47 39.7928 341.163 38.8866 340.569 38.272C339.986 37.647 339.272 37.3345 338.428 37.3345C337.532 37.3345 336.793 37.6626 336.209 38.3188C335.626 38.9751 335.34 39.8657 335.35 40.9907H341.491ZM349.1 50.1001V28.6313H353.225V40.022L358.038 34.5376H363.116L357.788 40.2251L363.491 50.1001H359.053L355.147 43.1157L353.225 45.1157V50.1001H349.1ZM365.303 42.1001C365.303 40.7355 365.637 39.4126 366.303 38.1313C366.98 36.8501 367.933 35.8761 369.163 35.2095C370.402 34.5324 371.788 34.1938 373.319 34.1938C375.673 34.1938 377.6 34.9595 379.1 36.4907C380.6 38.0116 381.35 39.9386 381.35 42.272C381.35 44.6261 380.59 46.5793 379.069 48.1313C377.558 49.6834 375.652 50.4595 373.35 50.4595C371.923 50.4595 370.558 50.1366 369.256 49.4907C367.965 48.8449 366.98 47.9022 366.303 46.6626C365.637 45.4126 365.303 43.8918 365.303 42.1001ZM369.522 42.3188C369.522 43.8605 369.887 45.0428 370.616 45.8657C371.355 46.6886 372.262 47.1001 373.334 47.1001C374.407 47.1001 375.303 46.6886 376.022 45.8657C376.751 45.0428 377.116 43.8501 377.116 42.2876C377.116 40.7668 376.751 39.6001 376.022 38.7876C375.303 37.9647 374.407 37.5532 373.334 37.5532C372.262 37.5532 371.355 37.9647 370.616 38.7876C369.887 39.6001 369.522 40.7772 369.522 42.3188ZM387.147 50.1001L382.225 34.5376H386.225L389.147 44.7407L391.834 34.5376H395.803L398.397 44.7407L401.366 34.5376H405.428L400.428 50.1001H396.475L393.788 40.1001L391.147 50.1001H387.147ZM407.303 34.5376H411.678L415.413 45.5845L419.038 34.5376H423.303L417.803 49.5063L416.834 52.2251C416.47 53.1313 416.121 53.8241 415.788 54.3032C415.465 54.7824 415.09 55.1678 414.663 55.4595C414.236 55.7616 413.709 55.9959 413.084 56.1626C412.47 56.3293 411.772 56.4126 410.991 56.4126C410.199 56.4126 409.423 56.3293 408.663 56.1626L408.303 52.9438C408.949 53.0688 409.527 53.1313 410.038 53.1313C410.996 53.1313 411.704 52.8501 412.163 52.2876C412.621 51.7251 412.975 51.0116 413.225 50.147L407.303 34.5376ZM424.944 34.5376H428.741V36.6626C430.095 35.0168 431.709 34.1938 433.584 34.1938C434.584 34.1938 435.449 34.4022 436.178 34.8188C436.918 35.2251 437.522 35.8397 437.991 36.6626C438.668 35.8397 439.402 35.2251 440.194 34.8188C440.986 34.4022 441.829 34.1938 442.725 34.1938C443.871 34.1938 444.84 34.4282 445.631 34.897C446.423 35.3553 447.012 36.0324 447.397 36.9282C447.689 37.5949 447.834 38.6678 447.834 40.147V50.1001H443.709V41.2095C443.709 39.6678 443.569 38.673 443.288 38.2251C442.902 37.6313 442.314 37.3345 441.522 37.3345C440.949 37.3345 440.407 37.5116 439.897 37.8657C439.397 38.2199 439.032 38.7355 438.803 39.4126C438.574 40.0897 438.459 41.1626 438.459 42.6313V50.1001H434.35V41.5688C434.35 40.0584 434.277 39.0845 434.131 38.647C433.986 38.2095 433.756 37.8813 433.444 37.6626C433.142 37.4438 432.725 37.3345 432.194 37.3345C431.558 37.3345 430.986 37.5063 430.475 37.8501C429.975 38.1938 429.616 38.6886 429.397 39.3345C429.178 39.9803 429.069 41.048 429.069 42.5376V50.1001H424.944V34.5376ZM459.163 32.4282V28.6313H463.288V32.4282H459.163ZM463.288 34.5376V49.6157C463.288 51.5949 463.157 52.9907 462.897 53.8032C462.637 54.6261 462.137 55.2668 461.397 55.7251C460.657 56.1834 459.72 56.4126 458.584 56.4126C458.168 56.4126 457.72 56.3761 457.241 56.3032C456.772 56.2303 456.267 56.1209 455.725 55.9751L456.444 52.4595C456.642 52.5011 456.824 52.5324 456.991 52.5532C457.157 52.5741 457.314 52.5845 457.459 52.5845C457.887 52.5845 458.23 52.4959 458.491 52.3188C458.762 52.1418 458.939 51.923 459.022 51.6626C459.116 51.4126 459.163 50.6522 459.163 49.3813V34.5376H463.288ZM477.256 45.147L481.366 45.8345C480.834 47.3449 480.001 48.4959 478.866 49.2876C477.73 50.0688 476.308 50.4595 474.6 50.4595C471.892 50.4595 469.887 49.5741 468.584 47.8032C467.564 46.3866 467.053 44.6001 467.053 42.4438C467.053 39.8605 467.725 37.8397 469.069 36.3813C470.423 34.923 472.131 34.1938 474.194 34.1938C476.506 34.1938 478.329 34.9595 479.663 36.4907C481.006 38.0116 481.647 40.3501 481.584 43.5063H471.272C471.303 44.7251 471.637 45.6782 472.272 46.3657C472.907 47.0428 473.699 47.3813 474.647 47.3813C475.282 47.3813 475.819 47.2043 476.256 46.8501C476.704 46.4959 477.038 45.9282 477.256 45.147ZM477.491 40.9907C477.47 39.7928 477.163 38.8866 476.569 38.272C475.986 37.647 475.272 37.3345 474.428 37.3345C473.532 37.3345 472.793 37.6626 472.209 38.3188C471.626 38.9751 471.34 39.8657 471.35 40.9907H477.491ZM483.803 45.6626L487.928 45.0376C488.105 45.8293 488.459 46.4334 488.991 46.8501C489.532 47.2668 490.288 47.4751 491.256 47.4751C492.319 47.4751 493.121 47.2824 493.663 46.897C494.027 46.6157 494.209 46.2459 494.209 45.7876C494.209 45.4751 494.111 45.2199 493.913 45.022C493.704 44.8241 493.246 44.6418 492.538 44.4751C489.215 43.7459 487.111 43.0793 486.225 42.4751C484.996 41.6313 484.381 40.4595 484.381 38.9595C484.381 37.6157 484.913 36.4855 485.975 35.5688C487.038 34.6522 488.689 34.1938 490.928 34.1938C493.053 34.1938 494.631 34.5428 495.663 35.2407C496.704 35.9282 497.418 36.9491 497.803 38.3032L493.928 39.022C493.762 38.4178 493.444 37.9543 492.975 37.6313C492.517 37.3084 491.855 37.147 490.991 37.147C489.907 37.147 489.131 37.298 488.663 37.6001C488.35 37.8188 488.194 38.1001 488.194 38.4438C488.194 38.7355 488.334 38.9855 488.616 39.1938C488.98 39.4647 490.256 39.8501 492.444 40.3501C494.642 40.8397 496.178 41.4491 497.053 42.1782C497.907 42.9074 498.334 43.9282 498.334 45.2407C498.334 46.6678 497.736 47.897 496.538 48.9282C495.35 49.9491 493.59 50.4595 491.256 50.4595C489.142 50.4595 487.465 50.0272 486.225 49.1626C484.996 48.298 484.189 47.1313 483.803 45.6626ZM509.381 34.5376V37.8188H506.569V44.1001C506.569 45.3605 506.595 46.1001 506.647 46.3188C506.709 46.5272 506.834 46.6991 507.022 46.8345C507.209 46.9699 507.444 47.0376 507.725 47.0376C508.1 47.0376 508.647 46.9074 509.366 46.647L509.725 49.8345C508.767 50.2511 507.683 50.4595 506.475 50.4595C505.736 50.4595 505.064 50.3345 504.459 50.0845C503.866 49.8345 503.428 49.5116 503.147 49.1157C502.876 48.7199 502.683 48.1834 502.569 47.5063C502.486 47.0272 502.444 46.0584 502.444 44.6001V37.8188H500.553V34.5376H502.444V31.4595L506.569 29.0532V34.5376H509.381ZM521.256 45.147L525.366 45.8345C524.834 47.3449 524.001 48.4959 522.866 49.2876C521.73 50.0688 520.308 50.4595 518.6 50.4595C515.892 50.4595 513.887 49.5741 512.584 47.8032C511.564 46.3866 511.053 44.6001 511.053 42.4438C511.053 39.8605 511.725 37.8397 513.069 36.3813C514.423 34.923 516.131 34.1938 518.194 34.1938C520.506 34.1938 522.329 34.9595 523.663 36.4907C525.006 38.0116 525.647 40.3501 525.584 43.5063H515.272C515.303 44.7251 515.637 45.6782 516.272 46.3657C516.907 47.0428 517.699 47.3813 518.647 47.3813C519.282 47.3813 519.819 47.2043 520.256 46.8501C520.704 46.4959 521.038 45.9282 521.256 45.147ZM521.491 40.9907C521.47 39.7928 521.163 38.8866 520.569 38.272C519.985 37.647 519.272 37.3345 518.428 37.3345C517.532 37.3345 516.793 37.6626 516.209 38.3188C515.626 38.9751 515.34 39.8657 515.35 40.9907H521.491ZM527.803 45.6626L531.928 45.0376C532.105 45.8293 532.459 46.4334 532.991 46.8501C533.532 47.2668 534.288 47.4751 535.256 47.4751C536.319 47.4751 537.121 47.2824 537.663 46.897C538.027 46.6157 538.209 46.2459 538.209 45.7876C538.209 45.4751 538.11 45.2199 537.913 45.022C537.704 44.8241 537.246 44.6418 536.538 44.4751C533.215 43.7459 531.11 43.0793 530.225 42.4751C528.996 41.6313 528.381 40.4595 528.381 38.9595C528.381 37.6157 528.913 36.4855 529.975 35.5688C531.038 34.6522 532.689 34.1938 534.928 34.1938C537.053 34.1938 538.631 34.5428 539.663 35.2407C540.704 35.9282 541.418 36.9491 541.803 38.3032L537.928 39.022C537.762 38.4178 537.444 37.9543 536.975 37.6313C536.517 37.3084 535.855 37.147 534.991 37.147C533.907 37.147 533.131 37.298 532.663 37.6001C532.35 37.8188 532.194 38.1001 532.194 38.4438C532.194 38.7355 532.334 38.9855 532.616 39.1938C532.98 39.4647 534.256 39.8501 536.444 40.3501C538.642 40.8397 540.178 41.4491 541.053 42.1782C541.907 42.9074 542.334 43.9282 542.334 45.2407C542.334 46.6678 541.735 47.897 540.538 48.9282C539.35 49.9491 537.59 50.4595 535.256 50.4595C533.142 50.4595 531.465 50.0272 530.225 49.1626C528.996 48.298 528.189 47.1313 527.803 45.6626ZM533.741 32.6313L535.772 28.2563H540.381L536.35 32.6313H533.741ZM555.1 44.5688H551.366C551.355 44.0272 551.35 43.6991 551.35 43.5845C551.35 42.3761 551.548 41.3813 551.944 40.6001C552.35 39.8188 553.152 38.9386 554.35 37.9595C555.558 36.9803 556.277 36.3397 556.506 36.0376C556.871 35.5584 557.053 35.0324 557.053 34.4595C557.053 33.6574 556.73 32.9699 556.084 32.397C555.449 31.8241 554.59 31.5376 553.506 31.5376C552.465 31.5376 551.59 31.8397 550.881 32.4438C550.183 33.0376 549.699 33.9438 549.428 35.1626L545.647 34.6938C545.762 32.9438 546.506 31.4595 547.881 30.2407C549.267 29.022 551.084 28.4126 553.334 28.4126C555.699 28.4126 557.579 29.0324 558.975 30.272C560.371 31.5011 561.069 32.9334 561.069 34.5688C561.069 35.4751 560.808 36.3345 560.288 37.147C559.777 37.9595 558.683 39.0636 557.006 40.4595C556.142 41.1782 555.6 41.7616 555.381 42.2095C555.173 42.647 555.079 43.4334 555.1 44.5688ZM551.366 50.1001V45.9907H555.475V50.1001H551.366Z" fill="black"/>
</svg>
