<svg width="1131" height="443" viewBox="0 0 1131 443" fill="none" xmlns="http://www.w3.org/2000/svg">
<g clip-path="url(#clip0)">
<path d="M0 0.921875H1131V442.922H0V0.921875Z" fill="white"/>
<path d="M41.6777 46.5532C40.834 47.5636 39.6413 48.3501 38.0996 48.9126C36.5579 49.4647 34.8496 49.7407 32.9746 49.7407C31.0059 49.7407 29.2767 49.3136 27.7871 48.4595C26.3079 47.5949 25.1621 46.3449 24.3496 44.7095C23.5475 43.0741 23.1361 41.1522 23.1152 38.9438V37.397C23.1152 35.1261 23.4954 33.1626 24.2559 31.5063C25.0267 29.8397 26.1309 28.5688 27.5684 27.6938C29.0163 26.8084 30.709 26.3657 32.6465 26.3657C35.3444 26.3657 37.4538 27.0116 38.9746 28.3032C40.4954 29.5845 41.3965 31.4543 41.6777 33.9126H37.1152C36.9069 32.6105 36.4434 31.6574 35.7246 31.0532C35.0163 30.4491 34.0371 30.147 32.7871 30.147C31.1934 30.147 29.9798 30.7459 29.1465 31.9438C28.3132 33.1418 27.8913 34.923 27.8809 37.2876V38.7407C27.8809 41.1261 28.334 42.9282 29.2402 44.147C30.1465 45.3657 31.4746 45.9751 33.2246 45.9751C34.985 45.9751 36.2402 45.6001 36.9902 44.8501V40.9282H32.7246V37.4751H41.6777V46.5532ZM52.9746 49.7407C50.4954 49.7407 48.4746 48.9803 46.9121 47.4595C45.36 45.9386 44.584 43.9126 44.584 41.3813V40.9438C44.584 39.2459 44.9121 37.7303 45.5684 36.397C46.2246 35.0532 47.1517 34.022 48.3496 33.3032C49.5579 32.5741 50.9329 32.2095 52.4746 32.2095C54.7871 32.2095 56.6048 32.9386 57.9277 34.397C59.2611 35.8553 59.9277 37.923 59.9277 40.6001V42.4438H49.1621C49.3079 43.548 49.7454 44.4334 50.4746 45.1001C51.2142 45.7668 52.1465 46.1001 53.2715 46.1001C55.0111 46.1001 56.3704 45.4699 57.3496 44.2095L59.5684 46.6938C58.8913 47.6522 57.9746 48.4022 56.8184 48.9438C55.6621 49.4751 54.3809 49.7407 52.9746 49.7407ZM52.459 35.8657C51.5632 35.8657 50.834 36.1678 50.2715 36.772C49.7194 37.3761 49.3652 38.2407 49.209 39.3657H55.4902V39.0063C55.4694 38.0063 55.1986 37.2355 54.6777 36.6938C54.1569 36.1418 53.4173 35.8657 52.459 35.8657ZM66.6621 32.522L66.8027 34.4751C68.0111 32.9647 69.6309 32.2095 71.6621 32.2095C73.4538 32.2095 74.7871 32.7355 75.6621 33.7876C76.5371 34.8397 76.985 36.4126 77.0059 38.5063V49.4282H72.4902V38.6157C72.4902 37.6574 72.2819 36.9647 71.8652 36.5376C71.4486 36.1001 70.7559 35.8813 69.7871 35.8813C68.5163 35.8813 67.5632 36.423 66.9277 37.5063V49.4282H62.4121V32.522H66.6621ZM79.7402 40.8501C79.7402 38.2147 80.3288 36.1157 81.5059 34.5532C82.6934 32.9907 84.3132 32.2095 86.3652 32.2095C88.0111 32.2095 89.3704 32.8241 90.4434 34.0532V25.4282H94.9746V49.4282H90.8965L90.6777 47.6313C89.5527 49.0376 88.1048 49.7407 86.334 49.7407C84.3444 49.7407 82.7454 48.9595 81.5371 47.397C80.3392 45.8241 79.7402 43.6418 79.7402 40.8501ZM84.2559 41.1782C84.2559 42.7616 84.5319 43.9751 85.084 44.8188C85.6361 45.6626 86.4382 46.0845 87.4902 46.0845C88.8861 46.0845 89.8704 45.4959 90.4434 44.3188V37.647C89.8809 36.4699 88.9069 35.8813 87.5215 35.8813C85.3444 35.8813 84.2559 37.647 84.2559 41.1782ZM106.256 49.7407C103.777 49.7407 101.756 48.9803 100.193 47.4595C98.6413 45.9386 97.8652 43.9126 97.8652 41.3813V40.9438C97.8652 39.2459 98.1934 37.7303 98.8496 36.397C99.5059 35.0532 100.433 34.022 101.631 33.3032C102.839 32.5741 104.214 32.2095 105.756 32.2095C108.068 32.2095 109.886 32.9386 111.209 34.397C112.542 35.8553 113.209 37.923 113.209 40.6001V42.4438H102.443C102.589 43.548 103.027 44.4334 103.756 45.1001C104.495 45.7668 105.428 46.1001 106.553 46.1001C108.292 46.1001 109.652 45.4699 110.631 44.2095L112.85 46.6938C112.173 47.6522 111.256 48.4022 110.1 48.9438C108.943 49.4751 107.662 49.7407 106.256 49.7407ZM105.74 35.8657C104.844 35.8657 104.115 36.1678 103.553 36.772C103.001 37.3761 102.646 38.2407 102.49 39.3657H108.771V39.0063C108.751 38.0063 108.48 37.2355 107.959 36.6938C107.438 36.1418 106.699 35.8657 105.74 35.8657ZM125.287 36.7563C124.673 36.673 124.131 36.6313 123.662 36.6313C121.954 36.6313 120.834 37.2095 120.303 38.3657V49.4282H115.787V32.522H120.053L120.178 34.5376C121.084 32.9855 122.339 32.2095 123.943 32.2095C124.443 32.2095 124.912 32.2772 125.35 32.4126L125.287 36.7563Z" fill="black"/>
<path d="M179.958 393.194C114.986 351.44 85.305 271.861 107.064 197.757C128.822 123.654 196.816 72.7549 274.048 72.7549V238.087C270.186 238.087 266.786 240.632 265.698 244.337C264.61 248.042 266.094 252.021 269.343 254.109L179.958 393.194Z" fill="#EA4335"/>
<path d="M274.048 72.7549C348.224 72.7549 414.248 119.771 438.509 189.867C462.77 259.964 439.934 337.735 381.628 383.588C323.321 429.441 242.359 433.297 179.958 393.194L269.343 254.109C272.463 256.114 276.511 255.921 279.427 253.628C282.342 251.336 283.484 247.447 282.271 243.942C281.058 240.437 277.756 238.087 274.048 238.087V72.7549Z" fill="#4285F4"/>
<path d="M352.491 282.864L354.709 282.677C354.866 283.75 355.241 284.562 355.834 285.114C356.439 285.656 357.163 285.927 358.006 285.927C359.027 285.927 359.887 285.547 360.584 284.786C361.293 284.015 361.647 282.994 361.647 281.724C361.647 280.526 361.308 279.578 360.631 278.88C359.954 278.182 359.069 277.833 357.975 277.833C357.298 277.833 356.683 277.989 356.131 278.302C355.59 278.604 355.163 279.005 354.85 279.505L352.866 279.239L354.522 270.411H363.069V272.427H356.209L355.288 277.052C356.319 276.333 357.402 275.974 358.538 275.974C360.038 275.974 361.303 276.494 362.334 277.536C363.366 278.567 363.881 279.901 363.881 281.536C363.881 283.088 363.428 284.432 362.522 285.567C361.418 286.963 359.913 287.661 358.006 287.661C356.444 287.661 355.168 287.224 354.178 286.349C353.189 285.474 352.626 284.312 352.491 282.864ZM365.803 283.396L367.834 283.208C368.001 284.156 368.324 284.849 368.803 285.286C369.293 285.713 369.918 285.927 370.678 285.927C371.324 285.927 371.892 285.781 372.381 285.489C372.871 285.187 373.272 284.786 373.584 284.286C373.897 283.786 374.157 283.114 374.366 282.271C374.584 281.427 374.694 280.567 374.694 279.692C374.694 279.599 374.689 279.458 374.678 279.271C374.251 279.948 373.673 280.494 372.944 280.911C372.215 281.328 371.423 281.536 370.569 281.536C369.152 281.536 367.949 281.021 366.959 279.989C365.98 278.958 365.491 277.599 365.491 275.911C365.491 274.172 366.001 272.771 367.022 271.708C368.053 270.646 369.345 270.114 370.897 270.114C372.012 270.114 373.032 270.416 373.959 271.021C374.887 271.614 375.59 272.468 376.069 273.583C376.548 274.698 376.788 276.312 376.788 278.427C376.788 280.614 376.548 282.359 376.069 283.661C375.59 284.963 374.881 285.958 373.944 286.646C373.006 287.323 371.902 287.661 370.631 287.661C369.288 287.661 368.189 287.286 367.334 286.536C366.491 285.786 365.98 284.739 365.803 283.396ZM374.444 275.802C374.444 274.593 374.121 273.635 373.475 272.927C372.829 272.218 372.053 271.864 371.147 271.864C370.209 271.864 369.392 272.25 368.694 273.021C368.006 273.781 367.663 274.771 367.663 275.989C367.663 277.083 367.991 277.974 368.647 278.661C369.303 279.338 370.116 279.677 371.084 279.677C372.064 279.677 372.866 279.338 373.491 278.661C374.126 277.974 374.444 277.021 374.444 275.802ZM379.631 287.364V284.958H382.022V287.364C382.022 288.25 381.866 288.963 381.553 289.505C381.241 290.047 380.746 290.468 380.069 290.771L379.491 289.864C379.928 289.666 380.251 289.375 380.459 288.989C380.678 288.614 380.798 288.073 380.819 287.364H379.631ZM393.428 287.364H391.319V273.927C390.819 274.406 390.152 274.89 389.319 275.38C388.496 275.859 387.756 276.218 387.1 276.458V274.427C388.288 273.875 389.319 273.203 390.194 272.411C391.079 271.619 391.704 270.854 392.069 270.114H393.428V287.364ZM398.881 274.302C398.881 273.083 399.189 272.047 399.803 271.192C400.428 270.328 401.324 269.896 402.491 269.896C403.574 269.896 404.47 270.281 405.178 271.052C405.887 271.812 406.241 272.942 406.241 274.442C406.241 275.89 405.881 277.01 405.163 277.802C404.444 278.583 403.564 278.974 402.522 278.974C401.48 278.974 400.611 278.588 399.913 277.817C399.225 277.036 398.881 275.864 398.881 274.302ZM402.553 271.349C402.032 271.349 401.595 271.578 401.241 272.036C400.897 272.484 400.725 273.312 400.725 274.521C400.725 275.625 400.902 276.401 401.256 276.849C401.611 277.297 402.043 277.521 402.553 277.521C403.084 277.521 403.522 277.297 403.866 276.849C404.22 276.39 404.397 275.557 404.397 274.349C404.397 273.244 404.22 272.468 403.866 272.021C403.512 271.573 403.074 271.349 402.553 271.349ZM402.569 288.005L411.959 269.896H413.678L404.319 288.005H402.569ZM409.991 283.333C409.991 282.093 410.298 281.047 410.913 280.192C411.538 279.338 412.439 278.911 413.616 278.911C414.699 278.911 415.59 279.297 416.288 280.067C416.996 280.838 417.35 281.968 417.35 283.458C417.35 284.916 416.991 286.041 416.272 286.833C415.564 287.614 414.683 288.005 413.631 288.005C412.59 288.005 411.72 287.614 411.022 286.833C410.334 286.052 409.991 284.885 409.991 283.333ZM413.678 280.364C413.147 280.364 412.704 280.593 412.35 281.052C412.006 281.5 411.834 282.328 411.834 283.536C411.834 284.63 412.012 285.406 412.366 285.864C412.72 286.312 413.152 286.536 413.663 286.536C414.204 286.536 414.647 286.312 414.991 285.864C415.345 285.406 415.522 284.578 415.522 283.38C415.522 282.265 415.345 281.484 414.991 281.036C414.637 280.588 414.199 280.364 413.678 280.364Z" fill="black"/>
<path d="M137.37 222.212V218.103H129.917V216.166L137.745 205.025H139.479V216.166H141.792V218.103H139.479V222.212H137.37ZM137.37 216.166V208.416L131.979 216.166H137.37ZM143.604 213.744C143.604 211.712 143.813 210.077 144.229 208.837C144.646 207.598 145.266 206.645 146.089 205.978C146.912 205.301 147.948 204.962 149.198 204.962C150.125 204.962 150.933 205.15 151.62 205.525C152.318 205.889 152.891 206.421 153.339 207.119C153.797 207.817 154.157 208.671 154.417 209.681C154.677 210.681 154.808 212.035 154.808 213.744C154.808 215.754 154.599 217.379 154.183 218.619C153.766 219.858 153.146 220.817 152.323 221.494C151.5 222.171 150.459 222.509 149.198 222.509C147.542 222.509 146.245 221.916 145.308 220.728C144.172 219.291 143.604 216.962 143.604 213.744ZM145.776 213.744C145.776 216.556 146.104 218.431 146.761 219.369C147.417 220.306 148.229 220.775 149.198 220.775C150.167 220.775 150.979 220.306 151.636 219.369C152.302 218.431 152.636 216.556 152.636 213.744C152.636 210.91 152.302 209.03 151.636 208.103C150.979 207.176 150.162 206.712 149.183 206.712C148.214 206.712 147.438 207.119 146.854 207.931C146.136 208.983 145.776 210.921 145.776 213.744ZM157.745 222.212V219.806H160.136V222.212C160.136 223.098 159.979 223.811 159.667 224.353C159.354 224.895 158.86 225.317 158.183 225.619L157.604 224.712C158.042 224.514 158.365 224.223 158.573 223.837C158.792 223.462 158.912 222.921 158.933 222.212H157.745ZM163.917 218.244L165.948 218.056C166.115 219.004 166.438 219.697 166.917 220.134C167.407 220.561 168.032 220.775 168.792 220.775C169.438 220.775 170.006 220.629 170.495 220.337C170.985 220.035 171.386 219.634 171.698 219.134C172.011 218.634 172.271 217.962 172.479 217.119C172.698 216.275 172.808 215.416 172.808 214.541C172.808 214.447 172.802 214.306 172.792 214.119C172.365 214.796 171.787 215.343 171.058 215.759C170.328 216.176 169.537 216.384 168.683 216.384C167.266 216.384 166.063 215.869 165.073 214.837C164.094 213.806 163.604 212.447 163.604 210.759C163.604 209.02 164.115 207.619 165.136 206.556C166.167 205.494 167.459 204.962 169.011 204.962C170.125 204.962 171.146 205.264 172.073 205.869C173 206.462 173.703 207.317 174.183 208.431C174.662 209.546 174.901 211.16 174.901 213.275C174.901 215.462 174.662 217.207 174.183 218.509C173.703 219.811 172.995 220.806 172.058 221.494C171.12 222.171 170.016 222.509 168.745 222.509C167.401 222.509 166.302 222.134 165.448 221.384C164.604 220.634 164.094 219.587 163.917 218.244ZM172.558 210.65C172.558 209.442 172.235 208.483 171.589 207.775C170.943 207.067 170.167 206.712 169.261 206.712C168.323 206.712 167.506 207.098 166.808 207.869C166.12 208.629 165.776 209.619 165.776 210.837C165.776 211.931 166.104 212.822 166.761 213.509C167.417 214.186 168.229 214.525 169.198 214.525C170.177 214.525 170.979 214.186 171.604 213.509C172.24 212.822 172.558 211.869 172.558 210.65ZM176.995 209.15C176.995 207.931 177.302 206.895 177.917 206.041C178.542 205.176 179.438 204.744 180.604 204.744C181.688 204.744 182.584 205.129 183.292 205.9C184 206.66 184.354 207.791 184.354 209.291C184.354 210.738 183.995 211.858 183.276 212.65C182.558 213.431 181.677 213.822 180.636 213.822C179.594 213.822 178.724 213.436 178.026 212.666C177.339 211.884 176.995 210.712 176.995 209.15ZM180.667 206.197C180.146 206.197 179.709 206.426 179.354 206.884C179.011 207.332 178.839 208.16 178.839 209.369C178.839 210.473 179.016 211.249 179.37 211.697C179.724 212.145 180.157 212.369 180.667 212.369C181.198 212.369 181.636 212.145 181.979 211.697C182.334 211.238 182.511 210.405 182.511 209.197C182.511 208.093 182.334 207.317 181.979 206.869C181.625 206.421 181.188 206.197 180.667 206.197ZM180.683 222.853L190.073 204.744H191.792L182.433 222.853H180.683ZM188.104 218.181C188.104 216.942 188.412 215.895 189.026 215.041C189.651 214.186 190.552 213.759 191.729 213.759C192.813 213.759 193.703 214.145 194.401 214.916C195.11 215.686 195.464 216.817 195.464 218.306C195.464 219.764 195.104 220.889 194.386 221.681C193.677 222.462 192.797 222.853 191.745 222.853C190.703 222.853 189.834 222.462 189.136 221.681C188.448 220.9 188.104 219.733 188.104 218.181ZM191.792 215.212C191.261 215.212 190.818 215.442 190.464 215.9C190.12 216.348 189.948 217.176 189.948 218.384C189.948 219.478 190.125 220.254 190.479 220.712C190.834 221.16 191.266 221.384 191.776 221.384C192.318 221.384 192.761 221.16 193.104 220.712C193.459 220.254 193.636 219.426 193.636 218.228C193.636 217.113 193.459 216.332 193.104 215.884C192.75 215.436 192.313 215.212 191.792 215.212Z" fill="black"/>
<path d="M269.343 254.109C272.463 256.114 276.511 255.921 279.427 253.628C282.342 251.336 283.484 247.447 282.271 243.942C281.058 240.437 277.756 238.087 274.048 238.087V72.7549C348.224 72.7549 414.248 119.771 438.509 189.867C462.77 259.964 439.934 337.735 381.628 383.588C323.321 429.441 242.359 433.297 179.958 393.194" stroke="white" stroke-miterlimit="10" stroke-linecap="round" stroke-linejoin="round"/>
<path d="M274.048 238.087C270.186 238.087 266.786 240.632 265.698 244.337C264.61 248.042 266.094 252.021 269.343 254.109L179.958 393.194C114.986 351.44 85.305 271.861 107.064 197.757C128.822 123.654 196.816 72.7549 274.048 72.7549" stroke="white" stroke-miterlimit="10" stroke-linecap="round" stroke-linejoin="round"/>
<path d="M750.641 89.6865C750.641 93.0002 747.954 95.6865 744.641 95.6865C741.327 95.6865 738.641 93.0002 738.641 89.6865C738.641 86.3728 741.327 83.6865 744.641 83.6865C747.954 83.6865 750.641 86.3728 750.641 89.6865Z" fill="#4285F4"/>
<path d="M750.641 139.673C750.641 142.987 747.954 145.673 744.641 145.673C741.327 145.673 738.641 142.987 738.641 139.673C738.641 136.359 741.327 133.673 744.641 133.673C747.954 133.673 750.641 136.359 750.641 139.673Z" fill="#EA4335"/>
<path d="M766.658 77.624L772.236 91.5459L777.814 77.624H780.732V94.6865H778.482V88.042L778.693 80.8701L773.092 94.6865H771.369L765.779 80.9053L766.002 88.042V94.6865H763.752V77.624H766.658ZM792.193 94.6865C792.068 94.4365 791.967 93.9912 791.889 93.3506C790.881 94.3975 789.678 94.9209 788.279 94.9209C787.029 94.9209 786.002 94.5693 785.197 93.8662C784.4 93.1553 784.002 92.2568 784.002 91.1709C784.002 89.8506 784.502 88.8271 785.502 88.1006C786.51 87.3662 787.924 86.999 789.744 86.999H791.854V86.0029C791.854 85.2451 791.627 84.6436 791.174 84.1982C790.721 83.7451 790.053 83.5186 789.17 83.5186C788.396 83.5186 787.748 83.7139 787.225 84.1045C786.701 84.4951 786.439 84.9678 786.439 85.5225H784.26C784.26 84.8896 784.482 84.2803 784.928 83.6943C785.381 83.1006 785.99 82.6318 786.756 82.2881C787.529 81.9443 788.377 81.7725 789.299 81.7725C790.76 81.7725 791.904 82.1396 792.732 82.874C793.561 83.6006 793.99 84.6045 794.021 85.8857V91.7217C794.021 92.8857 794.17 93.8115 794.467 94.499V94.6865H792.193ZM788.596 93.0342C789.275 93.0342 789.92 92.8584 790.529 92.5068C791.139 92.1553 791.58 91.6982 791.854 91.1357V88.5342H790.154C787.498 88.5342 786.17 89.3115 786.17 90.8662C786.17 91.5459 786.396 92.0771 786.85 92.46C787.303 92.8428 787.885 93.0342 788.596 93.0342ZM799.775 94.6865H797.607V76.6865H799.775V94.6865ZM808.518 94.9209C806.799 94.9209 805.4 94.3584 804.322 93.2334C803.244 92.1006 802.705 90.5889 802.705 88.6982V88.2998C802.705 87.042 802.943 85.9209 803.42 84.9365C803.904 83.9443 804.576 83.1709 805.436 82.6162C806.303 82.0537 807.24 81.7725 808.248 81.7725C809.896 81.7725 811.178 82.3154 812.092 83.4014C813.006 84.4873 813.463 86.042 813.463 88.0654V88.9678H804.873C804.904 90.2178 805.268 91.2295 805.963 92.0029C806.666 92.7686 807.557 93.1514 808.635 93.1514C809.4 93.1514 810.049 92.9951 810.58 92.6826C811.111 92.3701 811.576 91.9561 811.975 91.4404L813.299 92.4717C812.236 94.1045 810.643 94.9209 808.518 94.9209ZM808.248 83.5537C807.373 83.5537 806.639 83.874 806.045 84.5146C805.451 85.1475 805.084 86.0381 804.943 87.1865H811.295V87.0225C811.232 85.9209 810.936 85.0693 810.404 84.4678C809.873 83.8584 809.154 83.5537 808.248 83.5537ZM773.162 138.151H766.002V145.687H763.752V128.624H774.322V130.476H766.002V136.312H773.162V138.151ZM781.682 145.921C779.963 145.921 778.564 145.358 777.486 144.233C776.408 143.101 775.869 141.589 775.869 139.698V139.3C775.869 138.042 776.107 136.921 776.584 135.937C777.068 134.944 777.74 134.171 778.6 133.616C779.467 133.054 780.404 132.772 781.412 132.772C783.061 132.772 784.342 133.315 785.256 134.401C786.17 135.487 786.627 137.042 786.627 139.065V139.968H778.037C778.068 141.218 778.432 142.229 779.127 143.003C779.83 143.769 780.721 144.151 781.799 144.151C782.564 144.151 783.213 143.995 783.744 143.683C784.275 143.37 784.74 142.956 785.139 142.44L786.463 143.472C785.4 145.104 783.807 145.921 781.682 145.921ZM781.412 134.554C780.537 134.554 779.803 134.874 779.209 135.515C778.615 136.147 778.248 137.038 778.107 138.187H784.459V138.022C784.396 136.921 784.1 136.069 783.568 135.468C783.037 134.858 782.318 134.554 781.412 134.554ZM791.186 133.007L791.244 134.413C792.174 133.319 793.428 132.772 795.006 132.772C796.779 132.772 797.986 133.452 798.627 134.812C799.049 134.202 799.596 133.71 800.268 133.335C800.947 132.96 801.748 132.772 802.67 132.772C805.451 132.772 806.865 134.245 806.912 137.19V145.687H804.744V137.319C804.744 136.413 804.537 135.737 804.123 135.292C803.709 134.839 803.014 134.612 802.037 134.612C801.232 134.612 800.564 134.854 800.033 135.339C799.502 135.815 799.193 136.46 799.107 137.272V145.687H796.928V137.378C796.928 135.534 796.025 134.612 794.221 134.612C792.799 134.612 791.826 135.218 791.303 136.429V145.687H789.135V133.007H791.186ZM818.021 145.687C817.896 145.437 817.795 144.991 817.717 144.351C816.709 145.397 815.506 145.921 814.107 145.921C812.857 145.921 811.83 145.569 811.025 144.866C810.229 144.155 809.83 143.257 809.83 142.171C809.83 140.851 810.33 139.827 811.33 139.101C812.338 138.366 813.752 137.999 815.572 137.999H817.682V137.003C817.682 136.245 817.455 135.644 817.002 135.198C816.549 134.745 815.881 134.519 814.998 134.519C814.225 134.519 813.576 134.714 813.053 135.104C812.529 135.495 812.268 135.968 812.268 136.522H810.088C810.088 135.89 810.311 135.28 810.756 134.694C811.209 134.101 811.818 133.632 812.584 133.288C813.357 132.944 814.205 132.772 815.127 132.772C816.588 132.772 817.732 133.14 818.561 133.874C819.389 134.601 819.818 135.604 819.85 136.886V142.722C819.85 143.886 819.998 144.812 820.295 145.499V145.687H818.021ZM814.424 144.034C815.104 144.034 815.748 143.858 816.357 143.507C816.967 143.155 817.408 142.698 817.682 142.136V139.534H815.982C813.326 139.534 811.998 140.312 811.998 141.866C811.998 142.546 812.225 143.077 812.678 143.46C813.131 143.843 813.713 144.034 814.424 144.034ZM825.604 145.687H823.436V127.687H825.604V145.687ZM834.346 145.921C832.627 145.921 831.229 145.358 830.15 144.233C829.072 143.101 828.533 141.589 828.533 139.698V139.3C828.533 138.042 828.771 136.921 829.248 135.937C829.732 134.944 830.404 134.171 831.264 133.616C832.131 133.054 833.068 132.772 834.076 132.772C835.725 132.772 837.006 133.315 837.92 134.401C838.834 135.487 839.291 137.042 839.291 139.065V139.968H830.701C830.732 141.218 831.096 142.229 831.791 143.003C832.494 143.769 833.385 144.151 834.463 144.151C835.229 144.151 835.877 143.995 836.408 143.683C836.939 143.37 837.404 142.956 837.803 142.44L839.127 143.472C838.064 145.104 836.471 145.921 834.346 145.921ZM834.076 134.554C833.201 134.554 832.467 134.874 831.873 135.515C831.279 136.147 830.912 137.038 830.771 138.187H837.123V138.022C837.061 136.921 836.764 136.069 836.232 135.468C835.701 134.858 834.982 134.554 834.076 134.554Z" fill="black"/>
</g>
<defs>
<clipPath id="clip0">
<rect width="1131" height="442" fill="white" transform="translate(0 0.921875)"/>
</clipPath>
</defs>
</svg>
